0
SECTION
2
HEADER
9
$EXTMIN
10
0
20
0
9
$EXTMAX
10
750
20
975
0
ENDSEC
0
SECTION
2
TABLES
0
TABLE
2
VPORT
70
1
0
VPORT
2
*ACTIVE
70
0
10
0
20
0
11
1
21
1
12
0
22
0
13
0
23
0
14
1
24
1
15
0
25
0
16
0
26
0
36
1
17
0
27
0
37
0
40
300
41
2.12
42
50
43
0
44
0
50
0
51
0
71
0
72
100
73
1
74
1
75
0
76
0
77
0
78
0
0
ENDTAB
0
ENDSEC
0
SECTION
2
ENTITIES
0
POLYLINE
8
1
66
1
70
0
0
VERTEX
8
1
10
70.00
20
70.00
0
VERTEX
8
1
10
75.57
20
70.00
0
VERTEX
8
1
10
75.57
20
65.00
0
VERTEX
8
1
10
86.14
20
65.00
0
VERTEX
8
1
10
86.14
20
70.00
0
VERTEX
8
1
10
96.71
20
70.00
0
VERTEX
8
1
10
96.71
20
65.00
0
VERTEX
8
1
10
107.29
20
65.00
0
VERTEX
8
1
10
107.29
20
70.00
0
VERTEX
8
1
10
117.86
20
70.00
0
VERTEX
8
1
10
117.86
20
65.00
0
VERTEX
8
1
10
128.43
20
65.00
0
VERTEX
8
1
10
128.43
20
70.00
0
VERTEX
8
1
10
139.00
20
70.00
0
VERTEX
8
1
10
139.00
20
65.00
0
VERTEX
8
1
10
149.57
20
65.00
0
VERTEX
8
1
10
149.57
20
70.00
0
VERTEX
8
1
10
160.14
20
70.00
0
VERTEX
8
1
10
160.14
20
65.00
0
VERTEX
8
1
10
170.71
20
65.00
0
VERTEX
8
1
10
170.71
20
70.00
0
VERTEX
8
1
10
181.29
20
70.00
0
VERTEX
8
1
10
181.29
20
65.00
0
VERTEX
8
1
10
191.86
20
65.00
0
VERTEX
8
1
10
191.86
20
70.00
0
VERTEX
8
1
10
202.43
20
70.00
0
VERTEX
8
1
10
202.43
20
65.00
0
VERTEX
8
1
10
213.00
20
65.00
0
VERTEX
8
1
10
213.00
20
70.00
0
VERTEX
8
1
10
223.57
20
70.00
0
VERTEX
8
1
10
223.57
20
65.00
0
VERTEX
8
1
10
234.14
20
65.00
0
VERTEX
8
1
10
234.14
20
70.00
0
VERTEX
8
1
10
244.71
20
70.00
0
VERTEX
8
1
10
244.71
20
65.00
0
VERTEX
8
1
10
255.29
20
65.00
0
VERTEX
8
1
10
255.29
20
70.00
0
VERTEX
8
1
10
265.86
20
70.00
0
VERTEX
8
1
10
265.86
20
65.00
0
VERTEX
8
1
10
276.43
20
65.00
0
VERTEX
8
1
10
276.43
20
70.00
0
VERTEX
8
1
10
287.00
20
70.00
0
VERTEX
8
1
10
287.00
20
65.00
0
VERTEX
8
1
10
297.57
20
65.00
0
VERTEX
8
1
10
297.57
20
70.00
0
VERTEX
8
1
10
308.14
20
70.00
0
VERTEX
8
1
10
308.14
20
65.00
0
VERTEX
8
1
10
318.71
20
65.00
0
VERTEX
8
1
10
318.71
20
70.00
0
VERTEX
8
1
10
329.29
20
70.00
0
VERTEX
8
1
10
329.29
20
65.00
0
VERTEX
8
1
10
339.86
20
65.00
0
VERTEX
8
1
10
339.86
20
70.00
0
VERTEX
8
1
10
350.43
20
70.00
0
VERTEX
8
1
10
350.43
20
65.00
0
VERTEX
8
1
10
361.00
20
65.00
0
VERTEX
8
1
10
361.00
20
70.00
0
VERTEX
8
1
10
371.57
20
70.00
0
VERTEX
8
1
10
371.57
20
65.00
0
VERTEX
8
1
10
382.14
20
65.00
0
VERTEX
8
1
10
382.14
20
70.00
0
VERTEX
8
1
10
392.71
20
70.00
0
VERTEX
8
1
10
392.71
20
65.00
0
VERTEX
8
1
10
403.29
20
65.00
0
VERTEX
8
1
10
403.29
20
70.00
0
VERTEX
8
1
10
413.86
20
70.00
0
VERTEX
8
1
10
413.86
20
65.00
0
VERTEX
8
1
10
424.43
20
65.00
0
VERTEX
8
1
10
424.43
20
70.00
0
VERTEX
8
1
10
430.00
20
70.00
0
VERTEX
8
1
10
430.00
20
80.74
0
VERTEX
8
1
10
435.00
20
80.74
0
VERTEX
8
1
10
435.00
20
91.48
0
VERTEX
8
1
10
430.00
20
91.48
0
VERTEX
8
1
10
430.00
20
102.22
0
VERTEX
8
1
10
435.00
20
102.22
0
VERTEX
8
1
10
435.00
20
112.96
0
VERTEX
8
1
10
430.00
20
112.96
0
VERTEX
8
1
10
430.00
20
123.70
0
VERTEX
8
1
10
435.00
20
123.70
0
VERTEX
8
1
10
435.00
20
134.44
0
VERTEX
8
1
10
430.00
20
134.44
0
VERTEX
8
1
10
430.00
20
145.19
0
VERTEX
8
1
10
435.00
20
145.19
0
VERTEX
8
1
10
435.00
20
155.93
0
VERTEX
8
1
10
430.00
20
155.93
0
VERTEX
8
1
10
430.00
20
166.67
0
VERTEX
8
1
10
435.00
20
166.67
0
VERTEX
8
1
10
435.00
20
177.41
0
VERTEX
8
1
10
430.00
20
177.41
0
VERTEX
8
1
10
430.00
20
188.15
0
VERTEX
8
1
10
435.00
20
188.15
0
VERTEX
8
1
10
435.00
20
198.89
0
VERTEX
8
1
10
430.00
20
198.89
0
VERTEX
8
1
10
430.00
20
209.63
0
VERTEX
8
1
10
435.00
20
209.63
0
VERTEX
8
1
10
435.00
20
220.37
0
VERTEX
8
1
10
430.00
20
220.37
0
VERTEX
8
1
10
430.00
20
231.11
0
VERTEX
8
1
10
435.00
20
231.11
0
VERTEX
8
1
10
435.00
20
241.85
0
VERTEX
8
1
10
430.00
20
241.85
0
VERTEX
8
1
10
430.00
20
252.59
0
VERTEX
8
1
10
435.00
20
252.59
0
VERTEX
8
1
10
435.00
20
263.33
0
VERTEX
8
1
10
430.00
20
263.33
0
VERTEX
8
1
10
430.00
20
274.07
0
VERTEX
8
1
10
435.00
20
274.07
0
VERTEX
8
1
10
435.00
20
284.81
0
VERTEX
8
1
10
430.00
20
284.81
0
VERTEX
8
1
10
430.00
20
295.56
0
VERTEX
8
1
10
435.00
20
295.56
0
VERTEX
8
1
10
435.00
20
306.30
0
VERTEX
8
1
10
430.00
20
306.30
0
VERTEX
8
1
10
430.00
20
317.04
0
VERTEX
8
1
10
435.00
20
317.04
0
VERTEX
8
1
10
435.00
20
327.78
0
VERTEX
8
1
10
430.00
20
327.78
0
VERTEX
8
1
10
430.00
20
338.52
0
VERTEX
8
1
10
435.00
20
338.52
0
VERTEX
8
1
10
435.00
20
349.26
0
VERTEX
8
1
10
430.00
20
349.26
0
VERTEX
8
1
10
430.00
20
360.00
0
VERTEX
8
1
10
424.43
20
360.00
0
VERTEX
8
1
10
424.43
20
365.00
0
VERTEX
8
1
10
413.86
20
365.00
0
VERTEX
8
1
10
413.86
20
360.00
0
VERTEX
8
1
10
403.29
20
360.00
0
VERTEX
8
1
10
403.29
20
365.00
0
VERTEX
8
1
10
392.71
20
365.00
0
VERTEX
8
1
10
392.71
20
360.00
0
VERTEX
8
1
10
382.14
20
360.00
0
VERTEX
8
1
10
382.14
20
365.00
0
VERTEX
8
1
10
371.57
20
365.00
0
VERTEX
8
1
10
371.57
20
360.00
0
VERTEX
8
1
10
361.00
20
360.00
0
VERTEX
8
1
10
361.00
20
365.00
0
VERTEX
8
1
10
350.43
20
365.00
0
VERTEX
8
1
10
350.43
20
360.00
0
VERTEX
8
1
10
339.86
20
360.00
0
VERTEX
8
1
10
339.86
20
365.00
0
VERTEX
8
1
10
329.29
20
365.00
0
VERTEX
8
1
10
329.29
20
360.00
0
VERTEX
8
1
10
318.71
20
360.00
0
VERTEX
8
1
10
318.71
20
365.00
0
VERTEX
8
1
10
308.14
20
365.00
0
VERTEX
8
1
10
308.14
20
360.00
0
VERTEX
8
1
10
297.57
20
360.00
0
VERTEX
8
1
10
297.57
20
365.00
0
VERTEX
8
1
10
287.00
20
365.00
0
VERTEX
8
1
10
287.00
20
360.00
0
VERTEX
8
1
10
276.43
20
360.00
0
VERTEX
8
1
10
276.43
20
365.00
0
VERTEX
8
1
10
265.86
20
365.00
0
VERTEX
8
1
10
265.86
20
360.00
0
VERTEX
8
1
10
255.29
20
360.00
0
VERTEX
8
1
10
255.29
20
365.00
0
VERTEX
8
1
10
244.71
20
365.00
0
VERTEX
8
1
10
244.71
20
360.00
0
VERTEX
8
1
10
234.14
20
360.00
0
VERTEX
8
1
10
234.14
20
365.00
0
VERTEX
8
1
10
223.57
20
365.00
0
VERTEX
8
1
10
223.57
20
360.00
0
VERTEX
8
1
10
213.00
20
360.00
0
VERTEX
8
1
10
213.00
20
365.00
0
VERTEX
8
1
10
202.43
20
365.00
0
VERTEX
8
1
10
202.43
20
360.00
0
VERTEX
8
1
10
191.86
20
360.00
0
VERTEX
8
1
10
191.86
20
365.00
0
VERTEX
8
1
10
181.29
20
365.00
0
VERTEX
8
1
10
181.29
20
360.00
0
VERTEX
8
1
10
170.71
20
360.00
0
VERTEX
8
1
10
170.71
20
365.00
0
VERTEX
8
1
10
160.14
20
365.00
0
VERTEX
8
1
10
160.14
20
360.00
0
VERTEX
8
1
10
149.57
20
360.00
0
VERTEX
8
1
10
149.57
20
365.00
0
VERTEX
8
1
10
139.00
20
365.00
0
VERTEX
8
1
10
139.00
20
360.00
0
VERTEX
8
1
10
128.43
20
360.00
0
VERTEX
8
1
10
128.43
20
365.00
0
VERTEX
8
1
10
117.86
20
365.00
0
VERTEX
8
1
10
117.86
20
360.00
0
VERTEX
8
1
10
107.29
20
360.00
0
VERTEX
8
1
10
107.29
20
365.00
0
VERTEX
8
1
10
96.71
20
365.00
0
VERTEX
8
1
10
96.71
20
360.00
0
VERTEX
8
1
10
86.14
20
360.00
0
VERTEX
8
1
10
86.14
20
365.00
0
VERTEX
8
1
10
75.57
20
365.00
0
VERTEX
8
1
10
75.57
20
360.00
0
VERTEX
8
1
10
70.00
20
360.00
0
VERTEX
8
1
10
70.00
20
349.26
0
VERTEX
8
1
10
65.00
20
349.26
0
VERTEX
8
1
10
65.00
20
338.52
0
VERTEX
8
1
10
70.00
20
338.52
0
VERTEX
8
1
10
70.00
20
327.78
0
VERTEX
8
1
10
65.00
20
327.78
0
VERTEX
8
1
10
65.00
20
317.04
0
VERTEX
8
1
10
70.00
20
317.04
0
VERTEX
8
1
10
70.00
20
306.30
0
VERTEX
8
1
10
65.00
20
306.30
0
VERTEX
8
1
10
65.00
20
295.56
0
VERTEX
8
1
10
70.00
20
295.56
0
VERTEX
8
1
10
70.00
20
284.81
0
VERTEX
8
1
10
65.00
20
284.81
0
VERTEX
8
1
10
65.00
20
274.07
0
VERTEX
8
1
10
70.00
20
274.07
0
VERTEX
8
1
10
70.00
20
263.33
0
VERTEX
8
1
10
65.00
20
263.33
0
VERTEX
8
1
10
65.00
20
252.59
0
VERTEX
8
1
10
70.00
20
252.59
0
VERTEX
8
1
10
70.00
20
241.85
0
VERTEX
8
1
10
65.00
20
241.85
0
VERTEX
8
1
10
65.00
20
231.11
0
VERTEX
8
1
10
70.00
20
231.11
0
VERTEX
8
1
10
70.00
20
220.37
0
VERTEX
8
1
10
65.00
20
220.37
0
VERTEX
8
1
10
65.00
20
209.63
0
VERTEX
8
1
10
70.00
20
209.63
0
VERTEX
8
1
10
70.00
20
198.89
0
VERTEX
8
1
10
65.00
20
198.89
0
VERTEX
8
1
10
65.00
20
188.15
0
VERTEX
8
1
10
70.00
20
188.15
0
VERTEX
8
1
10
70.00
20
177.41
0
VERTEX
8
1
10
65.00
20
177.41
0
VERTEX
8
1
10
65.00
20
166.67
0
VERTEX
8
1
10
70.00
20
166.67
0
VERTEX
8
1
10
70.00
20
155.93
0
VERTEX
8
1
10
65.00
20
155.93
0
VERTEX
8
1
10
65.00
20
145.19
0
VERTEX
8
1
10
70.00
20
145.19
0
VERTEX
8
1
10
70.00
20
134.44
0
VERTEX
8
1
10
65.00
20
134.44
0
VERTEX
8
1
10
65.00
20
123.70
0
VERTEX
8
1
10
70.00
20
123.70
0
VERTEX
8
1
10
70.00
20
112.96
0
VERTEX
8
1
10
65.00
20
112.96
0
VERTEX
8
1
10
65.00
20
102.22
0
VERTEX
8
1
10
70.00
20
102.22
0
VERTEX
8
1
10
70.00
20
91.48
0
VERTEX
8
1
10
65.00
20
91.48
0
VERTEX
8
1
10
65.00
20
80.74
0
VERTEX
8
1
10
70.00
20
80.74
0
VERTEX
8
1
10
70.00
20
70.00
0
SEQEND
0
POLYLINE
8
1
66
1
70
0
0
VERTEX
8
1
10
86.14
20
163.33
0
VERTEX
8
1
10
96.71
20
163.33
0
VERTEX
8
1
10
96.71
20
168.33
0
VERTEX
8
1
10
86.14
20
168.33
0
VERTEX
8
1
10
86.14
20
163.33
0
SEQEND
0
POLYLINE
8
1
66
1
70
0
0
VERTEX
8
1
10
107.29
20
163.33
0
VERTEX
8
1
10
117.86
20
163.33
0
VERTEX
8
1
10
117.86
20
168.33
0
VERTEX
8
1
10
107.29
20
168.33
0
VERTEX
8
1
10
107.29
20
163.33
0
SEQEND
0
POLYLINE
8
1
66
1
70
0
0
VERTEX
8
1
10
128.43
20
163.33
0
VERTEX
8
1
10
139.00
20
163.33
0
VERTEX
8
1
10
139.00
20
168.33
0
VERTEX
8
1
10
128.43
20
168.33
0
VERTEX
8
1
10
128.43
20
163.33
0
SEQEND
0
POLYLINE
8
1
66
1
70
0
0
VERTEX
8
1
10
149.57
20
163.33
0
VERTEX
8
1
10
160.14
20
163.33
0
VERTEX
8
1
10
160.14
20
168.33
0
VERTEX
8
1
10
149.57
20
168.33
0
VERTEX
8
1
10
149.57
20
163.33
0
SEQEND
0
POLYLINE
8
1
66
1
70
0
0
VERTEX
8
1
10
170.71
20
163.33
0
VERTEX
8
1
10
181.29
20
163.33
0
VERTEX
8
1
10
181.29
20
168.33
0
VERTEX
8
1
10
170.71
20
168.33
0
VERTEX
8
1
10
170.71
20
163.33
0
SEQEND
0
POLYLINE
8
1
66
1
70
0
0
VERTEX
8
1
10
191.86
20
163.33
0
VERTEX
8
1
10
202.43
20
163.33
0
VERTEX
8
1
10
202.43
20
168.33
0
VERTEX
8
1
10
191.86
20
168.33
0
VERTEX
8
1
10
191.86
20
163.33
0
SEQEND
0
POLYLINE
8
1
66
1
70
0
0
VERTEX
8
1
10
213.00
20
163.33
0
VERTEX
8
1
10
223.57
20
163.33
0
VERTEX
8
1
10
223.57
20
168.33
0
VERTEX
8
1
10
213.00
20
168.33
0
VERTEX
8
1
10
213.00
20
163.33
0
SEQEND
0
POLYLINE
8
1
66
1
70
0
0
VERTEX
8
1
10
234.14
20
163.33
0
VERTEX
8
1
10
244.71
20
163.33
0
VERTEX
8
1
10
244.71
20
168.33
0
VERTEX
8
1
10
234.14
20
168.33
0
VERTEX
8
1
10
234.14
20
163.33
0
SEQEND
0
POLYLINE
8
1
66
1
70
0
0
VERTEX
8
1
10
255.29
20
163.33
0
VERTEX
8
1
10
265.86
20
163.33
0
VERTEX
8
1
10
265.86
20
168.33
0
VERTEX
8
1
10
255.29
20
168.33
0
VERTEX
8
1
10
255.29
20
163.33
0
SEQEND
0
POLYLINE
8
1
66
1
70
0
0
VERTEX
8
1
10
276.43
20
163.33
0
VERTEX
8
1
10
287.00
20
163.33
0
VERTEX
8
1
10
287.00
20
168.33
0
VERTEX
8
1
10
276.43
20
168.33
0
VERTEX
8
1
10
276.43
20
163.33
0
SEQEND
0
POLYLINE
8
1
66
1
70
0
0
VERTEX
8
1
10
297.57
20
163.33
0
VERTEX
8
1
10
308.14
20
163.33
0
VERTEX
8
1
10
308.14
20
168.33
0
VERTEX
8
1
10
297.57
20
168.33
0
VERTEX
8
1
10
297.57
20
163.33
0
SEQEND
0
POLYLINE
8
1
66
1
70
0
0
VERTEX
8
1
10
318.71
20
163.33
0
VERTEX
8
1
10
329.29
20
163.33
0
VERTEX
8
1
10
329.29
20
168.33
0
VERTEX
8
1
10
318.71
20
168.33
0
VERTEX
8
1
10
318.71
20
163.33
0
SEQEND
0
POLYLINE
8
1
66
1
70
0
0
VERTEX
8
1
10
339.86
20
163.33
0
VERTEX
8
1
10
350.43
20
163.33
0
VERTEX
8
1
10
350.43
20
168.33
0
VERTEX
8
1
10
339.86
20
168.33
0
VERTEX
8
1
10
339.86
20
163.33
0
SEQEND
0
POLYLINE
8
1
66
1
70
0
0
VERTEX
8
1
10
361.00
20
163.33
0
VERTEX
8
1
10
371.57
20
163.33
0
VERTEX
8
1
10
371.57
20
168.33
0
VERTEX
8
1
10
361.00
20
168.33
0
VERTEX
8
1
10
361.00
20
163.33
0
SEQEND
0
POLYLINE
8
1
66
1
70
0
0
VERTEX
8
1
10
382.14
20
163.33
0
VERTEX
8
1
10
392.71
20
163.33
0
VERTEX
8
1
10
392.71
20
168.33
0
VERTEX
8
1
10
382.14
20
168.33
0
VERTEX
8
1
10
382.14
20
163.33
0
SEQEND
0
POLYLINE
8
1
66
1
70
0
0
VERTEX
8
1
10
403.29
20
163.33
0
VERTEX
8
1
10
413.86
20
163.33
0
VERTEX
8
1
10
413.86
20
168.33
0
VERTEX
8
1
10
403.29
20
168.33
0
VERTEX
8
1
10
403.29
20
163.33
0
SEQEND
0
POLYLINE
8
1
66
1
70
0
0
VERTEX
8
1
10
86.14
20
261.67
0
VERTEX
8
1
10
96.71
20
261.67
0
VERTEX
8
1
10
96.71
20
266.67
0
VERTEX
8
1
10
86.14
20
266.67
0
VERTEX
8
1
10
86.14
20
261.67
0
SEQEND
0
POLYLINE
8
1
66
1
70
0
0
VERTEX
8
1
10
107.29
20
261.67
0
VERTEX
8
1
10
117.86
20
261.67
0
VERTEX
8
1
10
117.86
20
266.67
0
VERTEX
8
1
10
107.29
20
266.67
0
VERTEX
8
1
10
107.29
20
261.67
0
SEQEND
0
POLYLINE
8
1
66
1
70
0
0
VERTEX
8
1
10
128.43
20
261.67
0
VERTEX
8
1
10
139.00
20
261.67
0
VERTEX
8
1
10
139.00
20
266.67
0
VERTEX
8
1
10
128.43
20
266.67
0
VERTEX
8
1
10
128.43
20
261.67
0
SEQEND
0
POLYLINE
8
1
66
1
70
0
0
VERTEX
8
1
10
149.57
20
261.67
0
VERTEX
8
1
10
160.14
20
261.67
0
VERTEX
8
1
10
160.14
20
266.67
0
VERTEX
8
1
10
149.57
20
266.67
0
VERTEX
8
1
10
149.57
20
261.67
0
SEQEND
0
POLYLINE
8
1
66
1
70
0
0
VERTEX
8
1
10
170.71
20
261.67
0
VERTEX
8
1
10
181.29
20
261.67
0
VERTEX
8
1
10
181.29
20
266.67
0
VERTEX
8
1
10
170.71
20
266.67
0
VERTEX
8
1
10
170.71
20
261.67
0
SEQEND
0
POLYLINE
8
1
66
1
70
0
0
VERTEX
8
1
10
191.86
20
261.67
0
VERTEX
8
1
10
202.43
20
261.67
0
VERTEX
8
1
10
202.43
20
266.67
0
VERTEX
8
1
10
191.86
20
266.67
0
VERTEX
8
1
10
191.86
20
261.67
0
SEQEND
0
POLYLINE
8
1
66
1
70
0
0
VERTEX
8
1
10
213.00
20
261.67
0
VERTEX
8
1
10
223.57
20
261.67
0
VERTEX
8
1
10
223.57
20
266.67
0
VERTEX
8
1
10
213.00
20
266.67
0
VERTEX
8
1
10
213.00
20
261.67
0
SEQEND
0
POLYLINE
8
1
66
1
70
0
0
VERTEX
8
1
10
234.14
20
261.67
0
VERTEX
8
1
10
244.71
20
261.67
0
VERTEX
8
1
10
244.71
20
266.67
0
VERTEX
8
1
10
234.14
20
266.67
0
VERTEX
8
1
10
234.14
20
261.67
0
SEQEND
0
POLYLINE
8
1
66
1
70
0
0
VERTEX
8
1
10
255.29
20
261.67
0
VERTEX
8
1
10
265.86
20
261.67
0
VERTEX
8
1
10
265.86
20
266.67
0
VERTEX
8
1
10
255.29
20
266.67
0
VERTEX
8
1
10
255.29
20
261.67
0
SEQEND
0
POLYLINE
8
1
66
1
70
0
0
VERTEX
8
1
10
276.43
20
261.67
0
VERTEX
8
1
10
287.00
20
261.67
0
VERTEX
8
1
10
287.00
20
266.67
0
VERTEX
8
1
10
276.43
20
266.67
0
VERTEX
8
1
10
276.43
20
261.67
0
SEQEND
0
POLYLINE
8
1
66
1
70
0
0
VERTEX
8
1
10
297.57
20
261.67
0
VERTEX
8
1
10
308.14
20
261.67
0
VERTEX
8
1
10
308.14
20
266.67
0
VERTEX
8
1
10
297.57
20
266.67
0
VERTEX
8
1
10
297.57
20
261.67
0
SEQEND
0
POLYLINE
8
1
66
1
70
0
0
VERTEX
8
1
10
318.71
20
261.67
0
VERTEX
8
1
10
329.29
20
261.67
0
VERTEX
8
1
10
329.29
20
266.67
0
VERTEX
8
1
10
318.71
20
266.67
0
VERTEX
8
1
10
318.71
20
261.67
0
SEQEND
0
POLYLINE
8
1
66
1
70
0
0
VERTEX
8
1
10
339.86
20
261.67
0
VERTEX
8
1
10
350.43
20
261.67
0
VERTEX
8
1
10
350.43
20
266.67
0
VERTEX
8
1
10
339.86
20
266.67
0
VERTEX
8
1
10
339.86
20
261.67
0
SEQEND
0
POLYLINE
8
1
66
1
70
0
0
VERTEX
8
1
10
361.00
20
261.67
0
VERTEX
8
1
10
371.57
20
261.67
0
VERTEX
8
1
10
371.57
20
266.67
0
VERTEX
8
1
10
361.00
20
266.67
0
VERTEX
8
1
10
361.00
20
261.67
0
SEQEND
0
POLYLINE
8
1
66
1
70
0
0
VERTEX
8
1
10
382.14
20
261.67
0
VERTEX
8
1
10
392.71
20
261.67
0
VERTEX
8
1
10
392.71
20
266.67
0
VERTEX
8
1
10
382.14
20
266.67
0
VERTEX
8
1
10
382.14
20
261.67
0
SEQEND
0
POLYLINE
8
1
66
1
70
0
0
VERTEX
8
1
10
403.29
20
261.67
0
VERTEX
8
1
10
413.86
20
261.67
0
VERTEX
8
1
10
413.86
20
266.67
0
VERTEX
8
1
10
403.29
20
266.67
0
VERTEX
8
1
10
403.29
20
261.67
0
SEQEND
0
POLYLINE
8
1
66
1
70
0
0
VERTEX
8
1
10
70.00
20
0.00
0
VERTEX
8
1
10
80.29
20
0.00
0
VERTEX
8
1
10
80.29
20
5.00
0
VERTEX
8
1
10
90.57
20
5.00
0
VERTEX
8
1
10
90.57
20
0.00
0
VERTEX
8
1
10
100.86
20
0.00
0
VERTEX
8
1
10
100.86
20
5.00
0
VERTEX
8
1
10
111.14
20
5.00
0
VERTEX
8
1
10
111.14
20
0.00
0
VERTEX
8
1
10
121.43
20
0.00
0
VERTEX
8
1
10
121.43
20
5.00
0
VERTEX
8
1
10
131.71
20
5.00
0
VERTEX
8
1
10
131.71
20
0.00
0
VERTEX
8
1
10
142.00
20
0.00
0
VERTEX
8
1
10
142.00
20
5.00
0
VERTEX
8
1
10
152.29
20
5.00
0
VERTEX
8
1
10
152.29
20
0.00
0
VERTEX
8
1
10
162.57
20
0.00
0
VERTEX
8
1
10
162.57
20
5.00
0
VERTEX
8
1
10
172.86
20
5.00
0
VERTEX
8
1
10
172.86
20
0.00
0
VERTEX
8
1
10
183.14
20
0.00
0
VERTEX
8
1
10
183.14
20
5.00
0
VERTEX
8
1
10
193.43
20
5.00
0
VERTEX
8
1
10
193.43
20
0.00
0
VERTEX
8
1
10
203.71
20
0.00
0
VERTEX
8
1
10
203.71
20
5.00
0
VERTEX
8
1
10
214.00
20
5.00
0
VERTEX
8
1
10
214.00
20
0.00
0
VERTEX
8
1
10
224.29
20
0.00
0
VERTEX
8
1
10
224.29
20
5.00
0
VERTEX
8
1
10
234.57
20
5.00
0
VERTEX
8
1
10
234.57
20
0.00
0
VERTEX
8
1
10
244.86
20
0.00
0
VERTEX
8
1
10
244.86
20
5.00
0
VERTEX
8
1
10
255.14
20
5.00
0
VERTEX
8
1
10
255.14
20
0.00
0
VERTEX
8
1
10
265.43
20
0.00
0
VERTEX
8
1
10
265.43
20
5.00
0
VERTEX
8
1
10
275.71
20
5.00
0
VERTEX
8
1
10
275.71
20
0.00
0
VERTEX
8
1
10
286.00
20
0.00
0
VERTEX
8
1
10
286.00
20
5.00
0
VERTEX
8
1
10
296.29
20
5.00
0
VERTEX
8
1
10
296.29
20
0.00
0
VERTEX
8
1
10
306.57
20
0.00
0
VERTEX
8
1
10
306.57
20
5.00
0
VERTEX
8
1
10
316.86
20
5.00
0
VERTEX
8
1
10
316.86
20
0.00
0
VERTEX
8
1
10
327.14
20
0.00
0
VERTEX
8
1
10
327.14
20
5.00
0
VERTEX
8
1
10
337.43
20
5.00
0
VERTEX
8
1
10
337.43
20
0.00
0
VERTEX
8
1
10
347.71
20
0.00
0
VERTEX
8
1
10
347.71
20
5.00
0
VERTEX
8
1
10
358.00
20
5.00
0
VERTEX
8
1
10
358.00
20
0.00
0
VERTEX
8
1
10
368.29
20
0.00
0
VERTEX
8
1
10
368.29
20
5.00
0
VERTEX
8
1
10
378.57
20
5.00
0
VERTEX
8
1
10
378.57
20
0.00
0
VERTEX
8
1
10
388.86
20
0.00
0
VERTEX
8
1
10
388.86
20
5.00
0
VERTEX
8
1
10
399.14
20
5.00
0
VERTEX
8
1
10
399.14
20
0.00
0
VERTEX
8
1
10
409.43
20
0.00
0
VERTEX
8
1
10
409.43
20
5.00
0
VERTEX
8
1
10
419.71
20
5.00
0
VERTEX
8
1
10
419.71
20
0.00
0
VERTEX
8
1
10
430.00
20
0.00
0
VERTEX
8
1
10
435.00
20
0.00
0
VERTEX
8
1
10
435.00
20
12.00
0
VERTEX
8
1
10
430.00
20
12.00
0
VERTEX
8
1
10
430.00
20
24.00
0
VERTEX
8
1
10
435.00
20
24.00
0
VERTEX
8
1
10
435.00
20
36.00
0
VERTEX
8
1
10
430.00
20
36.00
0
VERTEX
8
1
10
430.00
20
48.00
0
VERTEX
8
1
10
435.00
20
48.00
0
VERTEX
8
1
10
435.00
20
60.00
0
VERTEX
8
1
10
424.43
20
60.00
0
VERTEX
8
1
10
424.43
20
55.00
0
VERTEX
8
1
10
413.86
20
55.00
0
VERTEX
8
1
10
413.86
20
60.00
0
VERTEX
8
1
10
403.29
20
60.00
0
VERTEX
8
1
10
403.29
20
55.00
0
VERTEX
8
1
10
392.71
20
55.00
0
VERTEX
8
1
10
392.71
20
60.00
0
VERTEX
8
1
10
382.14
20
60.00
0
VERTEX
8
1
10
382.14
20
55.00
0
VERTEX
8
1
10
371.57
20
55.00
0
VERTEX
8
1
10
371.57
20
60.00
0
VERTEX
8
1
10
361.00
20
60.00
0
VERTEX
8
1
10
361.00
20
55.00
0
VERTEX
8
1
10
350.43
20
55.00
0
VERTEX
8
1
10
350.43
20
60.00
0
VERTEX
8
1
10
339.86
20
60.00
0
VERTEX
8
1
10
339.86
20
55.00
0
VERTEX
8
1
10
329.29
20
55.00
0
VERTEX
8
1
10
329.29
20
60.00
0
VERTEX
8
1
10
318.71
20
60.00
0
VERTEX
8
1
10
318.71
20
55.00
0
VERTEX
8
1
10
308.14
20
55.00
0
VERTEX
8
1
10
308.14
20
60.00
0
VERTEX
8
1
10
297.57
20
60.00
0
VERTEX
8
1
10
297.57
20
55.00
0
VERTEX
8
1
10
287.00
20
55.00
0
VERTEX
8
1
10
287.00
20
60.00
0
VERTEX
8
1
10
276.43
20
60.00
0
VERTEX
8
1
10
276.43
20
55.00
0
VERTEX
8
1
10
265.86
20
55.00
0
VERTEX
8
1
10
265.86
20
60.00
0
VERTEX
8
1
10
255.29
20
60.00
0
VERTEX
8
1
10
255.29
20
55.00
0
VERTEX
8
1
10
244.71
20
55.00
0
VERTEX
8
1
10
244.71
20
60.00
0
VERTEX
8
1
10
234.14
20
60.00
0
VERTEX
8
1
10
234.14
20
55.00
0
VERTEX
8
1
10
223.57
20
55.00
0
VERTEX
8
1
10
223.57
20
60.00
0
VERTEX
8
1
10
213.00
20
60.00
0
VERTEX
8
1
10
213.00
20
55.00
0
VERTEX
8
1
10
202.43
20
55.00
0
VERTEX
8
1
10
202.43
20
60.00
0
VERTEX
8
1
10
191.86
20
60.00
0
VERTEX
8
1
10
191.86
20
55.00
0
VERTEX
8
1
10
181.29
20
55.00
0
VERTEX
8
1
10
181.29
20
60.00
0
VERTEX
8
1
10
170.71
20
60.00
0
VERTEX
8
1
10
170.71
20
55.00
0
VERTEX
8
1
10
160.14
20
55.00
0
VERTEX
8
1
10
160.14
20
60.00
0
VERTEX
8
1
10
149.57
20
60.00
0
VERTEX
8
1
10
149.57
20
55.00
0
VERTEX
8
1
10
139.00
20
55.00
0
VERTEX
8
1
10
139.00
20
60.00
0
VERTEX
8
1
10
128.43
20
60.00
0
VERTEX
8
1
10
128.43
20
55.00
0
VERTEX
8
1
10
117.86
20
55.00
0
VERTEX
8
1
10
117.86
20
60.00
0
VERTEX
8
1
10
107.29
20
60.00
0
VERTEX
8
1
10
107.29
20
55.00
0
VERTEX
8
1
10
96.71
20
55.00
0
VERTEX
8
1
10
96.71
20
60.00
0
VERTEX
8
1
10
86.14
20
60.00
0
VERTEX
8
1
10
86.14
20
55.00
0
VERTEX
8
1
10
75.57
20
55.00
0
VERTEX
8
1
10
75.57
20
60.00
0
VERTEX
8
1
10
65.00
20
60.00
0
VERTEX
8
1
10
65.00
20
48.00
0
VERTEX
8
1
10
70.00
20
48.00
0
VERTEX
8
1
10
70.00
20
36.00
0
VERTEX
8
1
10
65.00
20
36.00
0
VERTEX
8
1
10
65.00
20
24.00
0
VERTEX
8
1
10
70.00
20
24.00
0
VERTEX
8
1
10
70.00
20
12.00
0
VERTEX
8
1
10
65.00
20
12.00
0
VERTEX
8
1
10
65.00
20
0.00
0
VERTEX
8
1
10
70.00
20
0.00
0
SEQEND
0
POLYLINE
8
1
66
1
70
0
0
VERTEX
8
1
10
70.00
20
430.00
0
VERTEX
8
1
10
80.29
20
430.00
0
VERTEX
8
1
10
80.29
20
425.00
0
VERTEX
8
1
10
90.57
20
425.00
0
VERTEX
8
1
10
90.57
20
430.00
0
VERTEX
8
1
10
100.86
20
430.00
0
VERTEX
8
1
10
100.86
20
425.00
0
VERTEX
8
1
10
111.14
20
425.00
0
VERTEX
8
1
10
111.14
20
430.00
0
VERTEX
8
1
10
121.43
20
430.00
0
VERTEX
8
1
10
121.43
20
425.00
0
VERTEX
8
1
10
131.71
20
425.00
0
VERTEX
8
1
10
131.71
20
430.00
0
VERTEX
8
1
10
142.00
20
430.00
0
VERTEX
8
1
10
142.00
20
425.00
0
VERTEX
8
1
10
152.29
20
425.00
0
VERTEX
8
1
10
152.29
20
430.00
0
VERTEX
8
1
10
162.57
20
430.00
0
VERTEX
8
1
10
162.57
20
425.00
0
VERTEX
8
1
10
172.86
20
425.00
0
VERTEX
8
1
10
172.86
20
430.00
0
VERTEX
8
1
10
183.14
20
430.00
0
VERTEX
8
1
10
183.14
20
425.00
0
VERTEX
8
1
10
193.43
20
425.00
0
VERTEX
8
1
10
193.43
20
430.00
0
VERTEX
8
1
10
203.71
20
430.00
0
VERTEX
8
1
10
203.71
20
425.00
0
VERTEX
8
1
10
214.00
20
425.00
0
VERTEX
8
1
10
214.00
20
430.00
0
VERTEX
8
1
10
224.29
20
430.00
0
VERTEX
8
1
10
224.29
20
425.00
0
VERTEX
8
1
10
234.57
20
425.00
0
VERTEX
8
1
10
234.57
20
430.00
0
VERTEX
8
1
10
244.86
20
430.00
0
VERTEX
8
1
10
244.86
20
425.00
0
VERTEX
8
1
10
255.14
20
425.00
0
VERTEX
8
1
10
255.14
20
430.00
0
VERTEX
8
1
10
265.43
20
430.00
0
VERTEX
8
1
10
265.43
20
425.00
0
VERTEX
8
1
10
275.71
20
425.00
0
VERTEX
8
1
10
275.71
20
430.00
0
VERTEX
8
1
10
286.00
20
430.00
0
VERTEX
8
1
10
286.00
20
425.00
0
VERTEX
8
1
10
296.29
20
425.00
0
VERTEX
8
1
10
296.29
20
430.00
0
VERTEX
8
1
10
306.57
20
430.00
0
VERTEX
8
1
10
306.57
20
425.00
0
VERTEX
8
1
10
316.86
20
425.00
0
VERTEX
8
1
10
316.86
20
430.00
0
VERTEX
8
1
10
327.14
20
430.00
0
VERTEX
8
1
10
327.14
20
425.00
0
VERTEX
8
1
10
337.43
20
425.00
0
VERTEX
8
1
10
337.43
20
430.00
0
VERTEX
8
1
10
347.71
20
430.00
0
VERTEX
8
1
10
347.71
20
425.00
0
VERTEX
8
1
10
358.00
20
425.00
0
VERTEX
8
1
10
358.00
20
430.00
0
VERTEX
8
1
10
368.29
20
430.00
0
VERTEX
8
1
10
368.29
20
425.00
0
VERTEX
8
1
10
378.57
20
425.00
0
VERTEX
8
1
10
378.57
20
430.00
0
VERTEX
8
1
10
388.86
20
430.00
0
VERTEX
8
1
10
388.86
20
425.00
0
VERTEX
8
1
10
399.14
20
425.00
0
VERTEX
8
1
10
399.14
20
430.00
0
VERTEX
8
1
10
409.43
20
430.00
0
VERTEX
8
1
10
409.43
20
425.00
0
VERTEX
8
1
10
419.71
20
425.00
0
VERTEX
8
1
10
419.71
20
430.00
0
VERTEX
8
1
10
430.00
20
430.00
0
VERTEX
8
1
10
435.00
20
430.00
0
VERTEX
8
1
10
435.00
20
418.00
0
VERTEX
8
1
10
430.00
20
418.00
0
VERTEX
8
1
10
430.00
20
406.00
0
VERTEX
8
1
10
435.00
20
406.00
0
VERTEX
8
1
10
435.00
20
394.00
0
VERTEX
8
1
10
430.00
20
394.00
0
VERTEX
8
1
10
430.00
20
382.00
0
VERTEX
8
1
10
435.00
20
382.00
0
VERTEX
8
1
10
435.00
20
370.00
0
VERTEX
8
1
10
424.43
20
370.00
0
VERTEX
8
1
10
424.43
20
375.00
0
VERTEX
8
1
10
413.86
20
375.00
0
VERTEX
8
1
10
413.86
20
370.00
0
VERTEX
8
1
10
403.29
20
370.00
0
VERTEX
8
1
10
403.29
20
375.00
0
VERTEX
8
1
10
392.71
20
375.00
0
VERTEX
8
1
10
392.71
20
370.00
0
VERTEX
8
1
10
382.14
20
370.00
0
VERTEX
8
1
10
382.14
20
375.00
0
VERTEX
8
1
10
371.57
20
375.00
0
VERTEX
8
1
10
371.57
20
370.00
0
VERTEX
8
1
10
361.00
20
370.00
0
VERTEX
8
1
10
361.00
20
375.00
0
VERTEX
8
1
10
350.43
20
375.00
0
VERTEX
8
1
10
350.43
20
370.00
0
VERTEX
8
1
10
339.86
20
370.00
0
VERTEX
8
1
10
339.86
20
375.00
0
VERTEX
8
1
10
329.29
20
375.00
0
VERTEX
8
1
10
329.29
20
370.00
0
VERTEX
8
1
10
318.71
20
370.00
0
VERTEX
8
1
10
318.71
20
375.00
0
VERTEX
8
1
10
308.14
20
375.00
0
VERTEX
8
1
10
308.14
20
370.00
0
VERTEX
8
1
10
297.57
20
370.00
0
VERTEX
8
1
10
297.57
20
375.00
0
VERTEX
8
1
10
287.00
20
375.00
0
VERTEX
8
1
10
287.00
20
370.00
0
VERTEX
8
1
10
276.43
20
370.00
0
VERTEX
8
1
10
276.43
20
375.00
0
VERTEX
8
1
10
265.86
20
375.00
0
VERTEX
8
1
10
265.86
20
370.00
0
VERTEX
8
1
10
255.29
20
370.00
0
VERTEX
8
1
10
255.29
20
375.00
0
VERTEX
8
1
10
244.71
20
375.00
0
VERTEX
8
1
10
244.71
20
370.00
0
VERTEX
8
1
10
234.14
20
370.00
0
VERTEX
8
1
10
234.14
20
375.00
0
VERTEX
8
1
10
223.57
20
375.00
0
VERTEX
8
1
10
223.57
20
370.00
0
VERTEX
8
1
10
213.00
20
370.00
0
VERTEX
8
1
10
213.00
20
375.00
0
VERTEX
8
1
10
202.43
20
375.00
0
VERTEX
8
1
10
202.43
20
370.00
0
VERTEX
8
1
10
191.86
20
370.00
0
VERTEX
8
1
10
191.86
20
375.00
0
VERTEX
8
1
10
181.29
20
375.00
0
VERTEX
8
1
10
181.29
20
370.00
0
VERTEX
8
1
10
170.71
20
370.00
0
VERTEX
8
1
10
170.71
20
375.00
0
VERTEX
8
1
10
160.14
20
375.00
0
VERTEX
8
1
10
160.14
20
370.00
0
VERTEX
8
1
10
149.57
20
370.00
0
VERTEX
8
1
10
149.57
20
375.00
0
VERTEX
8
1
10
139.00
20
375.00
0
VERTEX
8
1
10
139.00
20
370.00
0
VERTEX
8
1
10
128.43
20
370.00
0
VERTEX
8
1
10
128.43
20
375.00
0
VERTEX
8
1
10
117.86
20
375.00
0
VERTEX
8
1
10
117.86
20
370.00
0
VERTEX
8
1
10
107.29
20
370.00
0
VERTEX
8
1
10
107.29
20
375.00
0
VERTEX
8
1
10
96.71
20
375.00
0
VERTEX
8
1
10
96.71
20
370.00
0
VERTEX
8
1
10
86.14
20
370.00
0
VERTEX
8
1
10
86.14
20
375.00
0
VERTEX
8
1
10
75.57
20
375.00
0
VERTEX
8
1
10
75.57
20
370.00
0
VERTEX
8
1
10
65.00
20
370.00
0
VERTEX
8
1
10
65.00
20
382.00
0
VERTEX
8
1
10
70.00
20
382.00
0
VERTEX
8
1
10
70.00
20
394.00
0
VERTEX
8
1
10
65.00
20
394.00
0
VERTEX
8
1
10
65.00
20
406.00
0
VERTEX
8
1
10
70.00
20
406.00
0
VERTEX
8
1
10
70.00
20
418.00
0
VERTEX
8
1
10
65.00
20
418.00
0
VERTEX
8
1
10
65.00
20
430.00
0
VERTEX
8
1
10
70.00
20
430.00
0
SEQEND
0
POLYLINE
8
1
66
1
70
0
0
VERTEX
8
1
10
0.00
20
70.00
0
VERTEX
8
1
10
0.00
20
80.74
0
VERTEX
8
1
10
5.00
20
80.74
0
VERTEX
8
1
10
5.00
20
91.48
0
VERTEX
8
1
10
0.00
20
91.48
0
VERTEX
8
1
10
0.00
20
102.22
0
VERTEX
8
1
10
5.00
20
102.22
0
VERTEX
8
1
10
5.00
20
112.96
0
VERTEX
8
1
10
0.00
20
112.96
0
VERTEX
8
1
10
0.00
20
123.70
0
VERTEX
8
1
10
5.00
20
123.70
0
VERTEX
8
1
10
5.00
20
134.44
0
VERTEX
8
1
10
0.00
20
134.44
0
VERTEX
8
1
10
0.00
20
145.19
0
VERTEX
8
1
10
5.00
20
145.19
0
VERTEX
8
1
10
5.00
20
155.93
0
VERTEX
8
1
10
0.00
20
155.93
0
VERTEX
8
1
10
0.00
20
166.67
0
VERTEX
8
1
10
5.00
20
166.67
0
VERTEX
8
1
10
5.00
20
177.41
0
VERTEX
8
1
10
0.00
20
177.41
0
VERTEX
8
1
10
0.00
20
188.15
0
VERTEX
8
1
10
5.00
20
188.15
0
VERTEX
8
1
10
5.00
20
198.89
0
VERTEX
8
1
10
0.00
20
198.89
0
VERTEX
8
1
10
0.00
20
209.63
0
VERTEX
8
1
10
5.00
20
209.63
0
VERTEX
8
1
10
5.00
20
220.37
0
VERTEX
8
1
10
0.00
20
220.37
0
VERTEX
8
1
10
0.00
20
231.11
0
VERTEX
8
1
10
5.00
20
231.11
0
VERTEX
8
1
10
5.00
20
241.85
0
VERTEX
8
1
10
0.00
20
241.85
0
VERTEX
8
1
10
0.00
20
252.59
0
VERTEX
8
1
10
5.00
20
252.59
0
VERTEX
8
1
10
5.00
20
263.33
0
VERTEX
8
1
10
0.00
20
263.33
0
VERTEX
8
1
10
0.00
20
274.07
0
VERTEX
8
1
10
5.00
20
274.07
0
VERTEX
8
1
10
5.00
20
284.81
0
VERTEX
8
1
10
0.00
20
284.81
0
VERTEX
8
1
10
0.00
20
295.56
0
VERTEX
8
1
10
5.00
20
295.56
0
VERTEX
8
1
10
5.00
20
306.30
0
VERTEX
8
1
10
0.00
20
306.30
0
VERTEX
8
1
10
0.00
20
317.04
0
VERTEX
8
1
10
5.00
20
317.04
0
VERTEX
8
1
10
5.00
20
327.78
0
VERTEX
8
1
10
0.00
20
327.78
0
VERTEX
8
1
10
0.00
20
338.52
0
VERTEX
8
1
10
5.00
20
338.52
0
VERTEX
8
1
10
5.00
20
349.26
0
VERTEX
8
1
10
0.00
20
349.26
0
VERTEX
8
1
10
0.00
20
360.00
0
VERTEX
8
1
10
12.00
20
360.00
0
VERTEX
8
1
10
12.00
20
365.00
0
VERTEX
8
1
10
24.00
20
365.00
0
VERTEX
8
1
10
24.00
20
360.00
0
VERTEX
8
1
10
36.00
20
360.00
0
VERTEX
8
1
10
36.00
20
365.00
0
VERTEX
8
1
10
48.00
20
365.00
0
VERTEX
8
1
10
48.00
20
360.00
0
VERTEX
8
1
10
60.00
20
360.00
0
VERTEX
8
1
10
60.00
20
349.26
0
VERTEX
8
1
10
55.00
20
349.26
0
VERTEX
8
1
10
55.00
20
338.52
0
VERTEX
8
1
10
60.00
20
338.52
0
VERTEX
8
1
10
60.00
20
327.78
0
VERTEX
8
1
10
55.00
20
327.78
0
VERTEX
8
1
10
55.00
20
317.04
0
VERTEX
8
1
10
60.00
20
317.04
0
VERTEX
8
1
10
60.00
20
306.30
0
VERTEX
8
1
10
55.00
20
306.30
0
VERTEX
8
1
10
55.00
20
295.56
0
VERTEX
8
1
10
60.00
20
295.56
0
VERTEX
8
1
10
60.00
20
284.81
0
VERTEX
8
1
10
55.00
20
284.81
0
VERTEX
8
1
10
55.00
20
274.07
0
VERTEX
8
1
10
60.00
20
274.07
0
VERTEX
8
1
10
60.00
20
263.33
0
VERTEX
8
1
10
55.00
20
263.33
0
VERTEX
8
1
10
55.00
20
252.59
0
VERTEX
8
1
10
60.00
20
252.59
0
VERTEX
8
1
10
60.00
20
241.85
0
VERTEX
8
1
10
55.00
20
241.85
0
VERTEX
8
1
10
55.00
20
231.11
0
VERTEX
8
1
10
60.00
20
231.11
0
VERTEX
8
1
10
60.00
20
220.37
0
VERTEX
8
1
10
55.00
20
220.37
0
VERTEX
8
1
10
55.00
20
209.63
0
VERTEX
8
1
10
60.00
20
209.63
0
VERTEX
8
1
10
60.00
20
198.89
0
VERTEX
8
1
10
55.00
20
198.89
0
VERTEX
8
1
10
55.00
20
188.15
0
VERTEX
8
1
10
60.00
20
188.15
0
VERTEX
8
1
10
60.00
20
177.41
0
VERTEX
8
1
10
55.00
20
177.41
0
VERTEX
8
1
10
55.00
20
166.67
0
VERTEX
8
1
10
60.00
20
166.67
0
VERTEX
8
1
10
60.00
20
155.93
0
VERTEX
8
1
10
55.00
20
155.93
0
VERTEX
8
1
10
55.00
20
145.19
0
VERTEX
8
1
10
60.00
20
145.19
0
VERTEX
8
1
10
60.00
20
134.44
0
VERTEX
8
1
10
55.00
20
134.44
0
VERTEX
8
1
10
55.00
20
123.70
0
VERTEX
8
1
10
60.00
20
123.70
0
VERTEX
8
1
10
60.00
20
112.96
0
VERTEX
8
1
10
55.00
20
112.96
0
VERTEX
8
1
10
55.00
20
102.22
0
VERTEX
8
1
10
60.00
20
102.22
0
VERTEX
8
1
10
60.00
20
91.48
0
VERTEX
8
1
10
55.00
20
91.48
0
VERTEX
8
1
10
55.00
20
80.74
0
VERTEX
8
1
10
60.00
20
80.74
0
VERTEX
8
1
10
60.00
20
70.00
0
VERTEX
8
1
10
48.00
20
70.00
0
VERTEX
8
1
10
48.00
20
65.00
0
VERTEX
8
1
10
36.00
20
65.00
0
VERTEX
8
1
10
36.00
20
70.00
0
VERTEX
8
1
10
24.00
20
70.00
0
VERTEX
8
1
10
24.00
20
65.00
0
VERTEX
8
1
10
12.00
20
65.00
0
VERTEX
8
1
10
12.00
20
70.00
0
VERTEX
8
1
10
0.00
20
70.00
0
SEQEND
0
POLYLINE
8
1
66
1
70
0
0
VERTEX
8
1
10
24.00
20
163.33
0
VERTEX
8
1
10
36.00
20
163.33
0
VERTEX
8
1
10
36.00
20
168.33
0
VERTEX
8
1
10
24.00
20
168.33
0
VERTEX
8
1
10
24.00
20
163.33
0
SEQEND
0
POLYLINE
8
1
66
1
70
0
0
VERTEX
8
1
10
24.00
20
261.67
0
VERTEX
8
1
10
36.00
20
261.67
0
VERTEX
8
1
10
36.00
20
266.67
0
VERTEX
8
1
10
24.00
20
266.67
0
VERTEX
8
1
10
24.00
20
261.67
0
SEQEND
0
POLYLINE
8
1
66
1
70
0
0
VERTEX
8
1
10
500.00
20
70.00
0
VERTEX
8
1
10
500.00
20
80.74
0
VERTEX
8
1
10
495.00
20
80.74
0
VERTEX
8
1
10
495.00
20
91.48
0
VERTEX
8
1
10
500.00
20
91.48
0
VERTEX
8
1
10
500.00
20
102.22
0
VERTEX
8
1
10
495.00
20
102.22
0
VERTEX
8
1
10
495.00
20
112.96
0
VERTEX
8
1
10
500.00
20
112.96
0
VERTEX
8
1
10
500.00
20
123.70
0
VERTEX
8
1
10
495.00
20
123.70
0
VERTEX
8
1
10
495.00
20
134.44
0
VERTEX
8
1
10
500.00
20
134.44
0
VERTEX
8
1
10
500.00
20
145.19
0
VERTEX
8
1
10
495.00
20
145.19
0
VERTEX
8
1
10
495.00
20
155.93
0
VERTEX
8
1
10
500.00
20
155.93
0
VERTEX
8
1
10
500.00
20
166.67
0
VERTEX
8
1
10
495.00
20
166.67
0
VERTEX
8
1
10
495.00
20
177.41
0
VERTEX
8
1
10
500.00
20
177.41
0
VERTEX
8
1
10
500.00
20
188.15
0
VERTEX
8
1
10
495.00
20
188.15
0
VERTEX
8
1
10
495.00
20
198.89
0
VERTEX
8
1
10
500.00
20
198.89
0
VERTEX
8
1
10
500.00
20
209.63
0
VERTEX
8
1
10
495.00
20
209.63
0
VERTEX
8
1
10
495.00
20
220.37
0
VERTEX
8
1
10
500.00
20
220.37
0
VERTEX
8
1
10
500.00
20
231.11
0
VERTEX
8
1
10
495.00
20
231.11
0
VERTEX
8
1
10
495.00
20
241.85
0
VERTEX
8
1
10
500.00
20
241.85
0
VERTEX
8
1
10
500.00
20
252.59
0
VERTEX
8
1
10
495.00
20
252.59
0
VERTEX
8
1
10
495.00
20
263.33
0
VERTEX
8
1
10
500.00
20
263.33
0
VERTEX
8
1
10
500.00
20
274.07
0
VERTEX
8
1
10
495.00
20
274.07
0
VERTEX
8
1
10
495.00
20
284.81
0
VERTEX
8
1
10
500.00
20
284.81
0
VERTEX
8
1
10
500.00
20
295.56
0
VERTEX
8
1
10
495.00
20
295.56
0
VERTEX
8
1
10
495.00
20
306.30
0
VERTEX
8
1
10
500.00
20
306.30
0
VERTEX
8
1
10
500.00
20
317.04
0
VERTEX
8
1
10
495.00
20
317.04
0
VERTEX
8
1
10
495.00
20
327.78
0
VERTEX
8
1
10
500.00
20
327.78
0
VERTEX
8
1
10
500.00
20
338.52
0
VERTEX
8
1
10
495.00
20
338.52
0
VERTEX
8
1
10
495.00
20
349.26
0
VERTEX
8
1
10
500.00
20
349.26
0
VERTEX
8
1
10
500.00
20
360.00
0
VERTEX
8
1
10
488.00
20
360.00
0
VERTEX
8
1
10
488.00
20
365.00
0
VERTEX
8
1
10
476.00
20
365.00
0
VERTEX
8
1
10
476.00
20
360.00
0
VERTEX
8
1
10
464.00
20
360.00
0
VERTEX
8
1
10
464.00
20
365.00
0
VERTEX
8
1
10
452.00
20
365.00
0
VERTEX
8
1
10
452.00
20
360.00
0
VERTEX
8
1
10
440.00
20
360.00
0
VERTEX
8
1
10
440.00
20
349.26
0
VERTEX
8
1
10
445.00
20
349.26
0
VERTEX
8
1
10
445.00
20
338.52
0
VERTEX
8
1
10
440.00
20
338.52
0
VERTEX
8
1
10
440.00
20
327.78
0
VERTEX
8
1
10
445.00
20
327.78
0
VERTEX
8
1
10
445.00
20
317.04
0
VERTEX
8
1
10
440.00
20
317.04
0
VERTEX
8
1
10
440.00
20
306.30
0
VERTEX
8
1
10
445.00
20
306.30
0
VERTEX
8
1
10
445.00
20
295.56
0
VERTEX
8
1
10
440.00
20
295.56
0
VERTEX
8
1
10
440.00
20
284.81
0
VERTEX
8
1
10
445.00
20
284.81
0
VERTEX
8
1
10
445.00
20
274.07
0
VERTEX
8
1
10
440.00
20
274.07
0
VERTEX
8
1
10
440.00
20
263.33
0
VERTEX
8
1
10
445.00
20
263.33
0
VERTEX
8
1
10
445.00
20
252.59
0
VERTEX
8
1
10
440.00
20
252.59
0
VERTEX
8
1
10
440.00
20
241.85
0
VERTEX
8
1
10
445.00
20
241.85
0
VERTEX
8
1
10
445.00
20
231.11
0
VERTEX
8
1
10
440.00
20
231.11
0
VERTEX
8
1
10
440.00
20
220.37
0
VERTEX
8
1
10
445.00
20
220.37
0
VERTEX
8
1
10
445.00
20
209.63
0
VERTEX
8
1
10
440.00
20
209.63
0
VERTEX
8
1
10
440.00
20
198.89
0
VERTEX
8
1
10
445.00
20
198.89
0
VERTEX
8
1
10
445.00
20
188.15
0
VERTEX
8
1
10
440.00
20
188.15
0
VERTEX
8
1
10
440.00
20
177.41
0
VERTEX
8
1
10
445.00
20
177.41
0
VERTEX
8
1
10
445.00
20
166.67
0
VERTEX
8
1
10
440.00
20
166.67
0
VERTEX
8
1
10
440.00
20
155.93
0
VERTEX
8
1
10
445.00
20
155.93
0
VERTEX
8
1
10
445.00
20
145.19
0
VERTEX
8
1
10
440.00
20
145.19
0
VERTEX
8
1
10
440.00
20
134.44
0
VERTEX
8
1
10
445.00
20
134.44
0
VERTEX
8
1
10
445.00
20
123.70
0
VERTEX
8
1
10
440.00
20
123.70
0
VERTEX
8
1
10
440.00
20
112.96
0
VERTEX
8
1
10
445.00
20
112.96
0
VERTEX
8
1
10
445.00
20
102.22
0
VERTEX
8
1
10
440.00
20
102.22
0
VERTEX
8
1
10
440.00
20
91.48
0
VERTEX
8
1
10
445.00
20
91.48
0
VERTEX
8
1
10
445.00
20
80.74
0
VERTEX
8
1
10
440.00
20
80.74
0
VERTEX
8
1
10
440.00
20
70.00
0
VERTEX
8
1
10
452.00
20
70.00
0
VERTEX
8
1
10
452.00
20
65.00
0
VERTEX
8
1
10
464.00
20
65.00
0
VERTEX
8
1
10
464.00
20
70.00
0
VERTEX
8
1
10
476.00
20
70.00
0
VERTEX
8
1
10
476.00
20
65.00
0
VERTEX
8
1
10
488.00
20
65.00
0
VERTEX
8
1
10
488.00
20
70.00
0
VERTEX
8
1
10
500.00
20
70.00
0
SEQEND
0
POLYLINE
8
1
66
1
70
0
0
VERTEX
8
1
10
476.00
20
163.33
0
VERTEX
8
1
10
464.00
20
163.33
0
VERTEX
8
1
10
464.00
20
168.33
0
VERTEX
8
1
10
476.00
20
168.33
0
VERTEX
8
1
10
476.00
20
163.33
0
SEQEND
0
POLYLINE
8
1
66
1
70
0
0
VERTEX
8
1
10
476.00
20
261.67
0
VERTEX
8
1
10
464.00
20
261.67
0
VERTEX
8
1
10
464.00
20
266.67
0
VERTEX
8
1
10
476.00
20
266.67
0
VERTEX
8
1
10
476.00
20
261.67
0
SEQEND
0
POLYLINE
8
1
66
1
70
0
0
VERTEX
8
1
10
70.00
20
440.00
0
VERTEX
8
1
10
80.29
20
440.00
0
VERTEX
8
1
10
80.29
20
435.00
0
VERTEX
8
1
10
90.57
20
435.00
0
VERTEX
8
1
10
90.57
20
440.00
0
VERTEX
8
1
10
100.86
20
440.00
0
VERTEX
8
1
10
100.86
20
435.00
0
VERTEX
8
1
10
111.14
20
435.00
0
VERTEX
8
1
10
111.14
20
440.00
0
VERTEX
8
1
10
121.43
20
440.00
0
VERTEX
8
1
10
121.43
20
435.00
0
VERTEX
8
1
10
131.71
20
435.00
0
VERTEX
8
1
10
131.71
20
440.00
0
VERTEX
8
1
10
142.00
20
440.00
0
VERTEX
8
1
10
142.00
20
435.00
0
VERTEX
8
1
10
152.29
20
435.00
0
VERTEX
8
1
10
152.29
20
440.00
0
VERTEX
8
1
10
162.57
20
440.00
0
VERTEX
8
1
10
162.57
20
435.00
0
VERTEX
8
1
10
172.86
20
435.00
0
VERTEX
8
1
10
172.86
20
440.00
0
VERTEX
8
1
10
183.14
20
440.00
0
VERTEX
8
1
10
183.14
20
435.00
0
VERTEX
8
1
10
193.43
20
435.00
0
VERTEX
8
1
10
193.43
20
440.00
0
VERTEX
8
1
10
203.71
20
440.00
0
VERTEX
8
1
10
203.71
20
435.00
0
VERTEX
8
1
10
214.00
20
435.00
0
VERTEX
8
1
10
214.00
20
440.00
0
VERTEX
8
1
10
224.29
20
440.00
0
VERTEX
8
1
10
224.29
20
435.00
0
VERTEX
8
1
10
234.57
20
435.00
0
VERTEX
8
1
10
234.57
20
440.00
0
VERTEX
8
1
10
244.86
20
440.00
0
VERTEX
8
1
10
244.86
20
435.00
0
VERTEX
8
1
10
255.14
20
435.00
0
VERTEX
8
1
10
255.14
20
440.00
0
VERTEX
8
1
10
265.43
20
440.00
0
VERTEX
8
1
10
265.43
20
435.00
0
VERTEX
8
1
10
275.71
20
435.00
0
VERTEX
8
1
10
275.71
20
440.00
0
VERTEX
8
1
10
286.00
20
440.00
0
VERTEX
8
1
10
286.00
20
435.00
0
VERTEX
8
1
10
296.29
20
435.00
0
VERTEX
8
1
10
296.29
20
440.00
0
VERTEX
8
1
10
306.57
20
440.00
0
VERTEX
8
1
10
306.57
20
435.00
0
VERTEX
8
1
10
316.86
20
435.00
0
VERTEX
8
1
10
316.86
20
440.00
0
VERTEX
8
1
10
327.14
20
440.00
0
VERTEX
8
1
10
327.14
20
435.00
0
VERTEX
8
1
10
337.43
20
435.00
0
VERTEX
8
1
10
337.43
20
440.00
0
VERTEX
8
1
10
347.71
20
440.00
0
VERTEX
8
1
10
347.71
20
435.00
0
VERTEX
8
1
10
358.00
20
435.00
0
VERTEX
8
1
10
358.00
20
440.00
0
VERTEX
8
1
10
368.29
20
440.00
0
VERTEX
8
1
10
368.29
20
435.00
0
VERTEX
8
1
10
378.57
20
435.00
0
VERTEX
8
1
10
378.57
20
440.00
0
VERTEX
8
1
10
388.86
20
440.00
0
VERTEX
8
1
10
388.86
20
435.00
0
VERTEX
8
1
10
399.14
20
435.00
0
VERTEX
8
1
10
399.14
20
440.00
0
VERTEX
8
1
10
409.43
20
440.00
0
VERTEX
8
1
10
409.43
20
435.00
0
VERTEX
8
1
10
419.71
20
435.00
0
VERTEX
8
1
10
419.71
20
440.00
0
VERTEX
8
1
10
430.00
20
440.00
0
VERTEX
8
1
10
430.00
20
450.74
0
VERTEX
8
1
10
435.00
20
450.74
0
VERTEX
8
1
10
435.00
20
461.48
0
VERTEX
8
1
10
430.00
20
461.48
0
VERTEX
8
1
10
430.00
20
472.22
0
VERTEX
8
1
10
435.00
20
472.22
0
VERTEX
8
1
10
435.00
20
482.96
0
VERTEX
8
1
10
430.00
20
482.96
0
VERTEX
8
1
10
430.00
20
493.70
0
VERTEX
8
1
10
435.00
20
493.70
0
VERTEX
8
1
10
435.00
20
504.44
0
VERTEX
8
1
10
430.00
20
504.44
0
VERTEX
8
1
10
430.00
20
515.18
0
VERTEX
8
1
10
435.00
20
515.18
0
VERTEX
8
1
10
435.00
20
525.93
0
VERTEX
8
1
10
430.00
20
525.93
0
VERTEX
8
1
10
430.00
20
536.67
0
VERTEX
8
1
10
435.00
20
536.67
0
VERTEX
8
1
10
435.00
20
547.41
0
VERTEX
8
1
10
430.00
20
547.41
0
VERTEX
8
1
10
430.00
20
558.15
0
VERTEX
8
1
10
435.00
20
558.15
0
VERTEX
8
1
10
435.00
20
568.89
0
VERTEX
8
1
10
430.00
20
568.89
0
VERTEX
8
1
10
430.00
20
579.63
0
VERTEX
8
1
10
435.00
20
579.63
0
VERTEX
8
1
10
435.00
20
590.37
0
VERTEX
8
1
10
430.00
20
590.37
0
VERTEX
8
1
10
430.00
20
601.11
0
VERTEX
8
1
10
435.00
20
601.11
0
VERTEX
8
1
10
435.00
20
611.85
0
VERTEX
8
1
10
430.00
20
611.85
0
VERTEX
8
1
10
430.00
20
622.59
0
VERTEX
8
1
10
435.00
20
622.59
0
VERTEX
8
1
10
435.00
20
633.33
0
VERTEX
8
1
10
430.00
20
633.33
0
VERTEX
8
1
10
430.00
20
644.07
0
VERTEX
8
1
10
435.00
20
644.07
0
VERTEX
8
1
10
435.00
20
654.82
0
VERTEX
8
1
10
430.00
20
654.82
0
VERTEX
8
1
10
430.00
20
665.56
0
VERTEX
8
1
10
435.00
20
665.56
0
VERTEX
8
1
10
435.00
20
676.30
0
VERTEX
8
1
10
430.00
20
676.30
0
VERTEX
8
1
10
430.00
20
687.04
0
VERTEX
8
1
10
435.00
20
687.04
0
VERTEX
8
1
10
435.00
20
697.78
0
VERTEX
8
1
10
430.00
20
697.78
0
VERTEX
8
1
10
430.00
20
708.52
0
VERTEX
8
1
10
435.00
20
708.52
0
VERTEX
8
1
10
435.00
20
719.26
0
VERTEX
8
1
10
430.00
20
719.26
0
VERTEX
8
1
10
430.00
20
730.00
0
VERTEX
8
1
10
419.71
20
730.00
0
VERTEX
8
1
10
419.71
20
735.00
0
VERTEX
8
1
10
409.43
20
735.00
0
VERTEX
8
1
10
409.43
20
730.00
0
VERTEX
8
1
10
399.14
20
730.00
0
VERTEX
8
1
10
399.14
20
735.00
0
VERTEX
8
1
10
388.86
20
735.00
0
VERTEX
8
1
10
388.86
20
730.00
0
VERTEX
8
1
10
378.57
20
730.00
0
VERTEX
8
1
10
378.57
20
735.00
0
VERTEX
8
1
10
368.29
20
735.00
0
VERTEX
8
1
10
368.29
20
730.00
0
VERTEX
8
1
10
358.00
20
730.00
0
VERTEX
8
1
10
358.00
20
735.00
0
VERTEX
8
1
10
347.71
20
735.00
0
VERTEX
8
1
10
347.71
20
730.00
0
VERTEX
8
1
10
337.43
20
730.00
0
VERTEX
8
1
10
337.43
20
735.00
0
VERTEX
8
1
10
327.14
20
735.00
0
VERTEX
8
1
10
327.14
20
730.00
0
VERTEX
8
1
10
316.86
20
730.00
0
VERTEX
8
1
10
316.86
20
735.00
0
VERTEX
8
1
10
306.57
20
735.00
0
VERTEX
8
1
10
306.57
20
730.00
0
VERTEX
8
1
10
296.29
20
730.00
0
VERTEX
8
1
10
296.29
20
735.00
0
VERTEX
8
1
10
286.00
20
735.00
0
VERTEX
8
1
10
286.00
20
730.00
0
VERTEX
8
1
10
275.71
20
730.00
0
VERTEX
8
1
10
275.71
20
735.00
0
VERTEX
8
1
10
265.43
20
735.00
0
VERTEX
8
1
10
265.43
20
730.00
0
VERTEX
8
1
10
255.14
20
730.00
0
VERTEX
8
1
10
255.14
20
735.00
0
VERTEX
8
1
10
244.86
20
735.00
0
VERTEX
8
1
10
244.86
20
730.00
0
VERTEX
8
1
10
234.57
20
730.00
0
VERTEX
8
1
10
234.57
20
735.00
0
VERTEX
8
1
10
224.29
20
735.00
0
VERTEX
8
1
10
224.29
20
730.00
0
VERTEX
8
1
10
214.00
20
730.00
0
VERTEX
8
1
10
214.00
20
735.00
0
VERTEX
8
1
10
203.71
20
735.00
0
VERTEX
8
1
10
203.71
20
730.00
0
VERTEX
8
1
10
193.43
20
730.00
0
VERTEX
8
1
10
193.43
20
735.00
0
VERTEX
8
1
10
183.14
20
735.00
0
VERTEX
8
1
10
183.14
20
730.00
0
VERTEX
8
1
10
172.86
20
730.00
0
VERTEX
8
1
10
172.86
20
735.00
0
VERTEX
8
1
10
162.57
20
735.00
0
VERTEX
8
1
10
162.57
20
730.00
0
VERTEX
8
1
10
152.29
20
730.00
0
VERTEX
8
1
10
152.29
20
735.00
0
VERTEX
8
1
10
142.00
20
735.00
0
VERTEX
8
1
10
142.00
20
730.00
0
VERTEX
8
1
10
131.71
20
730.00
0
VERTEX
8
1
10
131.71
20
735.00
0
VERTEX
8
1
10
121.43
20
735.00
0
VERTEX
8
1
10
121.43
20
730.00
0
VERTEX
8
1
10
111.14
20
730.00
0
VERTEX
8
1
10
111.14
20
735.00
0
VERTEX
8
1
10
100.86
20
735.00
0
VERTEX
8
1
10
100.86
20
730.00
0
VERTEX
8
1
10
90.57
20
730.00
0
VERTEX
8
1
10
90.57
20
735.00
0
VERTEX
8
1
10
80.29
20
735.00
0
VERTEX
8
1
10
80.29
20
730.00
0
VERTEX
8
1
10
70.00
20
730.00
0
VERTEX
8
1
10
70.00
20
719.26
0
VERTEX
8
1
10
65.00
20
719.26
0
VERTEX
8
1
10
65.00
20
708.52
0
VERTEX
8
1
10
70.00
20
708.52
0
VERTEX
8
1
10
70.00
20
697.78
0
VERTEX
8
1
10
65.00
20
697.78
0
VERTEX
8
1
10
65.00
20
687.04
0
VERTEX
8
1
10
70.00
20
687.04
0
VERTEX
8
1
10
70.00
20
676.30
0
VERTEX
8
1
10
65.00
20
676.30
0
VERTEX
8
1
10
65.00
20
665.56
0
VERTEX
8
1
10
70.00
20
665.56
0
VERTEX
8
1
10
70.00
20
654.82
0
VERTEX
8
1
10
65.00
20
654.82
0
VERTEX
8
1
10
65.00
20
644.07
0
VERTEX
8
1
10
70.00
20
644.07
0
VERTEX
8
1
10
70.00
20
633.33
0
VERTEX
8
1
10
65.00
20
633.33
0
VERTEX
8
1
10
65.00
20
622.59
0
VERTEX
8
1
10
70.00
20
622.59
0
VERTEX
8
1
10
70.00
20
611.85
0
VERTEX
8
1
10
65.00
20
611.85
0
VERTEX
8
1
10
65.00
20
601.11
0
VERTEX
8
1
10
70.00
20
601.11
0
VERTEX
8
1
10
70.00
20
590.37
0
VERTEX
8
1
10
65.00
20
590.37
0
VERTEX
8
1
10
65.00
20
579.63
0
VERTEX
8
1
10
70.00
20
579.63
0
VERTEX
8
1
10
70.00
20
568.89
0
VERTEX
8
1
10
65.00
20
568.89
0
VERTEX
8
1
10
65.00
20
558.15
0
VERTEX
8
1
10
70.00
20
558.15
0
VERTEX
8
1
10
70.00
20
547.41
0
VERTEX
8
1
10
65.00
20
547.41
0
VERTEX
8
1
10
65.00
20
536.67
0
VERTEX
8
1
10
70.00
20
536.67
0
VERTEX
8
1
10
70.00
20
525.93
0
VERTEX
8
1
10
65.00
20
525.93
0
VERTEX
8
1
10
65.00
20
515.18
0
VERTEX
8
1
10
70.00
20
515.18
0
VERTEX
8
1
10
70.00
20
504.44
0
VERTEX
8
1
10
65.00
20
504.44
0
VERTEX
8
1
10
65.00
20
493.70
0
VERTEX
8
1
10
70.00
20
493.70
0
VERTEX
8
1
10
70.00
20
482.96
0
VERTEX
8
1
10
65.00
20
482.96
0
VERTEX
8
1
10
65.00
20
472.22
0
VERTEX
8
1
10
70.00
20
472.22
0
VERTEX
8
1
10
70.00
20
461.48
0
VERTEX
8
1
10
65.00
20
461.48
0
VERTEX
8
1
10
65.00
20
450.74
0
VERTEX
8
1
10
70.00
20
450.74
0
VERTEX
8
1
10
70.00
20
440.00
0
SEQEND
0
POLYLINE
8
1
66
1
70
0
0
VERTEX
8
1
10
86.14
20
533.33
0
VERTEX
8
1
10
96.71
20
533.33
0
VERTEX
8
1
10
96.71
20
538.33
0
VERTEX
8
1
10
86.14
20
538.33
0
VERTEX
8
1
10
86.14
20
533.33
0
SEQEND
0
POLYLINE
8
1
66
1
70
0
0
VERTEX
8
1
10
107.29
20
533.33
0
VERTEX
8
1
10
117.86
20
533.33
0
VERTEX
8
1
10
117.86
20
538.33
0
VERTEX
8
1
10
107.29
20
538.33
0
VERTEX
8
1
10
107.29
20
533.33
0
SEQEND
0
POLYLINE
8
1
66
1
70
0
0
VERTEX
8
1
10
128.43
20
533.33
0
VERTEX
8
1
10
139.00
20
533.33
0
VERTEX
8
1
10
139.00
20
538.33
0
VERTEX
8
1
10
128.43
20
538.33
0
VERTEX
8
1
10
128.43
20
533.33
0
SEQEND
0
POLYLINE
8
1
66
1
70
0
0
VERTEX
8
1
10
149.57
20
533.33
0
VERTEX
8
1
10
160.14
20
533.33
0
VERTEX
8
1
10
160.14
20
538.33
0
VERTEX
8
1
10
149.57
20
538.33
0
VERTEX
8
1
10
149.57
20
533.33
0
SEQEND
0
POLYLINE
8
1
66
1
70
0
0
VERTEX
8
1
10
170.71
20
533.33
0
VERTEX
8
1
10
181.29
20
533.33
0
VERTEX
8
1
10
181.29
20
538.33
0
VERTEX
8
1
10
170.71
20
538.33
0
VERTEX
8
1
10
170.71
20
533.33
0
SEQEND
0
POLYLINE
8
1
66
1
70
0
0
VERTEX
8
1
10
191.86
20
533.33
0
VERTEX
8
1
10
202.43
20
533.33
0
VERTEX
8
1
10
202.43
20
538.33
0
VERTEX
8
1
10
191.86
20
538.33
0
VERTEX
8
1
10
191.86
20
533.33
0
SEQEND
0
POLYLINE
8
1
66
1
70
0
0
VERTEX
8
1
10
213.00
20
533.33
0
VERTEX
8
1
10
223.57
20
533.33
0
VERTEX
8
1
10
223.57
20
538.33
0
VERTEX
8
1
10
213.00
20
538.33
0
VERTEX
8
1
10
213.00
20
533.33
0
SEQEND
0
POLYLINE
8
1
66
1
70
0
0
VERTEX
8
1
10
234.14
20
533.33
0
VERTEX
8
1
10
244.71
20
533.33
0
VERTEX
8
1
10
244.71
20
538.33
0
VERTEX
8
1
10
234.14
20
538.33
0
VERTEX
8
1
10
234.14
20
533.33
0
SEQEND
0
POLYLINE
8
1
66
1
70
0
0
VERTEX
8
1
10
255.29
20
533.33
0
VERTEX
8
1
10
265.86
20
533.33
0
VERTEX
8
1
10
265.86
20
538.33
0
VERTEX
8
1
10
255.29
20
538.33
0
VERTEX
8
1
10
255.29
20
533.33
0
SEQEND
0
POLYLINE
8
1
66
1
70
0
0
VERTEX
8
1
10
276.43
20
533.33
0
VERTEX
8
1
10
287.00
20
533.33
0
VERTEX
8
1
10
287.00
20
538.33
0
VERTEX
8
1
10
276.43
20
538.33
0
VERTEX
8
1
10
276.43
20
533.33
0
SEQEND
0
POLYLINE
8
1
66
1
70
0
0
VERTEX
8
1
10
297.57
20
533.33
0
VERTEX
8
1
10
308.14
20
533.33
0
VERTEX
8
1
10
308.14
20
538.33
0
VERTEX
8
1
10
297.57
20
538.33
0
VERTEX
8
1
10
297.57
20
533.33
0
SEQEND
0
POLYLINE
8
1
66
1
70
0
0
VERTEX
8
1
10
318.71
20
533.33
0
VERTEX
8
1
10
329.29
20
533.33
0
VERTEX
8
1
10
329.29
20
538.33
0
VERTEX
8
1
10
318.71
20
538.33
0
VERTEX
8
1
10
318.71
20
533.33
0
SEQEND
0
POLYLINE
8
1
66
1
70
0
0
VERTEX
8
1
10
339.86
20
533.33
0
VERTEX
8
1
10
350.43
20
533.33
0
VERTEX
8
1
10
350.43
20
538.33
0
VERTEX
8
1
10
339.86
20
538.33
0
VERTEX
8
1
10
339.86
20
533.33
0
SEQEND
0
POLYLINE
8
1
66
1
70
0
0
VERTEX
8
1
10
361.00
20
533.33
0
VERTEX
8
1
10
371.57
20
533.33
0
VERTEX
8
1
10
371.57
20
538.33
0
VERTEX
8
1
10
361.00
20
538.33
0
VERTEX
8
1
10
361.00
20
533.33
0
SEQEND
0
POLYLINE
8
1
66
1
70
0
0
VERTEX
8
1
10
382.14
20
533.33
0
VERTEX
8
1
10
392.71
20
533.33
0
VERTEX
8
1
10
392.71
20
538.33
0
VERTEX
8
1
10
382.14
20
538.33
0
VERTEX
8
1
10
382.14
20
533.33
0
SEQEND
0
POLYLINE
8
1
66
1
70
0
0
VERTEX
8
1
10
403.29
20
533.33
0
VERTEX
8
1
10
413.86
20
533.33
0
VERTEX
8
1
10
413.86
20
538.33
0
VERTEX
8
1
10
403.29
20
538.33
0
VERTEX
8
1
10
403.29
20
533.33
0
SEQEND
0
POLYLINE
8
1
66
1
70
0
0
VERTEX
8
1
10
86.14
20
631.67
0
VERTEX
8
1
10
96.71
20
631.67
0
VERTEX
8
1
10
96.71
20
636.67
0
VERTEX
8
1
10
86.14
20
636.67
0
VERTEX
8
1
10
86.14
20
631.67
0
SEQEND
0
POLYLINE
8
1
66
1
70
0
0
VERTEX
8
1
10
107.29
20
631.67
0
VERTEX
8
1
10
117.86
20
631.67
0
VERTEX
8
1
10
117.86
20
636.67
0
VERTEX
8
1
10
107.29
20
636.67
0
VERTEX
8
1
10
107.29
20
631.67
0
SEQEND
0
POLYLINE
8
1
66
1
70
0
0
VERTEX
8
1
10
128.43
20
631.67
0
VERTEX
8
1
10
139.00
20
631.67
0
VERTEX
8
1
10
139.00
20
636.67
0
VERTEX
8
1
10
128.43
20
636.67
0
VERTEX
8
1
10
128.43
20
631.67
0
SEQEND
0
POLYLINE
8
1
66
1
70
0
0
VERTEX
8
1
10
149.57
20
631.67
0
VERTEX
8
1
10
160.14
20
631.67
0
VERTEX
8
1
10
160.14
20
636.67
0
VERTEX
8
1
10
149.57
20
636.67
0
VERTEX
8
1
10
149.57
20
631.67
0
SEQEND
0
POLYLINE
8
1
66
1
70
0
0
VERTEX
8
1
10
170.71
20
631.67
0
VERTEX
8
1
10
181.29
20
631.67
0
VERTEX
8
1
10
181.29
20
636.67
0
VERTEX
8
1
10
170.71
20
636.67
0
VERTEX
8
1
10
170.71
20
631.67
0
SEQEND
0
POLYLINE
8
1
66
1
70
0
0
VERTEX
8
1
10
191.86
20
631.67
0
VERTEX
8
1
10
202.43
20
631.67
0
VERTEX
8
1
10
202.43
20
636.67
0
VERTEX
8
1
10
191.86
20
636.67
0
VERTEX
8
1
10
191.86
20
631.67
0
SEQEND
0
POLYLINE
8
1
66
1
70
0
0
VERTEX
8
1
10
213.00
20
631.67
0
VERTEX
8
1
10
223.57
20
631.67
0
VERTEX
8
1
10
223.57
20
636.67
0
VERTEX
8
1
10
213.00
20
636.67
0
VERTEX
8
1
10
213.00
20
631.67
0
SEQEND
0
POLYLINE
8
1
66
1
70
0
0
VERTEX
8
1
10
234.14
20
631.67
0
VERTEX
8
1
10
244.71
20
631.67
0
VERTEX
8
1
10
244.71
20
636.67
0
VERTEX
8
1
10
234.14
20
636.67
0
VERTEX
8
1
10
234.14
20
631.67
0
SEQEND
0
POLYLINE
8
1
66
1
70
0
0
VERTEX
8
1
10
255.29
20
631.67
0
VERTEX
8
1
10
265.86
20
631.67
0
VERTEX
8
1
10
265.86
20
636.67
0
VERTEX
8
1
10
255.29
20
636.67
0
VERTEX
8
1
10
255.29
20
631.67
0
SEQEND
0
POLYLINE
8
1
66
1
70
0
0
VERTEX
8
1
10
276.43
20
631.67
0
VERTEX
8
1
10
287.00
20
631.67
0
VERTEX
8
1
10
287.00
20
636.67
0
VERTEX
8
1
10
276.43
20
636.67
0
VERTEX
8
1
10
276.43
20
631.67
0
SEQEND
0
POLYLINE
8
1
66
1
70
0
0
VERTEX
8
1
10
297.57
20
631.67
0
VERTEX
8
1
10
308.14
20
631.67
0
VERTEX
8
1
10
308.14
20
636.67
0
VERTEX
8
1
10
297.57
20
636.67
0
VERTEX
8
1
10
297.57
20
631.67
0
SEQEND
0
POLYLINE
8
1
66
1
70
0
0
VERTEX
8
1
10
318.71
20
631.67
0
VERTEX
8
1
10
329.29
20
631.67
0
VERTEX
8
1
10
329.29
20
636.67
0
VERTEX
8
1
10
318.71
20
636.67
0
VERTEX
8
1
10
318.71
20
631.67
0
SEQEND
0
POLYLINE
8
1
66
1
70
0
0
VERTEX
8
1
10
339.86
20
631.67
0
VERTEX
8
1
10
350.43
20
631.67
0
VERTEX
8
1
10
350.43
20
636.67
0
VERTEX
8
1
10
339.86
20
636.67
0
VERTEX
8
1
10
339.86
20
631.67
0
SEQEND
0
POLYLINE
8
1
66
1
70
0
0
VERTEX
8
1
10
361.00
20
631.67
0
VERTEX
8
1
10
371.57
20
631.67
0
VERTEX
8
1
10
371.57
20
636.67
0
VERTEX
8
1
10
361.00
20
636.67
0
VERTEX
8
1
10
361.00
20
631.67
0
SEQEND
0
POLYLINE
8
1
66
1
70
0
0
VERTEX
8
1
10
382.14
20
631.67
0
VERTEX
8
1
10
392.71
20
631.67
0
VERTEX
8
1
10
392.71
20
636.67
0
VERTEX
8
1
10
382.14
20
636.67
0
VERTEX
8
1
10
382.14
20
631.67
0
SEQEND
0
POLYLINE
8
1
66
1
70
0
0
VERTEX
8
1
10
403.29
20
631.67
0
VERTEX
8
1
10
413.86
20
631.67
0
VERTEX
8
1
10
413.86
20
636.67
0
VERTEX
8
1
10
403.29
20
636.67
0
VERTEX
8
1
10
403.29
20
631.67
0
SEQEND
0
POLYLINE
8
1
66
1
70
0
0
VERTEX
8
1
10
510.00
20
5.00
0
VERTEX
8
1
10
515.57
20
5.00
0
VERTEX
8
1
10
526.14
20
5.00
0
VERTEX
8
1
10
526.14
20
0.00
0
VERTEX
8
1
10
536.71
20
0.00
0
VERTEX
8
1
10
536.71
20
5.00
0
VERTEX
8
1
10
547.29
20
5.00
0
VERTEX
8
1
10
547.29
20
0.00
0
VERTEX
8
1
10
557.86
20
0.00
0
VERTEX
8
1
10
557.86
20
5.00
0
VERTEX
8
1
10
568.43
20
5.00
0
VERTEX
8
1
10
568.43
20
0.00
0
VERTEX
8
1
10
579.00
20
0.00
0
VERTEX
8
1
10
579.00
20
5.00
0
VERTEX
8
1
10
589.57
20
5.00
0
VERTEX
8
1
10
589.57
20
0.00
0
VERTEX
8
1
10
600.14
20
0.00
0
VERTEX
8
1
10
600.14
20
5.00
0
VERTEX
8
1
10
610.71
20
5.00
0
VERTEX
8
1
10
610.71
20
0.00
0
VERTEX
8
1
10
621.29
20
0.00
0
VERTEX
8
1
10
621.29
20
5.00
0
VERTEX
8
1
10
631.86
20
5.00
0
VERTEX
8
1
10
631.86
20
0.00
0
VERTEX
8
1
10
642.43
20
0.00
0
VERTEX
8
1
10
642.43
20
5.00
0
VERTEX
8
1
10
653.00
20
5.00
0
VERTEX
8
1
10
653.00
20
0.00
0
VERTEX
8
1
10
663.57
20
0.00
0
VERTEX
8
1
10
663.57
20
5.00
0
VERTEX
8
1
10
674.14
20
5.00
0
VERTEX
8
1
10
674.14
20
0.00
0
VERTEX
8
1
10
684.71
20
0.00
0
VERTEX
8
1
10
684.71
20
5.00
0
VERTEX
8
1
10
695.29
20
5.00
0
VERTEX
8
1
10
695.29
20
0.00
0
VERTEX
8
1
10
705.86
20
0.00
0
VERTEX
8
1
10
705.86
20
5.00
0
VERTEX
8
1
10
716.43
20
5.00
0
VERTEX
8
1
10
716.43
20
0.00
0
VERTEX
8
1
10
727.00
20
0.00
0
VERTEX
8
1
10
727.00
20
5.00
0
VERTEX
8
1
10
737.57
20
5.00
0
VERTEX
8
1
10
737.57
20
0.00
0
VERTEX
8
1
10
748.14
20
0.00
0
VERTEX
8
1
10
748.14
20
5.00
0
VERTEX
8
1
10
758.71
20
5.00
0
VERTEX
8
1
10
758.71
20
0.00
0
VERTEX
8
1
10
769.29
20
0.00
0
VERTEX
8
1
10
769.29
20
5.00
0
VERTEX
8
1
10
779.86
20
5.00
0
VERTEX
8
1
10
779.86
20
0.00
0
VERTEX
8
1
10
790.43
20
0.00
0
VERTEX
8
1
10
790.43
20
5.00
0
VERTEX
8
1
10
801.00
20
5.00
0
VERTEX
8
1
10
801.00
20
0.00
0
VERTEX
8
1
10
811.57
20
0.00
0
VERTEX
8
1
10
811.57
20
5.00
0
VERTEX
8
1
10
822.14
20
5.00
0
VERTEX
8
1
10
822.14
20
0.00
0
VERTEX
8
1
10
832.71
20
0.00
0
VERTEX
8
1
10
832.71
20
5.00
0
VERTEX
8
1
10
843.29
20
5.00
0
VERTEX
8
1
10
843.29
20
0.00
0
VERTEX
8
1
10
853.86
20
0.00
0
VERTEX
8
1
10
853.86
20
5.00
0
VERTEX
8
1
10
864.43
20
5.00
0
VERTEX
8
1
10
870.00
20
5.00
0
VERTEX
8
1
10
870.00
20
12.00
0
VERTEX
8
1
10
870.00
20
24.00
0
VERTEX
8
1
10
875.00
20
24.00
0
VERTEX
8
1
10
875.00
20
36.00
0
VERTEX
8
1
10
870.00
20
36.00
0
VERTEX
8
1
10
870.00
20
48.00
0
VERTEX
8
1
10
870.00
20
55.00
0
VERTEX
8
1
10
864.43
20
55.00
0
VERTEX
8
1
10
853.86
20
55.00
0
VERTEX
8
1
10
853.86
20
60.00
0
VERTEX
8
1
10
843.29
20
60.00
0
VERTEX
8
1
10
843.29
20
55.00
0
VERTEX
8
1
10
832.71
20
55.00
0
VERTEX
8
1
10
832.71
20
60.00
0
VERTEX
8
1
10
822.14
20
60.00
0
VERTEX
8
1
10
822.14
20
55.00
0
VERTEX
8
1
10
811.57
20
55.00
0
VERTEX
8
1
10
811.57
20
60.00
0
VERTEX
8
1
10
801.00
20
60.00
0
VERTEX
8
1
10
801.00
20
55.00
0
VERTEX
8
1
10
790.43
20
55.00
0
VERTEX
8
1
10
790.43
20
60.00
0
VERTEX
8
1
10
779.86
20
60.00
0
VERTEX
8
1
10
779.86
20
55.00
0
VERTEX
8
1
10
769.29
20
55.00
0
VERTEX
8
1
10
769.29
20
60.00
0
VERTEX
8
1
10
758.71
20
60.00
0
VERTEX
8
1
10
758.71
20
55.00
0
VERTEX
8
1
10
748.14
20
55.00
0
VERTEX
8
1
10
748.14
20
60.00
0
VERTEX
8
1
10
737.57
20
60.00
0
VERTEX
8
1
10
737.57
20
55.00
0
VERTEX
8
1
10
727.00
20
55.00
0
VERTEX
8
1
10
727.00
20
60.00
0
VERTEX
8
1
10
716.43
20
60.00
0
VERTEX
8
1
10
716.43
20
55.00
0
VERTEX
8
1
10
705.86
20
55.00
0
VERTEX
8
1
10
705.86
20
60.00
0
VERTEX
8
1
10
695.29
20
60.00
0
VERTEX
8
1
10
695.29
20
55.00
0
VERTEX
8
1
10
684.71
20
55.00
0
VERTEX
8
1
10
684.71
20
60.00
0
VERTEX
8
1
10
674.14
20
60.00
0
VERTEX
8
1
10
674.14
20
55.00
0
VERTEX
8
1
10
663.57
20
55.00
0
VERTEX
8
1
10
663.57
20
60.00
0
VERTEX
8
1
10
653.00
20
60.00
0
VERTEX
8
1
10
653.00
20
55.00
0
VERTEX
8
1
10
642.43
20
55.00
0
VERTEX
8
1
10
642.43
20
60.00
0
VERTEX
8
1
10
631.86
20
60.00
0
VERTEX
8
1
10
631.86
20
55.00
0
VERTEX
8
1
10
621.29
20
55.00
0
VERTEX
8
1
10
621.29
20
60.00
0
VERTEX
8
1
10
610.71
20
60.00
0
VERTEX
8
1
10
610.71
20
55.00
0
VERTEX
8
1
10
600.14
20
55.00
0
VERTEX
8
1
10
600.14
20
60.00
0
VERTEX
8
1
10
589.57
20
60.00
0
VERTEX
8
1
10
589.57
20
55.00
0
VERTEX
8
1
10
579.00
20
55.00
0
VERTEX
8
1
10
579.00
20
60.00
0
VERTEX
8
1
10
568.43
20
60.00
0
VERTEX
8
1
10
568.43
20
55.00
0
VERTEX
8
1
10
557.86
20
55.00
0
VERTEX
8
1
10
557.86
20
60.00
0
VERTEX
8
1
10
547.29
20
60.00
0
VERTEX
8
1
10
547.29
20
55.00
0
VERTEX
8
1
10
536.71
20
55.00
0
VERTEX
8
1
10
536.71
20
60.00
0
VERTEX
8
1
10
526.14
20
60.00
0
VERTEX
8
1
10
526.14
20
55.00
0
VERTEX
8
1
10
515.57
20
55.00
0
VERTEX
8
1
10
510.00
20
55.00
0
VERTEX
8
1
10
510.00
20
48.00
0
VERTEX
8
1
10
510.00
20
36.00
0
VERTEX
8
1
10
505.00
20
36.00
0
VERTEX
8
1
10
505.00
20
24.00
0
VERTEX
8
1
10
510.00
20
24.00
0
VERTEX
8
1
10
510.00
20
12.00
0
VERTEX
8
1
10
510.00
20
5.00
0
SEQEND
0
POLYLINE
8
1
66
1
70
0
0
VERTEX
8
1
10
510.00
20
70.00
0
VERTEX
8
1
10
515.57
20
70.00
0
VERTEX
8
1
10
526.14
20
70.00
0
VERTEX
8
1
10
526.14
20
65.00
0
VERTEX
8
1
10
536.71
20
65.00
0
VERTEX
8
1
10
536.71
20
70.00
0
VERTEX
8
1
10
547.29
20
70.00
0
VERTEX
8
1
10
547.29
20
65.00
0
VERTEX
8
1
10
557.86
20
65.00
0
VERTEX
8
1
10
557.86
20
70.00
0
VERTEX
8
1
10
568.43
20
70.00
0
VERTEX
8
1
10
568.43
20
65.00
0
VERTEX
8
1
10
579.00
20
65.00
0
VERTEX
8
1
10
579.00
20
70.00
0
VERTEX
8
1
10
589.57
20
70.00
0
VERTEX
8
1
10
589.57
20
65.00
0
VERTEX
8
1
10
600.14
20
65.00
0
VERTEX
8
1
10
600.14
20
70.00
0
VERTEX
8
1
10
610.71
20
70.00
0
VERTEX
8
1
10
610.71
20
65.00
0
VERTEX
8
1
10
621.29
20
65.00
0
VERTEX
8
1
10
621.29
20
70.00
0
VERTEX
8
1
10
631.86
20
70.00
0
VERTEX
8
1
10
631.86
20
65.00
0
VERTEX
8
1
10
642.43
20
65.00
0
VERTEX
8
1
10
642.43
20
70.00
0
VERTEX
8
1
10
653.00
20
70.00
0
VERTEX
8
1
10
653.00
20
65.00
0
VERTEX
8
1
10
663.57
20
65.00
0
VERTEX
8
1
10
663.57
20
70.00
0
VERTEX
8
1
10
674.14
20
70.00
0
VERTEX
8
1
10
674.14
20
65.00
0
VERTEX
8
1
10
684.71
20
65.00
0
VERTEX
8
1
10
684.71
20
70.00
0
VERTEX
8
1
10
695.29
20
70.00
0
VERTEX
8
1
10
695.29
20
65.00
0
VERTEX
8
1
10
705.86
20
65.00
0
VERTEX
8
1
10
705.86
20
70.00
0
VERTEX
8
1
10
716.43
20
70.00
0
VERTEX
8
1
10
716.43
20
65.00
0
VERTEX
8
1
10
727.00
20
65.00
0
VERTEX
8
1
10
727.00
20
70.00
0
VERTEX
8
1
10
737.57
20
70.00
0
VERTEX
8
1
10
737.57
20
65.00
0
VERTEX
8
1
10
748.14
20
65.00
0
VERTEX
8
1
10
748.14
20
70.00
0
VERTEX
8
1
10
758.71
20
70.00
0
VERTEX
8
1
10
758.71
20
65.00
0
VERTEX
8
1
10
769.29
20
65.00
0
VERTEX
8
1
10
769.29
20
70.00
0
VERTEX
8
1
10
779.86
20
70.00
0
VERTEX
8
1
10
779.86
20
65.00
0
VERTEX
8
1
10
790.43
20
65.00
0
VERTEX
8
1
10
790.43
20
70.00
0
VERTEX
8
1
10
801.00
20
70.00
0
VERTEX
8
1
10
801.00
20
65.00
0
VERTEX
8
1
10
811.57
20
65.00
0
VERTEX
8
1
10
811.57
20
70.00
0
VERTEX
8
1
10
822.14
20
70.00
0
VERTEX
8
1
10
822.14
20
65.00
0
VERTEX
8
1
10
832.71
20
65.00
0
VERTEX
8
1
10
832.71
20
70.00
0
VERTEX
8
1
10
843.29
20
70.00
0
VERTEX
8
1
10
843.29
20
65.00
0
VERTEX
8
1
10
853.86
20
65.00
0
VERTEX
8
1
10
853.86
20
70.00
0
VERTEX
8
1
10
864.43
20
70.00
0
VERTEX
8
1
10
870.00
20
70.00
0
VERTEX
8
1
10
870.00
20
77.00
0
VERTEX
8
1
10
870.00
20
89.00
0
VERTEX
8
1
10
875.00
20
89.00
0
VERTEX
8
1
10
875.00
20
101.00
0
VERTEX
8
1
10
870.00
20
101.00
0
VERTEX
8
1
10
870.00
20
113.00
0
VERTEX
8
1
10
870.00
20
120.00
0
VERTEX
8
1
10
864.43
20
120.00
0
VERTEX
8
1
10
853.86
20
120.00
0
VERTEX
8
1
10
853.86
20
125.00
0
VERTEX
8
1
10
843.29
20
125.00
0
VERTEX
8
1
10
843.29
20
120.00
0
VERTEX
8
1
10
832.71
20
120.00
0
VERTEX
8
1
10
832.71
20
125.00
0
VERTEX
8
1
10
822.14
20
125.00
0
VERTEX
8
1
10
822.14
20
120.00
0
VERTEX
8
1
10
811.57
20
120.00
0
VERTEX
8
1
10
811.57
20
125.00
0
VERTEX
8
1
10
801.00
20
125.00
0
VERTEX
8
1
10
801.00
20
120.00
0
VERTEX
8
1
10
790.43
20
120.00
0
VERTEX
8
1
10
790.43
20
125.00
0
VERTEX
8
1
10
779.86
20
125.00
0
VERTEX
8
1
10
779.86
20
120.00
0
VERTEX
8
1
10
769.29
20
120.00
0
VERTEX
8
1
10
769.29
20
125.00
0
VERTEX
8
1
10
758.71
20
125.00
0
VERTEX
8
1
10
758.71
20
120.00
0
VERTEX
8
1
10
748.14
20
120.00
0
VERTEX
8
1
10
748.14
20
125.00
0
VERTEX
8
1
10
737.57
20
125.00
0
VERTEX
8
1
10
737.57
20
120.00
0
VERTEX
8
1
10
727.00
20
120.00
0
VERTEX
8
1
10
727.00
20
125.00
0
VERTEX
8
1
10
716.43
20
125.00
0
VERTEX
8
1
10
716.43
20
120.00
0
VERTEX
8
1
10
705.86
20
120.00
0
VERTEX
8
1
10
705.86
20
125.00
0
VERTEX
8
1
10
695.29
20
125.00
0
VERTEX
8
1
10
695.29
20
120.00
0
VERTEX
8
1
10
684.71
20
120.00
0
VERTEX
8
1
10
684.71
20
125.00
0
VERTEX
8
1
10
674.14
20
125.00
0
VERTEX
8
1
10
674.14
20
120.00
0
VERTEX
8
1
10
663.57
20
120.00
0
VERTEX
8
1
10
663.57
20
125.00
0
VERTEX
8
1
10
653.00
20
125.00
0
VERTEX
8
1
10
653.00
20
120.00
0
VERTEX
8
1
10
642.43
20
120.00
0
VERTEX
8
1
10
642.43
20
125.00
0
VERTEX
8
1
10
631.86
20
125.00
0
VERTEX
8
1
10
631.86
20
120.00
0
VERTEX
8
1
10
621.29
20
120.00
0
VERTEX
8
1
10
621.29
20
125.00
0
VERTEX
8
1
10
610.71
20
125.00
0
VERTEX
8
1
10
610.71
20
120.00
0
VERTEX
8
1
10
600.14
20
120.00
0
VERTEX
8
1
10
600.14
20
125.00
0
VERTEX
8
1
10
589.57
20
125.00
0
VERTEX
8
1
10
589.57
20
120.00
0
VERTEX
8
1
10
579.00
20
120.00
0
VERTEX
8
1
10
579.00
20
125.00
0
VERTEX
8
1
10
568.43
20
125.00
0
VERTEX
8
1
10
568.43
20
120.00
0
VERTEX
8
1
10
557.86
20
120.00
0
VERTEX
8
1
10
557.86
20
125.00
0
VERTEX
8
1
10
547.29
20
125.00
0
VERTEX
8
1
10
547.29
20
120.00
0
VERTEX
8
1
10
536.71
20
120.00
0
VERTEX
8
1
10
536.71
20
125.00
0
VERTEX
8
1
10
526.14
20
125.00
0
VERTEX
8
1
10
526.14
20
120.00
0
VERTEX
8
1
10
515.57
20
120.00
0
VERTEX
8
1
10
510.00
20
120.00
0
VERTEX
8
1
10
510.00
20
113.00
0
VERTEX
8
1
10
510.00
20
101.00
0
VERTEX
8
1
10
505.00
20
101.00
0
VERTEX
8
1
10
505.00
20
89.00
0
VERTEX
8
1
10
510.00
20
89.00
0
VERTEX
8
1
10
510.00
20
77.00
0
VERTEX
8
1
10
510.00
20
70.00
0
SEQEND
0
ENDSEC
0
EOF
