  0
SECTION
  2
HEADER
  9
$ACADVER
  1
AC1014
  9
$HANDSEED
  5
FFFF
  9
$MEASUREMENT
 70
     1
  0
ENDSEC
  0
SECTION
  2
TABLES
  0
TABLE
  2
VPORT
  5
8
330
0
100
AcDbSymbolTable
 70
     4
  0
VPORT
  5
2E
330
8
100
AcDbSymbolTableRecord
100
AcDbViewportTableRecord
  2
*ACTIVE
 70
     0
 10
0.0
 20
0.0
 11
1.0
 21
1.0
 12
210.0
 22
148.5
 13
0.0
 23
0.0
 14
10.0
 24
10.0
 15
10.0
 25
10.0
 16
0.0
 26
0.0
 36
1.0
 17
0.0
 27
0.0
 37
0.0
 40
341.0
 41
1.24
 42
50.0
 43
0.0
 44
0.0
 50
0.0
 51
0.0
 71
     0
 72
   100
 73
     1
 74
     3
 75
     0
 76
     0
 77
     0
 78
     0
  0
ENDTAB
  0
TABLE
  2
LTYPE
  5
5
330
0
100
AcDbSymbolTable
 70
     1
  0
LTYPE
  5
14
330
5
100
AcDbSymbolTableRecord
100
AcDbLinetypeTableRecord
  2
BYBLOCK
 70
     0
  3

 72
    65
 73
     0
 40
0.0
  0
LTYPE
  5
15
330
5
100
AcDbSymbolTableRecord
100
AcDbLinetypeTableRecord
  2
BYLAYER
 70
     0
  3

 72
    65
 73
     0
 40
0.0
  0
LTYPE
  5
16
330
5
100
AcDbSymbolTableRecord
100
AcDbLinetypeTableRecord
  2
CONTINUOUS
 70
     0
  3
Solid line
 72
    65
 73
     0
 40
0.0
  0
ENDTAB
  0
TABLE
  2
LAYER
  5
2
100
AcDbSymbolTable
 70
1
  0
LAYER
  5
50
100
AcDbSymbolTableRecord
100
AcDbLayerTableRecord
  2
0
 70
0
  6
CONTINUOUS
  0
ENDTAB
  0
TABLE
  2
STYLE
  5
3
330
0
100
AcDbSymbolTable
 70
     1
  0
STYLE
  5
11
330
3
100
AcDbSymbolTableRecord
100
AcDbTextStyleTableRecord
  2
STANDARD
 70
     0
 40
0.0
 41
1.0
 50
0.0
 71
     0
 42
2.5
  3
txt
  4

  0
ENDTAB
  0
TABLE
  2
VIEW
  5
6
330
0
100
AcDbSymbolTable
 70
     0
  0
ENDTAB
  0
TABLE
  2
UCS
  5
7
330
0
100
AcDbSymbolTable
 70
     0
  0
ENDTAB
  0
TABLE
  2
APPID
  5
9
330
0
100
AcDbSymbolTable
 70
     2
  0
APPID
  5
12
330
9
100
AcDbSymbolTableRecord
100
AcDbRegAppTableRecord
  2
ACAD
 70
     0
  0
ENDTAB
  0
TABLE
  2
DIMSTYLE
  5
A
330
0
100
AcDbSymbolTable
 70
     1
  0
DIMSTYLE
105
27
330
A
100
AcDbSymbolTableRecord
100
AcDbDimStyleTableRecord
  2
ISO-25
 70
     0
  3

  4

  5

  6

  7

 40
1.0
 41
2.5
 42
0.625
 43
3.75
 44
1.25
 45
0.0
 46
0.0
 47
0.0
 48
0.0
140
2.5
141
2.5
142
0.0
143
0.03937007874016
144
1.0
145
0.0
146
1.0
147
0.625
 71
     0
 72
     0
 73
     0
 74
     0
 75
     0
 76
     0
 77
     1
 78
     8
170
     0
171
     3
172
     1
173
     0
174
     0
175
     0
176
     0
177
     0
178
     0
270
     2
271
     2
272
     2
273
     2
274
     3
340
11
275
     0
280
     0
281
     0
282
     0
283
     0
284
     8
285
     0
286
     0
287
     3
288
     0
  0
ENDTAB
  0
TABLE
  2
BLOCK_RECORD
  5
1
330
0
100
AcDbSymbolTable
 70
     1
  0
BLOCK_RECORD
  5
1F
330
1
100
AcDbSymbolTableRecord
100
AcDbBlockTableRecord
  2
*MODEL_SPACE
  0
BLOCK_RECORD
  5
1B
330
1
100
AcDbSymbolTableRecord
100
AcDbBlockTableRecord
  2
*PAPER_SPACE
  0
ENDTAB
  0
ENDSEC
  0
SECTION
  2
BLOCKS
  0
BLOCK
  5
20
330
1F
100
AcDbEntity
  8
0
100
AcDbBlockBegin
  2
*MODEL_SPACE
 70
     0
 10
0.0
 20
0.0
 30
0.0
  3
*MODEL_SPACE
  1

  0
ENDBLK
  5
21
330
1F
100
AcDbEntity
  8
0
100
AcDbBlockEnd
  0
BLOCK
  5
1C
330
1B
100
AcDbEntity
 67
     1
  8
0
100
AcDbBlockBegin
  2
*PAPER_SPACE
  1

  0
ENDBLK
  5
1D
330
1B
100
AcDbEntity
 67
     1
  8
0
100
AcDbBlockEnd
  0
ENDSEC
  0
SECTION
  2
ENTITIES
  0
LWPOLYLINE
  5
100
100
AcDbEntity
  8
0
 62
7
100
AcDbPolyline
 90
180
 70
1
 10
288.372383
 20
261.059594
 30
0.0
 10
301.372368
 20
261.059594
 30
0.0
 10
301.372368
 20
255.059611
 30
0.0
 10
309.322383
 20
255.059611
 30
0.0
 10
309.322383
 20
253.959606
 30
0.0
 10
308.072385
 20
253.959606
 30
0.0
 10
308.072385
 20
251.459611
 30
0.0
 10
309.322383
 20
251.459611
 30
0.0
 10
309.322383
 20
248.959590
 30
0.0
 10
312.422373
 20
248.959590
 30
0.0
 10
312.422373
 20
251.459611
 30
0.0
 10
313.672371
 20
251.459611
 30
0.0
 10
313.672371
 20
253.959606
 30
0.0
 10
312.422373
 20
253.959606
 30
0.0
 10
312.422373
 20
255.059611
 30
0.0
 10
320.372362
 20
255.059611
 30
0.0
 10
320.372362
 20
261.059594
 30
0.0
 10
332.372380
 20
261.059594
 30
0.0
 10
332.372380
 20
255.059611
 30
0.0
 10
344.372372
 20
255.059611
 30
0.0
 10
344.372372
 20
261.059594
 30
0.0
 10
356.372364
 20
261.059594
 30
0.0
 10
356.372364
 20
255.059611
 30
0.0
 10
368.372382
 20
255.059611
 30
0.0
 10
368.372382
 20
261.059594
 30
0.0
 10
380.372374
 20
261.059594
 30
0.0
 10
380.372374
 20
255.059611
 30
0.0
 10
392.372366
 20
255.059611
 30
0.0
 10
392.372366
 20
261.059594
 30
0.0
 10
404.372384
 20
261.059594
 30
0.0
 10
404.372384
 20
255.059611
 30
0.0
 10
416.372376
 20
255.059611
 30
0.0
 10
416.372376
 20
261.059594
 30
0.0
 10
428.372368
 20
261.059594
 30
0.0
 10
428.372368
 20
255.059611
 30
0.0
 10
440.372386
 20
255.059611
 30
0.0
 10
440.372386
 20
261.059594
 30
0.0
 10
452.372378
 20
261.059594
 30
0.0
 10
452.372378
 20
255.059611
 30
0.0
 10
464.372370
 20
255.059611
 30
0.0
 10
464.372370
 20
261.059594
 30
0.0
 10
476.372388
 20
261.059594
 30
0.0
 10
476.372388
 20
255.059611
 30
0.0
 10
488.372380
 20
255.059611
 30
0.0
 10
488.372380
 20
261.059594
 30
0.0
 10
500.372372
 20
261.059594
 30
0.0
 10
500.372372
 20
255.059611
 30
0.0
 10
512.372390
 20
255.059611
 30
0.0
 10
512.372390
 20
261.059594
 30
0.0
 10
524.372382
 20
261.059594
 30
0.0
 10
524.372382
 20
255.059611
 30
0.0
 10
532.322397
 20
255.059611
 30
0.0
 10
532.322397
 20
253.959606
 30
0.0
 10
531.072373
 20
253.959606
 30
0.0
 10
531.072373
 20
251.459611
 30
0.0
 10
532.322397
 20
251.459611
 30
0.0
 10
532.322397
 20
248.959590
 30
0.0
 10
535.422388
 20
248.959590
 30
0.0
 10
535.422388
 20
251.459611
 30
0.0
 10
536.672385
 20
251.459611
 30
0.0
 10
536.672385
 20
253.959606
 30
0.0
 10
535.422388
 20
253.959606
 30
0.0
 10
535.422388
 20
255.059611
 30
0.0
 10
543.372376
 20
255.059611
 30
0.0
 10
543.372376
 20
261.059594
 30
0.0
 10
556.372387
 20
261.059594
 30
0.0
 10
556.372387
 20
243.559603
 30
0.0
 10
562.372396
 20
243.559603
 30
0.0
 10
562.372396
 20
236.659613
 30
0.0
 10
558.672384
 20
236.659613
 30
0.0
 10
558.672384
 20
232.959600
 30
0.0
 10
562.372396
 20
232.959600
 30
0.0
 10
562.372396
 20
226.059611
 30
0.0
 10
556.372387
 20
226.059611
 30
0.0
 10
556.372387
 20
214.059592
 30
0.0
 10
562.372396
 20
214.059592
 30
0.0
 10
562.372396
 20
202.059600
 30
0.0
 10
556.372387
 20
202.059600
 30
0.0
 10
556.372387
 20
190.059608
 30
0.0
 10
562.372396
 20
190.059608
 30
0.0
 10
562.372396
 20
178.059590
 30
0.0
 10
556.372387
 20
178.059590
 30
0.0
 10
556.372387
 20
166.059599
 30
0.0
 10
562.372396
 20
166.059599
 30
0.0
 10
562.372396
 20
159.159609
 30
0.0
 10
558.672384
 20
159.159609
 30
0.0
 10
558.672384
 20
155.459597
 30
0.0
 10
562.372396
 20
155.459597
 30
0.0
 10
562.372396
 20
148.559607
 30
0.0
 10
556.372387
 20
148.559607
 30
0.0
 10
556.372387
 20
131.059589
 30
0.0
 10
543.372376
 20
131.059589
 30
0.0
 10
543.372376
 20
137.059599
 30
0.0
 10
535.422388
 20
137.059599
 30
0.0
 10
535.422388
 20
138.159604
 30
0.0
 10
536.672385
 20
138.159604
 30
0.0
 10
536.672385
 20
140.659599
 30
0.0
 10
535.422388
 20
140.659599
 30
0.0
 10
535.422388
 20
143.159594
 30
0.0
 10
532.322397
 20
143.159594
 30
0.0
 10
532.322397
 20
140.659599
 30
0.0
 10
531.072373
 20
140.659599
 30
0.0
 10
531.072373
 20
138.159604
 30
0.0
 10
532.322397
 20
138.159604
 30
0.0
 10
532.322397
 20
137.059599
 30
0.0
 10
524.372382
 20
137.059599
 30
0.0
 10
524.372382
 20
131.059589
 30
0.0
 10
512.372390
 20
131.059589
 30
0.0
 10
512.372390
 20
137.059599
 30
0.0
 10
500.372372
 20
137.059599
 30
0.0
 10
500.372372
 20
131.059589
 30
0.0
 10
488.372380
 20
131.059589
 30
0.0
 10
488.372380
 20
137.059599
 30
0.0
 10
476.372388
 20
137.059599
 30
0.0
 10
476.372388
 20
131.059589
 30
0.0
 10
464.372370
 20
131.059589
 30
0.0
 10
464.372370
 20
137.059599
 30
0.0
 10
452.372378
 20
137.059599
 30
0.0
 10
452.372378
 20
131.059589
 30
0.0
 10
440.372386
 20
131.059589
 30
0.0
 10
440.372386
 20
137.059599
 30
0.0
 10
428.372368
 20
137.059599
 30
0.0
 10
428.372368
 20
131.059589
 30
0.0
 10
416.372376
 20
131.059589
 30
0.0
 10
416.372376
 20
137.059599
 30
0.0
 10
404.372384
 20
137.059599
 30
0.0
 10
404.372384
 20
131.059589
 30
0.0
 10
392.372366
 20
131.059589
 30
0.0
 10
392.372366
 20
137.059599
 30
0.0
 10
380.372374
 20
137.059599
 30
0.0
 10
380.372374
 20
131.059589
 30
0.0
 10
368.372382
 20
131.059589
 30
0.0
 10
368.372382
 20
137.059599
 30
0.0
 10
356.372364
 20
137.059599
 30
0.0
 10
356.372364
 20
131.059589
 30
0.0
 10
344.372372
 20
131.059589
 30
0.0
 10
344.372372
 20
137.059599
 30
0.0
 10
332.372380
 20
137.059599
 30
0.0
 10
332.372380
 20
131.059589
 30
0.0
 10
320.372362
 20
131.059589
 30
0.0
 10
320.372362
 20
137.059599
 30
0.0
 10
312.422373
 20
137.059599
 30
0.0
 10
312.422373
 20
138.159604
 30
0.0
 10
313.672371
 20
138.159604
 30
0.0
 10
313.672371
 20
140.659599
 30
0.0
 10
312.422373
 20
140.659599
 30
0.0
 10
312.422373
 20
143.159594
 30
0.0
 10
309.322383
 20
143.159594
 30
0.0
 10
309.322383
 20
140.659599
 30
0.0
 10
308.072385
 20
140.659599
 30
0.0
 10
308.072385
 20
138.159604
 30
0.0
 10
309.322383
 20
138.159604
 30
0.0
 10
309.322383
 20
137.059599
 30
0.0
 10
301.372368
 20
137.059599
 30
0.0
 10
301.372368
 20
131.059589
 30
0.0
 10
288.372383
 20
131.059589
 30
0.0
 10
288.372383
 20
148.559607
 30
0.0
 10
282.372374
 20
148.559607
 30
0.0
 10
282.372374
 20
155.459597
 30
0.0
 10
286.072360
 20
155.459597
 30
0.0
 10
286.072360
 20
159.159609
 30
0.0
 10
282.372374
 20
159.159609
 30
0.0
 10
282.372374
 20
166.059599
 30
0.0
 10
288.372383
 20
166.059599
 30
0.0
 10
288.372383
 20
178.059590
 30
0.0
 10
282.372374
 20
178.059590
 30
0.0
 10
282.372374
 20
190.059608
 30
0.0
 10
288.372383
 20
190.059608
 30
0.0
 10
288.372383
 20
202.059600
 30
0.0
 10
282.372374
 20
202.059600
 30
0.0
 10
282.372374
 20
214.059592
 30
0.0
 10
288.372383
 20
214.059592
 30
0.0
 10
288.372383
 20
226.059611
 30
0.0
 10
282.372374
 20
226.059611
 30
0.0
 10
282.372374
 20
232.959600
 30
0.0
 10
286.072360
 20
232.959600
 30
0.0
 10
286.072360
 20
236.659613
 30
0.0
 10
282.372374
 20
236.659613
 30
0.0
 10
282.372374
 20
243.559603
 30
0.0
 10
288.372383
 20
243.559603
 30
0.0
  0
LWPOLYLINE
  5
101
100
AcDbEntity
  8
0
 62
7
100
AcDbPolyline
 90
180
 70
1
 10
6.529202
 20
261.454035
 30
0.0
 10
19.529213
 20
261.454035
 30
0.0
 10
19.529213
 20
255.454052
 30
0.0
 10
27.479202
 20
255.454052
 30
0.0
 10
27.479202
 20
254.354047
 30
0.0
 10
26.229204
 20
254.354047
 30
0.0
 10
26.229204
 20
251.854052
 30
0.0
 10
27.479202
 20
251.854052
 30
0.0
 10
27.479202
 20
249.354057
 30
0.0
 10
30.579219
 20
249.354057
 30
0.0
 10
30.579219
 20
251.854052
 30
0.0
 10
31.829216
 20
251.854052
 30
0.0
 10
31.829216
 20
254.354047
 30
0.0
 10
30.579219
 20
254.354047
 30
0.0
 10
30.579219
 20
255.454052
 30
0.0
 10
38.529207
 20
255.454052
 30
0.0
 10
38.529207
 20
261.454035
 30
0.0
 10
50.529225
 20
261.454035
 30
0.0
 10
50.529225
 20
255.454052
 30
0.0
 10
62.529217
 20
255.454052
 30
0.0
 10
62.529217
 20
261.454035
 30
0.0
 10
74.529209
 20
261.454035
 30
0.0
 10
74.529209
 20
255.454052
 30
0.0
 10
86.529227
 20
255.454052
 30
0.0
 10
86.529227
 20
261.454035
 30
0.0
 10
98.529219
 20
261.454035
 30
0.0
 10
98.529219
 20
255.454052
 30
0.0
 10
110.529211
 20
255.454052
 30
0.0
 10
110.529211
 20
261.454035
 30
0.0
 10
122.529230
 20
261.454035
 30
0.0
 10
122.529230
 20
255.454052
 30
0.0
 10
134.529221
 20
255.454052
 30
0.0
 10
134.529221
 20
261.454035
 30
0.0
 10
146.529213
 20
261.454035
 30
0.0
 10
146.529213
 20
255.454052
 30
0.0
 10
158.529224
 20
255.454052
 30
0.0
 10
158.529224
 20
261.454035
 30
0.0
 10
170.529216
 20
261.454035
 30
0.0
 10
170.529216
 20
255.454052
 30
0.0
 10
182.529207
 20
255.454052
 30
0.0
 10
182.529207
 20
261.454035
 30
0.0
 10
194.529226
 20
261.454035
 30
0.0
 10
194.529226
 20
255.454052
 30
0.0
 10
206.529218
 20
255.454052
 30
0.0
 10
206.529218
 20
261.454035
 30
0.0
 10
218.529210
 20
261.454035
 30
0.0
 10
218.529210
 20
255.454052
 30
0.0
 10
230.529254
 20
255.454052
 30
0.0
 10
230.529254
 20
261.454035
 30
0.0
 10
242.529246
 20
261.454035
 30
0.0
 10
242.529246
 20
255.454052
 30
0.0
 10
250.479235
 20
255.454052
 30
0.0
 10
250.479235
 20
254.354047
 30
0.0
 10
249.229237
 20
254.354047
 30
0.0
 10
249.229237
 20
251.854052
 30
0.0
 10
250.479235
 20
251.854052
 30
0.0
 10
250.479235
 20
249.354057
 30
0.0
 10
253.579252
 20
249.354057
 30
0.0
 10
253.579252
 20
251.854052
 30
0.0
 10
254.829249
 20
251.854052
 30
0.0
 10
254.829249
 20
254.354047
 30
0.0
 10
253.579252
 20
254.354047
 30
0.0
 10
253.579252
 20
255.454052
 30
0.0
 10
261.529240
 20
255.454052
 30
0.0
 10
261.529240
 20
261.454035
 30
0.0
 10
274.529251
 20
261.454035
 30
0.0
 10
274.529251
 20
243.954043
 30
0.0
 10
280.529234
 20
243.954043
 30
0.0
 10
280.529234
 20
237.054054
 30
0.0
 10
276.829247
 20
237.054054
 30
0.0
 10
276.829247
 20
233.354041
 30
0.0
 10
280.529234
 20
233.354041
 30
0.0
 10
280.529234
 20
226.454052
 30
0.0
 10
274.529251
 20
226.454052
 30
0.0
 10
274.529251
 20
214.454033
 30
0.0
 10
280.529234
 20
214.454033
 30
0.0
 10
280.529234
 20
202.454041
 30
0.0
 10
274.529251
 20
202.454041
 30
0.0
 10
274.529251
 20
190.454049
 30
0.0
 10
280.529234
 20
190.454049
 30
0.0
 10
280.529234
 20
178.454031
 30
0.0
 10
274.529251
 20
178.454031
 30
0.0
 10
274.529251
 20
166.454040
 30
0.0
 10
280.529234
 20
166.454040
 30
0.0
 10
280.529234
 20
159.554050
 30
0.0
 10
276.829247
 20
159.554050
 30
0.0
 10
276.829247
 20
155.854038
 30
0.0
 10
280.529234
 20
155.854038
 30
0.0
 10
280.529234
 20
148.954048
 30
0.0
 10
274.529251
 20
148.954048
 30
0.0
 10
274.529251
 20
131.454030
 30
0.0
 10
261.529240
 20
131.454030
 30
0.0
 10
261.529240
 20
137.454039
 30
0.0
 10
253.579252
 20
137.454039
 30
0.0
 10
253.579252
 20
138.554045
 30
0.0
 10
254.829249
 20
138.554045
 30
0.0
 10
254.829249
 20
141.054040
 30
0.0
 10
253.579252
 20
141.054040
 30
0.0
 10
253.579252
 20
143.554035
 30
0.0
 10
250.479235
 20
143.554035
 30
0.0
 10
250.479235
 20
141.054040
 30
0.0
 10
249.229237
 20
141.054040
 30
0.0
 10
249.229237
 20
138.554045
 30
0.0
 10
250.479235
 20
138.554045
 30
0.0
 10
250.479235
 20
137.454039
 30
0.0
 10
242.529246
 20
137.454039
 30
0.0
 10
242.529246
 20
131.454030
 30
0.0
 10
230.529254
 20
131.454030
 30
0.0
 10
230.529254
 20
137.454039
 30
0.0
 10
218.529210
 20
137.454039
 30
0.0
 10
218.529210
 20
131.454030
 30
0.0
 10
206.529218
 20
131.454030
 30
0.0
 10
206.529218
 20
137.454039
 30
0.0
 10
194.529226
 20
137.454039
 30
0.0
 10
194.529226
 20
131.454030
 30
0.0
 10
182.529207
 20
131.454030
 30
0.0
 10
182.529207
 20
137.454039
 30
0.0
 10
170.529216
 20
137.454039
 30
0.0
 10
170.529216
 20
131.454030
 30
0.0
 10
158.529224
 20
131.454030
 30
0.0
 10
158.529224
 20
137.454039
 30
0.0
 10
146.529213
 20
137.454039
 30
0.0
 10
146.529213
 20
131.454030
 30
0.0
 10
134.529221
 20
131.454030
 30
0.0
 10
134.529221
 20
137.454039
 30
0.0
 10
122.529230
 20
137.454039
 30
0.0
 10
122.529230
 20
131.454030
 30
0.0
 10
110.529211
 20
131.454030
 30
0.0
 10
110.529211
 20
137.454039
 30
0.0
 10
98.529219
 20
137.454039
 30
0.0
 10
98.529219
 20
131.454030
 30
0.0
 10
86.529228
 20
131.454030
 30
0.0
 10
86.529227
 20
137.454039
 30
0.0
 10
74.529209
 20
137.454039
 30
0.0
 10
74.529209
 20
131.454030
 30
0.0
 10
62.529217
 20
131.454030
 30
0.0
 10
62.529217
 20
137.454039
 30
0.0
 10
50.529225
 20
137.454039
 30
0.0
 10
50.529225
 20
131.454030
 30
0.0
 10
38.529207
 20
131.454030
 30
0.0
 10
38.529207
 20
137.454039
 30
0.0
 10
30.579219
 20
137.454039
 30
0.0
 10
30.579219
 20
138.554045
 30
0.0
 10
31.829216
 20
138.554045
 30
0.0
 10
31.829216
 20
141.054040
 30
0.0
 10
30.579219
 20
141.054040
 30
0.0
 10
30.579219
 20
143.554035
 30
0.0
 10
27.479202
 20
143.554035
 30
0.0
 10
27.479202
 20
141.054040
 30
0.0
 10
26.229204
 20
141.054040
 30
0.0
 10
26.229204
 20
138.554045
 30
0.0
 10
27.479202
 20
138.554045
 30
0.0
 10
27.479202
 20
137.454039
 30
0.0
 10
19.529213
 20
137.454039
 30
0.0
 10
19.529213
 20
131.454030
 30
0.0
 10
6.529202
 20
131.454030
 30
0.0
 10
6.529202
 20
148.954048
 30
0.0
 10
0.529220
 20
148.954048
 30
0.0
 10
0.529220
 20
155.854038
 30
0.0
 10
4.229206
 20
155.854038
 30
0.0
 10
4.229206
 20
159.554050
 30
0.0
 10
0.529220
 20
159.554050
 30
0.0
 10
0.529220
 20
166.454040
 30
0.0
 10
6.529202
 20
166.454040
 30
0.0
 10
6.529202
 20
178.454031
 30
0.0
 10
0.529220
 20
178.454031
 30
0.0
 10
0.529220
 20
190.454049
 30
0.0
 10
6.529202
 20
190.454049
 30
0.0
 10
6.529202
 20
202.454041
 30
0.0
 10
0.529220
 20
202.454041
 30
0.0
 10
0.529220
 20
214.454033
 30
0.0
 10
6.529202
 20
214.454033
 30
0.0
 10
6.529202
 20
226.454052
 30
0.0
 10
0.529220
 20
226.454052
 30
0.0
 10
0.529220
 20
233.354041
 30
0.0
 10
4.229206
 20
233.354041
 30
0.0
 10
4.229206
 20
237.054054
 30
0.0
 10
0.529220
 20
237.054054
 30
0.0
 10
0.529220
 20
243.954043
 30
0.0
 10
6.529202
 20
243.954043
 30
0.0
  0
LWPOLYLINE
  5
102
100
AcDbEntity
  8
0
 62
7
100
AcDbPolyline
 90
116
 70
1
 10
563.062244
 20
255.158354
 30
0.0
 10
582.562221
 20
255.158354
 30
0.0
 10
582.562221
 20
261.158363
 30
0.0
 10
590.462230
 20
261.158363
 30
0.0
 10
590.462230
 20
257.458350
 30
0.0
 10
594.162216
 20
257.458350
 30
0.0
 10
594.162216
 20
261.158363
 30
0.0
 10
602.062225
 20
261.158363
 30
0.0
 10
602.062225
 20
255.158354
 30
0.0
 10
614.062216
 20
255.158354
 30
0.0
 10
614.062216
 20
261.158363
 30
0.0
 10
621.962225
 20
261.158363
 30
0.0
 10
621.962225
 20
257.458350
 30
0.0
 10
625.662211
 20
257.458350
 30
0.0
 10
625.662211
 20
261.158363
 30
0.0
 10
633.562220
 20
261.158363
 30
0.0
 10
633.562220
 20
255.158354
 30
0.0
 10
653.062197
 20
255.158354
 30
0.0
 10
653.062197
 20
243.658345
 30
0.0
 10
647.062214
 20
243.658345
 30
0.0
 10
647.062214
 20
236.458345
 30
0.0
 10
645.962209
 20
236.458345
 30
0.0
 10
645.962209
 20
237.708369
 30
0.0
 10
643.462214
 20
237.708369
 30
0.0
 10
643.462214
 20
236.458345
 30
0.0
 10
640.962219
 20
236.458345
 30
0.0
 10
640.962219
 20
233.358354
 30
0.0
 10
643.462214
 20
233.358354
 30
0.0
 10
643.462214
 20
232.108356
 30
0.0
 10
645.962209
 20
232.108356
 30
0.0
 10
645.962209
 20
233.358354
 30
0.0
 10
647.062214
 20
233.358354
 30
0.0
 10
647.062214
 20
226.158354
 30
0.0
 10
653.062197
 20
226.158354
 30
0.0
 10
653.062197
 20
214.158361
 30
0.0
 10
647.062214
 20
214.158361
 30
0.0
 10
647.062214
 20
202.158369
 30
0.0
 10
653.062197
 20
202.158369
 30
0.0
 10
653.062197
 20
190.158351
 30
0.0
 10
647.062214
 20
190.158351
 30
0.0
 10
647.062214
 20
178.158359
 30
0.0
 10
653.062197
 20
178.158359
 30
0.0
 10
653.062197
 20
166.158368
 30
0.0
 10
647.062214
 20
166.158368
 30
0.0
 10
647.062214
 20
158.958367
 30
0.0
 10
645.962209
 20
158.958367
 30
0.0
 10
645.962209
 20
160.208365
 30
0.0
 10
643.462214
 20
160.208365
 30
0.0
 10
643.462214
 20
158.958367
 30
0.0
 10
640.962219
 20
158.958367
 30
0.0
 10
640.962219
 20
155.858350
 30
0.0
 10
643.462214
 20
155.858350
 30
0.0
 10
643.462214
 20
154.608353
 30
0.0
 10
645.962209
 20
154.608353
 30
0.0
 10
645.962209
 20
155.858350
 30
0.0
 10
647.062214
 20
155.858350
 30
0.0
 10
647.062214
 20
148.658350
 30
0.0
 10
653.062197
 20
148.658350
 30
0.0
 10
653.062197
 20
137.158368
 30
0.0
 10
633.562220
 20
137.158368
 30
0.0
 10
633.562220
 20
131.158358
 30
0.0
 10
625.662211
 20
131.158358
 30
0.0
 10
625.662211
 20
134.858345
 30
0.0
 10
621.962225
 20
134.858345
 30
0.0
 10
621.962225
 20
131.158358
 30
0.0
 10
614.062216
 20
131.158358
 30
0.0
 10
614.062216
 20
137.158368
 30
0.0
 10
602.062225
 20
137.158368
 30
0.0
 10
602.062225
 20
131.158358
 30
0.0
 10
594.162216
 20
131.158358
 30
0.0
 10
594.162216
 20
134.858345
 30
0.0
 10
590.462230
 20
134.858345
 30
0.0
 10
590.462230
 20
131.158358
 30
0.0
 10
582.562221
 20
131.158358
 30
0.0
 10
582.562221
 20
137.158368
 30
0.0
 10
563.062244
 20
137.158368
 30
0.0
 10
563.062244
 20
148.658350
 30
0.0
 10
569.062227
 20
148.658350
 30
0.0
 10
569.062227
 20
155.858350
 30
0.0
 10
570.162232
 20
155.858350
 30
0.0
 10
570.162232
 20
154.608353
 30
0.0
 10
572.662227
 20
154.608353
 30
0.0
 10
572.662227
 20
155.858350
 30
0.0
 10
575.162249
 20
155.858350
 30
0.0
 10
575.162249
 20
158.958367
 30
0.0
 10
572.662227
 20
158.958367
 30
0.0
 10
572.662227
 20
160.208365
 30
0.0
 10
570.162232
 20
160.208365
 30
0.0
 10
570.162232
 20
158.958367
 30
0.0
 10
569.062227
 20
158.958367
 30
0.0
 10
569.062227
 20
166.158368
 30
0.0
 10
563.062244
 20
166.158368
 30
0.0
 10
563.062244
 20
178.158359
 30
0.0
 10
569.062227
 20
178.158359
 30
0.0
 10
569.062227
 20
190.158351
 30
0.0
 10
563.062244
 20
190.158351
 30
0.0
 10
563.062244
 20
202.158369
 30
0.0
 10
569.062227
 20
202.158369
 30
0.0
 10
569.062227
 20
214.158361
 30
0.0
 10
563.062244
 20
214.158361
 30
0.0
 10
563.062244
 20
226.158354
 30
0.0
 10
569.062227
 20
226.158354
 30
0.0
 10
569.062227
 20
233.358354
 30
0.0
 10
570.162232
 20
233.358354
 30
0.0
 10
570.162232
 20
232.108356
 30
0.0
 10
572.662227
 20
232.108356
 30
0.0
 10
572.662227
 20
233.358354
 30
0.0
 10
575.162249
 20
233.358354
 30
0.0
 10
575.162249
 20
236.458345
 30
0.0
 10
572.662227
 20
236.458345
 30
0.0
 10
572.662227
 20
237.708369
 30
0.0
 10
570.162232
 20
237.708369
 30
0.0
 10
570.162232
 20
236.458345
 30
0.0
 10
569.062227
 20
236.458345
 30
0.0
 10
569.062227
 20
243.658345
 30
0.0
 10
563.062244
 20
243.658345
 30
0.0
  0
LWPOLYLINE
  5
103
100
AcDbEntity
  8
0
 62
7
100
AcDbPolyline
 90
116
 70
1
 10
563.294363
 20
124.132295
 30
0.0
 10
582.794367
 20
124.132295
 30
0.0
 10
582.794367
 20
130.132304
 30
0.0
 10
590.694349
 20
130.132304
 30
0.0
 10
590.694349
 20
126.432291
 30
0.0
 10
594.394361
 20
126.432291
 30
0.0
 10
594.394361
 20
130.132304
 30
0.0
 10
602.294344
 20
130.132304
 30
0.0
 10
602.294344
 20
124.132295
 30
0.0
 10
614.294335
 20
124.132295
 30
0.0
 10
614.294335
 20
130.132304
 30
0.0
 10
622.194344
 20
130.132304
 30
0.0
 10
622.194344
 20
126.432291
 30
0.0
 10
625.894330
 20
126.432291
 30
0.0
 10
625.894330
 20
130.132304
 30
0.0
 10
633.794339
 20
130.132304
 30
0.0
 10
633.794339
 20
124.132295
 30
0.0
 10
653.294342
 20
124.132295
 30
0.0
 10
653.294342
 20
112.632286
 30
0.0
 10
647.294333
 20
112.632286
 30
0.0
 10
647.294333
 20
105.432286
 30
0.0
 10
646.194328
 20
105.432286
 30
0.0
 10
646.194328
 20
106.682283
 30
0.0
 10
643.694333
 20
106.682283
 30
0.0
 10
643.694333
 20
105.432286
 30
0.0
 10
641.194338
 20
105.432286
 30
0.0
 10
641.194338
 20
102.332295
 30
0.0
 10
643.694333
 20
102.332295
 30
0.0
 10
643.694333
 20
101.082298
 30
0.0
 10
646.194328
 20
101.082298
 30
0.0
 10
646.194328
 20
102.332295
 30
0.0
 10
647.294333
 20
102.332295
 30
0.0
 10
647.294333
 20
95.132295
 30
0.0
 10
653.294342
 20
95.132295
 30
0.0
 10
653.294342
 20
83.132303
 30
0.0
 10
647.294333
 20
83.132303
 30
0.0
 10
647.294333
 20
71.132285
 30
0.0
 10
653.294342
 20
71.132285
 30
0.0
 10
653.294342
 20
59.132293
 30
0.0
 10
647.294333
 20
59.132293
 30
0.0
 10
647.294333
 20
47.132301
 30
0.0
 10
653.294342
 20
47.132301
 30
0.0
 10
653.294342
 20
35.132283
 30
0.0
 10
647.294333
 20
35.132283
 30
0.0
 10
647.294333
 20
27.932282
 30
0.0
 10
646.194328
 20
27.932282
 30
0.0
 10
646.194328
 20
29.182306
 30
0.0
 10
643.694333
 20
29.182306
 30
0.0
 10
643.694333
 20
27.932282
 30
0.0
 10
641.194338
 20
27.932282
 30
0.0
 10
641.194338
 20
24.832291
 30
0.0
 10
643.694333
 20
24.832291
 30
0.0
 10
643.694333
 20
23.582294
 30
0.0
 10
646.194328
 20
23.582294
 30
0.0
 10
646.194328
 20
24.832291
 30
0.0
 10
647.294333
 20
24.832291
 30
0.0
 10
647.294333
 20
17.632291
 30
0.0
 10
653.294342
 20
17.632291
 30
0.0
 10
653.294342
 20
6.132282
 30
0.0
 10
633.794339
 20
6.132282
 30
0.0
 10
633.794339
 20
0.132300
 30
0.0
 10
625.894330
 20
0.132300
 30
0.0
 10
625.894330
 20
3.832286
 30
0.0
 10
622.194344
 20
3.832286
 30
0.0
 10
622.194344
 20
0.132300
 30
0.0
 10
614.294335
 20
0.132300
 30
0.0
 10
614.294335
 20
6.132282
 30
0.0
 10
602.294344
 20
6.132282
 30
0.0
 10
602.294344
 20
0.132300
 30
0.0
 10
594.394361
 20
0.132300
 30
0.0
 10
594.394361
 20
3.832286
 30
0.0
 10
590.694349
 20
3.832286
 30
0.0
 10
590.694349
 20
0.132300
 30
0.0
 10
582.794367
 20
0.132300
 30
0.0
 10
582.794367
 20
6.132282
 30
0.0
 10
563.294363
 20
6.132282
 30
0.0
 10
563.294363
 20
17.632291
 30
0.0
 10
569.294372
 20
17.632291
 30
0.0
 10
569.294372
 20
24.832291
 30
0.0
 10
570.394351
 20
24.832291
 30
0.0
 10
570.394351
 20
23.582294
 30
0.0
 10
572.894373
 20
23.582294
 30
0.0
 10
572.894373
 20
24.832291
 30
0.0
 10
575.394368
 20
24.832291
 30
0.0
 10
575.394368
 20
27.932282
 30
0.0
 10
572.894373
 20
27.932282
 30
0.0
 10
572.894373
 20
29.182306
 30
0.0
 10
570.394351
 20
29.182306
 30
0.0
 10
570.394351
 20
27.932282
 30
0.0
 10
569.294372
 20
27.932282
 30
0.0
 10
569.294372
 20
35.132283
 30
0.0
 10
563.294363
 20
35.132283
 30
0.0
 10
563.294363
 20
47.132301
 30
0.0
 10
569.294372
 20
47.132301
 30
0.0
 10
569.294372
 20
59.132293
 30
0.0
 10
563.294363
 20
59.132293
 30
0.0
 10
563.294363
 20
71.132285
 30
0.0
 10
569.294372
 20
71.132285
 30
0.0
 10
569.294372
 20
83.132303
 30
0.0
 10
563.294363
 20
83.132303
 30
0.0
 10
563.294363
 20
95.132295
 30
0.0
 10
569.294372
 20
95.132295
 30
0.0
 10
569.294372
 20
102.332295
 30
0.0
 10
570.394351
 20
102.332295
 30
0.0
 10
570.394351
 20
101.082298
 30
0.0
 10
572.894373
 20
101.082298
 30
0.0
 10
572.894373
 20
102.332295
 30
0.0
 10
575.394368
 20
102.332295
 30
0.0
 10
575.394368
 20
105.432286
 30
0.0
 10
572.894373
 20
105.432286
 30
0.0
 10
572.894373
 20
106.682283
 30
0.0
 10
570.394351
 20
106.682283
 30
0.0
 10
570.394351
 20
105.432286
 30
0.0
 10
569.294372
 20
105.432286
 30
0.0
 10
569.294372
 20
112.632286
 30
0.0
 10
563.294363
 20
112.632286
 30
0.0
  0
SPLINE
  5
104
100
AcDbEntity
  8
0
 62
7
100
AcDbSpline
 70
8
 71
3
 72
8
 73
4
 74
0
 40
0
 40
0
 40
0
 40
0
 40
1
 40
1
 40
1
 40
1
 10
496.251460
 20
196.254457
 30
0.0
 10
496.251460
 20
196.886149
 30
0.0
 10
495.915757
 20
197.470138
 30
0.0
 10
495.369419
 20
197.786156
 30
0.0
  0
SPLINE
  5
105
100
AcDbEntity
  8
0
 62
7
100
AcDbSpline
 70
8
 71
3
 72
8
 73
4
 74
0
 40
0
 40
0
 40
0
 40
0
 40
1
 40
1
 40
1
 40
1
 10
495.369419
 20
197.786156
 30
0.0
 10
494.823081
 20
198.102174
 30
0.0
 10
494.149795
 20
198.102174
 30
0.0
 10
493.603457
 20
197.786156
 30
0.0
  0
SPLINE
  5
106
100
AcDbEntity
  8
0
 62
7
100
AcDbSpline
 70
8
 71
3
 72
8
 73
4
 74
0
 40
0
 40
0
 40
0
 40
0
 40
1
 40
1
 40
1
 40
1
 10
493.603457
 20
197.786156
 30
0.0
 10
493.057119
 20
197.470138
 30
0.0
 10
492.720834
 20
196.886149
 30
0.0
 10
492.721416
 20
196.254457
 30
0.0
  0
SPLINE
  5
107
100
AcDbEntity
  8
0
 62
7
100
AcDbSpline
 70
8
 71
3
 72
8
 73
4
 74
0
 40
0
 40
0
 40
0
 40
0
 40
1
 40
1
 40
1
 40
1
 10
492.721416
 20
196.254457
 30
0.0
 10
492.721416
 20
195.622737
 30
0.0
 10
493.057119
 20
195.038749
 30
0.0
 10
493.603457
 20
194.722731
 30
0.0
  0
SPLINE
  5
108
100
AcDbEntity
  8
0
 62
7
100
AcDbSpline
 70
8
 71
3
 72
8
 73
4
 74
0
 40
0
 40
0
 40
0
 40
0
 40
1
 40
1
 40
1
 40
1
 10
493.603457
 20
194.722731
 30
0.0
 10
494.149795
 20
194.406712
 30
0.0
 10
494.823081
 20
194.406712
 30
0.0
 10
495.369419
 20
194.722731
 30
0.0
  0
SPLINE
  5
109
100
AcDbEntity
  8
0
 62
7
100
AcDbSpline
 70
8
 71
3
 72
8
 73
4
 74
0
 40
0
 40
0
 40
0
 40
0
 40
1
 40
1
 40
1
 40
1
 10
495.369419
 20
194.722731
 30
0.0
 10
495.915757
 20
195.038749
 30
0.0
 10
496.252042
 20
195.622737
 30
0.0
 10
496.251460
 20
196.254457
 30
0.0
  0
LWPOLYLINE
  5
10a
100
AcDbEntity
  8
0
 62
7
100
AcDbPolyline
 90
164
 70
1
 10
0.132292
 20
124.475380
 30
0.0
 10
19.132285
 20
124.475380
 30
0.0
 10
19.132285
 20
130.475363
 30
0.0
 10
26.782289
 20
130.475363
 30
0.0
 10
26.782289
 20
126.775377
 30
0.0
 10
30.482275
 20
126.775377
 30
0.0
 10
30.482275
 20
130.475363
 30
0.0
 10
38.132279
 20
130.475363
 30
0.0
 10
38.132279
 20
124.475380
 30
0.0
 10
50.132297
 20
124.475380
 30
0.0
 10
50.132297
 20
130.475363
 30
0.0
 10
62.132289
 20
130.475363
 30
0.0
 10
62.132289
 20
124.475380
 30
0.0
 10
74.132281
 20
124.475380
 30
0.0
 10
74.132281
 20
130.475363
 30
0.0
 10
86.132300
 20
130.475363
 30
0.0
 10
86.132300
 20
124.475380
 30
0.0
 10
98.132291
 20
124.475380
 30
0.0
 10
98.132291
 20
130.475363
 30
0.0
 10
110.132283
 20
130.475363
 30
0.0
 10
110.132283
 20
124.475380
 30
0.0
 10
122.132302
 20
124.475380
 30
0.0
 10
122.132302
 20
130.475363
 30
0.0
 10
134.132294
 20
130.475363
 30
0.0
 10
134.132294
 20
124.475380
 30
0.0
 10
146.132285
 20
124.475380
 30
0.0
 10
146.132285
 20
130.475363
 30
0.0
 10
158.132296
 20
130.475363
 30
0.0
 10
158.132296
 20
124.475380
 30
0.0
 10
170.132288
 20
124.475380
 30
0.0
 10
170.132288
 20
130.475363
 30
0.0
 10
182.132280
 20
130.475363
 30
0.0
 10
182.132280
 20
124.475380
 30
0.0
 10
194.132298
 20
124.475380
 30
0.0
 10
194.132298
 20
130.475363
 30
0.0
 10
206.132290
 20
130.475363
 30
0.0
 10
206.132290
 20
124.475380
 30
0.0
 10
218.132282
 20
124.475380
 30
0.0
 10
218.132282
 20
130.475363
 30
0.0
 10
230.132326
 20
130.475363
 30
0.0
 10
230.132326
 20
124.475380
 30
0.0
 10
242.132318
 20
124.475380
 30
0.0
 10
242.132318
 20
130.475363
 30
0.0
 10
249.782322
 20
130.475363
 30
0.0
 10
249.782322
 20
126.775377
 30
0.0
 10
253.482308
 20
126.775377
 30
0.0
 10
253.482308
 20
130.475363
 30
0.0
 10
261.132312
 20
130.475363
 30
0.0
 10
261.132312
 20
124.475380
 30
0.0
 10
280.132332
 20
124.475380
 30
0.0
 10
280.132332
 20
110.975386
 30
0.0
 10
274.132323
 20
110.975386
 30
0.0
 10
274.132323
 20
102.775393
 30
0.0
 10
273.032318
 20
102.775393
 30
0.0
 10
273.032318
 20
104.025390
 30
0.0
 10
270.532323
 20
104.025390
 30
0.0
 10
270.532323
 20
102.775393
 30
0.0
 10
268.032328
 20
102.775393
 30
0.0
 10
268.032328
 20
99.675376
 30
0.0
 10
270.532323
 20
99.675376
 30
0.0
 10
270.532323
 20
98.425378
 30
0.0
 10
273.032318
 20
98.425378
 30
0.0
 10
273.032318
 20
99.675376
 30
0.0
 10
274.132323
 20
99.675376
 30
0.0
 10
274.132323
 20
91.475383
 30
0.0
 10
280.132332
 20
91.475383
 30
0.0
 10
280.132332
 20
79.475391
 30
0.0
 10
274.132323
 20
79.475391
 30
0.0
 10
274.132323
 20
71.275398
 30
0.0
 10
273.032318
 20
71.275398
 30
0.0
 10
273.032318
 20
72.525395
 30
0.0
 10
270.532323
 20
72.525395
 30
0.0
 10
270.532323
 20
71.275398
 30
0.0
 10
268.032328
 20
71.275398
 30
0.0
 10
268.032328
 20
68.175407
 30
0.0
 10
270.532323
 20
68.175407
 30
0.0
 10
270.532323
 20
66.925383
 30
0.0
 10
273.032318
 20
66.925383
 30
0.0
 10
273.032318
 20
68.175407
 30
0.0
 10
274.132323
 20
68.175407
 30
0.0
 10
274.132323
 20
59.975388
 30
0.0
 10
280.132332
 20
59.975388
 30
0.0
 10
280.132332
 20
46.475393
 30
0.0
 10
261.132312
 20
46.475393
 30
0.0
 10
261.132312
 20
40.475411
 30
0.0
 10
253.482308
 20
40.475411
 30
0.0
 10
253.482308
 20
44.175397
 30
0.0
 10
249.782322
 20
44.175397
 30
0.0
 10
249.782322
 20
40.475411
 30
0.0
 10
242.132318
 20
40.475411
 30
0.0
 10
242.132318
 20
46.475393
 30
0.0
 10
230.132326
 20
46.475393
 30
0.0
 10
230.132326
 20
40.475411
 30
0.0
 10
218.132282
 20
40.475411
 30
0.0
 10
218.132282
 20
46.475393
 30
0.0
 10
206.132290
 20
46.475393
 30
0.0
 10
206.132290
 20
40.475411
 30
0.0
 10
194.132298
 20
40.475411
 30
0.0
 10
194.132298
 20
46.475393
 30
0.0
 10
182.132280
 20
46.475393
 30
0.0
 10
182.132280
 20
40.475411
 30
0.0
 10
170.132288
 20
40.475411
 30
0.0
 10
170.132288
 20
46.475393
 30
0.0
 10
158.132296
 20
46.475393
 30
0.0
 10
158.132296
 20
40.475411
 30
0.0
 10
146.132285
 20
40.475411
 30
0.0
 10
146.132285
 20
46.475393
 30
0.0
 10
134.132294
 20
46.475393
 30
0.0
 10
134.132294
 20
40.475411
 30
0.0
 10
122.132302
 20
40.475411
 30
0.0
 10
122.132302
 20
46.475393
 30
0.0
 10
110.132283
 20
46.475393
 30
0.0
 10
110.132283
 20
40.475411
 30
0.0
 10
98.132291
 20
40.475411
 30
0.0
 10
98.132291
 20
46.475393
 30
0.0
 10
86.132300
 20
46.475393
 30
0.0
 10
86.132300
 20
40.475411
 30
0.0
 10
74.132281
 20
40.475411
 30
0.0
 10
74.132281
 20
46.475393
 30
0.0
 10
62.132289
 20
46.475393
 30
0.0
 10
62.132289
 20
40.475411
 30
0.0
 10
50.132297
 20
40.475411
 30
0.0
 10
50.132297
 20
46.475393
 30
0.0
 10
38.132279
 20
46.475393
 30
0.0
 10
38.132279
 20
40.475411
 30
0.0
 10
30.482275
 20
40.475411
 30
0.0
 10
30.482275
 20
44.175397
 30
0.0
 10
26.782289
 20
44.175397
 30
0.0
 10
26.782289
 20
40.475411
 30
0.0
 10
19.132285
 20
40.475411
 30
0.0
 10
19.132285
 20
46.475393
 30
0.0
 10
0.132292
 20
46.475393
 30
0.0
 10
0.132292
 20
59.975388
 30
0.0
 10
6.132274
 20
59.975388
 30
0.0
 10
6.132274
 20
68.175407
 30
0.0
 10
7.232280
 20
68.175407
 30
0.0
 10
7.232280
 20
66.925383
 30
0.0
 10
9.732275
 20
66.925383
 30
0.0
 10
9.732275
 20
68.175407
 30
0.0
 10
12.232296
 20
68.175407
 30
0.0
 10
12.232296
 20
71.275398
 30
0.0
 10
9.732275
 20
71.275398
 30
0.0
 10
9.732275
 20
72.525395
 30
0.0
 10
7.232280
 20
72.525395
 30
0.0
 10
7.232280
 20
71.275398
 30
0.0
 10
6.132274
 20
71.275398
 30
0.0
 10
6.132274
 20
79.475391
 30
0.0
 10
0.132292
 20
79.475391
 30
0.0
 10
0.132292
 20
91.475383
 30
0.0
 10
6.132274
 20
91.475383
 30
0.0
 10
6.132274
 20
99.675376
 30
0.0
 10
7.232280
 20
99.675376
 30
0.0
 10
7.232280
 20
98.425378
 30
0.0
 10
9.732275
 20
98.425378
 30
0.0
 10
9.732275
 20
99.675376
 30
0.0
 10
12.232296
 20
99.675376
 30
0.0
 10
12.232296
 20
102.775393
 30
0.0
 10
9.732275
 20
102.775393
 30
0.0
 10
9.732275
 20
104.025390
 30
0.0
 10
7.232280
 20
104.025390
 30
0.0
 10
7.232280
 20
102.775393
 30
0.0
 10
6.132274
 20
102.775393
 30
0.0
 10
6.132274
 20
110.975386
 30
0.0
 10
0.132292
 20
110.975386
 30
0.0
  0
SPLINE
  5
10b
100
AcDbEntity
  8
0
 62
7
100
AcDbSpline
 70
8
 71
3
 72
8
 73
4
 74
0
 40
0
 40
0
 40
0
 40
0
 40
1
 40
1
 40
1
 40
1
 10
545.672293
 20
196.254457
 30
0.0
 10
545.672293
 20
196.886149
 30
0.0
 10
545.336590
 20
197.470138
 30
0.0
 10
544.790252
 20
197.786156
 30
0.0
  0
SPLINE
  5
10c
100
AcDbEntity
  8
0
 62
7
100
AcDbSpline
 70
8
 71
3
 72
8
 73
4
 74
0
 40
0
 40
0
 40
0
 40
0
 40
1
 40
1
 40
1
 40
1
 10
544.790252
 20
197.786156
 30
0.0
 10
544.243914
 20
198.102174
 30
0.0
 10
543.570628
 20
198.102174
 30
0.0
 10
543.024290
 20
197.786156
 30
0.0
  0
SPLINE
  5
10d
100
AcDbEntity
  8
0
 62
7
100
AcDbSpline
 70
8
 71
3
 72
8
 73
4
 74
0
 40
0
 40
0
 40
0
 40
0
 40
1
 40
1
 40
1
 40
1
 10
543.024290
 20
197.786156
 30
0.0
 10
542.477952
 20
197.470138
 30
0.0
 10
542.141640
 20
196.886149
 30
0.0
 10
542.142222
 20
196.254457
 30
0.0
  0
SPLINE
  5
10e
100
AcDbEntity
  8
0
 62
7
100
AcDbSpline
 70
8
 71
3
 72
8
 73
4
 74
0
 40
0
 40
0
 40
0
 40
0
 40
1
 40
1
 40
1
 40
1
 10
542.142222
 20
196.254457
 30
0.0
 10
542.142222
 20
195.622737
 30
0.0
 10
542.477952
 20
195.038749
 30
0.0
 10
543.024290
 20
194.722731
 30
0.0
  0
SPLINE
  5
10f
100
AcDbEntity
  8
0
 62
7
100
AcDbSpline
 70
8
 71
3
 72
8
 73
4
 74
0
 40
0
 40
0
 40
0
 40
0
 40
1
 40
1
 40
1
 40
1
 10
543.024290
 20
194.722731
 30
0.0
 10
543.570628
 20
194.406712
 30
0.0
 10
544.243914
 20
194.406712
 30
0.0
 10
544.790252
 20
194.722731
 30
0.0
  0
SPLINE
  5
110
100
AcDbEntity
  8
0
 62
7
100
AcDbSpline
 70
8
 71
3
 72
8
 73
4
 74
0
 40
0
 40
0
 40
0
 40
0
 40
1
 40
1
 40
1
 40
1
 10
544.790252
 20
194.722731
 30
0.0
 10
545.336590
 20
195.038749
 30
0.0
 10
545.672875
 20
195.622737
 30
0.0
 10
545.672293
 20
196.254457
 30
0.0
  0
SPLINE
  5
111
100
AcDbEntity
  8
0
 62
7
100
AcDbSpline
 70
8
 71
3
 72
8
 73
4
 74
0
 40
0
 40
0
 40
0
 40
0
 40
1
 40
1
 40
1
 40
1
 10
534.073515
 20
196.254457
 30
0.0
 10
534.076161
 20
201.577000
 30
0.0
 10
531.240569
 20
206.496160
 30
0.0
 10
526.636872
 20
209.158027
 30
0.0
  0
SPLINE
  5
112
100
AcDbEntity
  8
0
 62
7
100
AcDbSpline
 70
8
 71
3
 72
8
 73
4
 74
0
 40
0
 40
0
 40
0
 40
0
 40
1
 40
1
 40
1
 40
1
 10
526.636872
 20
209.158027
 30
0.0
 10
522.033148
 20
211.819920
 30
0.0
 10
516.360534
 20
211.819920
 30
0.0
 10
511.756837
 20
209.158027
 30
0.0
  0
SPLINE
  5
113
100
AcDbEntity
  8
0
 62
7
100
AcDbSpline
 70
8
 71
3
 72
8
 73
4
 74
0
 40
0
 40
0
 40
0
 40
0
 40
1
 40
1
 40
1
 40
1
 10
511.756837
 20
209.158027
 30
0.0
 10
507.153114
 20
206.496160
 30
0.0
 10
504.318103
 20
201.577000
 30
0.0
 10
504.320167
 20
196.254457
 30
0.0
  0
SPLINE
  5
114
100
AcDbEntity
  8
0
 62
7
100
AcDbSpline
 70
8
 71
3
 72
8
 73
4
 74
0
 40
0
 40
0
 40
0
 40
0
 40
1
 40
1
 40
1
 40
1
 10
504.320167
 20
196.254457
 30
0.0
 10
504.317521
 20
190.931887
 30
0.0
 10
507.153114
 20
186.012753
 30
0.0
 10
511.756837
 20
183.350860
 30
0.0
  0
SPLINE
  5
115
100
AcDbEntity
  8
0
 62
7
100
AcDbSpline
 70
8
 71
3
 72
8
 73
4
 74
0
 40
0
 40
0
 40
0
 40
0
 40
1
 40
1
 40
1
 40
1
 10
511.756837
 20
183.350860
 30
0.0
 10
516.360534
 20
180.688966
 30
0.0
 10
522.033148
 20
180.688966
 30
0.0
 10
526.636872
 20
183.350860
 30
0.0
  0
SPLINE
  5
116
100
AcDbEntity
  8
0
 62
7
100
AcDbSpline
 70
8
 71
3
 72
8
 73
4
 74
0
 40
0
 40
0
 40
0
 40
0
 40
1
 40
1
 40
1
 40
1
 10
526.636872
 20
183.350860
 30
0.0
 10
531.240569
 20
186.012753
 30
0.0
 10
534.075606
 20
190.931887
 30
0.0
 10
534.073515
 20
196.254457
 30
0.0
  0
SPLINE
  5
117
100
AcDbEntity
  8
0
 62
7
100
AcDbSpline
 70
8
 71
3
 72
8
 73
4
 74
0
 40
0
 40
0
 40
0
 40
0
 40
1
 40
1
 40
1
 40
1
 10
431.701832
 20
196.254457
 30
0.0
 10
431.701832
 20
196.885779
 30
0.0
 10
431.365414
 20
197.469132
 30
0.0
 10
430.819314
 20
197.784806
 30
0.0
  0
SPLINE
  5
118
100
AcDbEntity
  8
0
 62
7
100
AcDbSpline
 70
8
 71
3
 72
8
 73
4
 74
0
 40
0
 40
0
 40
0
 40
0
 40
1
 40
1
 40
1
 40
1
 10
430.819314
 20
197.784806
 30
0.0
 10
430.273214
 20
198.100454
 30
0.0
 10
429.600379
 20
198.100454
 30
0.0
 10
429.054279
 20
197.784806
 30
0.0
  0
SPLINE
  5
119
100
AcDbEntity
  8
0
 62
7
100
AcDbSpline
 70
8
 71
3
 72
8
 73
4
 74
0
 40
0
 40
0
 40
0
 40
0
 40
1
 40
1
 40
1
 40
1
 10
429.054279
 20
197.784806
 30
0.0
 10
428.508179
 20
197.469132
 30
0.0
 10
428.171761
 20
196.885779
 30
0.0
 10
428.171761
 20
196.254457
 30
0.0
  0
SPLINE
  5
11a
100
AcDbEntity
  8
0
 62
7
100
AcDbSpline
 70
8
 71
3
 72
8
 73
4
 74
0
 40
0
 40
0
 40
0
 40
0
 40
1
 40
1
 40
1
 40
1
 10
428.171761
 20
196.254457
 30
0.0
 10
428.171761
 20
195.623108
 30
0.0
 10
428.508179
 20
195.039754
 30
0.0
 10
429.054279
 20
194.724080
 30
0.0
  0
SPLINE
  5
11b
100
AcDbEntity
  8
0
 62
7
100
AcDbSpline
 70
8
 71
3
 72
8
 73
4
 74
0
 40
0
 40
0
 40
0
 40
0
 40
1
 40
1
 40
1
 40
1
 10
429.054279
 20
194.724080
 30
0.0
 10
429.600379
 20
194.408432
 30
0.0
 10
430.273214
 20
194.408432
 30
0.0
 10
430.819314
 20
194.724080
 30
0.0
  0
SPLINE
  5
11c
100
AcDbEntity
  8
0
 62
7
100
AcDbSpline
 70
8
 71
3
 72
8
 73
4
 74
0
 40
0
 40
0
 40
0
 40
0
 40
1
 40
1
 40
1
 40
1
 10
430.819314
 20
194.724080
 30
0.0
 10
431.365414
 20
195.039754
 30
0.0
 10
431.701832
 20
195.623108
 30
0.0
 10
431.701832
 20
196.254457
 30
0.0
  0
SPLINE
  5
11d
100
AcDbEntity
  8
0
 62
7
100
AcDbSpline
 70
8
 71
3
 72
8
 73
4
 74
0
 40
0
 40
0
 40
0
 40
0
 40
1
 40
1
 40
1
 40
1
 10
340.424577
 20
196.254457
 30
0.0
 10
340.424577
 20
201.575624
 30
0.0
 10
337.589117
 20
206.492588
 30
0.0
 10
332.986240
 20
209.153185
 30
0.0
  0
SPLINE
  5
11e
100
AcDbEntity
  8
0
 62
7
100
AcDbSpline
 70
8
 71
3
 72
8
 73
4
 74
0
 40
0
 40
0
 40
0
 40
0
 40
1
 40
1
 40
1
 40
1
 10
332.986240
 20
209.153185
 30
0.0
 10
328.383389
 20
211.813756
 30
0.0
 10
322.712442
 20
211.813756
 30
0.0
 10
318.109566
 20
209.153185
 30
0.0
  0
SPLINE
  5
11f
100
AcDbEntity
  8
0
 62
7
100
AcDbSpline
 70
8
 71
3
 72
8
 73
4
 74
0
 40
0
 40
0
 40
0
 40
0
 40
1
 40
1
 40
1
 40
1
 10
318.109566
 20
209.153185
 30
0.0
 10
313.506715
 20
206.492588
 30
0.0
 10
310.671229
 20
201.575624
 30
0.0
 10
310.671229
 20
196.254457
 30
0.0
  0
SPLINE
  5
120
100
AcDbEntity
  8
0
 62
7
100
AcDbSpline
 70
8
 71
3
 72
8
 73
4
 74
0
 40
0
 40
0
 40
0
 40
0
 40
1
 40
1
 40
1
 40
1
 10
310.671229
 20
196.254457
 30
0.0
 10
310.671229
 20
190.933262
 30
0.0
 10
313.506715
 20
186.016299
 30
0.0
 10
318.109566
 20
183.355702
 30
0.0
  0
SPLINE
  5
121
100
AcDbEntity
  8
0
 62
7
100
AcDbSpline
 70
8
 71
3
 72
8
 73
4
 74
0
 40
0
 40
0
 40
0
 40
0
 40
1
 40
1
 40
1
 40
1
 10
318.109566
 20
183.355702
 30
0.0
 10
322.712442
 20
180.695131
 30
0.0
 10
328.383389
 20
180.695131
 30
0.0
 10
332.986240
 20
183.355702
 30
0.0
  0
SPLINE
  5
122
100
AcDbEntity
  8
0
 62
7
100
AcDbSpline
 70
8
 71
3
 72
8
 73
4
 74
0
 40
0
 40
0
 40
0
 40
0
 40
1
 40
1
 40
1
 40
1
 10
332.986240
 20
183.355702
 30
0.0
 10
337.589117
 20
186.016299
 30
0.0
 10
340.424577
 20
190.933262
 30
0.0
 10
340.424577
 20
196.254457
 30
0.0
  0
SPLINE
  5
123
100
AcDbEntity
  8
0
 62
7
100
AcDbSpline
 70
8
 71
3
 72
8
 73
4
 74
0
 40
0
 40
0
 40
0
 40
0
 40
1
 40
1
 40
1
 40
1
 10
302.602522
 20
196.254457
 30
0.0
 10
302.602522
 20
196.886149
 30
0.0
 10
302.266818
 20
197.470138
 30
0.0
 10
301.720480
 20
197.786156
 30
0.0
  0
SPLINE
  5
124
100
AcDbEntity
  8
0
 62
7
100
AcDbSpline
 70
8
 71
3
 72
8
 73
4
 74
0
 40
0
 40
0
 40
0
 40
0
 40
1
 40
1
 40
1
 40
1
 10
301.720480
 20
197.786156
 30
0.0
 10
301.174142
 20
198.102174
 30
0.0
 10
300.500857
 20
198.102174
 30
0.0
 10
299.954519
 20
197.786156
 30
0.0
  0
SPLINE
  5
125
100
AcDbEntity
  8
0
 62
7
100
AcDbSpline
 70
8
 71
3
 72
8
 73
4
 74
0
 40
0
 40
0
 40
0
 40
0
 40
1
 40
1
 40
1
 40
1
 10
299.954519
 20
197.786156
 30
0.0
 10
299.408181
 20
197.470138
 30
0.0
 10
299.071895
 20
196.886149
 30
0.0
 10
299.072477
 20
196.254457
 30
0.0
  0
SPLINE
  5
126
100
AcDbEntity
  8
0
 62
7
100
AcDbSpline
 70
8
 71
3
 72
8
 73
4
 74
0
 40
0
 40
0
 40
0
 40
0
 40
1
 40
1
 40
1
 40
1
 10
299.072477
 20
196.254457
 30
0.0
 10
299.072477
 20
195.622737
 30
0.0
 10
299.408181
 20
195.038749
 30
0.0
 10
299.954519
 20
194.722731
 30
0.0
  0
SPLINE
  5
127
100
AcDbEntity
  8
0
 62
7
100
AcDbSpline
 70
8
 71
3
 72
8
 73
4
 74
0
 40
0
 40
0
 40
0
 40
0
 40
1
 40
1
 40
1
 40
1
 10
299.954519
 20
194.722731
 30
0.0
 10
300.500857
 20
194.406712
 30
0.0
 10
301.174142
 20
194.406712
 30
0.0
 10
301.720480
 20
194.722731
 30
0.0
  0
SPLINE
  5
128
100
AcDbEntity
  8
0
 62
7
100
AcDbSpline
 70
8
 71
3
 72
8
 73
4
 74
0
 40
0
 40
0
 40
0
 40
0
 40
1
 40
1
 40
1
 40
1
 10
301.720480
 20
194.722731
 30
0.0
 10
302.266818
 20
195.038749
 30
0.0
 10
302.603104
 20
195.622737
 30
0.0
 10
302.602522
 20
196.254457
 30
0.0
  0
SPLINE
  5
129
100
AcDbEntity
  8
0
 62
7
100
AcDbSpline
 70
8
 71
3
 72
8
 73
4
 74
0
 40
0
 40
0
 40
0
 40
0
 40
1
 40
1
 40
1
 40
1
 10
469.523887
 20
196.254457
 30
0.0
 10
469.523887
 20
201.576312
 30
0.0
 10
466.689670
 20
206.494361
 30
0.0
 10
462.086370
 20
209.155593
 30
0.0
  0
SPLINE
  5
12a
100
AcDbEntity
  8
0
 62
7
100
AcDbSpline
 70
8
 71
3
 72
8
 73
4
 74
0
 40
0
 40
0
 40
0
 40
0
 40
1
 40
1
 40
1
 40
1
 10
462.086370
 20
209.155593
 30
0.0
 10
457.483096
 20
211.816825
 30
0.0
 10
451.811303
 20
211.816825
 30
0.0
 10
447.208029
 20
209.155593
 30
0.0
  0
SPLINE
  5
12b
100
AcDbEntity
  8
0
 62
7
100
AcDbSpline
 70
8
 71
3
 72
8
 73
4
 74
0
 40
0
 40
0
 40
0
 40
0
 40
1
 40
1
 40
1
 40
1
 10
447.208029
 20
209.155593
 30
0.0
 10
442.604729
 20
206.494361
 30
0.0
 10
439.769480
 20
201.576312
 30
0.0
 10
439.770539
 20
196.254457
 30
0.0
  0
SPLINE
  5
12c
100
AcDbEntity
  8
0
 62
7
100
AcDbSpline
 70
8
 71
3
 72
8
 73
4
 74
0
 40
0
 40
0
 40
0
 40
0
 40
1
 40
1
 40
1
 40
1
 10
439.770539
 20
196.254457
 30
0.0
 10
439.770539
 20
190.932574
 30
0.0
 10
442.604729
 20
186.014526
 30
0.0
 10
447.208029
 20
183.353294
 30
0.0
  0
SPLINE
  5
12d
100
AcDbEntity
  8
0
 62
7
100
AcDbSpline
 70
8
 71
3
 72
8
 73
4
 74
0
 40
0
 40
0
 40
0
 40
0
 40
1
 40
1
 40
1
 40
1
 10
447.208029
 20
183.353294
 30
0.0
 10
451.811303
 20
180.692062
 30
0.0
 10
457.483096
 20
180.692062
 30
0.0
 10
462.086370
 20
183.353294
 30
0.0
  0
SPLINE
  5
12e
100
AcDbEntity
  8
0
 62
7
100
AcDbSpline
 70
8
 71
3
 72
8
 73
4
 74
0
 40
0
 40
0
 40
0
 40
0
 40
1
 40
1
 40
1
 40
1
 10
462.086370
 20
183.353294
 30
0.0
 10
466.689670
 20
186.014526
 30
0.0
 10
469.524919
 20
190.932574
 30
0.0
 10
469.523887
 20
196.254457
 30
0.0
  0
SPLINE
  5
12f
100
AcDbEntity
  8
0
 62
7
100
AcDbSpline
 70
8
 71
3
 72
8
 73
4
 74
0
 40
0
 40
0
 40
0
 40
0
 40
1
 40
1
 40
1
 40
1
 10
481.122638
 20
196.254457
 30
0.0
 10
481.122638
 20
196.885779
 30
0.0
 10
480.786220
 20
197.469132
 30
0.0
 10
480.240120
 20
197.784806
 30
0.0
  0
SPLINE
  5
130
100
AcDbEntity
  8
0
 62
7
100
AcDbSpline
 70
8
 71
3
 72
8
 73
4
 74
0
 40
0
 40
0
 40
0
 40
0
 40
1
 40
1
 40
1
 40
1
 10
480.240120
 20
197.784806
 30
0.0
 10
479.694020
 20
198.100454
 30
0.0
 10
479.021211
 20
198.100454
 30
0.0
 10
478.475085
 20
197.784806
 30
0.0
  0
SPLINE
  5
131
100
AcDbEntity
  8
0
 62
7
100
AcDbSpline
 70
8
 71
3
 72
8
 73
4
 74
0
 40
0
 40
0
 40
0
 40
0
 40
1
 40
1
 40
1
 40
1
 10
478.475085
 20
197.784806
 30
0.0
 10
477.928985
 20
197.469132
 30
0.0
 10
477.592594
 20
196.885779
 30
0.0
 10
477.592594
 20
196.254457
 30
0.0
  0
SPLINE
  5
132
100
AcDbEntity
  8
0
 62
7
100
AcDbSpline
 70
8
 71
3
 72
8
 73
4
 74
0
 40
0
 40
0
 40
0
 40
0
 40
1
 40
1
 40
1
 40
1
 10
477.592594
 20
196.254457
 30
0.0
 10
477.592594
 20
195.623108
 30
0.0
 10
477.928985
 20
195.039754
 30
0.0
 10
478.475085
 20
194.724080
 30
0.0
  0
SPLINE
  5
133
100
AcDbEntity
  8
0
 62
7
100
AcDbSpline
 70
8
 71
3
 72
8
 73
4
 74
0
 40
0
 40
0
 40
0
 40
0
 40
1
 40
1
 40
1
 40
1
 10
478.475085
 20
194.724080
 30
0.0
 10
479.021211
 20
194.408432
 30
0.0
 10
479.694020
 20
194.408432
 30
0.0
 10
480.240120
 20
194.724080
 30
0.0
  0
SPLINE
  5
134
100
AcDbEntity
  8
0
 62
7
100
AcDbSpline
 70
8
 71
3
 72
8
 73
4
 74
0
 40
0
 40
0
 40
0
 40
0
 40
1
 40
1
 40
1
 40
1
 10
480.240120
 20
194.724080
 30
0.0
 10
480.786220
 20
195.039754
 30
0.0
 10
481.122638
 20
195.623108
 30
0.0
 10
481.122638
 20
196.254457
 30
0.0
  0
SPLINE
  5
135
100
AcDbEntity
  8
0
 62
7
100
AcDbSpline
 70
8
 71
3
 72
8
 73
4
 74
0
 40
0
 40
0
 40
0
 40
0
 40
1
 40
1
 40
1
 40
1
 10
367.152177
 20
196.254457
 30
0.0
 10
367.152177
 20
196.885779
 30
0.0
 10
366.815759
 20
197.469132
 30
0.0
 10
366.269659
 20
197.784806
 30
0.0
  0
SPLINE
  5
136
100
AcDbEntity
  8
0
 62
7
100
AcDbSpline
 70
8
 71
3
 72
8
 73
4
 74
0
 40
0
 40
0
 40
0
 40
0
 40
1
 40
1
 40
1
 40
1
 10
366.269659
 20
197.784806
 30
0.0
 10
365.723559
 20
198.100454
 30
0.0
 10
365.050724
 20
198.100454
 30
0.0
 10
364.504624
 20
197.784806
 30
0.0
  0
SPLINE
  5
137
100
AcDbEntity
  8
0
 62
7
100
AcDbSpline
 70
8
 71
3
 72
8
 73
4
 74
0
 40
0
 40
0
 40
0
 40
0
 40
1
 40
1
 40
1
 40
1
 10
364.504624
 20
197.784806
 30
0.0
 10
363.958524
 20
197.469132
 30
0.0
 10
363.622106
 20
196.885779
 30
0.0
 10
363.622106
 20
196.254457
 30
0.0
  0
SPLINE
  5
138
100
AcDbEntity
  8
0
 62
7
100
AcDbSpline
 70
8
 71
3
 72
8
 73
4
 74
0
 40
0
 40
0
 40
0
 40
0
 40
1
 40
1
 40
1
 40
1
 10
363.622106
 20
196.254457
 30
0.0
 10
363.622106
 20
195.623108
 30
0.0
 10
363.958524
 20
195.039754
 30
0.0
 10
364.504624
 20
194.724080
 30
0.0
  0
SPLINE
  5
139
100
AcDbEntity
  8
0
 62
7
100
AcDbSpline
 70
8
 71
3
 72
8
 73
4
 74
0
 40
0
 40
0
 40
0
 40
0
 40
1
 40
1
 40
1
 40
1
 10
364.504624
 20
194.724080
 30
0.0
 10
365.050724
 20
194.408432
 30
0.0
 10
365.723559
 20
194.408432
 30
0.0
 10
366.269659
 20
194.724080
 30
0.0
  0
SPLINE
  5
13a
100
AcDbEntity
  8
0
 62
7
100
AcDbSpline
 70
8
 71
3
 72
8
 73
4
 74
0
 40
0
 40
0
 40
0
 40
0
 40
1
 40
1
 40
1
 40
1
 10
366.269659
 20
194.724080
 30
0.0
 10
366.815759
 20
195.039754
 30
0.0
 10
367.152177
 20
195.623108
 30
0.0
 10
367.152177
 20
196.254457
 30
0.0
  0
SPLINE
  5
13b
100
AcDbEntity
  8
0
 62
7
100
AcDbSpline
 70
8
 71
3
 72
8
 73
4
 74
0
 40
0
 40
0
 40
0
 40
0
 40
1
 40
1
 40
1
 40
1
 10
416.573010
 20
196.254457
 30
0.0
 10
416.573010
 20
196.886123
 30
0.0
 10
416.237227
 20
197.470032
 30
0.0
 10
415.690915
 20
197.786024
 30
0.0
  0
SPLINE
  5
13c
100
AcDbEntity
  8
0
 62
7
100
AcDbSpline
 70
8
 71
3
 72
8
 73
4
 74
0
 40
0
 40
0
 40
0
 40
0
 40
1
 40
1
 40
1
 40
1
 10
415.690915
 20
197.786024
 30
0.0
 10
415.144577
 20
198.101989
 30
0.0
 10
414.471345
 20
198.101989
 30
0.0
 10
413.925033
 20
197.786024
 30
0.0
  0
SPLINE
  5
13d
100
AcDbEntity
  8
0
 62
7
100
AcDbSpline
 70
8
 71
3
 72
8
 73
4
 74
0
 40
0
 40
0
 40
0
 40
0
 40
1
 40
1
 40
1
 40
1
 10
413.925033
 20
197.786024
 30
0.0
 10
413.378721
 20
197.470032
 30
0.0
 10
413.042410
 20
196.886123
 30
0.0
 10
413.042939
 20
196.254457
 30
0.0
  0
SPLINE
  5
13e
100
AcDbEntity
  8
0
 62
7
100
AcDbSpline
 70
8
 71
3
 72
8
 73
4
 74
0
 40
0
 40
0
 40
0
 40
0
 40
1
 40
1
 40
1
 40
1
 10
413.042939
 20
196.254457
 30
0.0
 10
413.042939
 20
195.622764
 30
0.0
 10
413.378721
 20
195.038855
 30
0.0
 10
413.925033
 20
194.722863
 30
0.0
  0
SPLINE
  5
13f
100
AcDbEntity
  8
0
 62
7
100
AcDbSpline
 70
8
 71
3
 72
8
 73
4
 74
0
 40
0
 40
0
 40
0
 40
0
 40
1
 40
1
 40
1
 40
1
 10
413.925033
 20
194.722863
 30
0.0
 10
414.471345
 20
194.406898
 30
0.0
 10
415.144577
 20
194.406898
 30
0.0
 10
415.690915
 20
194.722863
 30
0.0
  0
SPLINE
  5
140
100
AcDbEntity
  8
0
 62
7
100
AcDbSpline
 70
8
 71
3
 72
8
 73
4
 74
0
 40
0
 40
0
 40
0
 40
0
 40
1
 40
1
 40
1
 40
1
 10
415.690915
 20
194.722863
 30
0.0
 10
416.237227
 20
195.038855
 30
0.0
 10
416.573512
 20
195.622764
 30
0.0
 10
416.573010
 20
196.254457
 30
0.0
  0
SPLINE
  5
141
100
AcDbEntity
  8
0
 62
7
100
AcDbSpline
 70
8
 71
3
 72
8
 73
4
 74
0
 40
0
 40
0
 40
0
 40
0
 40
1
 40
1
 40
1
 40
1
 10
404.974232
 20
196.254457
 30
0.0
 10
404.974232
 20
201.576312
 30
0.0
 10
402.140015
 20
206.494361
 30
0.0
 10
397.536741
 20
209.155593
 30
0.0
  0
SPLINE
  5
142
100
AcDbEntity
  8
0
 62
7
100
AcDbSpline
 70
8
 71
3
 72
8
 73
4
 74
0
 40
0
 40
0
 40
0
 40
0
 40
1
 40
1
 40
1
 40
1
 10
397.536741
 20
209.155593
 30
0.0
 10
392.933441
 20
211.816825
 30
0.0
 10
387.261674
 20
211.816825
 30
0.0
 10
382.658374
 20
209.155593
 30
0.0
  0
SPLINE
  5
143
100
AcDbEntity
  8
0
 62
7
100
AcDbSpline
 70
8
 71
3
 72
8
 73
4
 74
0
 40
0
 40
0
 40
0
 40
0
 40
1
 40
1
 40
1
 40
1
 10
382.658374
 20
209.155593
 30
0.0
 10
378.055100
 20
206.494361
 30
0.0
 10
375.219852
 20
201.576312
 30
0.0
 10
375.220884
 20
196.254457
 30
0.0
  0
SPLINE
  5
144
100
AcDbEntity
  8
0
 62
7
100
AcDbSpline
 70
8
 71
3
 72
8
 73
4
 74
0
 40
0
 40
0
 40
0
 40
0
 40
1
 40
1
 40
1
 40
1
 10
375.220884
 20
196.254457
 30
0.0
 10
375.220884
 20
190.932574
 30
0.0
 10
378.055100
 20
186.014526
 30
0.0
 10
382.658374
 20
183.353294
 30
0.0
  0
SPLINE
  5
145
100
AcDbEntity
  8
0
 62
7
100
AcDbSpline
 70
8
 71
3
 72
8
 73
4
 74
0
 40
0
 40
0
 40
0
 40
0
 40
1
 40
1
 40
1
 40
1
 10
382.658374
 20
183.353294
 30
0.0
 10
387.261674
 20
180.692062
 30
0.0
 10
392.933441
 20
180.692062
 30
0.0
 10
397.536741
 20
183.353294
 30
0.0
  0
SPLINE
  5
146
100
AcDbEntity
  8
0
 62
7
100
AcDbSpline
 70
8
 71
3
 72
8
 73
4
 74
0
 40
0
 40
0
 40
0
 40
0
 40
1
 40
1
 40
1
 40
1
 10
397.536741
 20
183.353294
 30
0.0
 10
402.140015
 20
186.014526
 30
0.0
 10
404.975264
 20
190.932574
 30
0.0
 10
404.974232
 20
196.254457
 30
0.0
  0
SPLINE
  5
147
100
AcDbEntity
  8
0
 62
7
100
AcDbSpline
 70
8
 71
3
 72
8
 73
4
 74
0
 40
0
 40
0
 40
0
 40
0
 40
1
 40
1
 40
1
 40
1
 10
352.023355
 20
196.254457
 30
0.0
 10
352.023355
 20
196.886440
 30
0.0
 10
351.688154
 20
197.470825
 30
0.0
 10
351.141631
 20
197.787108
 30
0.0
  0
SPLINE
  5
148
100
AcDbEntity
  8
0
 62
7
100
AcDbSpline
 70
8
 71
3
 72
8
 73
4
 74
0
 40
0
 40
0
 40
0
 40
0
 40
1
 40
1
 40
1
 40
1
 10
351.141631
 20
197.787108
 30
0.0
 10
350.595134
 20
198.103391
 30
0.0
 10
349.921531
 20
198.103391
 30
0.0
 10
349.375008
 20
197.787108
 30
0.0
  0
SPLINE
  5
149
100
AcDbEntity
  8
0
 62
7
100
AcDbSpline
 70
8
 71
3
 72
8
 73
4
 74
0
 40
0
 40
0
 40
0
 40
0
 40
1
 40
1
 40
1
 40
1
 10
349.375008
 20
197.787108
 30
0.0
 10
348.828511
 20
197.470825
 30
0.0
 10
348.492305
 20
196.886440
 30
0.0
 10
348.493284
 20
196.254457
 30
0.0
  0
SPLINE
  5
14a
100
AcDbEntity
  8
0
 62
7
100
AcDbSpline
 70
8
 71
3
 72
8
 73
4
 74
0
 40
0
 40
0
 40
0
 40
0
 40
1
 40
1
 40
1
 40
1
 10
348.493284
 20
196.254457
 30
0.0
 10
348.493284
 20
195.622473
 30
0.0
 10
348.828511
 20
195.038061
 30
0.0
 10
349.375008
 20
194.721778
 30
0.0
  0
SPLINE
  5
14b
100
AcDbEntity
  8
0
 62
7
100
AcDbSpline
 70
8
 71
3
 72
8
 73
4
 74
0
 40
0
 40
0
 40
0
 40
0
 40
1
 40
1
 40
1
 40
1
 10
349.375008
 20
194.721778
 30
0.0
 10
349.921531
 20
194.405495
 30
0.0
 10
350.595134
 20
194.405495
 30
0.0
 10
351.141631
 20
194.721778
 30
0.0
  0
SPLINE
  5
14c
100
AcDbEntity
  8
0
 62
7
100
AcDbSpline
 70
8
 71
3
 72
8
 73
4
 74
0
 40
0
 40
0
 40
0
 40
0
 40
1
 40
1
 40
1
 40
1
 10
351.141631
 20
194.721778
 30
0.0
 10
351.688154
 20
195.038061
 30
0.0
 10
352.024334
 20
195.622473
 30
0.0
 10
352.023355
 20
196.254457
 30
0.0
  0
LWPOLYLINE
  5
14d
100
AcDbEntity
  8
0
 62
7
100
AcDbPolyline
 90
164
 70
1
 10
282.330596
 20
123.769340
 30
0.0
 10
301.330590
 20
123.769340
 30
0.0
 10
301.330590
 20
129.769349
 30
0.0
 10
308.980594
 20
129.769349
 30
0.0
 10
308.980594
 20
126.069363
 30
0.0
 10
312.680607
 20
126.069363
 30
0.0
 10
312.680607
 20
129.769349
 30
0.0
 10
320.330584
 20
129.769349
 30
0.0
 10
320.330584
 20
123.769340
 30
0.0
 10
332.330602
 20
123.769340
 30
0.0
 10
332.330602
 20
129.769349
 30
0.0
 10
344.330594
 20
129.769349
 30
0.0
 10
344.330594
 20
123.769340
 30
0.0
 10
356.330586
 20
123.769340
 30
0.0
 10
356.330586
 20
129.769349
 30
0.0
 10
368.330604
 20
129.769349
 30
0.0
 10
368.330604
 20
123.769340
 30
0.0
 10
380.330596
 20
123.769340
 30
0.0
 10
380.330596
 20
129.769349
 30
0.0
 10
392.330588
 20
129.769349
 30
0.0
 10
392.330588
 20
123.769340
 30
0.0
 10
404.330606
 20
123.769340
 30
0.0
 10
404.330606
 20
129.769349
 30
0.0
 10
416.330598
 20
129.769349
 30
0.0
 10
416.330598
 20
123.769340
 30
0.0
 10
428.330590
 20
123.769340
 30
0.0
 10
428.330590
 20
129.769349
 30
0.0
 10
440.330609
 20
129.769349
 30
0.0
 10
440.330609
 20
123.769340
 30
0.0
 10
452.330600
 20
123.769340
 30
0.0
 10
452.330600
 20
129.769349
 30
0.0
 10
464.330592
 20
129.769349
 30
0.0
 10
464.330592
 20
123.769340
 30
0.0
 10
476.330611
 20
123.769340
 30
0.0
 10
476.330611
 20
129.769349
 30
0.0
 10
488.330602
 20
129.769349
 30
0.0
 10
488.330602
 20
123.769340
 30
0.0
 10
500.330594
 20
123.769340
 30
0.0
 10
500.330594
 20
129.769349
 30
0.0
 10
512.330613
 20
129.769349
 30
0.0
 10
512.330613
 20
123.769340
 30
0.0
 10
524.330605
 20
123.769340
 30
0.0
 10
524.330605
 20
129.769349
 30
0.0
 10
531.980608
 20
129.769349
 30
0.0
 10
531.980608
 20
126.069363
 30
0.0
 10
535.680621
 20
126.069363
 30
0.0
 10
535.680621
 20
129.769349
 30
0.0
 10
543.330598
 20
129.769349
 30
0.0
 10
543.330598
 20
123.769340
 30
0.0
 10
562.330619
 20
123.769340
 30
0.0
 10
562.330619
 20
110.269372
 30
0.0
 10
556.330609
 20
110.269372
 30
0.0
 10
556.330609
 20
102.069352
 30
0.0
 10
555.230604
 20
102.069352
 30
0.0
 10
555.230604
 20
103.319350
 30
0.0
 10
552.730609
 20
103.319350
 30
0.0
 10
552.730609
 20
102.069352
 30
0.0
 10
550.230614
 20
102.069352
 30
0.0
 10
550.230614
 20
98.969362
 30
0.0
 10
552.730609
 20
98.969362
 30
0.0
 10
552.730609
 20
97.719364
 30
0.0
 10
555.230604
 20
97.719364
 30
0.0
 10
555.230604
 20
98.969362
 30
0.0
 10
556.330609
 20
98.969362
 30
0.0
 10
556.330609
 20
90.769369
 30
0.0
 10
562.330619
 20
90.769369
 30
0.0
 10
562.330619
 20
78.769377
 30
0.0
 10
556.330609
 20
78.769377
 30
0.0
 10
556.330609
 20
70.569384
 30
0.0
 10
555.230604
 20
70.569384
 30
0.0
 10
555.230604
 20
71.819381
 30
0.0
 10
552.730609
 20
71.819381
 30
0.0
 10
552.730609
 20
70.569384
 30
0.0
 10
550.230614
 20
70.569384
 30
0.0
 10
550.230614
 20
67.469366
 30
0.0
 10
552.730609
 20
67.469366
 30
0.0
 10
552.730609
 20
66.219369
 30
0.0
 10
555.230604
 20
66.219369
 30
0.0
 10
555.230604
 20
67.469366
 30
0.0
 10
556.330609
 20
67.469366
 30
0.0
 10
556.330609
 20
59.269373
 30
0.0
 10
562.330619
 20
59.269373
 30
0.0
 10
562.330619
 20
45.769379
 30
0.0
 10
543.330598
 20
45.769379
 30
0.0
 10
543.330598
 20
39.769396
 30
0.0
 10
535.680621
 20
39.769396
 30
0.0
 10
535.680621
 20
43.469383
 30
0.0
 10
531.980608
 20
43.469383
 30
0.0
 10
531.980608
 20
39.769396
 30
0.0
 10
524.330605
 20
39.769396
 30
0.0
 10
524.330605
 20
45.769379
 30
0.0
 10
512.330613
 20
45.769379
 30
0.0
 10
512.330613
 20
39.769396
 30
0.0
 10
500.330594
 20
39.769396
 30
0.0
 10
500.330594
 20
45.769379
 30
0.0
 10
488.330602
 20
45.769379
 30
0.0
 10
488.330602
 20
39.769396
 30
0.0
 10
476.330611
 20
39.769396
 30
0.0
 10
476.330611
 20
45.769379
 30
0.0
 10
464.330592
 20
45.769379
 30
0.0
 10
464.330592
 20
39.769396
 30
0.0
 10
452.330600
 20
39.769396
 30
0.0
 10
452.330600
 20
45.769379
 30
0.0
 10
440.330609
 20
45.769379
 30
0.0
 10
440.330609
 20
39.769396
 30
0.0
 10
428.330590
 20
39.769396
 30
0.0
 10
428.330590
 20
45.769379
 30
0.0
 10
416.330598
 20
45.769379
 30
0.0
 10
416.330598
 20
39.769396
 30
0.0
 10
404.330606
 20
39.769396
 30
0.0
 10
404.330606
 20
45.769379
 30
0.0
 10
392.330588
 20
45.769379
 30
0.0
 10
392.330588
 20
39.769396
 30
0.0
 10
380.330596
 20
39.769396
 30
0.0
 10
380.330596
 20
45.769379
 30
0.0
 10
368.330604
 20
45.769379
 30
0.0
 10
368.330604
 20
39.769396
 30
0.0
 10
356.330586
 20
39.769396
 30
0.0
 10
356.330586
 20
45.769379
 30
0.0
 10
344.330594
 20
45.769379
 30
0.0
 10
344.330594
 20
39.769396
 30
0.0
 10
332.330602
 20
39.769396
 30
0.0
 10
332.330602
 20
45.769379
 30
0.0
 10
320.330584
 20
45.769379
 30
0.0
 10
320.330584
 20
39.769396
 30
0.0
 10
312.680607
 20
39.769396
 30
0.0
 10
312.680607
 20
43.469383
 30
0.0
 10
308.980594
 20
43.469383
 30
0.0
 10
308.980594
 20
39.769396
 30
0.0
 10
301.330590
 20
39.769396
 30
0.0
 10
301.330590
 20
45.769379
 30
0.0
 10
282.330596
 20
45.769379
 30
0.0
 10
282.330596
 20
59.269373
 30
0.0
 10
288.330606
 20
59.269373
 30
0.0
 10
288.330606
 20
67.469366
 30
0.0
 10
289.430584
 20
67.469366
 30
0.0
 10
289.430584
 20
66.219369
 30
0.0
 10
291.930606
 20
66.219369
 30
0.0
 10
291.930606
 20
67.469366
 30
0.0
 10
294.430601
 20
67.469366
 30
0.0
 10
294.430601
 20
70.569384
 30
0.0
 10
291.930606
 20
70.569384
 30
0.0
 10
291.930606
 20
71.819381
 30
0.0
 10
289.430584
 20
71.819381
 30
0.0
 10
289.430584
 20
70.569384
 30
0.0
 10
288.330606
 20
70.569384
 30
0.0
 10
288.330606
 20
78.769377
 30
0.0
 10
282.330596
 20
78.769377
 30
0.0
 10
282.330596
 20
90.769369
 30
0.0
 10
288.330606
 20
90.769369
 30
0.0
 10
288.330606
 20
98.969362
 30
0.0
 10
289.430584
 20
98.969362
 30
0.0
 10
289.430584
 20
97.719364
 30
0.0
 10
291.930606
 20
97.719364
 30
0.0
 10
291.930606
 20
98.969362
 30
0.0
 10
294.430601
 20
98.969362
 30
0.0
 10
294.430601
 20
102.069352
 30
0.0
 10
291.930606
 20
102.069352
 30
0.0
 10
291.930606
 20
103.319350
 30
0.0
 10
289.430584
 20
103.319350
 30
0.0
 10
289.430584
 20
102.069352
 30
0.0
 10
288.330606
 20
102.069352
 30
0.0
 10
288.330606
 20
110.269372
 30
0.0
 10
282.330596
 20
110.269372
 30
0.0
  0
SPLINE
  5
14e
100
AcDbEntity
  8
0
 62
3
100
AcDbSpline
 70
8
 71
3
 72
8
 73
4
 74
0
 40
0
 40
0
 40
0
 40
0
 40
1
 40
1
 40
1
 40
1
 10
14.852306
 20
196.420403
 30
0.0
 10
14.852068
 20
196.660433
 30
0.0
 10
14.916282
 20
196.900146
 30
0.0
 10
15.036535
 20
197.107870
 30
0.0
  0
SPLINE
  5
14f
100
AcDbEntity
  8
0
 62
3
100
AcDbSpline
 70
8
 71
3
 72
8
 73
4
 74
0
 40
0
 40
0
 40
0
 40
0
 40
1
 40
1
 40
1
 40
1
 10
15.036535
 20
197.107870
 30
0.0
 10
15.156312
 20
197.315885
 30
0.0
 10
15.331784
 20
197.491357
 30
0.0
 10
15.539799
 20
197.611134
 30
0.0
  0
SPLINE
  5
150
100
AcDbEntity
  8
0
 62
3
100
AcDbSpline
 70
8
 71
3
 72
8
 73
4
 74
0
 40
0
 40
0
 40
0
 40
0
 40
1
 40
1
 40
1
 40
1
 10
15.539799
 20
197.611134
 30
0.0
 10
15.747524
 20
197.731387
 30
0.0
 10
15.987236
 20
197.795601
 30
0.0
 10
16.227266
 20
197.795337
 30
0.0
  0
SPLINE
  5
151
100
AcDbEntity
  8
0
 62
3
100
AcDbSpline
 70
8
 71
3
 72
8
 73
4
 74
0
 40
0
 40
0
 40
0
 40
0
 40
1
 40
1
 40
1
 40
1
 10
16.227266
 20
197.795337
 30
0.0
 10
16.467296
 20
197.795337
 30
0.0
 10
16.706982
 20
197.731387
 30
0.0
 10
16.914733
 20
197.611134
 30
0.0
  0
SPLINE
  5
152
100
AcDbEntity
  8
0
 62
3
100
AcDbSpline
 70
8
 71
3
 72
8
 73
4
 74
0
 40
0
 40
0
 40
0
 40
0
 40
1
 40
1
 40
1
 40
1
 10
16.914733
 20
197.611134
 30
0.0
 10
17.122722
 20
197.491357
 30
0.0
 10
17.298220
 20
197.315885
 30
0.0
 10
17.417997
 20
197.107870
 30
0.0
  0
SPLINE
  5
153
100
AcDbEntity
  8
0
 62
3
100
AcDbSpline
 70
8
 71
3
 72
8
 73
4
 74
0
 40
0
 40
0
 40
0
 40
0
 40
1
 40
1
 40
1
 40
1
 10
17.417997
 20
197.107870
 30
0.0
 10
17.538224
 20
196.900146
 30
0.0
 10
17.602465
 20
196.660433
 30
0.0
 10
17.602200
 20
196.420403
 30
0.0
  0
SPLINE
  5
154
100
AcDbEntity
  8
0
 62
3
100
AcDbSpline
 70
8
 71
3
 72
8
 73
4
 74
0
 40
0
 40
0
 40
0
 40
0
 40
1
 40
1
 40
1
 40
1
 10
17.602200
 20
196.420403
 30
0.0
 10
17.602465
 20
196.180373
 30
0.0
 10
17.538224
 20
195.940687
 30
0.0
 10
17.417997
 20
195.732936
 30
0.0
  0
SPLINE
  5
155
100
AcDbEntity
  8
0
 62
3
100
AcDbSpline
 70
8
 71
3
 72
8
 73
4
 74
0
 40
0
 40
0
 40
0
 40
0
 40
1
 40
1
 40
1
 40
1
 10
17.417997
 20
195.732936
 30
0.0
 10
17.298220
 20
195.524947
 30
0.0
 10
17.122722
 20
195.349476
 30
0.0
 10
16.914733
 20
195.229672
 30
0.0
  0
SPLINE
  5
156
100
AcDbEntity
  8
0
 62
3
100
AcDbSpline
 70
8
 71
3
 72
8
 73
4
 74
0
 40
0
 40
0
 40
0
 40
0
 40
1
 40
1
 40
1
 40
1
 10
16.914733
 20
195.229672
 30
0.0
 10
16.706982
 20
195.109446
 30
0.0
 10
16.467296
 20
195.045205
 30
0.0
 10
16.227266
 20
195.045469
 30
0.0
  0
SPLINE
  5
157
100
AcDbEntity
  8
0
 62
3
100
AcDbSpline
 70
8
 71
3
 72
8
 73
4
 74
0
 40
0
 40
0
 40
0
 40
0
 40
1
 40
1
 40
1
 40
1
 10
16.227266
 20
195.045469
 30
0.0
 10
15.987236
 20
195.045205
 30
0.0
 10
15.747524
 20
195.109446
 30
0.0
 10
15.539799
 20
195.229672
 30
0.0
  0
SPLINE
  5
158
100
AcDbEntity
  8
0
 62
3
100
AcDbSpline
 70
8
 71
3
 72
8
 73
4
 74
0
 40
0
 40
0
 40
0
 40
0
 40
1
 40
1
 40
1
 40
1
 10
15.539799
 20
195.229672
 30
0.0
 10
15.331784
 20
195.349476
 30
0.0
 10
15.156312
 20
195.524947
 30
0.0
 10
15.036535
 20
195.732936
 30
0.0
  0
SPLINE
  5
159
100
AcDbEntity
  8
0
 62
3
100
AcDbSpline
 70
8
 71
3
 72
8
 73
4
 74
0
 40
0
 40
0
 40
0
 40
0
 40
1
 40
1
 40
1
 40
1
 10
15.036535
 20
195.732936
 30
0.0
 10
14.916282
 20
195.940687
 30
0.0
 10
14.852068
 20
196.180373
 30
0.0
 10
14.852306
 20
196.420403
 30
0.0
  0
SPLINE
  5
15a
100
AcDbEntity
  8
0
 62
3
100
AcDbSpline
 70
8
 71
3
 72
8
 73
4
 74
0
 40
0
 40
0
 40
0
 40
0
 40
1
 40
1
 40
1
 40
1
 10
14.852306
 20
245.420391
 30
0.0
 10
14.852068
 20
245.660421
 30
0.0
 10
14.916282
 20
245.900133
 30
0.0
 10
15.036535
 20
246.107858
 30
0.0
  0
SPLINE
  5
15b
100
AcDbEntity
  8
0
 62
3
100
AcDbSpline
 70
8
 71
3
 72
8
 73
4
 74
0
 40
0
 40
0
 40
0
 40
0
 40
1
 40
1
 40
1
 40
1
 10
15.036535
 20
246.107858
 30
0.0
 10
15.156312
 20
246.315873
 30
0.0
 10
15.331784
 20
246.491345
 30
0.0
 10
15.539799
 20
246.611121
 30
0.0
  0
SPLINE
  5
15c
100
AcDbEntity
  8
0
 62
3
100
AcDbSpline
 70
8
 71
3
 72
8
 73
4
 74
0
 40
0
 40
0
 40
0
 40
0
 40
1
 40
1
 40
1
 40
1
 10
15.539799
 20
246.611121
 30
0.0
 10
15.747524
 20
246.731375
 30
0.0
 10
15.987236
 20
246.795589
 30
0.0
 10
16.227266
 20
246.795351
 30
0.0
  0
SPLINE
  5
15d
100
AcDbEntity
  8
0
 62
3
100
AcDbSpline
 70
8
 71
3
 72
8
 73
4
 74
0
 40
0
 40
0
 40
0
 40
0
 40
1
 40
1
 40
1
 40
1
 10
16.227266
 20
246.795351
 30
0.0
 10
16.467296
 20
246.795589
 30
0.0
 10
16.706982
 20
246.731375
 30
0.0
 10
16.914733
 20
246.611121
 30
0.0
  0
SPLINE
  5
15e
100
AcDbEntity
  8
0
 62
3
100
AcDbSpline
 70
8
 71
3
 72
8
 73
4
 74
0
 40
0
 40
0
 40
0
 40
0
 40
1
 40
1
 40
1
 40
1
 10
16.914733
 20
246.611121
 30
0.0
 10
17.122722
 20
246.491345
 30
0.0
 10
17.298220
 20
246.315873
 30
0.0
 10
17.417997
 20
246.107858
 30
0.0
  0
SPLINE
  5
15f
100
AcDbEntity
  8
0
 62
3
100
AcDbSpline
 70
8
 71
3
 72
8
 73
4
 74
0
 40
0
 40
0
 40
0
 40
0
 40
1
 40
1
 40
1
 40
1
 10
17.417997
 20
246.107858
 30
0.0
 10
17.538224
 20
245.900133
 30
0.0
 10
17.602465
 20
245.660421
 30
0.0
 10
17.602200
 20
245.420391
 30
0.0
  0
SPLINE
  5
160
100
AcDbEntity
  8
0
 62
3
100
AcDbSpline
 70
8
 71
3
 72
8
 73
4
 74
0
 40
0
 40
0
 40
0
 40
0
 40
1
 40
1
 40
1
 40
1
 10
17.602200
 20
245.420391
 30
0.0
 10
17.602465
 20
245.180387
 30
0.0
 10
17.538224
 20
244.940675
 30
0.0
 10
17.417997
 20
244.732924
 30
0.0
  0
SPLINE
  5
161
100
AcDbEntity
  8
0
 62
3
100
AcDbSpline
 70
8
 71
3
 72
8
 73
4
 74
0
 40
0
 40
0
 40
0
 40
0
 40
1
 40
1
 40
1
 40
1
 10
17.417997
 20
244.732924
 30
0.0
 10
17.298220
 20
244.524935
 30
0.0
 10
17.122722
 20
244.349463
 30
0.0
 10
16.914733
 20
244.229660
 30
0.0
  0
SPLINE
  5
162
100
AcDbEntity
  8
0
 62
3
100
AcDbSpline
 70
8
 71
3
 72
8
 73
4
 74
0
 40
0
 40
0
 40
0
 40
0
 40
1
 40
1
 40
1
 40
1
 10
16.914733
 20
244.229660
 30
0.0
 10
16.706982
 20
244.109433
 30
0.0
 10
16.467296
 20
244.045192
 30
0.0
 10
16.227266
 20
244.045457
 30
0.0
  0
SPLINE
  5
163
100
AcDbEntity
  8
0
 62
3
100
AcDbSpline
 70
8
 71
3
 72
8
 73
4
 74
0
 40
0
 40
0
 40
0
 40
0
 40
1
 40
1
 40
1
 40
1
 10
16.227266
 20
244.045457
 30
0.0
 10
15.987236
 20
244.045192
 30
0.0
 10
15.747524
 20
244.109433
 30
0.0
 10
15.539799
 20
244.229660
 30
0.0
  0
SPLINE
  5
164
100
AcDbEntity
  8
0
 62
3
100
AcDbSpline
 70
8
 71
3
 72
8
 73
4
 74
0
 40
0
 40
0
 40
0
 40
0
 40
1
 40
1
 40
1
 40
1
 10
15.539799
 20
244.229660
 30
0.0
 10
15.331784
 20
244.349463
 30
0.0
 10
15.156312
 20
244.524935
 30
0.0
 10
15.036535
 20
244.732924
 30
0.0
  0
SPLINE
  5
165
100
AcDbEntity
  8
0
 62
3
100
AcDbSpline
 70
8
 71
3
 72
8
 73
4
 74
0
 40
0
 40
0
 40
0
 40
0
 40
1
 40
1
 40
1
 40
1
 10
15.036535
 20
244.732924
 30
0.0
 10
14.916282
 20
244.940675
 30
0.0
 10
14.852068
 20
245.180387
 30
0.0
 10
14.852306
 20
245.420391
 30
0.0
  0
SPLINE
  5
166
100
AcDbEntity
  8
0
 62
3
100
AcDbSpline
 70
8
 71
3
 72
8
 73
4
 74
0
 40
0
 40
0
 40
0
 40
0
 40
1
 40
1
 40
1
 40
1
 10
72.852306
 20
245.420391
 30
0.0
 10
72.852068
 20
245.660421
 30
0.0
 10
72.916283
 20
245.900133
 30
0.0
 10
73.036536
 20
246.107858
 30
0.0
  0
SPLINE
  5
167
100
AcDbEntity
  8
0
 62
3
100
AcDbSpline
 70
8
 71
3
 72
8
 73
4
 74
0
 40
0
 40
0
 40
0
 40
0
 40
1
 40
1
 40
1
 40
1
 10
73.036536
 20
246.107858
 30
0.0
 10
73.156313
 20
246.315873
 30
0.0
 10
73.331784
 20
246.491345
 30
0.0
 10
73.539800
 20
246.611121
 30
0.0
  0
SPLINE
  5
168
100
AcDbEntity
  8
0
 62
3
100
AcDbSpline
 70
8
 71
3
 72
8
 73
4
 74
0
 40
0
 40
0
 40
0
 40
0
 40
1
 40
1
 40
1
 40
1
 10
73.539800
 20
246.611121
 30
0.0
 10
73.747524
 20
246.731375
 30
0.0
 10
73.987237
 20
246.795589
 30
0.0
 10
74.227267
 20
246.795351
 30
0.0
  0
SPLINE
  5
169
100
AcDbEntity
  8
0
 62
3
100
AcDbSpline
 70
8
 71
3
 72
8
 73
4
 74
0
 40
0
 40
0
 40
0
 40
0
 40
1
 40
1
 40
1
 40
1
 10
74.227267
 20
246.795351
 30
0.0
 10
74.467297
 20
246.795589
 30
0.0
 10
74.706983
 20
246.731375
 30
0.0
 10
74.914734
 20
246.611121
 30
0.0
  0
SPLINE
  5
16a
100
AcDbEntity
  8
0
 62
3
100
AcDbSpline
 70
8
 71
3
 72
8
 73
4
 74
0
 40
0
 40
0
 40
0
 40
0
 40
1
 40
1
 40
1
 40
1
 10
74.914734
 20
246.611121
 30
0.0
 10
75.122723
 20
246.491345
 30
0.0
 10
75.298221
 20
246.315873
 30
0.0
 10
75.417998
 20
246.107858
 30
0.0
  0
SPLINE
  5
16b
100
AcDbEntity
  8
0
 62
3
100
AcDbSpline
 70
8
 71
3
 72
8
 73
4
 74
0
 40
0
 40
0
 40
0
 40
0
 40
1
 40
1
 40
1
 40
1
 10
75.417998
 20
246.107858
 30
0.0
 10
75.538224
 20
245.900133
 30
0.0
 10
75.602465
 20
245.660421
 30
0.0
 10
75.602200
 20
245.420391
 30
0.0
  0
SPLINE
  5
16c
100
AcDbEntity
  8
0
 62
3
100
AcDbSpline
 70
8
 71
3
 72
8
 73
4
 74
0
 40
0
 40
0
 40
0
 40
0
 40
1
 40
1
 40
1
 40
1
 10
75.602200
 20
245.420391
 30
0.0
 10
75.602200
 20
245.180387
 30
0.0
 10
75.538224
 20
244.940675
 30
0.0
 10
75.417998
 20
244.732924
 30
0.0
  0
SPLINE
  5
16d
100
AcDbEntity
  8
0
 62
3
100
AcDbSpline
 70
8
 71
3
 72
8
 73
4
 74
0
 40
0
 40
0
 40
0
 40
0
 40
1
 40
1
 40
1
 40
1
 10
75.417998
 20
244.732924
 30
0.0
 10
75.298221
 20
244.524935
 30
0.0
 10
75.122723
 20
244.349463
 30
0.0
 10
74.914734
 20
244.229660
 30
0.0
  0
SPLINE
  5
16e
100
AcDbEntity
  8
0
 62
3
100
AcDbSpline
 70
8
 71
3
 72
8
 73
4
 74
0
 40
0
 40
0
 40
0
 40
0
 40
1
 40
1
 40
1
 40
1
 10
74.914734
 20
244.229660
 30
0.0
 10
74.706983
 20
244.109433
 30
0.0
 10
74.467297
 20
244.045192
 30
0.0
 10
74.227267
 20
244.045457
 30
0.0
  0
SPLINE
  5
16f
100
AcDbEntity
  8
0
 62
3
100
AcDbSpline
 70
8
 71
3
 72
8
 73
4
 74
0
 40
0
 40
0
 40
0
 40
0
 40
1
 40
1
 40
1
 40
1
 10
74.227267
 20
244.045457
 30
0.0
 10
73.987237
 20
244.045192
 30
0.0
 10
73.747524
 20
244.109433
 30
0.0
 10
73.539800
 20
244.229660
 30
0.0
  0
SPLINE
  5
170
100
AcDbEntity
  8
0
 62
3
100
AcDbSpline
 70
8
 71
3
 72
8
 73
4
 74
0
 40
0
 40
0
 40
0
 40
0
 40
1
 40
1
 40
1
 40
1
 10
73.539800
 20
244.229660
 30
0.0
 10
73.331784
 20
244.349463
 30
0.0
 10
73.156313
 20
244.524935
 30
0.0
 10
73.036536
 20
244.732924
 30
0.0
  0
SPLINE
  5
171
100
AcDbEntity
  8
0
 62
3
100
AcDbSpline
 70
8
 71
3
 72
8
 73
4
 74
0
 40
0
 40
0
 40
0
 40
0
 40
1
 40
1
 40
1
 40
1
 10
73.036536
 20
244.732924
 30
0.0
 10
72.916283
 20
244.940675
 30
0.0
 10
72.852068
 20
245.180387
 30
0.0
 10
72.852306
 20
245.420391
 30
0.0
  0
SPLINE
  5
172
100
AcDbEntity
  8
0
 62
3
100
AcDbSpline
 70
8
 71
3
 72
8
 73
4
 74
0
 40
0
 40
0
 40
0
 40
0
 40
1
 40
1
 40
1
 40
1
 10
72.852306
 20
196.420403
 30
0.0
 10
72.852068
 20
196.660433
 30
0.0
 10
72.916283
 20
196.900146
 30
0.0
 10
73.036536
 20
197.107870
 30
0.0
  0
SPLINE
  5
173
100
AcDbEntity
  8
0
 62
3
100
AcDbSpline
 70
8
 71
3
 72
8
 73
4
 74
0
 40
0
 40
0
 40
0
 40
0
 40
1
 40
1
 40
1
 40
1
 10
73.036536
 20
197.107870
 30
0.0
 10
73.156313
 20
197.315885
 30
0.0
 10
73.331784
 20
197.491357
 30
0.0
 10
73.539800
 20
197.611134
 30
0.0
  0
SPLINE
  5
174
100
AcDbEntity
  8
0
 62
3
100
AcDbSpline
 70
8
 71
3
 72
8
 73
4
 74
0
 40
0
 40
0
 40
0
 40
0
 40
1
 40
1
 40
1
 40
1
 10
73.539800
 20
197.611134
 30
0.0
 10
73.747524
 20
197.731387
 30
0.0
 10
73.987237
 20
197.795601
 30
0.0
 10
74.227267
 20
197.795337
 30
0.0
  0
SPLINE
  5
175
100
AcDbEntity
  8
0
 62
3
100
AcDbSpline
 70
8
 71
3
 72
8
 73
4
 74
0
 40
0
 40
0
 40
0
 40
0
 40
1
 40
1
 40
1
 40
1
 10
74.227267
 20
197.795337
 30
0.0
 10
74.467297
 20
197.795337
 30
0.0
 10
74.706983
 20
197.731387
 30
0.0
 10
74.914734
 20
197.611134
 30
0.0
  0
SPLINE
  5
176
100
AcDbEntity
  8
0
 62
3
100
AcDbSpline
 70
8
 71
3
 72
8
 73
4
 74
0
 40
0
 40
0
 40
0
 40
0
 40
1
 40
1
 40
1
 40
1
 10
74.914734
 20
197.611134
 30
0.0
 10
75.122723
 20
197.491357
 30
0.0
 10
75.298221
 20
197.315885
 30
0.0
 10
75.417998
 20
197.107870
 30
0.0
  0
SPLINE
  5
177
100
AcDbEntity
  8
0
 62
3
100
AcDbSpline
 70
8
 71
3
 72
8
 73
4
 74
0
 40
0
 40
0
 40
0
 40
0
 40
1
 40
1
 40
1
 40
1
 10
75.417998
 20
197.107870
 30
0.0
 10
75.538224
 20
196.900146
 30
0.0
 10
75.602465
 20
196.660433
 30
0.0
 10
75.602200
 20
196.420403
 30
0.0
  0
SPLINE
  5
178
100
AcDbEntity
  8
0
 62
3
100
AcDbSpline
 70
8
 71
3
 72
8
 73
4
 74
0
 40
0
 40
0
 40
0
 40
0
 40
1
 40
1
 40
1
 40
1
 10
75.602200
 20
196.420403
 30
0.0
 10
75.602200
 20
196.180373
 30
0.0
 10
75.538224
 20
195.940687
 30
0.0
 10
75.417998
 20
195.732936
 30
0.0
  0
SPLINE
  5
179
100
AcDbEntity
  8
0
 62
3
100
AcDbSpline
 70
8
 71
3
 72
8
 73
4
 74
0
 40
0
 40
0
 40
0
 40
0
 40
1
 40
1
 40
1
 40
1
 10
75.417998
 20
195.732936
 30
0.0
 10
75.298221
 20
195.524947
 30
0.0
 10
75.122723
 20
195.349476
 30
0.0
 10
74.914734
 20
195.229672
 30
0.0
  0
SPLINE
  5
17a
100
AcDbEntity
  8
0
 62
3
100
AcDbSpline
 70
8
 71
3
 72
8
 73
4
 74
0
 40
0
 40
0
 40
0
 40
0
 40
1
 40
1
 40
1
 40
1
 10
74.914734
 20
195.229672
 30
0.0
 10
74.706983
 20
195.109446
 30
0.0
 10
74.467297
 20
195.045205
 30
0.0
 10
74.227267
 20
195.045469
 30
0.0
  0
SPLINE
  5
17b
100
AcDbEntity
  8
0
 62
3
100
AcDbSpline
 70
8
 71
3
 72
8
 73
4
 74
0
 40
0
 40
0
 40
0
 40
0
 40
1
 40
1
 40
1
 40
1
 10
74.227267
 20
195.045469
 30
0.0
 10
73.987237
 20
195.045205
 30
0.0
 10
73.747524
 20
195.109446
 30
0.0
 10
73.539800
 20
195.229672
 30
0.0
  0
SPLINE
  5
17c
100
AcDbEntity
  8
0
 62
3
100
AcDbSpline
 70
8
 71
3
 72
8
 73
4
 74
0
 40
0
 40
0
 40
0
 40
0
 40
1
 40
1
 40
1
 40
1
 10
73.539800
 20
195.229672
 30
0.0
 10
73.331784
 20
195.349476
 30
0.0
 10
73.156313
 20
195.524947
 30
0.0
 10
73.036536
 20
195.732936
 30
0.0
  0
SPLINE
  5
17d
100
AcDbEntity
  8
0
 62
3
100
AcDbSpline
 70
8
 71
3
 72
8
 73
4
 74
0
 40
0
 40
0
 40
0
 40
0
 40
1
 40
1
 40
1
 40
1
 10
73.036536
 20
195.732936
 30
0.0
 10
72.916283
 20
195.940687
 30
0.0
 10
72.852068
 20
196.180373
 30
0.0
 10
72.852306
 20
196.420403
 30
0.0
  0
LWPOLYLINE
  5
17e
100
AcDbEntity
  8
0
 62
4
100
AcDbPolyline
 90
4
 70
1
 10
14.852253
 20
246.795404
 30
0.0
 10
75.602227
 20
246.795404
 30
0.0
 10
75.602227
 20
195.045417
 30
0.0
 10
14.852253
 20
195.045417
 30
0.0
  0
ENDSEC
  0
SECTION
  2
OBJECTS
  0
DICTIONARY
  5
C
330
0
100
AcDbDictionary
  3
ACAD_GROUP
350
D
  3
ACAD_MLINESTYLE
350
17
  0
DICTIONARY
  5
D
330
C
100
AcDbDictionary
  0
DICTIONARY
  5
1A
330
C
100
AcDbDictionary
  0
DICTIONARY
  5
17
330
C
100
AcDbDictionary
  3
STANDARD
350
18
  0
DICTIONARY
  5
19
330
C
100
AcDbDictionary
  0
ENDSEC
  0
EOF
