<?xml version="1.0" encoding="utf-8"?>
<!-- Generator: Adobe Illustrator 23.0.1, SVG Export Plug-In . SVG Version: 6.00 Build 0)  -->
<svg version="1.1" id="_x30_" xmlns="http://www.w3.org/2000/svg" xmlns:xlink="http://www.w3.org/1999/xlink" x="0px" y="0px"
	 viewBox="0 0 612 792" style="enable-background:new 0 0 612 792;" xml:space="preserve">
<style type="text/css">
	.st0{fill:none;stroke:#000000;stroke-width:0.7087;stroke-linecap:round;stroke-linejoin:round;stroke-miterlimit:10;}
</style>
<g id="SPLINE">
	<path class="st0" d="M557.7,358c13,7.5,29.1,7.5,42.2,0"/>
</g>
<g id="SPLINE_1_">
	<path class="st0" d="M8.8,358c13,7.5,29.1,7.5,42.2,0"/>
</g>
<g id="SPLINE_2_">
	<path class="st0" d="M374.8,358c13,7.5,29.1,7.5,42.2,0"/>
</g>
<g id="SPLINE_3_">
	<path class="st0" d="M191.8,358c13,7.5,29.1,7.5,42.2,0"/>
</g>
<g id="LINE">
	<line class="st0" x1="-90.9" y1="253.8" x2="702.9" y2="253.8"/>
</g>
<g id="LINE_1_">
	<line class="st0" x1="702.9" y1="253.8" x2="702.9" y2="537.2"/>
</g>
<g id="LINE_2_">
	<line class="st0" x1="702.9" y1="537.2" x2="-90.9" y2="537.2"/>
</g>
<g id="LINE_3_">
	<line class="st0" x1="-90.9" y1="537.2" x2="-90.9" y2="253.8"/>
</g>
<g id="SPLINE_4_">
	<path class="st0" d="M511.3,325.8c1.5-0.9,2.5-2.6,2.5-4.3"/>
</g>
<g id="SPLINE_5_">
	<path class="st0" d="M513.8,321.4c0-1.8-1-3.4-2.5-4.3"/>
</g>
<g id="SPLINE_6_">
	<path class="st0" d="M511.3,317.1c-1.5-0.9-3.5-0.9-5,0"/>
</g>
<g id="SPLINE_7_">
	<path class="st0" d="M506.3,317.1c-1.5,0.9-2.5,2.6-2.5,4.3"/>
</g>
<g id="SPLINE_8_">
	<path class="st0" d="M503.8,321.4c0,1.8,1,3.4,2.5,4.3"/>
</g>
<g id="SPLINE_9_">
	<path class="st0" d="M506.3,325.8c1.5,0.9,3.5,0.9,5,0"/>
</g>
<g id="SPLINE_10_">
	<path class="st0" d="M651.4,325.8c1.5-0.9,2.5-2.6,2.5-4.3"/>
</g>
<g id="SPLINE_11_">
	<path class="st0" d="M653.9,321.4c0-1.8-1-3.4-2.5-4.3"/>
</g>
<g id="SPLINE_12_">
	<path class="st0" d="M651.4,317.1c-1.5-0.9-3.5-0.9-5,0"/>
</g>
<g id="SPLINE_13_">
	<path class="st0" d="M646.4,317.1c-1.5,0.9-2.5,2.6-2.5,4.3"/>
</g>
<g id="SPLINE_14_">
	<path class="st0" d="M643.9,321.4c0,1.8,1,3.4,2.5,4.3"/>
</g>
<g id="SPLINE_15_">
	<path class="st0" d="M646.4,325.8c1.5,0.9,3.5,0.9,5,0"/>
</g>
<g id="SPLINE_16_">
	<path class="st0" d="M599.9,358c13-7.5,21.1-21.5,21.1-36.6"/>
</g>
<g id="SPLINE_17_">
	<path class="st0" d="M621,321.4c0-15.1-8-29-21.1-36.6"/>
</g>
<g id="SPLINE_18_">
	<path class="st0" d="M599.9,284.8c-13-7.5-29.1-7.5-42.2,0"/>
</g>
<g id="SPLINE_19_">
	<path class="st0" d="M557.7,284.8c-13,7.5-21.1,21.5-21.1,36.6"/>
</g>
<g id="SPLINE_20_">
	<path class="st0" d="M536.7,321.4c0,15.1,8,29,21.1,36.6"/>
</g>
<g id="SPLINE_21_">
	<path class="st0" d="M328.3,325.8c1.5-0.9,2.5-2.5,2.5-4.3"/>
</g>
<g id="SPLINE_22_">
	<path class="st0" d="M330.8,321.4c0-1.8-1-3.4-2.5-4.3"/>
</g>
<g id="SPLINE_23_">
	<path class="st0" d="M328.3,317.1c-1.5-0.9-3.5-0.9-5,0"/>
</g>
<g id="SPLINE_24_">
	<path class="st0" d="M323.3,317.1c-1.5,0.9-2.5,2.5-2.5,4.3"/>
</g>
<g id="SPLINE_25_">
	<path class="st0" d="M320.8,321.4c0,1.8,1,3.4,2.5,4.3"/>
</g>
<g id="SPLINE_26_">
	<path class="st0" d="M323.3,325.8c1.5,0.9,3.5,0.9,5,0"/>
</g>
<g id="SPLINE_27_">
	<path class="st0" d="M51,358c13-7.5,21.1-21.5,21.1-36.6"/>
</g>
<g id="SPLINE_28_">
	<path class="st0" d="M72.1,321.4c0-15.1-8-29-21.1-36.6"/>
</g>
<g id="SPLINE_29_">
	<path class="st0" d="M51,284.9c-13-7.5-29.1-7.5-42.2,0"/>
</g>
<g id="SPLINE_30_">
	<path class="st0" d="M8.8,284.9c-13,7.5-21.1,21.5-21.1,36.6"/>
</g>
<g id="SPLINE_31_">
	<path class="st0" d="M-12.3,321.4c0,15.1,8,29,21.1,36.6"/>
</g>
<g id="SPLINE_32_">
	<path class="st0" d="M-37.6,325.8c1.5-0.9,2.5-2.6,2.5-4.3"/>
</g>
<g id="SPLINE_33_">
	<path class="st0" d="M-35.1,321.4c0-1.8-1-3.4-2.5-4.3"/>
</g>
<g id="SPLINE_34_">
	<path class="st0" d="M-37.6,317.1c-1.5-0.9-3.5-0.9-5,0"/>
</g>
<g id="SPLINE_35_">
	<path class="st0" d="M-42.6,317.1c-1.5,0.9-2.5,2.6-2.5,4.3"/>
</g>
<g id="SPLINE_36_">
	<path class="st0" d="M-45.1,321.4c0,1.8,1,3.4,2.5,4.3"/>
</g>
<g id="SPLINE_37_">
	<path class="st0" d="M-42.6,325.8c1.5,0.9,3.5,0.9,5,0"/>
</g>
<g id="SPLINE_38_">
	<path class="st0" d="M416.9,358c13-7.5,21.1-21.5,21.1-36.6"/>
</g>
<g id="SPLINE_39_">
	<path class="st0" d="M438,321.4c0-15.1-8-29-21.1-36.6"/>
</g>
<g id="SPLINE_40_">
	<path class="st0" d="M416.9,284.8c-13-7.5-29.1-7.5-42.2,0"/>
</g>
<g id="SPLINE_41_">
	<path class="st0" d="M374.8,284.8c-13,7.5-21.1,21.5-21.1,36.6"/>
</g>
<g id="SPLINE_42_">
	<path class="st0" d="M353.7,321.4c0,15.1,8,29,21.1,36.6"/>
</g>
<g id="SPLINE_43_">
	<path class="st0" d="M468.4,325.8c1.5-0.9,2.5-2.5,2.5-4.3"/>
</g>
<g id="SPLINE_44_">
	<path class="st0" d="M470.9,321.4c0-1.8-1-3.4-2.5-4.3"/>
</g>
<g id="SPLINE_45_">
	<path class="st0" d="M468.4,317.1c-1.5-0.9-3.5-0.9-5,0"/>
</g>
<g id="SPLINE_46_">
	<path class="st0" d="M463.4,317.1c-1.5,0.9-2.5,2.5-2.5,4.3"/>
</g>
<g id="SPLINE_47_">
	<path class="st0" d="M460.9,321.4c0,1.8,1,3.4,2.5,4.3"/>
</g>
<g id="SPLINE_48_">
	<path class="st0" d="M463.4,325.8c1.5,0.9,3.5,0.9,5,0"/>
</g>
<g id="SPLINE_49_">
	<path class="st0" d="M145.3,325.8c1.5-0.9,2.5-2.5,2.5-4.3"/>
</g>
<g id="SPLINE_50_">
	<path class="st0" d="M147.8,321.4c0-1.8-1-3.4-2.5-4.3"/>
</g>
<g id="SPLINE_51_">
	<path class="st0" d="M145.3,317.1c-1.5-0.9-3.5-0.9-5,0"/>
</g>
<g id="SPLINE_52_">
	<path class="st0" d="M140.3,317.1c-1.5,0.9-2.5,2.5-2.5,4.3"/>
</g>
<g id="SPLINE_53_">
	<path class="st0" d="M137.8,321.4c0,1.8,1,3.4,2.5,4.3"/>
</g>
<g id="SPLINE_54_">
	<path class="st0" d="M140.3,325.8c1.5,0.9,3.5,0.9,5,0"/>
</g>
<g id="SPLINE_55_">
	<path class="st0" d="M285.4,325.8c1.5-0.9,2.5-2.6,2.5-4.3"/>
</g>
<g id="SPLINE_56_">
	<path class="st0" d="M287.9,321.4c0-1.8-1-3.4-2.5-4.3"/>
</g>
<g id="SPLINE_57_">
	<path class="st0" d="M285.4,317.1c-1.5-0.9-3.5-0.9-5,0"/>
</g>
<g id="SPLINE_58_">
	<path class="st0" d="M280.4,317.1c-1.5,0.9-2.5,2.6-2.5,4.3"/>
</g>
<g id="SPLINE_59_">
	<path class="st0" d="M277.9,321.4c0,1.8,1,3.4,2.5,4.3"/>
</g>
<g id="SPLINE_60_">
	<path class="st0" d="M280.4,325.8c1.5,0.9,3.5,0.9,5,0"/>
</g>
<g id="SPLINE_61_">
	<path class="st0" d="M234,358c13-7.5,21.1-21.5,21.1-36.6"/>
</g>
<g id="SPLINE_62_">
	<path class="st0" d="M255.1,321.4c0-15.1-8-29-21.1-36.6"/>
</g>
<g id="SPLINE_63_">
	<path class="st0" d="M234,284.8c-13-7.5-29.1-7.5-42.2,0"/>
</g>
<g id="SPLINE_64_">
	<path class="st0" d="M191.8,284.8c-13,7.5-21.1,21.5-21.1,36.6"/>
</g>
<g id="SPLINE_65_">
	<path class="st0" d="M170.7,321.4c0,15.1,8,29,21.1,36.6"/>
</g>
<g id="SPLINE_66_">
	<path class="st0" d="M102.5,325.8c1.5-0.9,2.5-2.6,2.5-4.3"/>
</g>
<g id="SPLINE_67_">
	<path class="st0" d="M105,321.4c0-1.8-1-3.4-2.5-4.3"/>
</g>
<g id="SPLINE_68_">
	<path class="st0" d="M102.5,317.1c-1.5-0.9-3.5-0.9-5,0"/>
</g>
<g id="SPLINE_69_">
	<path class="st0" d="M97.5,317.1c-1.5,0.9-2.5,2.6-2.5,4.3"/>
</g>
<g id="SPLINE_70_">
	<path class="st0" d="M95,321.4c0,1.8,1,3.4,2.5,4.3"/>
</g>
<g id="SPLINE_71_">
	<path class="st0" d="M97.5,325.8c1.5,0.9,3.5,0.9,5,0"/>
</g>
<g id="SPLINE_72_">
	<path class="st0" d="M557.7,502.6c13,7.5,29.1,7.5,42.2,0"/>
</g>
<g id="SPLINE_73_">
	<path class="st0" d="M8.8,502.5c13,7.5,29.1,7.5,42.2,0"/>
</g>
<g id="SPLINE_74_">
	<path class="st0" d="M374.8,502.6c13,7.5,29.1,7.5,42.2,0"/>
</g>
<g id="SPLINE_75_">
	<path class="st0" d="M191.8,502.6c13,7.5,29.1,7.5,42.2,0"/>
</g>
<g id="SPLINE_76_">
	<path class="st0" d="M511.3,470.3c1.5-0.9,2.5-2.6,2.5-4.3"/>
</g>
<g id="SPLINE_77_">
	<path class="st0" d="M513.8,466c0-1.8-1-3.4-2.5-4.3"/>
</g>
<g id="SPLINE_78_">
	<path class="st0" d="M511.3,461.6c-1.5-0.9-3.5-0.9-5,0"/>
</g>
<g id="SPLINE_79_">
	<path class="st0" d="M506.3,461.6c-1.5,0.9-2.5,2.6-2.5,4.3"/>
</g>
<g id="SPLINE_80_">
	<path class="st0" d="M503.8,466c0,1.8,1,3.4,2.5,4.3"/>
</g>
<g id="SPLINE_81_">
	<path class="st0" d="M506.3,470.3c1.5,0.9,3.5,0.9,5,0"/>
</g>
<g id="SPLINE_82_">
	<path class="st0" d="M651.4,470.3c1.5-0.9,2.5-2.6,2.5-4.3"/>
</g>
<g id="SPLINE_83_">
	<path class="st0" d="M653.9,466c0-1.8-1-3.4-2.5-4.3"/>
</g>
<g id="SPLINE_84_">
	<path class="st0" d="M651.4,461.6c-1.5-0.9-3.5-0.9-5,0"/>
</g>
<g id="SPLINE_85_">
	<path class="st0" d="M646.4,461.6c-1.5,0.9-2.5,2.6-2.5,4.3"/>
</g>
<g id="SPLINE_86_">
	<path class="st0" d="M643.9,466c0,1.8,1,3.4,2.5,4.3"/>
</g>
<g id="SPLINE_87_">
	<path class="st0" d="M646.4,470.3c1.5,0.9,3.5,0.9,5,0"/>
</g>
<g id="SPLINE_88_">
	<path class="st0" d="M599.9,502.6C613,495,621,481.1,621,466"/>
</g>
<g id="SPLINE_89_">
	<path class="st0" d="M621,466c0-15.1-8-29-21.1-36.6"/>
</g>
<g id="SPLINE_90_">
	<path class="st0" d="M599.9,429.4c-13-7.5-29.1-7.5-42.2,0"/>
</g>
<g id="SPLINE_91_">
	<path class="st0" d="M557.7,429.4c-13,7.5-21.1,21.5-21.1,36.6"/>
</g>
<g id="SPLINE_92_">
	<path class="st0" d="M536.7,466c0,15.1,8,29,21.1,36.6"/>
</g>
<g id="SPLINE_93_">
	<path class="st0" d="M328.3,470.3c1.5-0.9,2.5-2.5,2.5-4.3"/>
</g>
<g id="SPLINE_94_">
	<path class="st0" d="M330.8,466c0-1.8-1-3.4-2.5-4.3"/>
</g>
<g id="SPLINE_95_">
	<path class="st0" d="M328.3,461.6c-1.5-0.9-3.5-0.9-5,0"/>
</g>
<g id="SPLINE_96_">
	<path class="st0" d="M323.3,461.6c-1.5,0.9-2.5,2.5-2.5,4.3"/>
</g>
<g id="SPLINE_97_">
	<path class="st0" d="M320.8,466c0,1.8,1,3.4,2.5,4.3"/>
</g>
<g id="SPLINE_98_">
	<path class="st0" d="M323.3,470.3c1.5,0.9,3.5,0.9,5,0"/>
</g>
<g id="SPLINE_99_">
	<path class="st0" d="M51,502.5c13-7.5,21.1-21.5,21.1-36.6"/>
</g>
<g id="SPLINE_100_">
	<path class="st0" d="M72.1,466c0-15.1-8-29-21.1-36.6"/>
</g>
<g id="SPLINE_101_">
	<path class="st0" d="M51,429.4c-13-7.5-29.1-7.5-42.2,0"/>
</g>
<g id="SPLINE_102_">
	<path class="st0" d="M8.8,429.4c-13,7.5-21.1,21.5-21.1,36.6"/>
</g>
<g id="SPLINE_103_">
	<path class="st0" d="M-12.3,466c0,15.1,8,29,21.1,36.6"/>
</g>
<g id="SPLINE_104_">
	<path class="st0" d="M-37.6,470.3c1.5-0.9,2.5-2.6,2.5-4.3"/>
</g>
<g id="SPLINE_105_">
	<path class="st0" d="M-35.1,466c0-1.8-1-3.4-2.5-4.3"/>
</g>
<g id="SPLINE_106_">
	<path class="st0" d="M-37.6,461.6c-1.5-0.9-3.5-0.9-5,0"/>
</g>
<g id="SPLINE_107_">
	<path class="st0" d="M-42.6,461.6c-1.5,0.9-2.5,2.6-2.5,4.3"/>
</g>
<g id="SPLINE_108_">
	<path class="st0" d="M-45.1,466c0,1.8,1,3.4,2.5,4.3"/>
</g>
<g id="SPLINE_109_">
	<path class="st0" d="M-42.6,470.3c1.5,0.9,3.5,0.9,5,0"/>
</g>
<g id="SPLINE_110_">
	<path class="st0" d="M416.9,502.6C430,495,438,481.1,438,466"/>
</g>
<g id="SPLINE_111_">
	<path class="st0" d="M438,466c0-15.1-8-29-21.1-36.6"/>
</g>
<g id="SPLINE_112_">
	<path class="st0" d="M416.9,429.4c-13-7.5-29.1-7.5-42.2,0"/>
</g>
<g id="SPLINE_113_">
	<path class="st0" d="M374.8,429.4c-13,7.5-21.1,21.5-21.1,36.6"/>
</g>
<g id="SPLINE_114_">
	<path class="st0" d="M353.7,466c0,15.1,8,29,21.1,36.6"/>
</g>
<g id="SPLINE_115_">
	<path class="st0" d="M468.4,470.3c1.5-0.9,2.5-2.5,2.5-4.3"/>
</g>
<g id="SPLINE_116_">
	<path class="st0" d="M470.9,466c0-1.8-1-3.4-2.5-4.3"/>
</g>
<g id="SPLINE_117_">
	<path class="st0" d="M468.4,461.6c-1.5-0.9-3.5-0.9-5,0"/>
</g>
<g id="SPLINE_118_">
	<path class="st0" d="M463.4,461.6c-1.5,0.9-2.5,2.5-2.5,4.3"/>
</g>
<g id="SPLINE_119_">
	<path class="st0" d="M460.9,466c0,1.8,1,3.4,2.5,4.3"/>
</g>
<g id="SPLINE_120_">
	<path class="st0" d="M463.4,470.3c1.5,0.9,3.5,0.9,5,0"/>
</g>
<g id="SPLINE_121_">
	<path class="st0" d="M145.3,470.3c1.5-0.9,2.5-2.5,2.5-4.3"/>
</g>
<g id="SPLINE_122_">
	<path class="st0" d="M147.8,466c0-1.8-1-3.4-2.5-4.3"/>
</g>
<g id="SPLINE_123_">
	<path class="st0" d="M145.3,461.6c-1.5-0.9-3.5-0.9-5,0"/>
</g>
<g id="SPLINE_124_">
	<path class="st0" d="M140.3,461.6c-1.5,0.9-2.5,2.5-2.5,4.3"/>
</g>
<g id="SPLINE_125_">
	<path class="st0" d="M137.8,466c0,1.8,1,3.4,2.5,4.3"/>
</g>
<g id="SPLINE_126_">
	<path class="st0" d="M140.3,470.3c1.5,0.9,3.5,0.9,5,0"/>
</g>
<g id="SPLINE_127_">
	<path class="st0" d="M285.4,470.3c1.5-0.9,2.5-2.6,2.5-4.3"/>
</g>
<g id="SPLINE_128_">
	<path class="st0" d="M287.9,466c0-1.8-1-3.4-2.5-4.3"/>
</g>
<g id="SPLINE_129_">
	<path class="st0" d="M285.4,461.6c-1.5-0.9-3.5-0.9-5,0"/>
</g>
<g id="SPLINE_130_">
	<path class="st0" d="M280.4,461.6c-1.5,0.9-2.5,2.6-2.5,4.3"/>
</g>
<g id="SPLINE_131_">
	<path class="st0" d="M277.9,466c0,1.8,1,3.4,2.5,4.3"/>
</g>
<g id="SPLINE_132_">
	<path class="st0" d="M280.4,470.3c1.5,0.9,3.5,0.9,5,0"/>
</g>
<g id="SPLINE_133_">
	<path class="st0" d="M234,502.6c13-7.5,21.1-21.5,21.1-36.6"/>
</g>
<g id="SPLINE_134_">
	<path class="st0" d="M255.1,466c0-15.1-8-29-21.1-36.6"/>
</g>
<g id="SPLINE_135_">
	<path class="st0" d="M234,429.4c-13-7.5-29.1-7.5-42.2,0"/>
</g>
<g id="SPLINE_136_">
	<path class="st0" d="M191.8,429.4c-13,7.5-21.1,21.5-21.1,36.6"/>
</g>
<g id="SPLINE_137_">
	<path class="st0" d="M170.7,466c0,15.1,8,29,21.1,36.6"/>
</g>
<g id="SPLINE_138_">
	<path class="st0" d="M102.5,470.3c1.5-0.9,2.5-2.6,2.5-4.3"/>
</g>
<g id="SPLINE_139_">
	<path class="st0" d="M105,466c0-1.8-1-3.4-2.5-4.3"/>
</g>
<g id="SPLINE_140_">
	<path class="st0" d="M102.5,461.6c-1.5-0.9-3.5-0.9-5,0"/>
</g>
<g id="SPLINE_141_">
	<path class="st0" d="M97.5,461.6c-1.5,0.9-2.5,2.6-2.5,4.3"/>
</g>
<g id="SPLINE_142_">
	<path class="st0" d="M95,466c0,1.8,1,3.4,2.5,4.3"/>
</g>
<g id="SPLINE_143_">
	<path class="st0" d="M97.5,470.3c1.5,0.9,3.5,0.9,5,0"/>
</g>
</svg>
