<?xml version="1.0" encoding="utf-8"?>
<!-- Generator: Adobe Illustrator 23.0.1, SVG Export Plug-In . SVG Version: 6.00 Build 0)  -->
<svg version="1.1" id="_x30_" xmlns="http://www.w3.org/2000/svg" xmlns:xlink="http://www.w3.org/1999/xlink" x="0px" y="0px"
	 viewBox="0 0 612 792" style="enable-background:new 0 0 612 792;" xml:space="preserve">
<style type="text/css">
	.st0{fill:none;stroke:#000000;stroke-width:0.7087;stroke-linecap:round;stroke-linejoin:round;stroke-miterlimit:10;}
</style>
<g id="LINE">
	<line class="st0" x1="731.7" y1="253.8" x2="731.7" y2="537.2"/>
</g>
<g id="LINE_1_">
	<line class="st0" x1="731.7" y1="537.2" x2="-118.7" y2="537.2"/>
</g>
<g id="LINE_2_">
	<line class="st0" x1="-118.7" y1="537.2" x2="-118.7" y2="253.8"/>
</g>
<g id="LINE_3_">
	<line class="st0" x1="-118.7" y1="253.8" x2="731.7" y2="253.8"/>
</g>
<g id="SPLINE">
	<path class="st0" d="M576.9,321.4c0,15.1,8,29,21.1,36.6"/>
</g>
<g id="SPLINE_1_">
	<path class="st0" d="M597.9,358c13,7.5,29.1,7.5,42.2,0"/>
</g>
<g id="SPLINE_2_">
	<path class="st0" d="M640.1,358c13-7.5,21.1-21.5,21.1-36.6"/>
</g>
<g id="SPLINE_3_">
	<path class="st0" d="M661.2,321.4c0-15.1-8-29-21.1-36.6"/>
</g>
<g id="SPLINE_4_">
	<path class="st0" d="M640.1,284.8c-13-7.5-29.1-7.5-42.2,0"/>
</g>
<g id="SPLINE_5_">
	<path class="st0" d="M597.9,284.8c-13,7.5-21.1,21.5-21.1,36.6"/>
</g>
<g id="SPLINE_6_">
	<path class="st0" d="M27.9,321.4c0,15.1,8,29,21.1,36.6"/>
</g>
<g id="SPLINE_7_">
	<path class="st0" d="M49,358c13,7.5,29.1,7.5,42.2,0"/>
</g>
<g id="SPLINE_8_">
	<path class="st0" d="M91.2,358c13-7.5,21.1-21.5,21.1-36.6"/>
</g>
<g id="SPLINE_9_">
	<path class="st0" d="M112.3,321.4c0-15.1-8-29-21.1-36.6"/>
</g>
<g id="SPLINE_10_">
	<path class="st0" d="M91.2,284.9c-13-7.5-29.1-7.5-42.2,0"/>
</g>
<g id="SPLINE_11_">
	<path class="st0" d="M49,284.9c-13,7.5-21.1,21.5-21.1,36.6"/>
</g>
<g id="SPLINE_12_">
	<path class="st0" d="M393.9,321.4c0,15.1,8,29,21.1,36.6"/>
</g>
<g id="SPLINE_13_">
	<path class="st0" d="M415,358c13,7.5,29.1,7.5,42.2,0"/>
</g>
<g id="SPLINE_14_">
	<path class="st0" d="M457.1,358c13-7.5,21.1-21.5,21.1-36.6"/>
</g>
<g id="SPLINE_15_">
	<path class="st0" d="M478.2,321.4c0-15.1-8-29-21.1-36.6"/>
</g>
<g id="SPLINE_16_">
	<path class="st0" d="M457.1,284.8c-13-7.5-29.1-7.5-42.2,0"/>
</g>
<g id="SPLINE_17_">
	<path class="st0" d="M415,284.8c-13,7.5-21.1,21.5-21.1,36.6"/>
</g>
<g id="SPLINE_18_">
	<path class="st0" d="M210.9,321.4c0,15.1,8,29,21.1,36.6"/>
</g>
<g id="SPLINE_19_">
	<path class="st0" d="M232,358c13,7.5,29.1,7.5,42.2,0"/>
</g>
<g id="SPLINE_20_">
	<path class="st0" d="M274.2,358c13-7.5,21.1-21.5,21.1-36.6"/>
</g>
<g id="SPLINE_21_">
	<path class="st0" d="M295.2,321.4c0-15.1-8-29-21.1-36.6"/>
</g>
<g id="SPLINE_22_">
	<path class="st0" d="M274.2,284.8c-13-7.5-29.1-7.5-42.2,0"/>
</g>
<g id="SPLINE_23_">
	<path class="st0" d="M232,284.8c-13,7.5-21.1,21.5-21.1,36.6"/>
</g>
<g id="SPLINE_24_">
	<path class="st0" d="M546.5,325.8c1.5,0.9,3.5,0.9,5,0"/>
</g>
<g id="SPLINE_25_">
	<path class="st0" d="M551.5,325.8c1.5-0.9,2.5-2.6,2.5-4.3"/>
</g>
<g id="SPLINE_26_">
	<path class="st0" d="M554,321.4c0-1.8-1-3.4-2.5-4.3"/>
</g>
<g id="SPLINE_27_">
	<path class="st0" d="M551.5,317.1c-1.5-0.9-3.5-0.9-5,0"/>
</g>
<g id="SPLINE_28_">
	<path class="st0" d="M546.5,317.1c-1.5,0.9-2.5,2.6-2.5,4.3"/>
</g>
<g id="SPLINE_29_">
	<path class="st0" d="M544,321.4c0,1.8,1,3.4,2.5,4.3"/>
</g>
<g id="SPLINE_30_">
	<path class="st0" d="M686.6,325.8c1.5,0.9,3.5,0.9,5,0"/>
</g>
<g id="SPLINE_31_">
	<path class="st0" d="M691.6,325.8c1.5-0.9,2.5-2.6,2.5-4.3"/>
</g>
<g id="SPLINE_32_">
	<path class="st0" d="M694.1,321.4c0-1.8-1-3.4-2.5-4.3"/>
</g>
<g id="SPLINE_33_">
	<path class="st0" d="M691.6,317.1c-1.5-0.9-3.5-0.9-5,0"/>
</g>
<g id="SPLINE_34_">
	<path class="st0" d="M686.6,317.1c-1.5,0.9-2.5,2.6-2.5,4.3"/>
</g>
<g id="SPLINE_35_">
	<path class="st0" d="M684.1,321.4c0,1.8,1,3.4,2.5,4.3"/>
</g>
<g id="SPLINE_36_">
	<path class="st0" d="M363.5,325.8c1.5,0.9,3.5,0.9,5,0"/>
</g>
<g id="SPLINE_37_">
	<path class="st0" d="M368.5,325.8c1.5-0.9,2.5-2.5,2.5-4.3"/>
</g>
<g id="SPLINE_38_">
	<path class="st0" d="M371,321.4c0-1.8-1-3.4-2.5-4.3"/>
</g>
<g id="SPLINE_39_">
	<path class="st0" d="M368.5,317.1c-1.5-0.9-3.5-0.9-5,0"/>
</g>
<g id="SPLINE_40_">
	<path class="st0" d="M363.5,317.1c-1.5,0.9-2.5,2.5-2.5,4.3"/>
</g>
<g id="SPLINE_41_">
	<path class="st0" d="M361,321.4c0,1.8,1,3.4,2.5,4.3"/>
</g>
<g id="SPLINE_42_">
	<path class="st0" d="M-2.5,325.8c1.5,0.9,3.5,0.9,5,0"/>
</g>
<g id="SPLINE_43_">
	<path class="st0" d="M2.6,325.8c1.5-0.9,2.5-2.6,2.5-4.3"/>
</g>
<g id="SPLINE_44_">
	<path class="st0" d="M5.1,321.4c0-1.8-1-3.4-2.5-4.3"/>
</g>
<g id="SPLINE_45_">
	<path class="st0" d="M2.6,317.1c-1.5-0.9-3.5-0.9-5,0"/>
</g>
<g id="SPLINE_46_">
	<path class="st0" d="M-2.5,317.1C-4,318-5,319.6-5,321.4"/>
</g>
<g id="SPLINE_47_">
	<path class="st0" d="M-5,321.4c0,1.8,1,3.4,2.5,4.3"/>
</g>
<g id="SPLINE_48_">
	<path class="st0" d="M503.6,325.8c1.5,0.9,3.5,0.9,5,0"/>
</g>
<g id="SPLINE_49_">
	<path class="st0" d="M508.6,325.8c1.5-0.9,2.5-2.5,2.5-4.3"/>
</g>
<g id="SPLINE_50_">
	<path class="st0" d="M511.1,321.4c0-1.8-1-3.4-2.5-4.3"/>
</g>
<g id="SPLINE_51_">
	<path class="st0" d="M508.6,317.1c-1.5-0.9-3.5-0.9-5,0"/>
</g>
<g id="SPLINE_52_">
	<path class="st0" d="M503.6,317.1c-1.5,0.9-2.5,2.5-2.5,4.3"/>
</g>
<g id="SPLINE_53_">
	<path class="st0" d="M501.1,321.4c0,1.8,1,3.4,2.5,4.3"/>
</g>
<g id="SPLINE_54_">
	<path class="st0" d="M180.5,325.8c1.5,0.9,3.5,0.9,5,0"/>
</g>
<g id="SPLINE_55_">
	<path class="st0" d="M185.5,325.8c1.5-0.9,2.5-2.5,2.5-4.3"/>
</g>
<g id="SPLINE_56_">
	<path class="st0" d="M188,321.4c0-1.8-1-3.4-2.5-4.3"/>
</g>
<g id="SPLINE_57_">
	<path class="st0" d="M185.5,317.1c-1.5-0.9-3.5-0.9-5,0"/>
</g>
<g id="SPLINE_58_">
	<path class="st0" d="M180.5,317.1c-1.5,0.9-2.5,2.5-2.5,4.3"/>
</g>
<g id="SPLINE_59_">
	<path class="st0" d="M178,321.4c0,1.8,1,3.4,2.5,4.3"/>
</g>
<g id="SPLINE_60_">
	<path class="st0" d="M320.6,325.8c1.5,0.9,3.5,0.9,5,0"/>
</g>
<g id="SPLINE_61_">
	<path class="st0" d="M325.6,325.8c1.5-0.9,2.5-2.6,2.5-4.3"/>
</g>
<g id="SPLINE_62_">
	<path class="st0" d="M328.1,321.4c0-1.8-1-3.4-2.5-4.3"/>
</g>
<g id="SPLINE_63_">
	<path class="st0" d="M325.6,317.1c-1.5-0.9-3.5-0.9-5,0"/>
</g>
<g id="SPLINE_64_">
	<path class="st0" d="M320.6,317.1c-1.5,0.9-2.5,2.6-2.5,4.3"/>
</g>
<g id="SPLINE_65_">
	<path class="st0" d="M318.1,321.4c0,1.8,1,3.4,2.5,4.3"/>
</g>
<g id="SPLINE_66_">
	<path class="st0" d="M137.6,325.8c1.5,0.9,3.5,0.9,5,0"/>
</g>
<g id="SPLINE_67_">
	<path class="st0" d="M142.6,325.8c1.5-0.9,2.5-2.6,2.5-4.3"/>
</g>
<g id="SPLINE_68_">
	<path class="st0" d="M145.1,321.4c0-1.8-1-3.4-2.5-4.3"/>
</g>
<g id="SPLINE_69_">
	<path class="st0" d="M142.6,317.1c-1.5-0.9-3.5-0.9-5,0"/>
</g>
<g id="SPLINE_70_">
	<path class="st0" d="M137.6,317.1c-1.5,0.9-2.5,2.6-2.5,4.3"/>
</g>
<g id="SPLINE_71_">
	<path class="st0" d="M135.1,321.4c0,1.8,1,3.4,2.5,4.3"/>
</g>
<g id="SPLINE_72_">
	<path class="st0" d="M497.5,468.8c0,15.1,8,29,21.1,36.6"/>
</g>
<g id="SPLINE_73_">
	<path class="st0" d="M518.6,505.4c13,7.5,29.1,7.5,42.2,0"/>
</g>
<g id="SPLINE_74_">
	<path class="st0" d="M560.7,505.4c13-7.5,21.1-21.5,21.1-36.6"/>
</g>
<g id="SPLINE_75_">
	<path class="st0" d="M581.8,468.8c0-15.1-8-29-21.1-36.6"/>
</g>
<g id="SPLINE_76_">
	<path class="st0" d="M560.7,432.2c-13-7.5-29.1-7.5-42.2,0"/>
</g>
<g id="SPLINE_77_">
	<path class="st0" d="M518.6,432.2c-13,7.5-21.1,21.5-21.1,36.6"/>
</g>
<g id="SPLINE_78_">
	<path class="st0" d="M-51.4,468.8c0,15.1,8,29,21.1,36.6"/>
</g>
<g id="SPLINE_79_">
	<path class="st0" d="M-30.4,505.4c13,7.5,29.1,7.5,42.2,0"/>
</g>
<g id="SPLINE_80_">
	<path class="st0" d="M11.8,505.4c13-7.5,21.1-21.5,21.1-36.6"/>
</g>
<g id="SPLINE_81_">
	<path class="st0" d="M32.9,468.8c0-15.1-8-29-21.1-36.6"/>
</g>
<g id="SPLINE_82_">
	<path class="st0" d="M11.8,432.3c-13-7.5-29.1-7.5-42.2,0"/>
</g>
<g id="SPLINE_83_">
	<path class="st0" d="M-30.4,432.3c-13,7.5-21.1,21.5-21.1,36.6"/>
</g>
<g id="SPLINE_84_">
	<path class="st0" d="M314.5,468.8c0,15.1,8,29,21.1,36.6"/>
</g>
<g id="SPLINE_85_">
	<path class="st0" d="M335.6,505.4c13,7.5,29.1,7.5,42.2,0"/>
</g>
<g id="SPLINE_86_">
	<path class="st0" d="M377.8,505.4c13-7.5,21.1-21.5,21.1-36.6"/>
</g>
<g id="SPLINE_87_">
	<path class="st0" d="M398.8,468.8c0-15.1-8-29-21.1-36.6"/>
</g>
<g id="SPLINE_88_">
	<path class="st0" d="M377.8,432.2c-13-7.5-29.1-7.5-42.2,0"/>
</g>
<g id="SPLINE_89_">
	<path class="st0" d="M335.6,432.2c-13,7.5-21.1,21.5-21.1,36.6"/>
</g>
<g id="SPLINE_90_">
	<path class="st0" d="M131.5,468.8c0,15.1,8,29,21.1,36.6"/>
</g>
<g id="SPLINE_91_">
	<path class="st0" d="M152.6,505.4c13,7.5,29.1,7.5,42.2,0"/>
</g>
<g id="SPLINE_92_">
	<path class="st0" d="M194.8,505.4c13-7.5,21.1-21.5,21.1-36.6"/>
</g>
<g id="SPLINE_93_">
	<path class="st0" d="M215.9,468.8c0-15.1-8-29-21.1-36.6"/>
</g>
<g id="SPLINE_94_">
	<path class="st0" d="M194.8,432.2c-13-7.5-29.1-7.5-42.2,0"/>
</g>
<g id="SPLINE_95_">
	<path class="st0" d="M152.6,432.2c-13,7.5-21.1,21.5-21.1,36.6"/>
</g>
<g id="SPLINE_96_">
	<path class="st0" d="M467.1,473.2c1.5,0.9,3.5,0.9,5,0"/>
</g>
<g id="SPLINE_97_">
	<path class="st0" d="M472.1,473.2c1.5-0.9,2.5-2.6,2.5-4.3"/>
</g>
<g id="SPLINE_98_">
	<path class="st0" d="M474.6,468.8c0-1.8-1-3.4-2.5-4.3"/>
</g>
<g id="SPLINE_99_">
	<path class="st0" d="M472.1,464.5c-1.5-0.9-3.5-0.9-5,0"/>
</g>
<g id="SPLINE_100_">
	<path class="st0" d="M467.1,464.5c-1.5,0.9-2.5,2.6-2.5,4.3"/>
</g>
<g id="SPLINE_101_">
	<path class="st0" d="M464.6,468.8c0,1.8,1,3.4,2.5,4.3"/>
</g>
<g id="SPLINE_102_">
	<path class="st0" d="M607.2,473.2c1.5,0.9,3.5,0.9,5,0"/>
</g>
<g id="SPLINE_103_">
	<path class="st0" d="M612.2,473.2c1.5-0.9,2.5-2.6,2.5-4.3"/>
</g>
<g id="SPLINE_104_">
	<path class="st0" d="M614.7,468.8c0-1.8-1-3.4-2.5-4.3"/>
</g>
<g id="SPLINE_105_">
	<path class="st0" d="M612.2,464.5c-1.5-0.9-3.5-0.9-5,0"/>
</g>
<g id="SPLINE_106_">
	<path class="st0" d="M607.2,464.5c-1.5,0.9-2.5,2.6-2.5,4.3"/>
</g>
<g id="SPLINE_107_">
	<path class="st0" d="M604.7,468.8c0,1.8,1,3.4,2.5,4.3"/>
</g>
<g id="SPLINE_108_">
	<path class="st0" d="M284.1,473.2c1.5,0.9,3.5,0.9,5,0"/>
</g>
<g id="SPLINE_109_">
	<path class="st0" d="M289.1,473.2c1.5-0.9,2.5-2.5,2.5-4.3"/>
</g>
<g id="SPLINE_110_">
	<path class="st0" d="M291.6,468.8c0-1.8-1-3.4-2.5-4.3"/>
</g>
<g id="SPLINE_111_">
	<path class="st0" d="M289.1,464.5c-1.5-0.9-3.5-0.9-5,0"/>
</g>
<g id="SPLINE_112_">
	<path class="st0" d="M284.1,464.5c-1.5,0.9-2.5,2.5-2.5,4.3"/>
</g>
<g id="SPLINE_113_">
	<path class="st0" d="M281.6,468.8c0,1.8,1,3.4,2.5,4.3"/>
</g>
<g id="SPLINE_114_">
	<path class="st0" d="M-81.8,473.2c1.5,0.9,3.5,0.9,5,0"/>
</g>
<g id="SPLINE_115_">
	<path class="st0" d="M-76.8,473.2c1.5-0.9,2.5-2.6,2.5-4.3"/>
</g>
<g id="SPLINE_116_">
	<path class="st0" d="M-74.3,468.8c0-1.8-1-3.4-2.5-4.3"/>
</g>
<g id="SPLINE_117_">
	<path class="st0" d="M-76.8,464.5c-1.5-0.9-3.5-0.9-5,0"/>
</g>
<g id="SPLINE_118_">
	<path class="st0" d="M-81.8,464.5c-1.5,0.9-2.5,2.6-2.5,4.3"/>
</g>
<g id="SPLINE_119_">
	<path class="st0" d="M-84.3,468.8c0,1.8,1,3.4,2.5,4.3"/>
</g>
<g id="SPLINE_120_">
	<path class="st0" d="M424.2,473.2c1.5,0.9,3.5,0.9,5,0"/>
</g>
<g id="SPLINE_121_">
	<path class="st0" d="M429.2,473.2c1.5-0.9,2.5-2.5,2.5-4.3"/>
</g>
<g id="SPLINE_122_">
	<path class="st0" d="M431.7,468.8c0-1.8-1-3.4-2.5-4.3"/>
</g>
<g id="SPLINE_123_">
	<path class="st0" d="M429.2,464.5c-1.5-0.9-3.5-0.9-5,0"/>
</g>
<g id="SPLINE_124_">
	<path class="st0" d="M424.2,464.5c-1.5,0.9-2.5,2.5-2.5,4.3"/>
</g>
<g id="SPLINE_125_">
	<path class="st0" d="M421.7,468.8c0,1.8,1,3.4,2.5,4.3"/>
</g>
<g id="SPLINE_126_">
	<path class="st0" d="M101.2,473.2c1.5,0.9,3.5,0.9,5,0"/>
</g>
<g id="SPLINE_127_">
	<path class="st0" d="M106.2,473.2c1.5-0.9,2.5-2.5,2.5-4.3"/>
</g>
<g id="SPLINE_128_">
	<path class="st0" d="M108.7,468.8c0-1.8-1-3.4-2.5-4.3"/>
</g>
<g id="SPLINE_129_">
	<path class="st0" d="M106.2,464.5c-1.5-0.9-3.5-0.9-5,0"/>
</g>
<g id="SPLINE_130_">
	<path class="st0" d="M101.2,464.5c-1.5,0.9-2.5,2.5-2.5,4.3"/>
</g>
<g id="SPLINE_131_">
	<path class="st0" d="M98.7,468.8c0,1.8,1,3.4,2.5,4.3"/>
</g>
<g id="SPLINE_132_">
	<path class="st0" d="M241.2,473.2c1.5,0.9,3.5,0.9,5,0"/>
</g>
<g id="SPLINE_133_">
	<path class="st0" d="M246.3,473.2c1.5-0.9,2.5-2.6,2.5-4.3"/>
</g>
<g id="SPLINE_134_">
	<path class="st0" d="M248.8,468.8c0-1.8-1-3.4-2.5-4.3"/>
</g>
<g id="SPLINE_135_">
	<path class="st0" d="M246.3,464.5c-1.5-0.9-3.5-0.9-5,0"/>
</g>
<g id="SPLINE_136_">
	<path class="st0" d="M241.2,464.5c-1.5,0.9-2.5,2.6-2.5,4.3"/>
</g>
<g id="SPLINE_137_">
	<path class="st0" d="M238.7,468.8c0,1.8,1,3.4,2.5,4.3"/>
</g>
<g id="SPLINE_138_">
	<path class="st0" d="M58.3,473.2c1.5,0.9,3.5,0.9,5,0"/>
</g>
<g id="SPLINE_139_">
	<path class="st0" d="M63.3,473.2c1.5-0.9,2.5-2.6,2.5-4.3"/>
</g>
<g id="SPLINE_140_">
	<path class="st0" d="M65.8,468.8c0-1.8-1-3.4-2.5-4.3"/>
</g>
<g id="SPLINE_141_">
	<path class="st0" d="M63.3,464.5c-1.5-0.9-3.5-0.9-5,0"/>
</g>
<g id="SPLINE_142_">
	<path class="st0" d="M58.3,464.5c-1.5,0.9-2.5,2.6-2.5,4.3"/>
</g>
<g id="SPLINE_143_">
	<path class="st0" d="M55.8,468.8c0,1.8,1,3.4,2.5,4.3"/>
</g>
</svg>
