<?xml version="1.0" encoding="utf-8"?>
<!-- Generator: Adobe Illustrator 23.0.1, SVG Export Plug-In . SVG Version: 6.00 Build 0)  -->
<svg version="1.1" id="_x30_" xmlns="http://www.w3.org/2000/svg" xmlns:xlink="http://www.w3.org/1999/xlink" x="0px" y="0px"
	 viewBox="0 0 612 792" style="enable-background:new 0 0 612 792;" xml:space="preserve">
<style type="text/css">
	.st0{fill:none;stroke:#000000;stroke-width:0.7087;stroke-linecap:round;stroke-linejoin:round;stroke-miterlimit:10;}
</style>
<g id="SPLINE">
	<path class="st0" d="M557.7,432.2c13,7.5,29.1,7.5,42.2,0"/>
</g>
<g id="SPLINE_1_">
	<path class="st0" d="M8.8,432.2c13,7.5,29.1,7.5,42.2,0"/>
</g>
<g id="SPLINE_2_">
	<path class="st0" d="M374.8,432.2c13,7.5,29.1,7.5,42.2,0"/>
</g>
<g id="SPLINE_3_">
	<path class="st0" d="M191.8,432.2c13,7.5,29.1,7.5,42.2,0"/>
</g>
<g id="LINE">
	<line class="st0" x1="-90.9" y1="303.9" x2="702.9" y2="303.9"/>
</g>
<g id="LINE_1_">
	<line class="st0" x1="702.9" y1="303.9" x2="702.9" y2="488.1"/>
</g>
<g id="LINE_2_">
	<line class="st0" x1="702.9" y1="488.1" x2="-90.9" y2="488.1"/>
</g>
<g id="LINE_3_">
	<line class="st0" x1="-90.9" y1="488.1" x2="-90.9" y2="303.9"/>
</g>
<g id="SPLINE_4_">
	<path class="st0" d="M511.3,400c1.5-0.9,2.5-2.6,2.5-4.3"/>
</g>
<g id="SPLINE_5_">
	<path class="st0" d="M513.8,395.6c0-1.8-1-3.4-2.5-4.3"/>
</g>
<g id="SPLINE_6_">
	<path class="st0" d="M511.3,391.3c-1.5-0.9-3.5-0.9-5,0"/>
</g>
<g id="SPLINE_7_">
	<path class="st0" d="M506.3,391.3c-1.5,0.9-2.5,2.6-2.5,4.3"/>
</g>
<g id="SPLINE_8_">
	<path class="st0" d="M503.8,395.6c0,1.8,1,3.4,2.5,4.3"/>
</g>
<g id="SPLINE_9_">
	<path class="st0" d="M506.3,400c1.5,0.9,3.5,0.9,5,0"/>
</g>
<g id="SPLINE_10_">
	<path class="st0" d="M651.4,400c1.5-0.9,2.5-2.6,2.5-4.3"/>
</g>
<g id="SPLINE_11_">
	<path class="st0" d="M653.9,395.6c0-1.8-1-3.4-2.5-4.3"/>
</g>
<g id="SPLINE_12_">
	<path class="st0" d="M651.4,391.3c-1.5-0.9-3.5-0.9-5,0"/>
</g>
<g id="SPLINE_13_">
	<path class="st0" d="M646.4,391.3c-1.5,0.9-2.5,2.6-2.5,4.3"/>
</g>
<g id="SPLINE_14_">
	<path class="st0" d="M643.9,395.6c0,1.8,1,3.4,2.5,4.3"/>
</g>
<g id="SPLINE_15_">
	<path class="st0" d="M646.4,400c1.5,0.9,3.5,0.9,5,0"/>
</g>
<g id="SPLINE_16_">
	<path class="st0" d="M599.9,432.2c13-7.5,21.1-21.5,21.1-36.6"/>
</g>
<g id="SPLINE_17_">
	<path class="st0" d="M621,395.6c0-15.1-8-29-21.1-36.6"/>
</g>
<g id="SPLINE_18_">
	<path class="st0" d="M599.9,359c-13-7.5-29.1-7.5-42.2,0"/>
</g>
<g id="SPLINE_19_">
	<path class="st0" d="M557.7,359c-13,7.5-21.1,21.5-21.1,36.6"/>
</g>
<g id="SPLINE_20_">
	<path class="st0" d="M536.7,395.6c0,15.1,8,29,21.1,36.6"/>
</g>
<g id="SPLINE_21_">
	<path class="st0" d="M328.3,400c1.5-0.9,2.5-2.5,2.5-4.3"/>
</g>
<g id="SPLINE_22_">
	<path class="st0" d="M330.8,395.6c0-1.8-1-3.4-2.5-4.3"/>
</g>
<g id="SPLINE_23_">
	<path class="st0" d="M328.3,391.3c-1.5-0.9-3.5-0.9-5,0"/>
</g>
<g id="SPLINE_24_">
	<path class="st0" d="M323.3,391.3c-1.5,0.9-2.5,2.5-2.5,4.3"/>
</g>
<g id="SPLINE_25_">
	<path class="st0" d="M320.8,395.6c0,1.8,1,3.4,2.5,4.3"/>
</g>
<g id="SPLINE_26_">
	<path class="st0" d="M323.3,400c1.5,0.9,3.5,0.9,5,0"/>
</g>
<g id="SPLINE_27_">
	<path class="st0" d="M51,432.2c13-7.5,21.1-21.5,21.1-36.6"/>
</g>
<g id="SPLINE_28_">
	<path class="st0" d="M72.1,395.6c0-15.1-8-29-21.1-36.6"/>
</g>
<g id="SPLINE_29_">
	<path class="st0" d="M51,359.1c-13-7.5-29.1-7.5-42.2,0"/>
</g>
<g id="SPLINE_30_">
	<path class="st0" d="M8.8,359.1c-13,7.5-21.1,21.5-21.1,36.6"/>
</g>
<g id="SPLINE_31_">
	<path class="st0" d="M-12.3,395.6c0,15.1,8,29,21.1,36.6"/>
</g>
<g id="SPLINE_32_">
	<path class="st0" d="M-37.6,400c1.5-0.9,2.5-2.6,2.5-4.3"/>
</g>
<g id="SPLINE_33_">
	<path class="st0" d="M-35.1,395.6c0-1.8-1-3.4-2.5-4.3"/>
</g>
<g id="SPLINE_34_">
	<path class="st0" d="M-37.6,391.3c-1.5-0.9-3.5-0.9-5,0"/>
</g>
<g id="SPLINE_35_">
	<path class="st0" d="M-42.6,391.3c-1.5,0.9-2.5,2.6-2.5,4.3"/>
</g>
<g id="SPLINE_36_">
	<path class="st0" d="M-45.1,395.6c0,1.8,1,3.4,2.5,4.3"/>
</g>
<g id="SPLINE_37_">
	<path class="st0" d="M-42.6,400c1.5,0.9,3.5,0.9,5,0"/>
</g>
<g id="SPLINE_38_">
	<path class="st0" d="M416.9,432.2c13-7.5,21.1-21.5,21.1-36.6"/>
</g>
<g id="SPLINE_39_">
	<path class="st0" d="M438,395.6c0-15.1-8-29-21.1-36.6"/>
</g>
<g id="SPLINE_40_">
	<path class="st0" d="M416.9,359c-13-7.5-29.1-7.5-42.2,0"/>
</g>
<g id="SPLINE_41_">
	<path class="st0" d="M374.8,359c-13,7.5-21.1,21.5-21.1,36.6"/>
</g>
<g id="SPLINE_42_">
	<path class="st0" d="M353.7,395.6c0,15.1,8,29,21.1,36.6"/>
</g>
<g id="SPLINE_43_">
	<path class="st0" d="M468.4,400c1.5-0.9,2.5-2.5,2.5-4.3"/>
</g>
<g id="SPLINE_44_">
	<path class="st0" d="M470.9,395.6c0-1.8-1-3.4-2.5-4.3"/>
</g>
<g id="SPLINE_45_">
	<path class="st0" d="M468.4,391.3c-1.5-0.9-3.5-0.9-5,0"/>
</g>
<g id="SPLINE_46_">
	<path class="st0" d="M463.4,391.3c-1.5,0.9-2.5,2.5-2.5,4.3"/>
</g>
<g id="SPLINE_47_">
	<path class="st0" d="M460.9,395.6c0,1.8,1,3.4,2.5,4.3"/>
</g>
<g id="SPLINE_48_">
	<path class="st0" d="M463.4,400c1.5,0.9,3.5,0.9,5,0"/>
</g>
<g id="SPLINE_49_">
	<path class="st0" d="M145.3,400c1.5-0.9,2.5-2.5,2.5-4.3"/>
</g>
<g id="SPLINE_50_">
	<path class="st0" d="M147.8,395.6c0-1.8-1-3.4-2.5-4.3"/>
</g>
<g id="SPLINE_51_">
	<path class="st0" d="M145.3,391.3c-1.5-0.9-3.5-0.9-5,0"/>
</g>
<g id="SPLINE_52_">
	<path class="st0" d="M140.3,391.3c-1.5,0.9-2.5,2.5-2.5,4.3"/>
</g>
<g id="SPLINE_53_">
	<path class="st0" d="M137.8,395.6c0,1.8,1,3.4,2.5,4.3"/>
</g>
<g id="SPLINE_54_">
	<path class="st0" d="M140.3,400c1.5,0.9,3.5,0.9,5,0"/>
</g>
<g id="SPLINE_55_">
	<path class="st0" d="M285.4,400c1.5-0.9,2.5-2.6,2.5-4.3"/>
</g>
<g id="SPLINE_56_">
	<path class="st0" d="M287.9,395.6c0-1.8-1-3.4-2.5-4.3"/>
</g>
<g id="SPLINE_57_">
	<path class="st0" d="M285.4,391.3c-1.5-0.9-3.5-0.9-5,0"/>
</g>
<g id="SPLINE_58_">
	<path class="st0" d="M280.4,391.3c-1.5,0.9-2.5,2.6-2.5,4.3"/>
</g>
<g id="SPLINE_59_">
	<path class="st0" d="M277.9,395.6c0,1.8,1,3.4,2.5,4.3"/>
</g>
<g id="SPLINE_60_">
	<path class="st0" d="M280.4,400c1.5,0.9,3.5,0.9,5,0"/>
</g>
<g id="SPLINE_61_">
	<path class="st0" d="M234,432.2c13-7.5,21.1-21.5,21.1-36.6"/>
</g>
<g id="SPLINE_62_">
	<path class="st0" d="M255.1,395.6c0-15.1-8-29-21.1-36.6"/>
</g>
<g id="SPLINE_63_">
	<path class="st0" d="M234,359c-13-7.5-29.1-7.5-42.2,0"/>
</g>
<g id="SPLINE_64_">
	<path class="st0" d="M191.8,359c-13,7.5-21.1,21.5-21.1,36.6"/>
</g>
<g id="SPLINE_65_">
	<path class="st0" d="M170.7,395.6c0,15.1,8,29,21.1,36.6"/>
</g>
<g id="SPLINE_66_">
	<path class="st0" d="M102.5,400c1.5-0.9,2.5-2.6,2.5-4.3"/>
</g>
<g id="SPLINE_67_">
	<path class="st0" d="M105,395.6c0-1.8-1-3.4-2.5-4.3"/>
</g>
<g id="SPLINE_68_">
	<path class="st0" d="M102.5,391.3c-1.5-0.9-3.5-0.9-5,0"/>
</g>
<g id="SPLINE_69_">
	<path class="st0" d="M97.5,391.3c-1.5,0.9-2.5,2.6-2.5,4.3"/>
</g>
<g id="SPLINE_70_">
	<path class="st0" d="M95,395.6c0,1.8,1,3.4,2.5,4.3"/>
</g>
<g id="SPLINE_71_">
	<path class="st0" d="M97.5,400c1.5,0.9,3.5,0.9,5,0"/>
</g>
</svg>
