  0
SECTION
  2
HEADER
  9
$ACADVER
  1
AC1012
  9
$DWGCODEPAGE
  3
gb2312
  9
$INSBASE
 10
0.0
 20
0.0
 30
0.0
  9
$EXTMIN
 10
1.000000000000000E+20
 20
1.000000000000000E+20
 30
1.000000000000000E+20
  9
$EXTMAX
 10
-1.000000000000000E+20
 20
-1.000000000000000E+20
 30
-1.000000000000000E+20
  9
$LIMMIN
 10
0.0
 20
0.0
  9
$LIMMAX
 10
420.0
 20
297.0
  9
$ORTHOMODE
 70
     0
  9
$REGENMODE
 70
     1
  9
$FILLMODE
 70
     1
  9
$QTEXTMODE
 70
     0
  9
$MIRRTEXT
 70
     1
  9
$DRAGMODE
 70
     2
  9
$LTSCALE
 40
1.0
  9
$OSMODE
 70
    37
  9
$ATTMODE
 70
     1
  9
$TEXTSIZE
 40
2.5
  9
$TRACEWID
 40
1.0
  9
$TEXTSTYLE
  7
STANDARD
  9
$CLAYER
  8
0
  9
$CELTYPE
  6
BYLAYER
  9
$CECOLOR
 62
   256
  9
$CELTSCALE
 40
1.0
  9
$DELOBJ
 70
     1
  9
$DISPSILH
 70
     0
  9
$DIMSCALE
 40
1.0
  9
$DIMASZ
 40
2.5
  9
$DIMEXO
 40
0.625
  9
$DIMDLI
 40
3.75
  9
$DIMRND
 40
0.0
  9
$DIMDLE
 40
0.0
  9
$DIMEXE
 40
1.25
  9
$DIMTP
 40
0.0
  9
$DIMTM
 40
0.0
  9
$DIMTXT
 40
2.5
  9
$DIMCEN
 40
2.5
  9
$DIMTSZ
 40
0.0
  9
$DIMTOL
 70
     0
  9
$DIMLIM
 70
     0
  9
$DIMTIH
 70
     0
  9
$DIMTOH
 70
     0
  9
$DIMSE1
 70
     0
  9
$DIMSE2
 70
     0
  9
$DIMTAD
 70
     1
  9
$DIMZIN
 70
     8
  9
$DIMBLK
  1

  9
$DIMASO
 70
     1
  9
$DIMSHO
 70
     1
  9
$DIMPOST
  1

  9
$DIMAPOST
  1

  9
$DIMALT
 70
     0
  9
$DIMALTD
 70
     3
  9
$DIMALTF
 40
0.03937007874016
  9
$DIMLFAC
 40
1.0
  9
$DIMTOFL
 70
     1
  9
$DIMTVP
 40
0.0
  9
$DIMTIX
 70
     0
  9
$DIMSOXD
 70
     0
  9
$DIMSAH
 70
     0
  9
$DIMBLK1
  1

  9
$DIMBLK2
  1

  9
$DIMSTYLE
  2
ISO-25
  9
$DIMCLRD
 70
     0
  9
$DIMCLRE
 70
     0
  9
$DIMCLRT
 70
     0
  9
$DIMTFAC
 40
1.0
  9
$DIMGAP
 40
0.625
  9
$DIMJUST
 70
     0
  9
$DIMSD1
 70
     0
  9
$DIMSD2
 70
     0
  9
$DIMTOLJ
 70
     0
  9
$DIMTZIN
 70
     8
  9
$DIMALTZ
 70
     0
  9
$DIMALTTZ
 70
     0
  9
$DIMFIT
 70
     3
  9
$DIMUPT
 70
     0
  9
$DIMUNIT
 70
     2
  9
$DIMDEC
 70
     2
  9
$DIMTDEC
 70
     2
  9
$DIMALTU
 70
     2
  9
$DIMALTTD
 70
     3
  9
$DIMTXSTY
  7
STANDARD
  9
$DIMAUNIT
 70
     0
  9
$LUNITS
 70
     2
  9
$LUPREC
 70
     4
  9
$SKETCHINC
 40
1.0
  9
$FILLETRAD
 40
10.0
  9
$AUNITS
 70
     0
  9
$AUPREC
 70
     0
  9
$MENU
  1
.
  9
$ELEVATION
 40
0.0
  9
$PELEVATION
 40
0.0
  9
$THICKNESS
 40
0.0
  9
$LIMCHECK
 70
     0
  9
$BLIPMODE
 70
     0
  9
$CHAMFERA
 40
10.0
  9
$CHAMFERB
 40
10.0
  9
$CHAMFERC
 40
20.0
  9
$CHAMFERD
 40
0.0
  9
$SKPOLY
 70
     0
  9
$TDCREATE
 40
2453935.933843252
  9
$TDUPDATE
 40
2453935.934398680
  9
$TDINDWG
 40
0.0005563542
  9
$TDUSRTIMER
 40
0.0005562384
  9
$USRTIMER
 70
     1
  9
$ANGBASE
 50
0.0
  9
$ANGDIR
 70
     0
  9
$PDMODE
 70
     0
  9
$PDSIZE
 40
0.0
  9
$PLINEWID
 40
0.0
  9
$COORDS
 70
     1
  9
$SPLFRAME
 70
     0
  9
$SPLINETYPE
 70
     6
  9
$SPLINESEGS
 70
     8
  9
$ATTDIA
 70
     0
  9
$ATTREQ
 70
     1
  9
$HANDLING
 70
 22529
  9
$HANDSEED
  5
4A
  9
$SURFTAB1
 70
     6
  9
$SURFTAB2
 70
     6
  9
$SURFTYPE
 70
     6
  9
$SURFU
 70
     6
  9
$SURFV
 70
     6
  9
$UCSNAME
  2

  9
$UCSORG
 10
0.0
 20
0.0
 30
0.0
  9
$UCSXDIR
 10
1.0
 20
0.0
 30
0.0
  9
$UCSYDIR
 10
0.0
 20
1.0
 30
0.0
  9
$PUCSNAME
  2

  9
$PUCSORG
 10
0.0
 20
0.0
 30
0.0
  9
$PUCSXDIR
 10
1.0
 20
0.0
 30
0.0
  9
$PUCSYDIR
 10
0.0
 20
1.0
 30
0.0
  9
$USERI1
 70
     0
  9
$USERI2
 70
     0
  9
$USERI3
 70
     0
  9
$USERI4
 70
     0
  9
$USERI5
 70
     0
  9
$USERR1
 40
0.0
  9
$USERR2
 40
0.0
  9
$USERR3
 40
0.0
  9
$USERR4
 40
0.0
  9
$USERR5
 40
0.0
  9
$WORLDVIEW
 70
     1
  9
$SHADEDGE
 70
     3
  9
$SHADEDIF
 70
    70
  9
$TILEMODE
 70
     1
  9
$MAXACTVP
 70
    64
  9
$PINSBASE
 10
0.0
 20
0.0
 30
0.0
  9
$PLIMCHECK
 70
     0
  9
$PEXTMIN
 10
1.000000000000000E+20
 20
1.000000000000000E+20
 30
1.000000000000000E+20
  9
$PEXTMAX
 10
-1.000000000000000E+20
 20
-1.000000000000000E+20
 30
-1.000000000000000E+20
  9
$PLIMMIN
 10
0.0
 20
0.0
  9
$PLIMMAX
 10
420.0
 20
297.0
  9
$UNITMODE
 70
     0
  9
$VISRETAIN
 70
     1
  9
$PLINEGEN
 70
     0
  9
$PSLTSCALE
 70
     1
  9
$TREEDEPTH
 70
  3020
  9
$PICKSTYLE
 70
     1
  9
$CMLSTYLE
  2
STANDARD
  9
$CMLJUST
 70
     0
  9
$CMLSCALE
 40
20.0
  9
$SAVEIMAGES
 70
     1
  0
ENDSEC
  0
SECTION
  2
CLASSES
  0
CLASS
  1
ACDBDICTIONARYWDFLT
  2
AcDbDictionaryWithDefault
  3
AutoCAD 2000
 90
    32768
280
     0
281
     0
  0
CLASS
  1
ACDBPLACEHOLDER
  2
AcDbPlaceHolder
  3
AutoCAD 2000
 90
    32768
280
     0
281
     0
  0
CLASS
  1
LAYOUT
  2
AcDbLayout
  3
AutoCAD 2000
 90
    32768
280
     0
281
     0
  0
CLASS
  1
DICTIONARYVAR
  2
AcDbDictionaryVar
  3
AutoCAD 2000
 90
    32768
280
     0
281
     0
  0
CLASS
  1
LONG_TRANSACTION
  2
AcDbLongTransaction
  3
AutoCAD 2000
 90
    32768
280
     0
281
     0
  0
CLASS
  1
LWPOLYLINE
  2
AcDbPolyline
  3
AutoCAD 2000
 90
    32768
280
     0
281
     1
  0
CLASS
  1
HATCH
  2
AcDbHatch
  3
AutoCAD 2000
 90
    32768
280
     0
281
     1
  0
CLASS
  1
XRECORD
  2
AcDbXrecord
  3
AutoCAD 2000
 90
    32768
280
     0
281
     0
  0
ENDSEC
  0
SECTION
  2
TABLES
  0
TABLE
  2
VPORT
  5
8
330
0
100
AcDbSymbolTable
 70
     2
  0
VPORT
  5
43
330
8
100
AcDbSymbolTableRecord
100
AcDbViewportTableRecord
  2
*ACTIVE
 70
     0
 10
0.0
 20
0.0
 11
1.0
 21
1.0
 12
505.3812210517317
 22
257.5500453436709
 13
0.0
 23
0.0
 14
10.0
 24
10.0
 15
10.0
 25
10.0
 16
0.0
 26
0.0
 36
1.0
 17
0.0
 27
0.0
 37
0.0
 40
515.1000906873419
 41
1.962264150943396
 42
50.0
 43
0.0
 44
0.0
 50
0.0
 51
0.0
 71
     0
 72
   100
 73
     1
 74
     3
 75
     0
 76
     0
 77
     0
 78
     0
  0
ENDTAB
  0
TABLE
  2
LTYPE
  5
5
330
0
100
AcDbSymbolTable
 70
     1
  0
LTYPE
  5
14
330
5
100
AcDbSymbolTableRecord
100
AcDbLinetypeTableRecord
  2
BYBLOCK
 70
     0
  3

 72
    65
 73
     0
 40
0.0
  0
LTYPE
  5
15
330
5
100
AcDbSymbolTableRecord
100
AcDbLinetypeTableRecord
  2
BYLAYER
 70
     0
  3

 72
    65
 73
     0
 40
0.0
  0
LTYPE
  5
16
330
5
100
AcDbSymbolTableRecord
100
AcDbLinetypeTableRecord
  2
CONTINUOUS
 70
     0
  3
Solid line
 72
    65
 73
     0
 40
0.0
  0
ENDTAB
  0
TABLE
  2
LAYER
  5
2
330
0
100
AcDbSymbolTable
 70
     1
  0
LAYER
  5
10
330
2
100
AcDbSymbolTableRecord
100
AcDbLayerTableRecord
  2
0
 70
     0
 62
     7
  6
CONTINUOUS
  0
ENDTAB
  0
TABLE
  2
STYLE
  5
3
330
0
100
AcDbSymbolTable
 70
     1
  0
STYLE
  5
11
330
3
100
AcDbSymbolTableRecord
100
AcDbTextStyleTableRecord
  2
STANDARD
 70
     0
 40
0.0
 41
1.0
 50
0.0
 71
     0
 42
2.5
  3
txt
  4

  0
ENDTAB
  0
TABLE
  2
VIEW
  5
6
330
0
100
AcDbSymbolTable
 70
     0
  0
ENDTAB
  0
TABLE
  2
UCS
  5
7
330
0
100
AcDbSymbolTable
 70
     0
  0
ENDTAB
  0
TABLE
  2
APPID
  5
9
330
0
100
AcDbSymbolTable
 70
     1
  0
APPID
  5
12
330
9
100
AcDbSymbolTableRecord
100
AcDbRegAppTableRecord
  2
ACAD
 70
     0
  0
ENDTAB
  0
TABLE
  2
DIMSTYLE
  5
A
330
0
100
AcDbSymbolTable
 70
     1
  0
DIMSTYLE
105
27
330
A
100
AcDbSymbolTableRecord
100
AcDbDimStyleTableRecord
  2
ISO-25
 70
     0
  3

  4

  5

  6

  7

 40
1.0
 41
2.5
 42
0.625
 43
3.75
 44
1.25
 45
0.0
 46
0.0
 47
0.0
 48
0.0
140
2.5
141
2.5
142
0.0
143
0.03937007874016
144
1.0
145
0.0
146
1.0
147
0.625
 71
     0
 72
     0
 73
     0
 74
     0
 75
     0
 76
     0
 77
     1
 78
     8
170
     0
171
     3
172
     1
173
     0
174
     0
175
     0
176
     0
177
     0
178
     0
270
     2
271
     2
272
     2
273
     2
274
     3
340
11
275
     0
280
     0
281
     0
282
     0
283
     0
284
     8
285
     0
286
     0
287
     3
288
     0
  0
ENDTAB
  0
TABLE
  2
BLOCK_RECORD
  5
1
330
0
100
AcDbSymbolTable
 70
     1
  0
BLOCK_RECORD
  5
1F
102
{ACAD_XDICTIONARY
360
46
102
}
330
1
100
AcDbSymbolTableRecord
100
AcDbBlockTableRecord
  2
*MODEL_SPACE
  0
BLOCK_RECORD
  5
1B
102
{ACAD_XDICTIONARY
360
44
102
}
330
1
100
AcDbSymbolTableRecord
100
AcDbBlockTableRecord
  2
*PAPER_SPACE
  0
ENDTAB
  0
ENDSEC
  0
SECTION
  2
BLOCKS
  0
BLOCK
  5
20
330
1F
100
AcDbEntity
  8
0
100
AcDbBlockBegin
  2
*MODEL_SPACE
 70
     0
 10
0.0
 20
0.0
 30
0.0
  3
*MODEL_SPACE
  1

  0
ENDBLK
  5
21
330
1F
100
AcDbEntity
  8
0
100
AcDbBlockEnd
  0
BLOCK
  5
1C
330
1B
100
AcDbEntity
 67
     1
  8
0
100
AcDbBlockBegin
  2
*PAPER_SPACE
 70
     0
 10
0.0
 20
0.0
 30
0.0
  3
*PAPER_SPACE
  1

  0
ENDBLK
  5
1D
330
1B
100
AcDbEntity
 67
     1
  8
0
100
AcDbBlockEnd
  0
ENDSEC
  0
SECTION
  2
ENTITIES
  0
SPLINE
  5
100
330
1F
100
AcDbEntity
  8
0
 62
     7
100
AcDbSpline
210
0.000000
220
0.000000
230
1.0
 70
     8
 71
     3
 72
     8
 73
     4
 42
0.0000000001
 43
0.0000000001
 44
0.0000000001
 12
0.000000
 22
0.000000
 32
0.000000
 13
0.000000
 23
0.000000
 33
0.000000
 40
0.000000
 40
0.000000
 40
0.000000
 40
0.000000
 40
1.000000
 40
1.000000
 40
1.000000
 40
1.000000
 10
1711.756837
 20
1087.350845
 30
0.000000
 10
1716.360534
 20
1084.688951
 30
0.000000
 10
1722.033148
 20
1084.688951
 30
0.000000
 10
1726.636872
 20
1087.350845
 30
0.000000
  0
SPLINE
  5
101
330
1F
100
AcDbEntity
  8
0
 62
     7
100
AcDbSpline
210
0.000000
220
0.000000
230
1.0
 70
     8
 71
     3
 72
     8
 73
     4
 42
0.0000000001
 43
0.0000000001
 44
0.0000000001
 12
0.000000
 22
0.000000
 32
0.000000
 13
0.000000
 23
0.000000
 33
0.000000
 40
0.000000
 40
0.000000
 40
0.000000
 40
0.000000
 40
1.000000
 40
1.000000
 40
1.000000
 40
1.000000
 10
1518.109566
 20
1087.355687
 30
0.000000
 10
1522.712442
 20
1084.695116
 30
0.000000
 10
1528.383389
 20
1084.695116
 30
0.000000
 10
1532.986240
 20
1087.355687
 30
0.000000
  0
SPLINE
  5
102
330
1F
100
AcDbEntity
  8
0
 62
     7
100
AcDbSpline
210
0.000000
220
0.000000
230
1.0
 70
     8
 71
     3
 72
     8
 73
     4
 42
0.0000000001
 43
0.0000000001
 44
0.0000000001
 12
0.000000
 22
0.000000
 32
0.000000
 13
0.000000
 23
0.000000
 33
0.000000
 40
0.000000
 40
0.000000
 40
0.000000
 40
0.000000
 40
1.000000
 40
1.000000
 40
1.000000
 40
1.000000
 10
1647.208029
 20
1087.353279
 30
0.000000
 10
1651.811303
 20
1084.692047
 30
0.000000
 10
1657.483096
 20
1084.692047
 30
0.000000
 10
1662.086370
 20
1087.353279
 30
0.000000
  0
SPLINE
  5
103
330
1F
100
AcDbEntity
  8
0
 62
     7
100
AcDbSpline
210
0.000000
220
0.000000
230
1.0
 70
     8
 71
     3
 72
     8
 73
     4
 42
0.0000000001
 43
0.0000000001
 44
0.0000000001
 12
0.000000
 22
0.000000
 32
0.000000
 13
0.000000
 23
0.000000
 33
0.000000
 40
0.000000
 40
0.000000
 40
0.000000
 40
0.000000
 40
1.000000
 40
1.000000
 40
1.000000
 40
1.000000
 10
1582.658374
 20
1087.353279
 30
0.000000
 10
1587.261674
 20
1084.692047
 30
0.000000
 10
1592.933441
 20
1084.692047
 30
0.000000
 10
1597.536741
 20
1087.353279
 30
0.000000
  0
LINE
  5
104
330
1F
100
AcDbEntity
  8
0
  62
7
100
AcDbLine
 10
1482.945696
 20
1124.119754
 30
0.000000
 11
1762.945689
 21
1124.119754
 31
0.000000
  0
LINE
  5
105
330
1F
100
AcDbEntity
  8
0
  62
7
100
AcDbLine
 10
1762.945689
 20
1124.119754
 30
0.000000
 11
1762.945689
 21
1024.119715
 31
0.000000
  0
LINE
  5
106
330
1F
100
AcDbEntity
  8
0
  62
7
100
AcDbLine
 10
1762.945689
 20
1024.119715
 30
0.000000
 11
1482.945696
 21
1024.119715
 31
0.000000
  0
LINE
  5
107
330
1F
100
AcDbEntity
  8
0
  62
7
100
AcDbLine
 10
1482.945696
 20
1024.119715
 30
0.000000
 11
1482.945696
 21
1124.119754
 31
0.000000
  0
SPLINE
  5
108
330
1F
100
AcDbEntity
  8
0
 62
     7
100
AcDbSpline
210
0.000000
220
0.000000
230
1.0
 70
     8
 71
     3
 72
     8
 73
     4
 42
0.0000000001
 43
0.0000000001
 44
0.0000000001
 12
0.000000
 22
0.000000
 32
0.000000
 13
0.000000
 23
0.000000
 33
0.000000
 40
0.000000
 40
0.000000
 40
0.000000
 40
0.000000
 40
1.000000
 40
1.000000
 40
1.000000
 40
1.000000
 10
1695.369419
 20
1098.722716
 30
0.000000
 10
1695.915757
 20
1099.038734
 30
0.000000
 10
1696.252042
 20
1099.622722
 30
0.000000
 10
1696.251460
 20
1100.254442
 30
0.000000
  0
SPLINE
  5
109
330
1F
100
AcDbEntity
  8
0
 62
     7
100
AcDbSpline
210
0.000000
220
0.000000
230
1.0
 70
     8
 71
     3
 72
     8
 73
     4
 42
0.0000000001
 43
0.0000000001
 44
0.0000000001
 12
0.000000
 22
0.000000
 32
0.000000
 13
0.000000
 23
0.000000
 33
0.000000
 40
0.000000
 40
0.000000
 40
0.000000
 40
0.000000
 40
1.000000
 40
1.000000
 40
1.000000
 40
1.000000
 10
1696.251460
 20
1100.254442
 30
0.000000
 10
1696.251460
 20
1100.886134
 30
0.000000
 10
1695.915757
 20
1101.470123
 30
0.000000
 10
1695.369419
 20
1101.786141
 30
0.000000
  0
SPLINE
  5
110
330
1F
100
AcDbEntity
  8
0
 62
     7
100
AcDbSpline
210
0.000000
220
0.000000
230
1.0
 70
     8
 71
     3
 72
     8
 73
     4
 42
0.0000000001
 43
0.0000000001
 44
0.0000000001
 12
0.000000
 22
0.000000
 32
0.000000
 13
0.000000
 23
0.000000
 33
0.000000
 40
0.000000
 40
0.000000
 40
0.000000
 40
0.000000
 40
1.000000
 40
1.000000
 40
1.000000
 40
1.000000
 10
1695.369419
 20
1101.786141
 30
0.000000
 10
1694.823081
 20
1102.102159
 30
0.000000
 10
1694.149795
 20
1102.102159
 30
0.000000
 10
1693.603457
 20
1101.786141
 30
0.000000
  0
SPLINE
  5
111
330
1F
100
AcDbEntity
  8
0
 62
     7
100
AcDbSpline
210
0.000000
220
0.000000
230
1.0
 70
     8
 71
     3
 72
     8
 73
     4
 42
0.0000000001
 43
0.0000000001
 44
0.0000000001
 12
0.000000
 22
0.000000
 32
0.000000
 13
0.000000
 23
0.000000
 33
0.000000
 40
0.000000
 40
0.000000
 40
0.000000
 40
0.000000
 40
1.000000
 40
1.000000
 40
1.000000
 40
1.000000
 10
1693.603457
 20
1101.786141
 30
0.000000
 10
1693.057119
 20
1101.470123
 30
0.000000
 10
1692.720834
 20
1100.886134
 30
0.000000
 10
1692.721416
 20
1100.254442
 30
0.000000
  0
SPLINE
  5
112
330
1F
100
AcDbEntity
  8
0
 62
     7
100
AcDbSpline
210
0.000000
220
0.000000
230
1.0
 70
     8
 71
     3
 72
     8
 73
     4
 42
0.0000000001
 43
0.0000000001
 44
0.0000000001
 12
0.000000
 22
0.000000
 32
0.000000
 13
0.000000
 23
0.000000
 33
0.000000
 40
0.000000
 40
0.000000
 40
0.000000
 40
0.000000
 40
1.000000
 40
1.000000
 40
1.000000
 40
1.000000
 10
1692.721416
 20
1100.254442
 30
0.000000
 10
1692.721416
 20
1099.622722
 30
0.000000
 10
1693.057119
 20
1099.038734
 30
0.000000
 10
1693.603457
 20
1098.722716
 30
0.000000
  0
SPLINE
  5
113
330
1F
100
AcDbEntity
  8
0
 62
     7
100
AcDbSpline
210
0.000000
220
0.000000
230
1.0
 70
     8
 71
     3
 72
     8
 73
     4
 42
0.0000000001
 43
0.0000000001
 44
0.0000000001
 12
0.000000
 22
0.000000
 32
0.000000
 13
0.000000
 23
0.000000
 33
0.000000
 40
0.000000
 40
0.000000
 40
0.000000
 40
0.000000
 40
1.000000
 40
1.000000
 40
1.000000
 40
1.000000
 10
1693.603457
 20
1098.722716
 30
0.000000
 10
1694.149795
 20
1098.406697
 30
0.000000
 10
1694.823081
 20
1098.406697
 30
0.000000
 10
1695.369419
 20
1098.722716
 30
0.000000
  0
SPLINE
  5
114
330
1F
100
AcDbEntity
  8
0
 62
     7
100
AcDbSpline
210
0.000000
220
0.000000
230
1.0
 70
     8
 71
     3
 72
     8
 73
     4
 42
0.0000000001
 43
0.0000000001
 44
0.0000000001
 12
0.000000
 22
0.000000
 32
0.000000
 13
0.000000
 23
0.000000
 33
0.000000
 40
0.000000
 40
0.000000
 40
0.000000
 40
0.000000
 40
1.000000
 40
1.000000
 40
1.000000
 40
1.000000
 10
1744.790252
 20
1098.722716
 30
0.000000
 10
1745.336590
 20
1099.038734
 30
0.000000
 10
1745.672875
 20
1099.622722
 30
0.000000
 10
1745.672293
 20
1100.254442
 30
0.000000
  0
SPLINE
  5
115
330
1F
100
AcDbEntity
  8
0
 62
     7
100
AcDbSpline
210
0.000000
220
0.000000
230
1.0
 70
     8
 71
     3
 72
     8
 73
     4
 42
0.0000000001
 43
0.0000000001
 44
0.0000000001
 12
0.000000
 22
0.000000
 32
0.000000
 13
0.000000
 23
0.000000
 33
0.000000
 40
0.000000
 40
0.000000
 40
0.000000
 40
0.000000
 40
1.000000
 40
1.000000
 40
1.000000
 40
1.000000
 10
1745.672293
 20
1100.254442
 30
0.000000
 10
1745.672293
 20
1100.886134
 30
0.000000
 10
1745.336590
 20
1101.470123
 30
0.000000
 10
1744.790252
 20
1101.786141
 30
0.000000
  0
SPLINE
  5
116
330
1F
100
AcDbEntity
  8
0
 62
     7
100
AcDbSpline
210
0.000000
220
0.000000
230
1.0
 70
     8
 71
     3
 72
     8
 73
     4
 42
0.0000000001
 43
0.0000000001
 44
0.0000000001
 12
0.000000
 22
0.000000
 32
0.000000
 13
0.000000
 23
0.000000
 33
0.000000
 40
0.000000
 40
0.000000
 40
0.000000
 40
0.000000
 40
1.000000
 40
1.000000
 40
1.000000
 40
1.000000
 10
1744.790252
 20
1101.786141
 30
0.000000
 10
1744.243914
 20
1102.102159
 30
0.000000
 10
1743.570628
 20
1102.102159
 30
0.000000
 10
1743.024290
 20
1101.786141
 30
0.000000
  0
SPLINE
  5
117
330
1F
100
AcDbEntity
  8
0
 62
     7
100
AcDbSpline
210
0.000000
220
0.000000
230
1.0
 70
     8
 71
     3
 72
     8
 73
     4
 42
0.0000000001
 43
0.0000000001
 44
0.0000000001
 12
0.000000
 22
0.000000
 32
0.000000
 13
0.000000
 23
0.000000
 33
0.000000
 40
0.000000
 40
0.000000
 40
0.000000
 40
0.000000
 40
1.000000
 40
1.000000
 40
1.000000
 40
1.000000
 10
1743.024290
 20
1101.786141
 30
0.000000
 10
1742.477952
 20
1101.470123
 30
0.000000
 10
1742.141640
 20
1100.886134
 30
0.000000
 10
1742.142222
 20
1100.254442
 30
0.000000
  0
SPLINE
  5
118
330
1F
100
AcDbEntity
  8
0
 62
     7
100
AcDbSpline
210
0.000000
220
0.000000
230
1.0
 70
     8
 71
     3
 72
     8
 73
     4
 42
0.0000000001
 43
0.0000000001
 44
0.0000000001
 12
0.000000
 22
0.000000
 32
0.000000
 13
0.000000
 23
0.000000
 33
0.000000
 40
0.000000
 40
0.000000
 40
0.000000
 40
0.000000
 40
1.000000
 40
1.000000
 40
1.000000
 40
1.000000
 10
1742.142222
 20
1100.254442
 30
0.000000
 10
1742.142222
 20
1099.622722
 30
0.000000
 10
1742.477952
 20
1099.038734
 30
0.000000
 10
1743.024290
 20
1098.722716
 30
0.000000
  0
SPLINE
  5
119
330
1F
100
AcDbEntity
  8
0
 62
     7
100
AcDbSpline
210
0.000000
220
0.000000
230
1.0
 70
     8
 71
     3
 72
     8
 73
     4
 42
0.0000000001
 43
0.0000000001
 44
0.0000000001
 12
0.000000
 22
0.000000
 32
0.000000
 13
0.000000
 23
0.000000
 33
0.000000
 40
0.000000
 40
0.000000
 40
0.000000
 40
0.000000
 40
1.000000
 40
1.000000
 40
1.000000
 40
1.000000
 10
1743.024290
 20
1098.722716
 30
0.000000
 10
1743.570628
 20
1098.406697
 30
0.000000
 10
1744.243914
 20
1098.406697
 30
0.000000
 10
1744.790252
 20
1098.722716
 30
0.000000
  0
SPLINE
  5
120
330
1F
100
AcDbEntity
  8
0
 62
     7
100
AcDbSpline
210
0.000000
220
0.000000
230
1.0
 70
     8
 71
     3
 72
     8
 73
     4
 42
0.0000000001
 43
0.0000000001
 44
0.0000000001
 12
0.000000
 22
0.000000
 32
0.000000
 13
0.000000
 23
0.000000
 33
0.000000
 40
0.000000
 40
0.000000
 40
0.000000
 40
0.000000
 40
1.000000
 40
1.000000
 40
1.000000
 40
1.000000
 10
1726.636872
 20
1087.350845
 30
0.000000
 10
1731.240569
 20
1090.012738
 30
0.000000
 10
1734.075606
 20
1094.931872
 30
0.000000
 10
1734.073515
 20
1100.254442
 30
0.000000
  0
SPLINE
  5
121
330
1F
100
AcDbEntity
  8
0
 62
     7
100
AcDbSpline
210
0.000000
220
0.000000
230
1.0
 70
     8
 71
     3
 72
     8
 73
     4
 42
0.0000000001
 43
0.0000000001
 44
0.0000000001
 12
0.000000
 22
0.000000
 32
0.000000
 13
0.000000
 23
0.000000
 33
0.000000
 40
0.000000
 40
0.000000
 40
0.000000
 40
0.000000
 40
1.000000
 40
1.000000
 40
1.000000
 40
1.000000
 10
1734.073515
 20
1100.254442
 30
0.000000
 10
1734.076161
 20
1105.576985
 30
0.000000
 10
1731.240569
 20
1110.496145
 30
0.000000
 10
1726.636872
 20
1113.158012
 30
0.000000
  0
SPLINE
  5
122
330
1F
100
AcDbEntity
  8
0
 62
     7
100
AcDbSpline
210
0.000000
220
0.000000
230
1.0
 70
     8
 71
     3
 72
     8
 73
     4
 42
0.0000000001
 43
0.0000000001
 44
0.0000000001
 12
0.000000
 22
0.000000
 32
0.000000
 13
0.000000
 23
0.000000
 33
0.000000
 40
0.000000
 40
0.000000
 40
0.000000
 40
0.000000
 40
1.000000
 40
1.000000
 40
1.000000
 40
1.000000
 10
1726.636872
 20
1113.158012
 30
0.000000
 10
1722.033148
 20
1115.819905
 30
0.000000
 10
1716.360534
 20
1115.819905
 30
0.000000
 10
1711.756837
 20
1113.158012
 30
0.000000
  0
SPLINE
  5
123
330
1F
100
AcDbEntity
  8
0
 62
     7
100
AcDbSpline
210
0.000000
220
0.000000
230
1.0
 70
     8
 71
     3
 72
     8
 73
     4
 42
0.0000000001
 43
0.0000000001
 44
0.0000000001
 12
0.000000
 22
0.000000
 32
0.000000
 13
0.000000
 23
0.000000
 33
0.000000
 40
0.000000
 40
0.000000
 40
0.000000
 40
0.000000
 40
1.000000
 40
1.000000
 40
1.000000
 40
1.000000
 10
1711.756837
 20
1113.158012
 30
0.000000
 10
1707.153114
 20
1110.496145
 30
0.000000
 10
1704.318103
 20
1105.576985
 30
0.000000
 10
1704.320167
 20
1100.254442
 30
0.000000
  0
SPLINE
  5
124
330
1F
100
AcDbEntity
  8
0
 62
     7
100
AcDbSpline
210
0.000000
220
0.000000
230
1.0
 70
     8
 71
     3
 72
     8
 73
     4
 42
0.0000000001
 43
0.0000000001
 44
0.0000000001
 12
0.000000
 22
0.000000
 32
0.000000
 13
0.000000
 23
0.000000
 33
0.000000
 40
0.000000
 40
0.000000
 40
0.000000
 40
0.000000
 40
1.000000
 40
1.000000
 40
1.000000
 40
1.000000
 10
1704.320167
 20
1100.254442
 30
0.000000
 10
1704.317521
 20
1094.931872
 30
0.000000
 10
1707.153114
 20
1090.012738
 30
0.000000
 10
1711.756837
 20
1087.350845
 30
0.000000
  0
SPLINE
  5
125
330
1F
100
AcDbEntity
  8
0
 62
     7
100
AcDbSpline
210
0.000000
220
0.000000
230
1.0
 70
     8
 71
     3
 72
     8
 73
     4
 42
0.0000000001
 43
0.0000000001
 44
0.0000000001
 12
0.000000
 22
0.000000
 32
0.000000
 13
0.000000
 23
0.000000
 33
0.000000
 40
0.000000
 40
0.000000
 40
0.000000
 40
0.000000
 40
1.000000
 40
1.000000
 40
1.000000
 40
1.000000
 10
1630.819314
 20
1098.724065
 30
0.000000
 10
1631.365414
 20
1099.039739
 30
0.000000
 10
1631.701832
 20
1099.623093
 30
0.000000
 10
1631.701832
 20
1100.254442
 30
0.000000
  0
SPLINE
  5
126
330
1F
100
AcDbEntity
  8
0
 62
     7
100
AcDbSpline
210
0.000000
220
0.000000
230
1.0
 70
     8
 71
     3
 72
     8
 73
     4
 42
0.0000000001
 43
0.0000000001
 44
0.0000000001
 12
0.000000
 22
0.000000
 32
0.000000
 13
0.000000
 23
0.000000
 33
0.000000
 40
0.000000
 40
0.000000
 40
0.000000
 40
0.000000
 40
1.000000
 40
1.000000
 40
1.000000
 40
1.000000
 10
1631.701832
 20
1100.254442
 30
0.000000
 10
1631.701832
 20
1100.885764
 30
0.000000
 10
1631.365414
 20
1101.469117
 30
0.000000
 10
1630.819314
 20
1101.784791
 30
0.000000
  0
SPLINE
  5
127
330
1F
100
AcDbEntity
  8
0
 62
     7
100
AcDbSpline
210
0.000000
220
0.000000
230
1.0
 70
     8
 71
     3
 72
     8
 73
     4
 42
0.0000000001
 43
0.0000000001
 44
0.0000000001
 12
0.000000
 22
0.000000
 32
0.000000
 13
0.000000
 23
0.000000
 33
0.000000
 40
0.000000
 40
0.000000
 40
0.000000
 40
0.000000
 40
1.000000
 40
1.000000
 40
1.000000
 40
1.000000
 10
1630.819314
 20
1101.784791
 30
0.000000
 10
1630.273214
 20
1102.100439
 30
0.000000
 10
1629.600379
 20
1102.100439
 30
0.000000
 10
1629.054279
 20
1101.784791
 30
0.000000
  0
SPLINE
  5
128
330
1F
100
AcDbEntity
  8
0
 62
     7
100
AcDbSpline
210
0.000000
220
0.000000
230
1.0
 70
     8
 71
     3
 72
     8
 73
     4
 42
0.0000000001
 43
0.0000000001
 44
0.0000000001
 12
0.000000
 22
0.000000
 32
0.000000
 13
0.000000
 23
0.000000
 33
0.000000
 40
0.000000
 40
0.000000
 40
0.000000
 40
0.000000
 40
1.000000
 40
1.000000
 40
1.000000
 40
1.000000
 10
1629.054279
 20
1101.784791
 30
0.000000
 10
1628.508179
 20
1101.469117
 30
0.000000
 10
1628.171761
 20
1100.885764
 30
0.000000
 10
1628.171761
 20
1100.254442
 30
0.000000
  0
SPLINE
  5
129
330
1F
100
AcDbEntity
  8
0
 62
     7
100
AcDbSpline
210
0.000000
220
0.000000
230
1.0
 70
     8
 71
     3
 72
     8
 73
     4
 42
0.0000000001
 43
0.0000000001
 44
0.0000000001
 12
0.000000
 22
0.000000
 32
0.000000
 13
0.000000
 23
0.000000
 33
0.000000
 40
0.000000
 40
0.000000
 40
0.000000
 40
0.000000
 40
1.000000
 40
1.000000
 40
1.000000
 40
1.000000
 10
1628.171761
 20
1100.254442
 30
0.000000
 10
1628.171761
 20
1099.623093
 30
0.000000
 10
1628.508179
 20
1099.039739
 30
0.000000
 10
1629.054279
 20
1098.724065
 30
0.000000
  0
SPLINE
  5
130
330
1F
100
AcDbEntity
  8
0
 62
     7
100
AcDbSpline
210
0.000000
220
0.000000
230
1.0
 70
     8
 71
     3
 72
     8
 73
     4
 42
0.0000000001
 43
0.0000000001
 44
0.0000000001
 12
0.000000
 22
0.000000
 32
0.000000
 13
0.000000
 23
0.000000
 33
0.000000
 40
0.000000
 40
0.000000
 40
0.000000
 40
0.000000
 40
1.000000
 40
1.000000
 40
1.000000
 40
1.000000
 10
1629.054279
 20
1098.724065
 30
0.000000
 10
1629.600379
 20
1098.408417
 30
0.000000
 10
1630.273214
 20
1098.408417
 30
0.000000
 10
1630.819314
 20
1098.724065
 30
0.000000
  0
SPLINE
  5
131
330
1F
100
AcDbEntity
  8
0
 62
     7
100
AcDbSpline
210
0.000000
220
0.000000
230
1.0
 70
     8
 71
     3
 72
     8
 73
     4
 42
0.0000000001
 43
0.0000000001
 44
0.0000000001
 12
0.000000
 22
0.000000
 32
0.000000
 13
0.000000
 23
0.000000
 33
0.000000
 40
0.000000
 40
0.000000
 40
0.000000
 40
0.000000
 40
1.000000
 40
1.000000
 40
1.000000
 40
1.000000
 10
1532.986240
 20
1087.355687
 30
0.000000
 10
1537.589117
 20
1090.016284
 30
0.000000
 10
1540.424577
 20
1094.933247
 30
0.000000
 10
1540.424577
 20
1100.254442
 30
0.000000
  0
SPLINE
  5
132
330
1F
100
AcDbEntity
  8
0
 62
     7
100
AcDbSpline
210
0.000000
220
0.000000
230
1.0
 70
     8
 71
     3
 72
     8
 73
     4
 42
0.0000000001
 43
0.0000000001
 44
0.0000000001
 12
0.000000
 22
0.000000
 32
0.000000
 13
0.000000
 23
0.000000
 33
0.000000
 40
0.000000
 40
0.000000
 40
0.000000
 40
0.000000
 40
1.000000
 40
1.000000
 40
1.000000
 40
1.000000
 10
1540.424577
 20
1100.254442
 30
0.000000
 10
1540.424577
 20
1105.575609
 30
0.000000
 10
1537.589117
 20
1110.492573
 30
0.000000
 10
1532.986240
 20
1113.153170
 30
0.000000
  0
SPLINE
  5
133
330
1F
100
AcDbEntity
  8
0
 62
     7
100
AcDbSpline
210
0.000000
220
0.000000
230
1.0
 70
     8
 71
     3
 72
     8
 73
     4
 42
0.0000000001
 43
0.0000000001
 44
0.0000000001
 12
0.000000
 22
0.000000
 32
0.000000
 13
0.000000
 23
0.000000
 33
0.000000
 40
0.000000
 40
0.000000
 40
0.000000
 40
0.000000
 40
1.000000
 40
1.000000
 40
1.000000
 40
1.000000
 10
1532.986240
 20
1113.153170
 30
0.000000
 10
1528.383389
 20
1115.813741
 30
0.000000
 10
1522.712442
 20
1115.813741
 30
0.000000
 10
1518.109566
 20
1113.153170
 30
0.000000
  0
SPLINE
  5
134
330
1F
100
AcDbEntity
  8
0
 62
     7
100
AcDbSpline
210
0.000000
220
0.000000
230
1.0
 70
     8
 71
     3
 72
     8
 73
     4
 42
0.0000000001
 43
0.0000000001
 44
0.0000000001
 12
0.000000
 22
0.000000
 32
0.000000
 13
0.000000
 23
0.000000
 33
0.000000
 40
0.000000
 40
0.000000
 40
0.000000
 40
0.000000
 40
1.000000
 40
1.000000
 40
1.000000
 40
1.000000
 10
1518.109566
 20
1113.153170
 30
0.000000
 10
1513.506715
 20
1110.492573
 30
0.000000
 10
1510.671229
 20
1105.575609
 30
0.000000
 10
1510.671229
 20
1100.254442
 30
0.000000
  0
SPLINE
  5
135
330
1F
100
AcDbEntity
  8
0
 62
     7
100
AcDbSpline
210
0.000000
220
0.000000
230
1.0
 70
     8
 71
     3
 72
     8
 73
     4
 42
0.0000000001
 43
0.0000000001
 44
0.0000000001
 12
0.000000
 22
0.000000
 32
0.000000
 13
0.000000
 23
0.000000
 33
0.000000
 40
0.000000
 40
0.000000
 40
0.000000
 40
0.000000
 40
1.000000
 40
1.000000
 40
1.000000
 40
1.000000
 10
1510.671229
 20
1100.254442
 30
0.000000
 10
1510.671229
 20
1094.933247
 30
0.000000
 10
1513.506715
 20
1090.016284
 30
0.000000
 10
1518.109566
 20
1087.355687
 30
0.000000
  0
SPLINE
  5
136
330
1F
100
AcDbEntity
  8
0
 62
     7
100
AcDbSpline
210
0.000000
220
0.000000
230
1.0
 70
     8
 71
     3
 72
     8
 73
     4
 42
0.0000000001
 43
0.0000000001
 44
0.0000000001
 12
0.000000
 22
0.000000
 32
0.000000
 13
0.000000
 23
0.000000
 33
0.000000
 40
0.000000
 40
0.000000
 40
0.000000
 40
0.000000
 40
1.000000
 40
1.000000
 40
1.000000
 40
1.000000
 10
1501.720480
 20
1098.722716
 30
0.000000
 10
1502.266818
 20
1099.038734
 30
0.000000
 10
1502.603104
 20
1099.622722
 30
0.000000
 10
1502.602522
 20
1100.254442
 30
0.000000
  0
SPLINE
  5
137
330
1F
100
AcDbEntity
  8
0
 62
     7
100
AcDbSpline
210
0.000000
220
0.000000
230
1.0
 70
     8
 71
     3
 72
     8
 73
     4
 42
0.0000000001
 43
0.0000000001
 44
0.0000000001
 12
0.000000
 22
0.000000
 32
0.000000
 13
0.000000
 23
0.000000
 33
0.000000
 40
0.000000
 40
0.000000
 40
0.000000
 40
0.000000
 40
1.000000
 40
1.000000
 40
1.000000
 40
1.000000
 10
1502.602522
 20
1100.254442
 30
0.000000
 10
1502.602522
 20
1100.886134
 30
0.000000
 10
1502.266818
 20
1101.470123
 30
0.000000
 10
1501.720480
 20
1101.786141
 30
0.000000
  0
SPLINE
  5
138
330
1F
100
AcDbEntity
  8
0
 62
     7
100
AcDbSpline
210
0.000000
220
0.000000
230
1.0
 70
     8
 71
     3
 72
     8
 73
     4
 42
0.0000000001
 43
0.0000000001
 44
0.0000000001
 12
0.000000
 22
0.000000
 32
0.000000
 13
0.000000
 23
0.000000
 33
0.000000
 40
0.000000
 40
0.000000
 40
0.000000
 40
0.000000
 40
1.000000
 40
1.000000
 40
1.000000
 40
1.000000
 10
1501.720480
 20
1101.786141
 30
0.000000
 10
1501.174142
 20
1102.102159
 30
0.000000
 10
1500.500857
 20
1102.102159
 30
0.000000
 10
1499.954519
 20
1101.786141
 30
0.000000
  0
SPLINE
  5
139
330
1F
100
AcDbEntity
  8
0
 62
     7
100
AcDbSpline
210
0.000000
220
0.000000
230
1.0
 70
     8
 71
     3
 72
     8
 73
     4
 42
0.0000000001
 43
0.0000000001
 44
0.0000000001
 12
0.000000
 22
0.000000
 32
0.000000
 13
0.000000
 23
0.000000
 33
0.000000
 40
0.000000
 40
0.000000
 40
0.000000
 40
0.000000
 40
1.000000
 40
1.000000
 40
1.000000
 40
1.000000
 10
1499.954519
 20
1101.786141
 30
0.000000
 10
1499.408181
 20
1101.470123
 30
0.000000
 10
1499.071895
 20
1100.886134
 30
0.000000
 10
1499.072477
 20
1100.254442
 30
0.000000
  0
SPLINE
  5
140
330
1F
100
AcDbEntity
  8
0
 62
     7
100
AcDbSpline
210
0.000000
220
0.000000
230
1.0
 70
     8
 71
     3
 72
     8
 73
     4
 42
0.0000000001
 43
0.0000000001
 44
0.0000000001
 12
0.000000
 22
0.000000
 32
0.000000
 13
0.000000
 23
0.000000
 33
0.000000
 40
0.000000
 40
0.000000
 40
0.000000
 40
0.000000
 40
1.000000
 40
1.000000
 40
1.000000
 40
1.000000
 10
1499.072477
 20
1100.254442
 30
0.000000
 10
1499.072477
 20
1099.622722
 30
0.000000
 10
1499.408181
 20
1099.038734
 30
0.000000
 10
1499.954519
 20
1098.722716
 30
0.000000
  0
SPLINE
  5
141
330
1F
100
AcDbEntity
  8
0
 62
     7
100
AcDbSpline
210
0.000000
220
0.000000
230
1.0
 70
     8
 71
     3
 72
     8
 73
     4
 42
0.0000000001
 43
0.0000000001
 44
0.0000000001
 12
0.000000
 22
0.000000
 32
0.000000
 13
0.000000
 23
0.000000
 33
0.000000
 40
0.000000
 40
0.000000
 40
0.000000
 40
0.000000
 40
1.000000
 40
1.000000
 40
1.000000
 40
1.000000
 10
1499.954519
 20
1098.722716
 30
0.000000
 10
1500.500857
 20
1098.406697
 30
0.000000
 10
1501.174142
 20
1098.406697
 30
0.000000
 10
1501.720480
 20
1098.722716
 30
0.000000
  0
SPLINE
  5
142
330
1F
100
AcDbEntity
  8
0
 62
     7
100
AcDbSpline
210
0.000000
220
0.000000
230
1.0
 70
     8
 71
     3
 72
     8
 73
     4
 42
0.0000000001
 43
0.0000000001
 44
0.0000000001
 12
0.000000
 22
0.000000
 32
0.000000
 13
0.000000
 23
0.000000
 33
0.000000
 40
0.000000
 40
0.000000
 40
0.000000
 40
0.000000
 40
1.000000
 40
1.000000
 40
1.000000
 40
1.000000
 10
1662.086370
 20
1087.353279
 30
0.000000
 10
1666.689670
 20
1090.014511
 30
0.000000
 10
1669.524919
 20
1094.932559
 30
0.000000
 10
1669.523887
 20
1100.254442
 30
0.000000
  0
SPLINE
  5
143
330
1F
100
AcDbEntity
  8
0
 62
     7
100
AcDbSpline
210
0.000000
220
0.000000
230
1.0
 70
     8
 71
     3
 72
     8
 73
     4
 42
0.0000000001
 43
0.0000000001
 44
0.0000000001
 12
0.000000
 22
0.000000
 32
0.000000
 13
0.000000
 23
0.000000
 33
0.000000
 40
0.000000
 40
0.000000
 40
0.000000
 40
0.000000
 40
1.000000
 40
1.000000
 40
1.000000
 40
1.000000
 10
1669.523887
 20
1100.254442
 30
0.000000
 10
1669.523887
 20
1105.576297
 30
0.000000
 10
1666.689670
 20
1110.494346
 30
0.000000
 10
1662.086370
 20
1113.155578
 30
0.000000
  0
SPLINE
  5
144
330
1F
100
AcDbEntity
  8
0
 62
     7
100
AcDbSpline
210
0.000000
220
0.000000
230
1.0
 70
     8
 71
     3
 72
     8
 73
     4
 42
0.0000000001
 43
0.0000000001
 44
0.0000000001
 12
0.000000
 22
0.000000
 32
0.000000
 13
0.000000
 23
0.000000
 33
0.000000
 40
0.000000
 40
0.000000
 40
0.000000
 40
0.000000
 40
1.000000
 40
1.000000
 40
1.000000
 40
1.000000
 10
1662.086370
 20
1113.155578
 30
0.000000
 10
1657.483096
 20
1115.816810
 30
0.000000
 10
1651.811303
 20
1115.816810
 30
0.000000
 10
1647.208029
 20
1113.155578
 30
0.000000
  0
SPLINE
  5
145
330
1F
100
AcDbEntity
  8
0
 62
     7
100
AcDbSpline
210
0.000000
220
0.000000
230
1.0
 70
     8
 71
     3
 72
     8
 73
     4
 42
0.0000000001
 43
0.0000000001
 44
0.0000000001
 12
0.000000
 22
0.000000
 32
0.000000
 13
0.000000
 23
0.000000
 33
0.000000
 40
0.000000
 40
0.000000
 40
0.000000
 40
0.000000
 40
1.000000
 40
1.000000
 40
1.000000
 40
1.000000
 10
1647.208029
 20
1113.155578
 30
0.000000
 10
1642.604729
 20
1110.494346
 30
0.000000
 10
1639.769480
 20
1105.576297
 30
0.000000
 10
1639.770539
 20
1100.254442
 30
0.000000
  0
SPLINE
  5
146
330
1F
100
AcDbEntity
  8
0
 62
     7
100
AcDbSpline
210
0.000000
220
0.000000
230
1.0
 70
     8
 71
     3
 72
     8
 73
     4
 42
0.0000000001
 43
0.0000000001
 44
0.0000000001
 12
0.000000
 22
0.000000
 32
0.000000
 13
0.000000
 23
0.000000
 33
0.000000
 40
0.000000
 40
0.000000
 40
0.000000
 40
0.000000
 40
1.000000
 40
1.000000
 40
1.000000
 40
1.000000
 10
1639.770539
 20
1100.254442
 30
0.000000
 10
1639.770539
 20
1094.932559
 30
0.000000
 10
1642.604729
 20
1090.014511
 30
0.000000
 10
1647.208029
 20
1087.353279
 30
0.000000
  0
SPLINE
  5
147
330
1F
100
AcDbEntity
  8
0
 62
     7
100
AcDbSpline
210
0.000000
220
0.000000
230
1.0
 70
     8
 71
     3
 72
     8
 73
     4
 42
0.0000000001
 43
0.0000000001
 44
0.0000000001
 12
0.000000
 22
0.000000
 32
0.000000
 13
0.000000
 23
0.000000
 33
0.000000
 40
0.000000
 40
0.000000
 40
0.000000
 40
0.000000
 40
1.000000
 40
1.000000
 40
1.000000
 40
1.000000
 10
1680.240120
 20
1098.724065
 30
0.000000
 10
1680.786220
 20
1099.039739
 30
0.000000
 10
1681.122638
 20
1099.623093
 30
0.000000
 10
1681.122638
 20
1100.254442
 30
0.000000
  0
SPLINE
  5
148
330
1F
100
AcDbEntity
  8
0
 62
     7
100
AcDbSpline
210
0.000000
220
0.000000
230
1.0
 70
     8
 71
     3
 72
     8
 73
     4
 42
0.0000000001
 43
0.0000000001
 44
0.0000000001
 12
0.000000
 22
0.000000
 32
0.000000
 13
0.000000
 23
0.000000
 33
0.000000
 40
0.000000
 40
0.000000
 40
0.000000
 40
0.000000
 40
1.000000
 40
1.000000
 40
1.000000
 40
1.000000
 10
1681.122638
 20
1100.254442
 30
0.000000
 10
1681.122638
 20
1100.885764
 30
0.000000
 10
1680.786220
 20
1101.469117
 30
0.000000
 10
1680.240120
 20
1101.784791
 30
0.000000
  0
SPLINE
  5
149
330
1F
100
AcDbEntity
  8
0
 62
     7
100
AcDbSpline
210
0.000000
220
0.000000
230
1.0
 70
     8
 71
     3
 72
     8
 73
     4
 42
0.0000000001
 43
0.0000000001
 44
0.0000000001
 12
0.000000
 22
0.000000
 32
0.000000
 13
0.000000
 23
0.000000
 33
0.000000
 40
0.000000
 40
0.000000
 40
0.000000
 40
0.000000
 40
1.000000
 40
1.000000
 40
1.000000
 40
1.000000
 10
1680.240120
 20
1101.784791
 30
0.000000
 10
1679.694020
 20
1102.100439
 30
0.000000
 10
1679.021211
 20
1102.100439
 30
0.000000
 10
1678.475085
 20
1101.784791
 30
0.000000
  0
SPLINE
  5
150
330
1F
100
AcDbEntity
  8
0
 62
     7
100
AcDbSpline
210
0.000000
220
0.000000
230
1.0
 70
     8
 71
     3
 72
     8
 73
     4
 42
0.0000000001
 43
0.0000000001
 44
0.0000000001
 12
0.000000
 22
0.000000
 32
0.000000
 13
0.000000
 23
0.000000
 33
0.000000
 40
0.000000
 40
0.000000
 40
0.000000
 40
0.000000
 40
1.000000
 40
1.000000
 40
1.000000
 40
1.000000
 10
1678.475085
 20
1101.784791
 30
0.000000
 10
1677.928985
 20
1101.469117
 30
0.000000
 10
1677.592594
 20
1100.885764
 30
0.000000
 10
1677.592594
 20
1100.254442
 30
0.000000
  0
SPLINE
  5
151
330
1F
100
AcDbEntity
  8
0
 62
     7
100
AcDbSpline
210
0.000000
220
0.000000
230
1.0
 70
     8
 71
     3
 72
     8
 73
     4
 42
0.0000000001
 43
0.0000000001
 44
0.0000000001
 12
0.000000
 22
0.000000
 32
0.000000
 13
0.000000
 23
0.000000
 33
0.000000
 40
0.000000
 40
0.000000
 40
0.000000
 40
0.000000
 40
1.000000
 40
1.000000
 40
1.000000
 40
1.000000
 10
1677.592594
 20
1100.254442
 30
0.000000
 10
1677.592594
 20
1099.623093
 30
0.000000
 10
1677.928985
 20
1099.039739
 30
0.000000
 10
1678.475085
 20
1098.724065
 30
0.000000
  0
SPLINE
  5
152
330
1F
100
AcDbEntity
  8
0
 62
     7
100
AcDbSpline
210
0.000000
220
0.000000
230
1.0
 70
     8
 71
     3
 72
     8
 73
     4
 42
0.0000000001
 43
0.0000000001
 44
0.0000000001
 12
0.000000
 22
0.000000
 32
0.000000
 13
0.000000
 23
0.000000
 33
0.000000
 40
0.000000
 40
0.000000
 40
0.000000
 40
0.000000
 40
1.000000
 40
1.000000
 40
1.000000
 40
1.000000
 10
1678.475085
 20
1098.724065
 30
0.000000
 10
1679.021211
 20
1098.408417
 30
0.000000
 10
1679.694020
 20
1098.408417
 30
0.000000
 10
1680.240120
 20
1098.724065
 30
0.000000
  0
SPLINE
  5
153
330
1F
100
AcDbEntity
  8
0
 62
     7
100
AcDbSpline
210
0.000000
220
0.000000
230
1.0
 70
     8
 71
     3
 72
     8
 73
     4
 42
0.0000000001
 43
0.0000000001
 44
0.0000000001
 12
0.000000
 22
0.000000
 32
0.000000
 13
0.000000
 23
0.000000
 33
0.000000
 40
0.000000
 40
0.000000
 40
0.000000
 40
0.000000
 40
1.000000
 40
1.000000
 40
1.000000
 40
1.000000
 10
1566.269659
 20
1098.724065
 30
0.000000
 10
1566.815759
 20
1099.039739
 30
0.000000
 10
1567.152177
 20
1099.623093
 30
0.000000
 10
1567.152177
 20
1100.254442
 30
0.000000
  0
SPLINE
  5
154
330
1F
100
AcDbEntity
  8
0
 62
     7
100
AcDbSpline
210
0.000000
220
0.000000
230
1.0
 70
     8
 71
     3
 72
     8
 73
     4
 42
0.0000000001
 43
0.0000000001
 44
0.0000000001
 12
0.000000
 22
0.000000
 32
0.000000
 13
0.000000
 23
0.000000
 33
0.000000
 40
0.000000
 40
0.000000
 40
0.000000
 40
0.000000
 40
1.000000
 40
1.000000
 40
1.000000
 40
1.000000
 10
1567.152177
 20
1100.254442
 30
0.000000
 10
1567.152177
 20
1100.885764
 30
0.000000
 10
1566.815759
 20
1101.469117
 30
0.000000
 10
1566.269659
 20
1101.784791
 30
0.000000
  0
SPLINE
  5
155
330
1F
100
AcDbEntity
  8
0
 62
     7
100
AcDbSpline
210
0.000000
220
0.000000
230
1.0
 70
     8
 71
     3
 72
     8
 73
     4
 42
0.0000000001
 43
0.0000000001
 44
0.0000000001
 12
0.000000
 22
0.000000
 32
0.000000
 13
0.000000
 23
0.000000
 33
0.000000
 40
0.000000
 40
0.000000
 40
0.000000
 40
0.000000
 40
1.000000
 40
1.000000
 40
1.000000
 40
1.000000
 10
1566.269659
 20
1101.784791
 30
0.000000
 10
1565.723559
 20
1102.100439
 30
0.000000
 10
1565.050724
 20
1102.100439
 30
0.000000
 10
1564.504624
 20
1101.784791
 30
0.000000
  0
SPLINE
  5
156
330
1F
100
AcDbEntity
  8
0
 62
     7
100
AcDbSpline
210
0.000000
220
0.000000
230
1.0
 70
     8
 71
     3
 72
     8
 73
     4
 42
0.0000000001
 43
0.0000000001
 44
0.0000000001
 12
0.000000
 22
0.000000
 32
0.000000
 13
0.000000
 23
0.000000
 33
0.000000
 40
0.000000
 40
0.000000
 40
0.000000
 40
0.000000
 40
1.000000
 40
1.000000
 40
1.000000
 40
1.000000
 10
1564.504624
 20
1101.784791
 30
0.000000
 10
1563.958524
 20
1101.469117
 30
0.000000
 10
1563.622106
 20
1100.885764
 30
0.000000
 10
1563.622106
 20
1100.254442
 30
0.000000
  0
SPLINE
  5
157
330
1F
100
AcDbEntity
  8
0
 62
     7
100
AcDbSpline
210
0.000000
220
0.000000
230
1.0
 70
     8
 71
     3
 72
     8
 73
     4
 42
0.0000000001
 43
0.0000000001
 44
0.0000000001
 12
0.000000
 22
0.000000
 32
0.000000
 13
0.000000
 23
0.000000
 33
0.000000
 40
0.000000
 40
0.000000
 40
0.000000
 40
0.000000
 40
1.000000
 40
1.000000
 40
1.000000
 40
1.000000
 10
1563.622106
 20
1100.254442
 30
0.000000
 10
1563.622106
 20
1099.623093
 30
0.000000
 10
1563.958524
 20
1099.039739
 30
0.000000
 10
1564.504624
 20
1098.724065
 30
0.000000
  0
SPLINE
  5
158
330
1F
100
AcDbEntity
  8
0
 62
     7
100
AcDbSpline
210
0.000000
220
0.000000
230
1.0
 70
     8
 71
     3
 72
     8
 73
     4
 42
0.0000000001
 43
0.0000000001
 44
0.0000000001
 12
0.000000
 22
0.000000
 32
0.000000
 13
0.000000
 23
0.000000
 33
0.000000
 40
0.000000
 40
0.000000
 40
0.000000
 40
0.000000
 40
1.000000
 40
1.000000
 40
1.000000
 40
1.000000
 10
1564.504624
 20
1098.724065
 30
0.000000
 10
1565.050724
 20
1098.408417
 30
0.000000
 10
1565.723559
 20
1098.408417
 30
0.000000
 10
1566.269659
 20
1098.724065
 30
0.000000
  0
SPLINE
  5
159
330
1F
100
AcDbEntity
  8
0
 62
     7
100
AcDbSpline
210
0.000000
220
0.000000
230
1.0
 70
     8
 71
     3
 72
     8
 73
     4
 42
0.0000000001
 43
0.0000000001
 44
0.0000000001
 12
0.000000
 22
0.000000
 32
0.000000
 13
0.000000
 23
0.000000
 33
0.000000
 40
0.000000
 40
0.000000
 40
0.000000
 40
0.000000
 40
1.000000
 40
1.000000
 40
1.000000
 40
1.000000
 10
1615.690915
 20
1098.722848
 30
0.000000
 10
1616.237227
 20
1099.038840
 30
0.000000
 10
1616.573512
 20
1099.622749
 30
0.000000
 10
1616.573010
 20
1100.254442
 30
0.000000
  0
SPLINE
  5
160
330
1F
100
AcDbEntity
  8
0
 62
     7
100
AcDbSpline
210
0.000000
220
0.000000
230
1.0
 70
     8
 71
     3
 72
     8
 73
     4
 42
0.0000000001
 43
0.0000000001
 44
0.0000000001
 12
0.000000
 22
0.000000
 32
0.000000
 13
0.000000
 23
0.000000
 33
0.000000
 40
0.000000
 40
0.000000
 40
0.000000
 40
0.000000
 40
1.000000
 40
1.000000
 40
1.000000
 40
1.000000
 10
1616.573010
 20
1100.254442
 30
0.000000
 10
1616.573010
 20
1100.886108
 30
0.000000
 10
1616.237227
 20
1101.470017
 30
0.000000
 10
1615.690915
 20
1101.786009
 30
0.000000
  0
SPLINE
  5
161
330
1F
100
AcDbEntity
  8
0
 62
     7
100
AcDbSpline
210
0.000000
220
0.000000
230
1.0
 70
     8
 71
     3
 72
     8
 73
     4
 42
0.0000000001
 43
0.0000000001
 44
0.0000000001
 12
0.000000
 22
0.000000
 32
0.000000
 13
0.000000
 23
0.000000
 33
0.000000
 40
0.000000
 40
0.000000
 40
0.000000
 40
0.000000
 40
1.000000
 40
1.000000
 40
1.000000
 40
1.000000
 10
1615.690915
 20
1101.786009
 30
0.000000
 10
1615.144577
 20
1102.101974
 30
0.000000
 10
1614.471345
 20
1102.101974
 30
0.000000
 10
1613.925033
 20
1101.786009
 30
0.000000
  0
SPLINE
  5
162
330
1F
100
AcDbEntity
  8
0
 62
     7
100
AcDbSpline
210
0.000000
220
0.000000
230
1.0
 70
     8
 71
     3
 72
     8
 73
     4
 42
0.0000000001
 43
0.0000000001
 44
0.0000000001
 12
0.000000
 22
0.000000
 32
0.000000
 13
0.000000
 23
0.000000
 33
0.000000
 40
0.000000
 40
0.000000
 40
0.000000
 40
0.000000
 40
1.000000
 40
1.000000
 40
1.000000
 40
1.000000
 10
1613.925033
 20
1101.786009
 30
0.000000
 10
1613.378721
 20
1101.470017
 30
0.000000
 10
1613.042410
 20
1100.886108
 30
0.000000
 10
1613.042939
 20
1100.254442
 30
0.000000
  0
SPLINE
  5
163
330
1F
100
AcDbEntity
  8
0
 62
     7
100
AcDbSpline
210
0.000000
220
0.000000
230
1.0
 70
     8
 71
     3
 72
     8
 73
     4
 42
0.0000000001
 43
0.0000000001
 44
0.0000000001
 12
0.000000
 22
0.000000
 32
0.000000
 13
0.000000
 23
0.000000
 33
0.000000
 40
0.000000
 40
0.000000
 40
0.000000
 40
0.000000
 40
1.000000
 40
1.000000
 40
1.000000
 40
1.000000
 10
1613.042939
 20
1100.254442
 30
0.000000
 10
1613.042939
 20
1099.622749
 30
0.000000
 10
1613.378721
 20
1099.038840
 30
0.000000
 10
1613.925033
 20
1098.722848
 30
0.000000
  0
SPLINE
  5
164
330
1F
100
AcDbEntity
  8
0
 62
     7
100
AcDbSpline
210
0.000000
220
0.000000
230
1.0
 70
     8
 71
     3
 72
     8
 73
     4
 42
0.0000000001
 43
0.0000000001
 44
0.0000000001
 12
0.000000
 22
0.000000
 32
0.000000
 13
0.000000
 23
0.000000
 33
0.000000
 40
0.000000
 40
0.000000
 40
0.000000
 40
0.000000
 40
1.000000
 40
1.000000
 40
1.000000
 40
1.000000
 10
1613.925033
 20
1098.722848
 30
0.000000
 10
1614.471345
 20
1098.406883
 30
0.000000
 10
1615.144577
 20
1098.406883
 30
0.000000
 10
1615.690915
 20
1098.722848
 30
0.000000
  0
SPLINE
  5
165
330
1F
100
AcDbEntity
  8
0
 62
     7
100
AcDbSpline
210
0.000000
220
0.000000
230
1.0
 70
     8
 71
     3
 72
     8
 73
     4
 42
0.0000000001
 43
0.0000000001
 44
0.0000000001
 12
0.000000
 22
0.000000
 32
0.000000
 13
0.000000
 23
0.000000
 33
0.000000
 40
0.000000
 40
0.000000
 40
0.000000
 40
0.000000
 40
1.000000
 40
1.000000
 40
1.000000
 40
1.000000
 10
1597.536741
 20
1087.353279
 30
0.000000
 10
1602.140015
 20
1090.014511
 30
0.000000
 10
1604.975264
 20
1094.932559
 30
0.000000
 10
1604.974232
 20
1100.254442
 30
0.000000
  0
SPLINE
  5
166
330
1F
100
AcDbEntity
  8
0
 62
     7
100
AcDbSpline
210
0.000000
220
0.000000
230
1.0
 70
     8
 71
     3
 72
     8
 73
     4
 42
0.0000000001
 43
0.0000000001
 44
0.0000000001
 12
0.000000
 22
0.000000
 32
0.000000
 13
0.000000
 23
0.000000
 33
0.000000
 40
0.000000
 40
0.000000
 40
0.000000
 40
0.000000
 40
1.000000
 40
1.000000
 40
1.000000
 40
1.000000
 10
1604.974232
 20
1100.254442
 30
0.000000
 10
1604.974232
 20
1105.576297
 30
0.000000
 10
1602.140015
 20
1110.494346
 30
0.000000
 10
1597.536741
 20
1113.155578
 30
0.000000
  0
SPLINE
  5
167
330
1F
100
AcDbEntity
  8
0
 62
     7
100
AcDbSpline
210
0.000000
220
0.000000
230
1.0
 70
     8
 71
     3
 72
     8
 73
     4
 42
0.0000000001
 43
0.0000000001
 44
0.0000000001
 12
0.000000
 22
0.000000
 32
0.000000
 13
0.000000
 23
0.000000
 33
0.000000
 40
0.000000
 40
0.000000
 40
0.000000
 40
0.000000
 40
1.000000
 40
1.000000
 40
1.000000
 40
1.000000
 10
1597.536741
 20
1113.155578
 30
0.000000
 10
1592.933441
 20
1115.816810
 30
0.000000
 10
1587.261674
 20
1115.816810
 30
0.000000
 10
1582.658374
 20
1113.155578
 30
0.000000
  0
SPLINE
  5
168
330
1F
100
AcDbEntity
  8
0
 62
     7
100
AcDbSpline
210
0.000000
220
0.000000
230
1.0
 70
     8
 71
     3
 72
     8
 73
     4
 42
0.0000000001
 43
0.0000000001
 44
0.0000000001
 12
0.000000
 22
0.000000
 32
0.000000
 13
0.000000
 23
0.000000
 33
0.000000
 40
0.000000
 40
0.000000
 40
0.000000
 40
0.000000
 40
1.000000
 40
1.000000
 40
1.000000
 40
1.000000
 10
1582.658374
 20
1113.155578
 30
0.000000
 10
1578.055100
 20
1110.494346
 30
0.000000
 10
1575.219852
 20
1105.576297
 30
0.000000
 10
1575.220884
 20
1100.254442
 30
0.000000
  0
SPLINE
  5
169
330
1F
100
AcDbEntity
  8
0
 62
     7
100
AcDbSpline
210
0.000000
220
0.000000
230
1.0
 70
     8
 71
     3
 72
     8
 73
     4
 42
0.0000000001
 43
0.0000000001
 44
0.0000000001
 12
0.000000
 22
0.000000
 32
0.000000
 13
0.000000
 23
0.000000
 33
0.000000
 40
0.000000
 40
0.000000
 40
0.000000
 40
0.000000
 40
1.000000
 40
1.000000
 40
1.000000
 40
1.000000
 10
1575.220884
 20
1100.254442
 30
0.000000
 10
1575.220884
 20
1094.932559
 30
0.000000
 10
1578.055100
 20
1090.014511
 30
0.000000
 10
1582.658374
 20
1087.353279
 30
0.000000
  0
SPLINE
  5
170
330
1F
100
AcDbEntity
  8
0
 62
     7
100
AcDbSpline
210
0.000000
220
0.000000
230
1.0
 70
     8
 71
     3
 72
     8
 73
     4
 42
0.0000000001
 43
0.0000000001
 44
0.0000000001
 12
0.000000
 22
0.000000
 32
0.000000
 13
0.000000
 23
0.000000
 33
0.000000
 40
0.000000
 40
0.000000
 40
0.000000
 40
0.000000
 40
1.000000
 40
1.000000
 40
1.000000
 40
1.000000
 10
1551.141631
 20
1098.721763
 30
0.000000
 10
1551.688154
 20
1099.038046
 30
0.000000
 10
1552.024334
 20
1099.622458
 30
0.000000
 10
1552.023355
 20
1100.254442
 30
0.000000
  0
SPLINE
  5
171
330
1F
100
AcDbEntity
  8
0
 62
     7
100
AcDbSpline
210
0.000000
220
0.000000
230
1.0
 70
     8
 71
     3
 72
     8
 73
     4
 42
0.0000000001
 43
0.0000000001
 44
0.0000000001
 12
0.000000
 22
0.000000
 32
0.000000
 13
0.000000
 23
0.000000
 33
0.000000
 40
0.000000
 40
0.000000
 40
0.000000
 40
0.000000
 40
1.000000
 40
1.000000
 40
1.000000
 40
1.000000
 10
1552.023355
 20
1100.254442
 30
0.000000
 10
1552.023355
 20
1100.886425
 30
0.000000
 10
1551.688154
 20
1101.470810
 30
0.000000
 10
1551.141631
 20
1101.787093
 30
0.000000
  0
SPLINE
  5
172
330
1F
100
AcDbEntity
  8
0
 62
     7
100
AcDbSpline
210
0.000000
220
0.000000
230
1.0
 70
     8
 71
     3
 72
     8
 73
     4
 42
0.0000000001
 43
0.0000000001
 44
0.0000000001
 12
0.000000
 22
0.000000
 32
0.000000
 13
0.000000
 23
0.000000
 33
0.000000
 40
0.000000
 40
0.000000
 40
0.000000
 40
0.000000
 40
1.000000
 40
1.000000
 40
1.000000
 40
1.000000
 10
1551.141631
 20
1101.787093
 30
0.000000
 10
1550.595134
 20
1102.103376
 30
0.000000
 10
1549.921531
 20
1102.103376
 30
0.000000
 10
1549.375008
 20
1101.787093
 30
0.000000
  0
SPLINE
  5
173
330
1F
100
AcDbEntity
  8
0
 62
     7
100
AcDbSpline
210
0.000000
220
0.000000
230
1.0
 70
     8
 71
     3
 72
     8
 73
     4
 42
0.0000000001
 43
0.0000000001
 44
0.0000000001
 12
0.000000
 22
0.000000
 32
0.000000
 13
0.000000
 23
0.000000
 33
0.000000
 40
0.000000
 40
0.000000
 40
0.000000
 40
0.000000
 40
1.000000
 40
1.000000
 40
1.000000
 40
1.000000
 10
1549.375008
 20
1101.787093
 30
0.000000
 10
1548.828511
 20
1101.470810
 30
0.000000
 10
1548.492305
 20
1100.886425
 30
0.000000
 10
1548.493284
 20
1100.254442
 30
0.000000
  0
SPLINE
  5
174
330
1F
100
AcDbEntity
  8
0
 62
     7
100
AcDbSpline
210
0.000000
220
0.000000
230
1.0
 70
     8
 71
     3
 72
     8
 73
     4
 42
0.0000000001
 43
0.0000000001
 44
0.0000000001
 12
0.000000
 22
0.000000
 32
0.000000
 13
0.000000
 23
0.000000
 33
0.000000
 40
0.000000
 40
0.000000
 40
0.000000
 40
0.000000
 40
1.000000
 40
1.000000
 40
1.000000
 40
1.000000
 10
1548.493284
 20
1100.254442
 30
0.000000
 10
1548.493284
 20
1099.622458
 30
0.000000
 10
1548.828511
 20
1099.038046
 30
0.000000
 10
1549.375008
 20
1098.721763
 30
0.000000
  0
SPLINE
  5
175
330
1F
100
AcDbEntity
  8
0
 62
     7
100
AcDbSpline
210
0.000000
220
0.000000
230
1.0
 70
     8
 71
     3
 72
     8
 73
     4
 42
0.0000000001
 43
0.0000000001
 44
0.0000000001
 12
0.000000
 22
0.000000
 32
0.000000
 13
0.000000
 23
0.000000
 33
0.000000
 40
0.000000
 40
0.000000
 40
0.000000
 40
0.000000
 40
1.000000
 40
1.000000
 40
1.000000
 40
1.000000
 10
1549.375008
 20
1098.721763
 30
0.000000
 10
1549.921531
 20
1098.405480
 30
0.000000
 10
1550.595134
 20
1098.405480
 30
0.000000
 10
1551.141631
 20
1098.721763
 30
0.000000
  0
SPLINE
  5
176
330
1F
100
AcDbEntity
  8
0
 62
     7
100
AcDbSpline
210
0.000000
220
0.000000
230
1.0
 70
     8
 71
     3
 72
     8
 73
     4
 42
0.0000000001
 43
0.0000000001
 44
0.0000000001
 12
0.000000
 22
0.000000
 32
0.000000
 13
0.000000
 23
0.000000
 33
0.000000
 40
0.000000
 40
0.000000
 40
0.000000
 40
0.000000
 40
1.000000
 40
1.000000
 40
1.000000
 40
1.000000
 10
1681.756837
 20
1036.350845
 30
0.000000
 10
1686.360534
 20
1033.688951
 30
0.000000
 10
1692.033148
 20
1033.688951
 30
0.000000
 10
1696.636872
 20
1036.350845
 30
0.000000
  0
SPLINE
  5
177
330
1F
100
AcDbEntity
  8
0
 62
     7
100
AcDbSpline
210
0.000000
220
0.000000
230
1.0
 70
     8
 71
     3
 72
     8
 73
     4
 42
0.0000000001
 43
0.0000000001
 44
0.0000000001
 12
0.000000
 22
0.000000
 32
0.000000
 13
0.000000
 23
0.000000
 33
0.000000
 40
0.000000
 40
0.000000
 40
0.000000
 40
0.000000
 40
1.000000
 40
1.000000
 40
1.000000
 40
1.000000
 10
1617.208029
 20
1036.353279
 30
0.000000
 10
1621.811303
 20
1033.692047
 30
0.000000
 10
1627.483096
 20
1033.692047
 30
0.000000
 10
1632.086370
 20
1036.353279
 30
0.000000
  0
SPLINE
  5
178
330
1F
100
AcDbEntity
  8
0
 62
     7
100
AcDbSpline
210
0.000000
220
0.000000
230
1.0
 70
     8
 71
     3
 72
     8
 73
     4
 42
0.0000000001
 43
0.0000000001
 44
0.0000000001
 12
0.000000
 22
0.000000
 32
0.000000
 13
0.000000
 23
0.000000
 33
0.000000
 40
0.000000
 40
0.000000
 40
0.000000
 40
0.000000
 40
1.000000
 40
1.000000
 40
1.000000
 40
1.000000
 10
1552.658374
 20
1036.353279
 30
0.000000
 10
1557.261674
 20
1033.692047
 30
0.000000
 10
1562.933441
 20
1033.692047
 30
0.000000
 10
1567.536741
 20
1036.353279
 30
0.000000
  0
SPLINE
  5
179
330
1F
100
AcDbEntity
  8
0
 62
     7
100
AcDbSpline
210
0.000000
220
0.000000
230
1.0
 70
     8
 71
     3
 72
     8
 73
     4
 42
0.0000000001
 43
0.0000000001
 44
0.0000000001
 12
0.000000
 22
0.000000
 32
0.000000
 13
0.000000
 23
0.000000
 33
0.000000
 40
0.000000
 40
0.000000
 40
0.000000
 40
0.000000
 40
1.000000
 40
1.000000
 40
1.000000
 40
1.000000
 10
1665.369419
 20
1047.722716
 30
0.000000
 10
1665.915757
 20
1048.038734
 30
0.000000
 10
1666.252042
 20
1048.622722
 30
0.000000
 10
1666.251460
 20
1049.254442
 30
0.000000
  0
SPLINE
  5
180
330
1F
100
AcDbEntity
  8
0
 62
     7
100
AcDbSpline
210
0.000000
220
0.000000
230
1.0
 70
     8
 71
     3
 72
     8
 73
     4
 42
0.0000000001
 43
0.0000000001
 44
0.0000000001
 12
0.000000
 22
0.000000
 32
0.000000
 13
0.000000
 23
0.000000
 33
0.000000
 40
0.000000
 40
0.000000
 40
0.000000
 40
0.000000
 40
1.000000
 40
1.000000
 40
1.000000
 40
1.000000
 10
1666.251460
 20
1049.254442
 30
0.000000
 10
1666.251460
 20
1049.886134
 30
0.000000
 10
1665.915757
 20
1050.470123
 30
0.000000
 10
1665.369419
 20
1050.786141
 30
0.000000
  0
SPLINE
  5
181
330
1F
100
AcDbEntity
  8
0
 62
     7
100
AcDbSpline
210
0.000000
220
0.000000
230
1.0
 70
     8
 71
     3
 72
     8
 73
     4
 42
0.0000000001
 43
0.0000000001
 44
0.0000000001
 12
0.000000
 22
0.000000
 32
0.000000
 13
0.000000
 23
0.000000
 33
0.000000
 40
0.000000
 40
0.000000
 40
0.000000
 40
0.000000
 40
1.000000
 40
1.000000
 40
1.000000
 40
1.000000
 10
1665.369419
 20
1050.786141
 30
0.000000
 10
1664.823081
 20
1051.102159
 30
0.000000
 10
1664.149795
 20
1051.102159
 30
0.000000
 10
1663.603457
 20
1050.786141
 30
0.000000
  0
SPLINE
  5
182
330
1F
100
AcDbEntity
  8
0
 62
     7
100
AcDbSpline
210
0.000000
220
0.000000
230
1.0
 70
     8
 71
     3
 72
     8
 73
     4
 42
0.0000000001
 43
0.0000000001
 44
0.0000000001
 12
0.000000
 22
0.000000
 32
0.000000
 13
0.000000
 23
0.000000
 33
0.000000
 40
0.000000
 40
0.000000
 40
0.000000
 40
0.000000
 40
1.000000
 40
1.000000
 40
1.000000
 40
1.000000
 10
1663.603457
 20
1050.786141
 30
0.000000
 10
1663.057119
 20
1050.470123
 30
0.000000
 10
1662.720834
 20
1049.886134
 30
0.000000
 10
1662.721416
 20
1049.254442
 30
0.000000
  0
SPLINE
  5
183
330
1F
100
AcDbEntity
  8
0
 62
     7
100
AcDbSpline
210
0.000000
220
0.000000
230
1.0
 70
     8
 71
     3
 72
     8
 73
     4
 42
0.0000000001
 43
0.0000000001
 44
0.0000000001
 12
0.000000
 22
0.000000
 32
0.000000
 13
0.000000
 23
0.000000
 33
0.000000
 40
0.000000
 40
0.000000
 40
0.000000
 40
0.000000
 40
1.000000
 40
1.000000
 40
1.000000
 40
1.000000
 10
1662.721416
 20
1049.254442
 30
0.000000
 10
1662.721416
 20
1048.622722
 30
0.000000
 10
1663.057119
 20
1048.038734
 30
0.000000
 10
1663.603457
 20
1047.722716
 30
0.000000
  0
SPLINE
  5
184
330
1F
100
AcDbEntity
  8
0
 62
     7
100
AcDbSpline
210
0.000000
220
0.000000
230
1.0
 70
     8
 71
     3
 72
     8
 73
     4
 42
0.0000000001
 43
0.0000000001
 44
0.0000000001
 12
0.000000
 22
0.000000
 32
0.000000
 13
0.000000
 23
0.000000
 33
0.000000
 40
0.000000
 40
0.000000
 40
0.000000
 40
0.000000
 40
1.000000
 40
1.000000
 40
1.000000
 40
1.000000
 10
1663.603457
 20
1047.722716
 30
0.000000
 10
1664.149795
 20
1047.406697
 30
0.000000
 10
1664.823081
 20
1047.406697
 30
0.000000
 10
1665.369419
 20
1047.722716
 30
0.000000
  0
SPLINE
  5
185
330
1F
100
AcDbEntity
  8
0
 62
     7
100
AcDbSpline
210
0.000000
220
0.000000
230
1.0
 70
     8
 71
     3
 72
     8
 73
     4
 42
0.0000000001
 43
0.0000000001
 44
0.0000000001
 12
0.000000
 22
0.000000
 32
0.000000
 13
0.000000
 23
0.000000
 33
0.000000
 40
0.000000
 40
0.000000
 40
0.000000
 40
0.000000
 40
1.000000
 40
1.000000
 40
1.000000
 40
1.000000
 10
1714.790252
 20
1047.722716
 30
0.000000
 10
1715.336590
 20
1048.038734
 30
0.000000
 10
1715.672875
 20
1048.622722
 30
0.000000
 10
1715.672293
 20
1049.254442
 30
0.000000
  0
SPLINE
  5
186
330
1F
100
AcDbEntity
  8
0
 62
     7
100
AcDbSpline
210
0.000000
220
0.000000
230
1.0
 70
     8
 71
     3
 72
     8
 73
     4
 42
0.0000000001
 43
0.0000000001
 44
0.0000000001
 12
0.000000
 22
0.000000
 32
0.000000
 13
0.000000
 23
0.000000
 33
0.000000
 40
0.000000
 40
0.000000
 40
0.000000
 40
0.000000
 40
1.000000
 40
1.000000
 40
1.000000
 40
1.000000
 10
1715.672293
 20
1049.254442
 30
0.000000
 10
1715.672293
 20
1049.886134
 30
0.000000
 10
1715.336590
 20
1050.470123
 30
0.000000
 10
1714.790252
 20
1050.786141
 30
0.000000
  0
SPLINE
  5
187
330
1F
100
AcDbEntity
  8
0
 62
     7
100
AcDbSpline
210
0.000000
220
0.000000
230
1.0
 70
     8
 71
     3
 72
     8
 73
     4
 42
0.0000000001
 43
0.0000000001
 44
0.0000000001
 12
0.000000
 22
0.000000
 32
0.000000
 13
0.000000
 23
0.000000
 33
0.000000
 40
0.000000
 40
0.000000
 40
0.000000
 40
0.000000
 40
1.000000
 40
1.000000
 40
1.000000
 40
1.000000
 10
1714.790252
 20
1050.786141
 30
0.000000
 10
1714.243914
 20
1051.102159
 30
0.000000
 10
1713.570628
 20
1051.102159
 30
0.000000
 10
1713.024290
 20
1050.786141
 30
0.000000
  0
SPLINE
  5
188
330
1F
100
AcDbEntity
  8
0
 62
     7
100
AcDbSpline
210
0.000000
220
0.000000
230
1.0
 70
     8
 71
     3
 72
     8
 73
     4
 42
0.0000000001
 43
0.0000000001
 44
0.0000000001
 12
0.000000
 22
0.000000
 32
0.000000
 13
0.000000
 23
0.000000
 33
0.000000
 40
0.000000
 40
0.000000
 40
0.000000
 40
0.000000
 40
1.000000
 40
1.000000
 40
1.000000
 40
1.000000
 10
1713.024290
 20
1050.786141
 30
0.000000
 10
1712.477952
 20
1050.470123
 30
0.000000
 10
1712.141640
 20
1049.886134
 30
0.000000
 10
1712.142222
 20
1049.254442
 30
0.000000
  0
SPLINE
  5
189
330
1F
100
AcDbEntity
  8
0
 62
     7
100
AcDbSpline
210
0.000000
220
0.000000
230
1.0
 70
     8
 71
     3
 72
     8
 73
     4
 42
0.0000000001
 43
0.0000000001
 44
0.0000000001
 12
0.000000
 22
0.000000
 32
0.000000
 13
0.000000
 23
0.000000
 33
0.000000
 40
0.000000
 40
0.000000
 40
0.000000
 40
0.000000
 40
1.000000
 40
1.000000
 40
1.000000
 40
1.000000
 10
1712.142222
 20
1049.254442
 30
0.000000
 10
1712.142222
 20
1048.622722
 30
0.000000
 10
1712.477952
 20
1048.038734
 30
0.000000
 10
1713.024290
 20
1047.722716
 30
0.000000
  0
SPLINE
  5
190
330
1F
100
AcDbEntity
  8
0
 62
     7
100
AcDbSpline
210
0.000000
220
0.000000
230
1.0
 70
     8
 71
     3
 72
     8
 73
     4
 42
0.0000000001
 43
0.0000000001
 44
0.0000000001
 12
0.000000
 22
0.000000
 32
0.000000
 13
0.000000
 23
0.000000
 33
0.000000
 40
0.000000
 40
0.000000
 40
0.000000
 40
0.000000
 40
1.000000
 40
1.000000
 40
1.000000
 40
1.000000
 10
1713.024290
 20
1047.722716
 30
0.000000
 10
1713.570628
 20
1047.406697
 30
0.000000
 10
1714.243914
 20
1047.406697
 30
0.000000
 10
1714.790252
 20
1047.722716
 30
0.000000
  0
SPLINE
  5
191
330
1F
100
AcDbEntity
  8
0
 62
     7
100
AcDbSpline
210
0.000000
220
0.000000
230
1.0
 70
     8
 71
     3
 72
     8
 73
     4
 42
0.0000000001
 43
0.0000000001
 44
0.0000000001
 12
0.000000
 22
0.000000
 32
0.000000
 13
0.000000
 23
0.000000
 33
0.000000
 40
0.000000
 40
0.000000
 40
0.000000
 40
0.000000
 40
1.000000
 40
1.000000
 40
1.000000
 40
1.000000
 10
1696.636872
 20
1036.350845
 30
0.000000
 10
1701.240569
 20
1039.012738
 30
0.000000
 10
1704.075606
 20
1043.931872
 30
0.000000
 10
1704.073515
 20
1049.254442
 30
0.000000
  0
SPLINE
  5
192
330
1F
100
AcDbEntity
  8
0
 62
     7
100
AcDbSpline
210
0.000000
220
0.000000
230
1.0
 70
     8
 71
     3
 72
     8
 73
     4
 42
0.0000000001
 43
0.0000000001
 44
0.0000000001
 12
0.000000
 22
0.000000
 32
0.000000
 13
0.000000
 23
0.000000
 33
0.000000
 40
0.000000
 40
0.000000
 40
0.000000
 40
0.000000
 40
1.000000
 40
1.000000
 40
1.000000
 40
1.000000
 10
1704.073515
 20
1049.254442
 30
0.000000
 10
1704.076161
 20
1054.576985
 30
0.000000
 10
1701.240569
 20
1059.496145
 30
0.000000
 10
1696.636872
 20
1062.158012
 30
0.000000
  0
SPLINE
  5
193
330
1F
100
AcDbEntity
  8
0
 62
     7
100
AcDbSpline
210
0.000000
220
0.000000
230
1.0
 70
     8
 71
     3
 72
     8
 73
     4
 42
0.0000000001
 43
0.0000000001
 44
0.0000000001
 12
0.000000
 22
0.000000
 32
0.000000
 13
0.000000
 23
0.000000
 33
0.000000
 40
0.000000
 40
0.000000
 40
0.000000
 40
0.000000
 40
1.000000
 40
1.000000
 40
1.000000
 40
1.000000
 10
1696.636872
 20
1062.158012
 30
0.000000
 10
1692.033148
 20
1064.819905
 30
0.000000
 10
1686.360534
 20
1064.819905
 30
0.000000
 10
1681.756837
 20
1062.158012
 30
0.000000
  0
SPLINE
  5
194
330
1F
100
AcDbEntity
  8
0
 62
     7
100
AcDbSpline
210
0.000000
220
0.000000
230
1.0
 70
     8
 71
     3
 72
     8
 73
     4
 42
0.0000000001
 43
0.0000000001
 44
0.0000000001
 12
0.000000
 22
0.000000
 32
0.000000
 13
0.000000
 23
0.000000
 33
0.000000
 40
0.000000
 40
0.000000
 40
0.000000
 40
0.000000
 40
1.000000
 40
1.000000
 40
1.000000
 40
1.000000
 10
1681.756837
 20
1062.158012
 30
0.000000
 10
1677.153114
 20
1059.496145
 30
0.000000
 10
1674.318103
 20
1054.576985
 30
0.000000
 10
1674.320167
 20
1049.254442
 30
0.000000
  0
SPLINE
  5
195
330
1F
100
AcDbEntity
  8
0
 62
     7
100
AcDbSpline
210
0.000000
220
0.000000
230
1.0
 70
     8
 71
     3
 72
     8
 73
     4
 42
0.0000000001
 43
0.0000000001
 44
0.0000000001
 12
0.000000
 22
0.000000
 32
0.000000
 13
0.000000
 23
0.000000
 33
0.000000
 40
0.000000
 40
0.000000
 40
0.000000
 40
0.000000
 40
1.000000
 40
1.000000
 40
1.000000
 40
1.000000
 10
1674.320167
 20
1049.254442
 30
0.000000
 10
1674.317521
 20
1043.931872
 30
0.000000
 10
1677.153114
 20
1039.012738
 30
0.000000
 10
1681.756837
 20
1036.350845
 30
0.000000
  0
SPLINE
  5
196
330
1F
100
AcDbEntity
  8
0
 62
     7
100
AcDbSpline
210
0.000000
220
0.000000
230
1.0
 70
     8
 71
     3
 72
     8
 73
     4
 42
0.0000000001
 43
0.0000000001
 44
0.0000000001
 12
0.000000
 22
0.000000
 32
0.000000
 13
0.000000
 23
0.000000
 33
0.000000
 40
0.000000
 40
0.000000
 40
0.000000
 40
0.000000
 40
1.000000
 40
1.000000
 40
1.000000
 40
1.000000
 10
1600.819314
 20
1047.724065
 30
0.000000
 10
1601.365414
 20
1048.039739
 30
0.000000
 10
1601.701832
 20
1048.623093
 30
0.000000
 10
1601.701832
 20
1049.254442
 30
0.000000
  0
SPLINE
  5
197
330
1F
100
AcDbEntity
  8
0
 62
     7
100
AcDbSpline
210
0.000000
220
0.000000
230
1.0
 70
     8
 71
     3
 72
     8
 73
     4
 42
0.0000000001
 43
0.0000000001
 44
0.0000000001
 12
0.000000
 22
0.000000
 32
0.000000
 13
0.000000
 23
0.000000
 33
0.000000
 40
0.000000
 40
0.000000
 40
0.000000
 40
0.000000
 40
1.000000
 40
1.000000
 40
1.000000
 40
1.000000
 10
1601.701832
 20
1049.254442
 30
0.000000
 10
1601.701832
 20
1049.885764
 30
0.000000
 10
1601.365414
 20
1050.469117
 30
0.000000
 10
1600.819314
 20
1050.784791
 30
0.000000
  0
SPLINE
  5
198
330
1F
100
AcDbEntity
  8
0
 62
     7
100
AcDbSpline
210
0.000000
220
0.000000
230
1.0
 70
     8
 71
     3
 72
     8
 73
     4
 42
0.0000000001
 43
0.0000000001
 44
0.0000000001
 12
0.000000
 22
0.000000
 32
0.000000
 13
0.000000
 23
0.000000
 33
0.000000
 40
0.000000
 40
0.000000
 40
0.000000
 40
0.000000
 40
1.000000
 40
1.000000
 40
1.000000
 40
1.000000
 10
1600.819314
 20
1050.784791
 30
0.000000
 10
1600.273214
 20
1051.100439
 30
0.000000
 10
1599.600379
 20
1051.100439
 30
0.000000
 10
1599.054279
 20
1050.784791
 30
0.000000
  0
SPLINE
  5
199
330
1F
100
AcDbEntity
  8
0
 62
     7
100
AcDbSpline
210
0.000000
220
0.000000
230
1.0
 70
     8
 71
     3
 72
     8
 73
     4
 42
0.0000000001
 43
0.0000000001
 44
0.0000000001
 12
0.000000
 22
0.000000
 32
0.000000
 13
0.000000
 23
0.000000
 33
0.000000
 40
0.000000
 40
0.000000
 40
0.000000
 40
0.000000
 40
1.000000
 40
1.000000
 40
1.000000
 40
1.000000
 10
1599.054279
 20
1050.784791
 30
0.000000
 10
1598.508179
 20
1050.469117
 30
0.000000
 10
1598.171761
 20
1049.885764
 30
0.000000
 10
1598.171761
 20
1049.254442
 30
0.000000
  0
SPLINE
  5
200
330
1F
100
AcDbEntity
  8
0
 62
     7
100
AcDbSpline
210
0.000000
220
0.000000
230
1.0
 70
     8
 71
     3
 72
     8
 73
     4
 42
0.0000000001
 43
0.0000000001
 44
0.0000000001
 12
0.000000
 22
0.000000
 32
0.000000
 13
0.000000
 23
0.000000
 33
0.000000
 40
0.000000
 40
0.000000
 40
0.000000
 40
0.000000
 40
1.000000
 40
1.000000
 40
1.000000
 40
1.000000
 10
1598.171761
 20
1049.254442
 30
0.000000
 10
1598.171761
 20
1048.623093
 30
0.000000
 10
1598.508179
 20
1048.039739
 30
0.000000
 10
1599.054279
 20
1047.724065
 30
0.000000
  0
SPLINE
  5
201
330
1F
100
AcDbEntity
  8
0
 62
     7
100
AcDbSpline
210
0.000000
220
0.000000
230
1.0
 70
     8
 71
     3
 72
     8
 73
     4
 42
0.0000000001
 43
0.0000000001
 44
0.0000000001
 12
0.000000
 22
0.000000
 32
0.000000
 13
0.000000
 23
0.000000
 33
0.000000
 40
0.000000
 40
0.000000
 40
0.000000
 40
0.000000
 40
1.000000
 40
1.000000
 40
1.000000
 40
1.000000
 10
1599.054279
 20
1047.724065
 30
0.000000
 10
1599.600379
 20
1047.408417
 30
0.000000
 10
1600.273214
 20
1047.408417
 30
0.000000
 10
1600.819314
 20
1047.724065
 30
0.000000
  0
SPLINE
  5
202
330
1F
100
AcDbEntity
  8
0
 62
     7
100
AcDbSpline
210
0.000000
220
0.000000
230
1.0
 70
     8
 71
     3
 72
     8
 73
     4
 42
0.0000000001
 43
0.0000000001
 44
0.0000000001
 12
0.000000
 22
0.000000
 32
0.000000
 13
0.000000
 23
0.000000
 33
0.000000
 40
0.000000
 40
0.000000
 40
0.000000
 40
0.000000
 40
1.000000
 40
1.000000
 40
1.000000
 40
1.000000
 10
1632.086370
 20
1036.353279
 30
0.000000
 10
1636.689670
 20
1039.014511
 30
0.000000
 10
1639.524919
 20
1043.932559
 30
0.000000
 10
1639.523887
 20
1049.254442
 30
0.000000
  0
SPLINE
  5
203
330
1F
100
AcDbEntity
  8
0
 62
     7
100
AcDbSpline
210
0.000000
220
0.000000
230
1.0
 70
     8
 71
     3
 72
     8
 73
     4
 42
0.0000000001
 43
0.0000000001
 44
0.0000000001
 12
0.000000
 22
0.000000
 32
0.000000
 13
0.000000
 23
0.000000
 33
0.000000
 40
0.000000
 40
0.000000
 40
0.000000
 40
0.000000
 40
1.000000
 40
1.000000
 40
1.000000
 40
1.000000
 10
1639.523887
 20
1049.254442
 30
0.000000
 10
1639.523887
 20
1054.576297
 30
0.000000
 10
1636.689670
 20
1059.494346
 30
0.000000
 10
1632.086370
 20
1062.155578
 30
0.000000
  0
SPLINE
  5
204
330
1F
100
AcDbEntity
  8
0
 62
     7
100
AcDbSpline
210
0.000000
220
0.000000
230
1.0
 70
     8
 71
     3
 72
     8
 73
     4
 42
0.0000000001
 43
0.0000000001
 44
0.0000000001
 12
0.000000
 22
0.000000
 32
0.000000
 13
0.000000
 23
0.000000
 33
0.000000
 40
0.000000
 40
0.000000
 40
0.000000
 40
0.000000
 40
1.000000
 40
1.000000
 40
1.000000
 40
1.000000
 10
1632.086370
 20
1062.155578
 30
0.000000
 10
1627.483096
 20
1064.816810
 30
0.000000
 10
1621.811303
 20
1064.816810
 30
0.000000
 10
1617.208029
 20
1062.155578
 30
0.000000
  0
SPLINE
  5
205
330
1F
100
AcDbEntity
  8
0
 62
     7
100
AcDbSpline
210
0.000000
220
0.000000
230
1.0
 70
     8
 71
     3
 72
     8
 73
     4
 42
0.0000000001
 43
0.0000000001
 44
0.0000000001
 12
0.000000
 22
0.000000
 32
0.000000
 13
0.000000
 23
0.000000
 33
0.000000
 40
0.000000
 40
0.000000
 40
0.000000
 40
0.000000
 40
1.000000
 40
1.000000
 40
1.000000
 40
1.000000
 10
1617.208029
 20
1062.155578
 30
0.000000
 10
1612.604729
 20
1059.494346
 30
0.000000
 10
1609.769480
 20
1054.576297
 30
0.000000
 10
1609.770539
 20
1049.254442
 30
0.000000
  0
SPLINE
  5
206
330
1F
100
AcDbEntity
  8
0
 62
     7
100
AcDbSpline
210
0.000000
220
0.000000
230
1.0
 70
     8
 71
     3
 72
     8
 73
     4
 42
0.0000000001
 43
0.0000000001
 44
0.0000000001
 12
0.000000
 22
0.000000
 32
0.000000
 13
0.000000
 23
0.000000
 33
0.000000
 40
0.000000
 40
0.000000
 40
0.000000
 40
0.000000
 40
1.000000
 40
1.000000
 40
1.000000
 40
1.000000
 10
1609.770539
 20
1049.254442
 30
0.000000
 10
1609.770539
 20
1043.932559
 30
0.000000
 10
1612.604729
 20
1039.014511
 30
0.000000
 10
1617.208029
 20
1036.353279
 30
0.000000
  0
SPLINE
  5
207
330
1F
100
AcDbEntity
  8
0
 62
     7
100
AcDbSpline
210
0.000000
220
0.000000
230
1.0
 70
     8
 71
     3
 72
     8
 73
     4
 42
0.0000000001
 43
0.0000000001
 44
0.0000000001
 12
0.000000
 22
0.000000
 32
0.000000
 13
0.000000
 23
0.000000
 33
0.000000
 40
0.000000
 40
0.000000
 40
0.000000
 40
0.000000
 40
1.000000
 40
1.000000
 40
1.000000
 40
1.000000
 10
1650.240120
 20
1047.724065
 30
0.000000
 10
1650.786220
 20
1048.039739
 30
0.000000
 10
1651.122638
 20
1048.623093
 30
0.000000
 10
1651.122638
 20
1049.254442
 30
0.000000
  0
SPLINE
  5
208
330
1F
100
AcDbEntity
  8
0
 62
     7
100
AcDbSpline
210
0.000000
220
0.000000
230
1.0
 70
     8
 71
     3
 72
     8
 73
     4
 42
0.0000000001
 43
0.0000000001
 44
0.0000000001
 12
0.000000
 22
0.000000
 32
0.000000
 13
0.000000
 23
0.000000
 33
0.000000
 40
0.000000
 40
0.000000
 40
0.000000
 40
0.000000
 40
1.000000
 40
1.000000
 40
1.000000
 40
1.000000
 10
1651.122638
 20
1049.254442
 30
0.000000
 10
1651.122638
 20
1049.885764
 30
0.000000
 10
1650.786220
 20
1050.469117
 30
0.000000
 10
1650.240120
 20
1050.784791
 30
0.000000
  0
SPLINE
  5
209
330
1F
100
AcDbEntity
  8
0
 62
     7
100
AcDbSpline
210
0.000000
220
0.000000
230
1.0
 70
     8
 71
     3
 72
     8
 73
     4
 42
0.0000000001
 43
0.0000000001
 44
0.0000000001
 12
0.000000
 22
0.000000
 32
0.000000
 13
0.000000
 23
0.000000
 33
0.000000
 40
0.000000
 40
0.000000
 40
0.000000
 40
0.000000
 40
1.000000
 40
1.000000
 40
1.000000
 40
1.000000
 10
1650.240120
 20
1050.784791
 30
0.000000
 10
1649.694020
 20
1051.100439
 30
0.000000
 10
1649.021211
 20
1051.100439
 30
0.000000
 10
1648.475085
 20
1050.784791
 30
0.000000
  0
SPLINE
  5
210
330
1F
100
AcDbEntity
  8
0
 62
     7
100
AcDbSpline
210
0.000000
220
0.000000
230
1.0
 70
     8
 71
     3
 72
     8
 73
     4
 42
0.0000000001
 43
0.0000000001
 44
0.0000000001
 12
0.000000
 22
0.000000
 32
0.000000
 13
0.000000
 23
0.000000
 33
0.000000
 40
0.000000
 40
0.000000
 40
0.000000
 40
0.000000
 40
1.000000
 40
1.000000
 40
1.000000
 40
1.000000
 10
1648.475085
 20
1050.784791
 30
0.000000
 10
1647.928985
 20
1050.469117
 30
0.000000
 10
1647.592594
 20
1049.885764
 30
0.000000
 10
1647.592594
 20
1049.254442
 30
0.000000
  0
SPLINE
  5
211
330
1F
100
AcDbEntity
  8
0
 62
     7
100
AcDbSpline
210
0.000000
220
0.000000
230
1.0
 70
     8
 71
     3
 72
     8
 73
     4
 42
0.0000000001
 43
0.0000000001
 44
0.0000000001
 12
0.000000
 22
0.000000
 32
0.000000
 13
0.000000
 23
0.000000
 33
0.000000
 40
0.000000
 40
0.000000
 40
0.000000
 40
0.000000
 40
1.000000
 40
1.000000
 40
1.000000
 40
1.000000
 10
1647.592594
 20
1049.254442
 30
0.000000
 10
1647.592594
 20
1048.623093
 30
0.000000
 10
1647.928985
 20
1048.039739
 30
0.000000
 10
1648.475085
 20
1047.724065
 30
0.000000
  0
SPLINE
  5
212
330
1F
100
AcDbEntity
  8
0
 62
     7
100
AcDbSpline
210
0.000000
220
0.000000
230
1.0
 70
     8
 71
     3
 72
     8
 73
     4
 42
0.0000000001
 43
0.0000000001
 44
0.0000000001
 12
0.000000
 22
0.000000
 32
0.000000
 13
0.000000
 23
0.000000
 33
0.000000
 40
0.000000
 40
0.000000
 40
0.000000
 40
0.000000
 40
1.000000
 40
1.000000
 40
1.000000
 40
1.000000
 10
1648.475085
 20
1047.724065
 30
0.000000
 10
1649.021211
 20
1047.408417
 30
0.000000
 10
1649.694020
 20
1047.408417
 30
0.000000
 10
1650.240120
 20
1047.724065
 30
0.000000
  0
SPLINE
  5
213
330
1F
100
AcDbEntity
  8
0
 62
     7
100
AcDbSpline
210
0.000000
220
0.000000
230
1.0
 70
     8
 71
     3
 72
     8
 73
     4
 42
0.0000000001
 43
0.0000000001
 44
0.0000000001
 12
0.000000
 22
0.000000
 32
0.000000
 13
0.000000
 23
0.000000
 33
0.000000
 40
0.000000
 40
0.000000
 40
0.000000
 40
0.000000
 40
1.000000
 40
1.000000
 40
1.000000
 40
1.000000
 10
1536.269659
 20
1047.724065
 30
0.000000
 10
1536.815759
 20
1048.039739
 30
0.000000
 10
1537.152177
 20
1048.623093
 30
0.000000
 10
1537.152177
 20
1049.254442
 30
0.000000
  0
SPLINE
  5
214
330
1F
100
AcDbEntity
  8
0
 62
     7
100
AcDbSpline
210
0.000000
220
0.000000
230
1.0
 70
     8
 71
     3
 72
     8
 73
     4
 42
0.0000000001
 43
0.0000000001
 44
0.0000000001
 12
0.000000
 22
0.000000
 32
0.000000
 13
0.000000
 23
0.000000
 33
0.000000
 40
0.000000
 40
0.000000
 40
0.000000
 40
0.000000
 40
1.000000
 40
1.000000
 40
1.000000
 40
1.000000
 10
1537.152177
 20
1049.254442
 30
0.000000
 10
1537.152177
 20
1049.885764
 30
0.000000
 10
1536.815759
 20
1050.469117
 30
0.000000
 10
1536.269659
 20
1050.784791
 30
0.000000
  0
SPLINE
  5
215
330
1F
100
AcDbEntity
  8
0
 62
     7
100
AcDbSpline
210
0.000000
220
0.000000
230
1.0
 70
     8
 71
     3
 72
     8
 73
     4
 42
0.0000000001
 43
0.0000000001
 44
0.0000000001
 12
0.000000
 22
0.000000
 32
0.000000
 13
0.000000
 23
0.000000
 33
0.000000
 40
0.000000
 40
0.000000
 40
0.000000
 40
0.000000
 40
1.000000
 40
1.000000
 40
1.000000
 40
1.000000
 10
1536.269659
 20
1050.784791
 30
0.000000
 10
1535.723559
 20
1051.100439
 30
0.000000
 10
1535.050724
 20
1051.100439
 30
0.000000
 10
1534.504624
 20
1050.784791
 30
0.000000
  0
SPLINE
  5
216
330
1F
100
AcDbEntity
  8
0
 62
     7
100
AcDbSpline
210
0.000000
220
0.000000
230
1.0
 70
     8
 71
     3
 72
     8
 73
     4
 42
0.0000000001
 43
0.0000000001
 44
0.0000000001
 12
0.000000
 22
0.000000
 32
0.000000
 13
0.000000
 23
0.000000
 33
0.000000
 40
0.000000
 40
0.000000
 40
0.000000
 40
0.000000
 40
1.000000
 40
1.000000
 40
1.000000
 40
1.000000
 10
1534.504624
 20
1050.784791
 30
0.000000
 10
1533.958524
 20
1050.469117
 30
0.000000
 10
1533.622106
 20
1049.885764
 30
0.000000
 10
1533.622106
 20
1049.254442
 30
0.000000
  0
SPLINE
  5
217
330
1F
100
AcDbEntity
  8
0
 62
     7
100
AcDbSpline
210
0.000000
220
0.000000
230
1.0
 70
     8
 71
     3
 72
     8
 73
     4
 42
0.0000000001
 43
0.0000000001
 44
0.0000000001
 12
0.000000
 22
0.000000
 32
0.000000
 13
0.000000
 23
0.000000
 33
0.000000
 40
0.000000
 40
0.000000
 40
0.000000
 40
0.000000
 40
1.000000
 40
1.000000
 40
1.000000
 40
1.000000
 10
1533.622106
 20
1049.254442
 30
0.000000
 10
1533.622106
 20
1048.623093
 30
0.000000
 10
1533.958524
 20
1048.039739
 30
0.000000
 10
1534.504624
 20
1047.724065
 30
0.000000
  0
SPLINE
  5
218
330
1F
100
AcDbEntity
  8
0
 62
     7
100
AcDbSpline
210
0.000000
220
0.000000
230
1.0
 70
     8
 71
     3
 72
     8
 73
     4
 42
0.0000000001
 43
0.0000000001
 44
0.0000000001
 12
0.000000
 22
0.000000
 32
0.000000
 13
0.000000
 23
0.000000
 33
0.000000
 40
0.000000
 40
0.000000
 40
0.000000
 40
0.000000
 40
1.000000
 40
1.000000
 40
1.000000
 40
1.000000
 10
1534.504624
 20
1047.724065
 30
0.000000
 10
1535.050724
 20
1047.408417
 30
0.000000
 10
1535.723559
 20
1047.408417
 30
0.000000
 10
1536.269659
 20
1047.724065
 30
0.000000
  0
SPLINE
  5
219
330
1F
100
AcDbEntity
  8
0
 62
     7
100
AcDbSpline
210
0.000000
220
0.000000
230
1.0
 70
     8
 71
     3
 72
     8
 73
     4
 42
0.0000000001
 43
0.0000000001
 44
0.0000000001
 12
0.000000
 22
0.000000
 32
0.000000
 13
0.000000
 23
0.000000
 33
0.000000
 40
0.000000
 40
0.000000
 40
0.000000
 40
0.000000
 40
1.000000
 40
1.000000
 40
1.000000
 40
1.000000
 10
1585.690915
 20
1047.722848
 30
0.000000
 10
1586.237227
 20
1048.038840
 30
0.000000
 10
1586.573512
 20
1048.622749
 30
0.000000
 10
1586.573010
 20
1049.254442
 30
0.000000
  0
SPLINE
  5
220
330
1F
100
AcDbEntity
  8
0
 62
     7
100
AcDbSpline
210
0.000000
220
0.000000
230
1.0
 70
     8
 71
     3
 72
     8
 73
     4
 42
0.0000000001
 43
0.0000000001
 44
0.0000000001
 12
0.000000
 22
0.000000
 32
0.000000
 13
0.000000
 23
0.000000
 33
0.000000
 40
0.000000
 40
0.000000
 40
0.000000
 40
0.000000
 40
1.000000
 40
1.000000
 40
1.000000
 40
1.000000
 10
1586.573010
 20
1049.254442
 30
0.000000
 10
1586.573010
 20
1049.886108
 30
0.000000
 10
1586.237227
 20
1050.470017
 30
0.000000
 10
1585.690915
 20
1050.786009
 30
0.000000
  0
SPLINE
  5
221
330
1F
100
AcDbEntity
  8
0
 62
     7
100
AcDbSpline
210
0.000000
220
0.000000
230
1.0
 70
     8
 71
     3
 72
     8
 73
     4
 42
0.0000000001
 43
0.0000000001
 44
0.0000000001
 12
0.000000
 22
0.000000
 32
0.000000
 13
0.000000
 23
0.000000
 33
0.000000
 40
0.000000
 40
0.000000
 40
0.000000
 40
0.000000
 40
1.000000
 40
1.000000
 40
1.000000
 40
1.000000
 10
1585.690915
 20
1050.786009
 30
0.000000
 10
1585.144577
 20
1051.101974
 30
0.000000
 10
1584.471345
 20
1051.101974
 30
0.000000
 10
1583.925033
 20
1050.786009
 30
0.000000
  0
SPLINE
  5
222
330
1F
100
AcDbEntity
  8
0
 62
     7
100
AcDbSpline
210
0.000000
220
0.000000
230
1.0
 70
     8
 71
     3
 72
     8
 73
     4
 42
0.0000000001
 43
0.0000000001
 44
0.0000000001
 12
0.000000
 22
0.000000
 32
0.000000
 13
0.000000
 23
0.000000
 33
0.000000
 40
0.000000
 40
0.000000
 40
0.000000
 40
0.000000
 40
1.000000
 40
1.000000
 40
1.000000
 40
1.000000
 10
1583.925033
 20
1050.786009
 30
0.000000
 10
1583.378721
 20
1050.470017
 30
0.000000
 10
1583.042410
 20
1049.886108
 30
0.000000
 10
1583.042939
 20
1049.254442
 30
0.000000
  0
SPLINE
  5
223
330
1F
100
AcDbEntity
  8
0
 62
     7
100
AcDbSpline
210
0.000000
220
0.000000
230
1.0
 70
     8
 71
     3
 72
     8
 73
     4
 42
0.0000000001
 43
0.0000000001
 44
0.0000000001
 12
0.000000
 22
0.000000
 32
0.000000
 13
0.000000
 23
0.000000
 33
0.000000
 40
0.000000
 40
0.000000
 40
0.000000
 40
0.000000
 40
1.000000
 40
1.000000
 40
1.000000
 40
1.000000
 10
1583.042939
 20
1049.254442
 30
0.000000
 10
1583.042939
 20
1048.622749
 30
0.000000
 10
1583.378721
 20
1048.038840
 30
0.000000
 10
1583.925033
 20
1047.722848
 30
0.000000
  0
SPLINE
  5
224
330
1F
100
AcDbEntity
  8
0
 62
     7
100
AcDbSpline
210
0.000000
220
0.000000
230
1.0
 70
     8
 71
     3
 72
     8
 73
     4
 42
0.0000000001
 43
0.0000000001
 44
0.0000000001
 12
0.000000
 22
0.000000
 32
0.000000
 13
0.000000
 23
0.000000
 33
0.000000
 40
0.000000
 40
0.000000
 40
0.000000
 40
0.000000
 40
1.000000
 40
1.000000
 40
1.000000
 40
1.000000
 10
1583.925033
 20
1047.722848
 30
0.000000
 10
1584.471345
 20
1047.406883
 30
0.000000
 10
1585.144577
 20
1047.406883
 30
0.000000
 10
1585.690915
 20
1047.722848
 30
0.000000
  0
SPLINE
  5
225
330
1F
100
AcDbEntity
  8
0
 62
     7
100
AcDbSpline
210
0.000000
220
0.000000
230
1.0
 70
     8
 71
     3
 72
     8
 73
     4
 42
0.0000000001
 43
0.0000000001
 44
0.0000000001
 12
0.000000
 22
0.000000
 32
0.000000
 13
0.000000
 23
0.000000
 33
0.000000
 40
0.000000
 40
0.000000
 40
0.000000
 40
0.000000
 40
1.000000
 40
1.000000
 40
1.000000
 40
1.000000
 10
1567.536741
 20
1036.353279
 30
0.000000
 10
1572.140015
 20
1039.014511
 30
0.000000
 10
1574.975264
 20
1043.932559
 30
0.000000
 10
1574.974232
 20
1049.254442
 30
0.000000
  0
SPLINE
  5
226
330
1F
100
AcDbEntity
  8
0
 62
     7
100
AcDbSpline
210
0.000000
220
0.000000
230
1.0
 70
     8
 71
     3
 72
     8
 73
     4
 42
0.0000000001
 43
0.0000000001
 44
0.0000000001
 12
0.000000
 22
0.000000
 32
0.000000
 13
0.000000
 23
0.000000
 33
0.000000
 40
0.000000
 40
0.000000
 40
0.000000
 40
0.000000
 40
1.000000
 40
1.000000
 40
1.000000
 40
1.000000
 10
1574.974232
 20
1049.254442
 30
0.000000
 10
1574.974232
 20
1054.576297
 30
0.000000
 10
1572.140015
 20
1059.494346
 30
0.000000
 10
1567.536741
 20
1062.155578
 30
0.000000
  0
SPLINE
  5
227
330
1F
100
AcDbEntity
  8
0
 62
     7
100
AcDbSpline
210
0.000000
220
0.000000
230
1.0
 70
     8
 71
     3
 72
     8
 73
     4
 42
0.0000000001
 43
0.0000000001
 44
0.0000000001
 12
0.000000
 22
0.000000
 32
0.000000
 13
0.000000
 23
0.000000
 33
0.000000
 40
0.000000
 40
0.000000
 40
0.000000
 40
0.000000
 40
1.000000
 40
1.000000
 40
1.000000
 40
1.000000
 10
1567.536741
 20
1062.155578
 30
0.000000
 10
1562.933441
 20
1064.816810
 30
0.000000
 10
1557.261674
 20
1064.816810
 30
0.000000
 10
1552.658374
 20
1062.155578
 30
0.000000
  0
SPLINE
  5
228
330
1F
100
AcDbEntity
  8
0
 62
     7
100
AcDbSpline
210
0.000000
220
0.000000
230
1.0
 70
     8
 71
     3
 72
     8
 73
     4
 42
0.0000000001
 43
0.0000000001
 44
0.0000000001
 12
0.000000
 22
0.000000
 32
0.000000
 13
0.000000
 23
0.000000
 33
0.000000
 40
0.000000
 40
0.000000
 40
0.000000
 40
0.000000
 40
1.000000
 40
1.000000
 40
1.000000
 40
1.000000
 10
1552.658374
 20
1062.155578
 30
0.000000
 10
1548.055100
 20
1059.494346
 30
0.000000
 10
1545.219852
 20
1054.576297
 30
0.000000
 10
1545.220884
 20
1049.254442
 30
0.000000
  0
SPLINE
  5
229
330
1F
100
AcDbEntity
  8
0
 62
     7
100
AcDbSpline
210
0.000000
220
0.000000
230
1.0
 70
     8
 71
     3
 72
     8
 73
     4
 42
0.0000000001
 43
0.0000000001
 44
0.0000000001
 12
0.000000
 22
0.000000
 32
0.000000
 13
0.000000
 23
0.000000
 33
0.000000
 40
0.000000
 40
0.000000
 40
0.000000
 40
0.000000
 40
1.000000
 40
1.000000
 40
1.000000
 40
1.000000
 10
1545.220884
 20
1049.254442
 30
0.000000
 10
1545.220884
 20
1043.932559
 30
0.000000
 10
1548.055100
 20
1039.014511
 30
0.000000
 10
1552.658374
 20
1036.353279
 30
0.000000
 0
ENDSEC
  0
SECTION
  2
OBJECTS
  0
DICTIONARY
  5
C
330
0
100
AcDbDictionary
  3
ACAD_GROUP
350
D
  3
ACAD_LAYOUT
350
1A
  3
ACAD_MLINESTYLE
350
17
  3
ACAD_PLOTSETTINGS
350
19
1001
ACAD
1000
TREAT_AS_HARD
1070
     0
  0
DICTIONARY
  5
46
330
1F
100
AcDbDictionary
  3
ACAD_LAYOUTSELFREF
350
47
  0
DICTIONARY
  5
44
330
1B
100
AcDbDictionary
  3
ACAD_LAYOUTSELFREF
350
45
  0
DICTIONARY
  5
D
102
{ACAD_REACTORS
330
C
102
}
330
C
100
AcDbDictionary
1001
ACAD
1000
TREAT_AS_HARD
1070
     0
  0
DICTIONARY
  5
1A
102
{ACAD_REACTORS
330
C
102
}
330
C
100
AcDbDictionary
1001
ACAD
1000
TREAT_AS_HARD
1070
     0
  0
DICTIONARY
  5
17
102
{ACAD_REACTORS
330
C
102
}
330
C
100
AcDbDictionary
  3
STANDARD
350
18
1001
ACAD
1000
TREAT_AS_HARD
1070
     0
  0
DICTIONARY
  5
19
102
{ACAD_REACTORS
330
C
102
}
330
C
100
AcDbDictionary
1001
ACAD
1000
TREAT_AS_HARD
1070
     0
  0
XRECORD
  5
47
102
{ACAD_REACTORS
330
46
102
}
330
46
100
AcDbXrecord
340
1F
  0
XRECORD
  5
45
102
{ACAD_REACTORS
330
44
102
}
330
44
100
AcDbXrecord
340
1B
  0
MLINESTYLE
  5
18
102
{ACAD_REACTORS
330
17
102
}
330
17
100
AcDbMlineStyle
  2
STANDARD
 70
     0
  3

 62
   256
 51
90.0
 52
90.0
 71
     2
 49
0.5
 62
   256
  6
BYLAYER
 49
-0.5
 62
   256
  6
BYLAYER
  0
ENDSEC
  0
EOF
