<?xml version="1.0" encoding="UTF-8"?>
<!DOCTYPE svg PUBLIC "-//W3C//DTD SVG 1.1//EN" "http://www.w3.org/Graphics/SVG/1.1/DTD/svg11.dtd">
<!-- Creator: CorelDRAW 2018 (64-Bit) -->
<svg xmlns="http://www.w3.org/2000/svg" xml:space="preserve" width="36in" height="24in" version="1.1" style="shape-rendering:geometricPrecision; text-rendering:geometricPrecision; image-rendering:optimizeQuality; fill-rule:evenodd; clip-rule:evenodd"
viewBox="0 0 36000 24000"
 xmlns:xlink="http://www.w3.org/1999/xlink">
 <defs>
  <style type="text/css">
   <![CDATA[
    .str1 {stroke:#373435;stroke-width:6.94;stroke-miterlimit:2.61313}
    .str0 {stroke:black;stroke-width:3;stroke-linejoin:bevel;stroke-miterlimit:2.61313}
    .fil0 {fill:none}
   ]]>
  </style>
 </defs>
 <g id="Layer_x0020_1">
  <metadata id="CorelCorpID_0Corel-Layer"/>
  <path class="fil0 str0" d="M16479.6 6955.87c0,0 511.81,0 511.81,0"/>
  <path class="fil0 str0" d="M16991.41 6894.65c0,0 0,236.22 0,236.22"/>
  <path class="fil0 str0" d="M16991.41 7130.87c0,0 313,0 313,0"/>
  <path class="fil0 str0" d="M17304.41 7130.87c0,0 0,104.53 0,104.53"/>
  <path class="fil0 str0" d="M17304.41 7235.39c0,0 -49.21,0 -49.21,0"/>
  <path class="fil0 str0" d="M17255.19 7235.39c0,0 0,98.43 0,98.43"/>
  <path class="fil0 str0" d="M17255.19 7333.82c0,0 49.21,0 49.21,0"/>
  <path class="fil0 str0" d="M17304.41 7333.82c0,0 0,98.43 0,98.43"/>
  <path class="fil0 str0" d="M17304.41 7432.24c0,0 122.04,0 122.04,0"/>
  <path class="fil0 str0" d="M17426.45 7432.24c0,0 0,-98.43 0,-98.43"/>
  <path class="fil0 str0" d="M17426.45 7333.82c0,0 49.21,0 49.21,0"/>
  <path class="fil0 str0" d="M17475.66 7333.82c0,0 0,-98.43 0,-98.43"/>
  <path class="fil0 str0" d="M17475.66 7235.39c0,0 -49.21,0 -49.21,0"/>
  <path class="fil0 str0" d="M17426.45 7235.39c0,0 0,-104.53 0,-104.53"/>
  <path class="fil0 str0" d="M17426.45 7130.87c0,0 312.99,0 312.99,0"/>
  <path class="fil0 str0" d="M17739.44 7130.87c0,0 0,-236.22 0,-236.22"/>
  <path class="fil0 str0" d="M17739.44 6955.87c0,0 472.44,0 472.44,0"/>
  <path class="fil0 str0" d="M18211.89 6894.65c0,0 0,236.22 0,236.22"/>
  <path class="fil0 str0" d="M18211.89 7130.87c0,0 472.44,0 472.44,0"/>
  <path class="fil0 str0" d="M18684.32 7130.87c0,0 0,-236.22 0,-236.22"/>
  <path class="fil0 str0" d="M18684.32 6955.87c0,0 472.44,0 472.44,0"/>
  <path class="fil0 str0" d="M19156.76 6894.65c0,0 0,236.22 0,236.22"/>
  <path class="fil0 str0" d="M19156.76 7130.87c0,0 472.44,0 472.44,0"/>
  <path class="fil0 str0" d="M19629.21 7130.87c0,0 0,-236.22 0,-236.22"/>
  <path class="fil0 str0" d="M19629.21 6955.87c0,0 472.44,0 472.44,0"/>
  <path class="fil0 str0" d="M20101.65 6894.65c0,0 0,236.22 0,236.22"/>
  <path class="fil0 str0" d="M20101.65 7130.87c0,0 472.44,0 472.44,0"/>
  <path class="fil0 str0" d="M20574.09 7130.87c0,0 0,-236.22 0,-236.22"/>
  <path class="fil0 str0" d="M20574.09 6955.87c0,0 472.44,0 472.44,0"/>
  <path class="fil0 str0" d="M21046.53 6894.65c0,0 0,236.22 0,236.22"/>
  <path class="fil0 str0" d="M21046.53 7130.87c0,0 472.44,0 472.44,0"/>
  <path class="fil0 str0" d="M21518.97 7130.87c0,0 0,-236.22 0,-236.22"/>
  <path class="fil0 str0" d="M21518.97 6955.87c0,0 472.44,0 472.44,0"/>
  <path class="fil0 str0" d="M21991.41 6894.65c0,0 0,236.22 0,236.22"/>
  <path class="fil0 str0" d="M21991.41 7130.87c0,0 472.44,0 472.44,0"/>
  <path class="fil0 str0" d="M22463.85 7130.87c0,0 0,-236.22 0,-236.22"/>
  <path class="fil0 str0" d="M22463.85 6955.87c0,0 472.44,0 472.44,0"/>
  <path class="fil0 str0" d="M22936.3 6894.65c0,0 0,236.22 0,236.22"/>
  <path class="fil0 str0" d="M22936.3 7130.87c0,0 472.44,0 472.44,0"/>
  <path class="fil0 str0" d="M23408.73 7130.87c0,0 0,-236.22 0,-236.22"/>
  <path class="fil0 str0" d="M23408.73 6955.87c0,0 472.44,0 472.44,0"/>
  <path class="fil0 str0" d="M23881.18 6894.65c0,0 0,236.22 0,236.22"/>
  <path class="fil0 str0" d="M23881.18 7130.87c0,0 472.44,0 472.44,0"/>
  <path class="fil0 str0" d="M24353.62 7130.87c0,0 0,-236.22 0,-236.22"/>
  <path class="fil0 str0" d="M24353.62 6955.87c0,0 472.44,0 472.44,0"/>
  <path class="fil0 str0" d="M24826.06 6894.65c0,0 0,236.22 0,236.22"/>
  <path class="fil0 str0" d="M24826.06 7130.87c0,0 472.44,0 472.44,0"/>
  <path class="fil0 str0" d="M25298.5 7130.87c0,0 0,-236.22 0,-236.22"/>
  <path class="fil0 str0" d="M25298.5 6955.87c0,0 472.44,0 472.44,0"/>
  <path class="fil0 str0" d="M25770.94 6894.65c0,0 0,236.22 0,236.22"/>
  <path class="fil0 str0" d="M25770.94 7130.87c0,0 312.99,0 312.99,0"/>
  <path class="fil0 str0" d="M26083.93 7130.87c0,0 0,104.53 0,104.53"/>
  <path class="fil0 str0" d="M26083.93 7235.39c0,0 -49.22,0 -49.22,0"/>
  <path class="fil0 str0" d="M26034.72 7235.39c0,0 0,98.43 0,98.43"/>
  <path class="fil0 str0" d="M26034.72 7333.82c0,0 49.22,0 49.22,0"/>
  <path class="fil0 str0" d="M26083.93 7333.82c0,0 0,98.43 0,98.43"/>
  <path class="fil0 str0" d="M26083.93 7432.24c0,0 122.05,0 122.05,0"/>
  <path class="fil0 str0" d="M26205.98 7432.24c0,0 0,-98.43 0,-98.43"/>
  <path class="fil0 str0" d="M26205.98 7333.82c0,0 49.21,0 49.21,0"/>
  <path class="fil0 str0" d="M26255.19 7333.82c0,0 0,-98.43 0,-98.43"/>
  <path class="fil0 str0" d="M26255.19 7235.39c0,0 -49.21,0 -49.21,0"/>
  <path class="fil0 str0" d="M26205.98 7235.39c0,0 0,-104.53 0,-104.53"/>
  <path class="fil0 str0" d="M26205.98 7130.87c0,0 312.99,0 312.99,0"/>
  <path class="fil0 str0" d="M26518.97 7130.87c0,0 0,-236.22 0,-236.22"/>
  <path class="fil0 str0" d="M26518.97 6955.87c0,0 511.81,0 511.81,0"/>
  <path class="fil0 str0" d="M27030.78 6894.65c0,0 0,688.98 0,688.98"/>
  <path class="fil0 str0" d="M27103.02 7583.62c53.52,0 102.76,0 102.76,0"/>
  <path class="fil0 str0" d="M27205.78 7583.62c0,0 0,271.65 0,271.65"/>
  <path class="fil0 str0" d="M27205.78 7855.28c0,0 -145.67,0 -145.67,0"/>
  <path class="fil0 str0" d="M27060.11 7855.28c0,0 0,145.67 0,145.67"/>
  <path class="fil0 str0" d="M27060.11 8000.94c0,0 145.67,0 145.67,0"/>
  <path class="fil0 str0" d="M27205.78 8000.94c0,0 0,271.65 0,271.65"/>
  <path class="fil0 str0" d="M27205.78 8272.6c0,0 -175,0 -175,0"/>
  <path class="fil0 str0" d="M27030.78 8272.6c0,0 0,472.44 0,472.44"/>
  <path class="fil0 str0" d="M26969.56 8745.04c0,0 236.22,0 236.22,0"/>
  <path class="fil0 str0" d="M27205.78 8745.04c0,0 0,472.44 0,472.44"/>
  <path class="fil0 str0" d="M27205.78 9217.48c0,0 -175,0 -175,0"/>
  <path class="fil0 str0" d="M27030.78 9217.48c0,0 0,472.44 0,472.44"/>
  <path class="fil0 str0" d="M27020.74 9689.92c0,0 185.04,0 185.04,0"/>
  <path class="fil0 str0" d="M27205.78 9689.92c0,0 0,472.44 0,472.44"/>
  <path class="fil0 str0" d="M27205.78 10162.36c0,0 -175,0 -175,0"/>
  <path class="fil0 str0" d="M27030.78 10162.36c0,0 0,472.44 0,472.44"/>
  <path class="fil0 str0" d="M27030.78 10634.8c0,0 175,0 175,0"/>
  <path class="fil0 str0" d="M27205.78 10634.8c0,0 0,271.65 0,271.65"/>
  <path class="fil0 str0" d="M27205.78 10906.46c0,0 -145.67,0 -145.67,0"/>
  <path class="fil0 str0" d="M27060.11 10906.46c0,0 0,145.67 0,145.67"/>
  <path class="fil0 str0" d="M27060.11 11052.13c0,0 145.67,0 145.67,0"/>
  <path class="fil0 str0" d="M27205.78 11052.13c0,0 0,271.65 0,271.65"/>
  <path class="fil0 str0" d="M27205.78 11323.78c0,0 -175,0 -175,0"/>
  <path class="fil0 str0" d="M27294.16 7126.98c0,0 767.72,0 767.72,0"/>
  <path class="fil0 str0" d="M28061.88 7126.98c0,0 0,-236.22 0,-236.22"/>
  <path class="fil0 str0" d="M28061.88 6951.98c0,0 311.02,0 311.02,0"/>
  <path class="fil0 str0" d="M28372.9 6951.98c0,0 0,145.67 0,145.67"/>
  <path class="fil0 str0" d="M28372.9 7097.65c0,0 145.67,0 145.67,0"/>
  <path class="fil0 str0" d="M28518.57 7097.65c0,0 0,-145.67 0,-145.67"/>
  <path class="fil0 str0" d="M28518.57 6951.98c0,0 311.02,0 311.02,0"/>
  <path class="fil0 str0" d="M28829.59 6890.76c0,0 0,236.22 0,236.22"/>
  <path class="fil0 str0" d="M28829.59 7126.98c0,0 472.44,0 472.44,0"/>
  <path class="fil0 str0" d="M29302.04 7126.98c0,0 0,-236.22 0,-236.22"/>
  <path class="fil0 str0" d="M29302.04 6951.98c0,0 311.02,0 311.02,0"/>
  <path class="fil0 str0" d="M29613.06 6951.98c0,0 0,145.67 0,145.67"/>
  <path class="fil0 str0" d="M29613.06 7097.65c0,0 145.67,0 145.67,0"/>
  <path class="fil0 str0" d="M29758.73 7097.65c0,0 0,-145.67 0,-145.67"/>
  <path class="fil0 str0" d="M29758.73 6951.98c0,0 311.02,0 311.02,0"/>
  <path class="fil0 str0" d="M30069.75 6890.76c0,0 0,236.22 0,236.22"/>
  <path class="fil0 str0" d="M30069.75 7126.98c0,0 767.72,0 767.72,0"/>
  <path class="fil0 str0" d="M30837.47 7579.73c0,0 -236.22,0 -236.22,0"/>
  <path class="fil0 str0" d="M30601.25 7579.73c0,0 0,283.46 0,283.46"/>
  <path class="fil0 str0" d="M30601.25 7985.24c0,0 0,283.46 0,283.46"/>
  <path class="fil0 str0" d="M30601.25 8268.71c0,0 236.22,0 236.22,0"/>
  <path class="fil0 str0" d="M30837.47 8741.15c0,0 -236.22,0 -236.22,0"/>
  <path class="fil0 str0" d="M30601.25 8741.15c0,0 0,472.44 0,472.44"/>
  <path class="fil0 str0" d="M30601.25 9213.59c0,0 236.22,0 236.22,0"/>
  <path class="fil0 str0" d="M30837.47 9686.03c0,0 -236.22,0 -236.22,0"/>
  <path class="fil0 str0" d="M30601.25 9686.03c0,0 0,472.44 0,472.44"/>
  <path class="fil0 str0" d="M30601.25 10158.47c0,0 236.22,0 236.22,0"/>
  <path class="fil0 str0" d="M30837.47 10630.91c0,0 -236.22,0 -236.22,0"/>
  <path class="fil0 str0" d="M30601.25 10630.91c0,0 0,283.46 0,283.46"/>
  <path class="fil0 str0" d="M30601.25 11036.43c0,0 0,283.46 0,283.46"/>
  <path class="fil0 str0" d="M30601.25 11319.89c0,0 236.22,0 236.22,0"/>
  <path class="fil0 str0" d="M30837.47 11772.65c0,0 -767.72,0 -767.72,0"/>
  <path class="fil0 str0" d="M29302.04 11772.65c0,0 -472.44,0 -472.44,0"/>
  <path class="fil0 str0" d="M28061.88 11772.65c0,0 -767.72,0 -767.72,0"/>
  <path class="fil0 str0" d="M27355.38 11772.65c0,0 0,-452.76 0,-452.76"/>
  <path class="fil0 str0" d="M27294.16 11319.89c0,0 236.22,0 236.22,0"/>
  <path class="fil0 str0" d="M27530.38 11319.89c0,0 0,-283.46 0,-283.46"/>
  <path class="fil0 str0" d="M27530.38 11036.43c0,0 104.53,0 104.53,0"/>
  <path class="fil0 str0" d="M27634.91 11036.43c0,0 0,49.21 0,49.21"/>
  <path class="fil0 str0" d="M27634.91 11085.64c0,0 98.43,0 98.43,0"/>
  <path class="fil0 str0" d="M27733.33 11085.64c0,0 0,-49.21 0,-49.21"/>
  <path class="fil0 str0" d="M27733.33 11036.43c0,0 98.43,0 98.43,0"/>
  <path class="fil0 str0" d="M27831.76 11036.43c0,0 0,-122.05 0,-122.05"/>
  <path class="fil0 str0" d="M27831.76 10914.38c0,0 -98.43,0 -98.43,0"/>
  <path class="fil0 str0" d="M27733.33 10914.38c0,0 0,-49.21 0,-49.21"/>
  <path class="fil0 str0" d="M27733.33 10865.17c0,0 -98.43,0 -98.43,0"/>
  <path class="fil0 str0" d="M27634.91 10865.17c0,0 0,49.21 0,49.21"/>
  <path class="fil0 str0" d="M27634.91 10914.38c0,0 -104.53,0 -104.53,0"/>
  <path class="fil0 str0" d="M27530.38 10914.38c0,0 0,-283.46 0,-283.46"/>
  <path class="fil0 str0" d="M27530.38 10630.91c0,0 -236.22,0 -236.22,0"/>
  <path class="fil0 str0" d="M27355.38 10630.91c0,0 0,-472.44 0,-472.44"/>
  <path class="fil0 str0" d="M27294.16 10158.47c0,0 236.22,0 236.22,0"/>
  <path class="fil0 str0" d="M27530.38 10158.47c0,0 0,-472.44 0,-472.44"/>
  <path class="fil0 str0" d="M27530.38 9686.03c0,0 -236.22,0 -236.22,0"/>
  <path class="fil0 str0" d="M27355.38 9686.03c0,0 0,-472.44 0,-472.44"/>
  <path class="fil0 str0" d="M27294.16 9213.59c0,0 236.22,0 236.22,0"/>
  <path class="fil0 str0" d="M27530.38 9213.59c0,0 0,-472.44 0,-472.44"/>
  <path class="fil0 str0" d="M27530.38 8741.15c0,0 -236.22,0 -236.22,0"/>
  <path class="fil0 str0" d="M27355.38 8741.15c0,0 0,-472.44 0,-472.44"/>
  <path class="fil0 str0" d="M27294.16 8268.71c0,0 236.22,0 236.22,0"/>
  <path class="fil0 str0" d="M27530.38 8268.71c0,0 0,-283.46 0,-283.46"/>
  <path class="fil0 str0" d="M27530.38 7985.24c0,0 104.53,0 104.53,0"/>
  <path class="fil0 str0" d="M27634.91 7985.24c0,0 0,49.21 0,49.21"/>
  <path class="fil0 str0" d="M27634.91 8034.46c0,0 98.43,0 98.43,0"/>
  <path class="fil0 str0" d="M27733.33 8034.46c0,0 0,-49.21 0,-49.21"/>
  <path class="fil0 str0" d="M27733.33 7985.24c0,0 98.43,0 98.43,0"/>
  <path class="fil0 str0" d="M27831.76 7985.24c0,0 0,-122.05 0,-122.05"/>
  <path class="fil0 str0" d="M27831.76 7863.2c0,0 -98.43,0 -98.43,0"/>
  <path class="fil0 str0" d="M27733.33 7863.2c0,0 0,-49.21 0,-49.21"/>
  <path class="fil0 str0" d="M27733.33 7813.98c0,0 -98.43,0 -98.43,0"/>
  <path class="fil0 str0" d="M27634.91 7813.98c0,0 0,49.21 0,49.21"/>
  <path class="fil0 str0" d="M27634.91 7863.2c0,0 -104.53,0 -104.53,0"/>
  <path class="fil0 str0" d="M27530.38 7863.2c0,0 0,-283.46 0,-283.46"/>
  <path class="fil0 str0" d="M27530.38 7579.73c0,0 -236.22,0 -236.22,0"/>
  <path class="fil0 str0" d="M27355.38 7579.73c0,0 0,-452.76 0,-452.76"/>
  <path class="fil0 str0" d="M7100.07 12035.76c0,0 472.44,0 472.44,0"/>
  <path class="fil0 str0" d="M24663.81 9446.03c0,-24.87 -13.22,-47.86 -34.72,-60.3"/>
  <path class="fil0 str0" d="M24629.09 9385.72c-21.51,-12.44 -48.02,-12.44 -69.53,0"/>
  <path class="fil0 str0" d="M24559.56 9385.72c-21.51,12.44 -34.75,35.43 -34.72,60.3"/>
  <path class="fil0 str0" d="M24524.84 9446.03c0,24.87 13.22,47.86 34.72,60.3"/>
  <path class="fil0 str0" d="M24559.56 9506.33c21.51,12.44 48.02,12.44 69.53,0"/>
  <path class="fil0 str0" d="M24629.09 9506.33c21.51,-12.44 34.75,-35.43 34.72,-60.3"/>
  <path class="fil0 str0" d="M16241.74 12695.26c0,0 748.03,0 748.03,0"/>
  <path class="fil0 str0" d="M16989.77 12695.26c0,0 0,-236.22 0,-236.22"/>
  <path class="fil0 str0" d="M16989.77 12520.26c0,0 301.18,0 301.18,0"/>
  <path class="fil0 str0" d="M17290.95 12520.26c0,0 0,145.67 0,145.67"/>
  <path class="fil0 str0" d="M17290.95 12665.93c0,0 145.67,0 145.67,0"/>
  <path class="fil0 str0" d="M17436.62 12665.93c0,0 0,-145.67 0,-145.67"/>
  <path class="fil0 str0" d="M17436.62 12520.26c0,0 301.18,0 301.18,0"/>
  <path class="fil0 str0" d="M17737.8 12459.04c0,0 0,236.22 0,236.22"/>
  <path class="fil0 str0" d="M17737.8 12695.26c0,0 472.44,0 472.44,0"/>
  <path class="fil0 str0" d="M18210.24 12695.26c0,0 0,-236.22 0,-236.22"/>
  <path class="fil0 str0" d="M18210.24 12520.26c0,0 472.44,0 472.44,0"/>
  <path class="fil0 str0" d="M18682.68 12459.04c0,0 0,236.22 0,236.22"/>
  <path class="fil0 str0" d="M18682.68 12695.26c0,0 472.44,0 472.44,0"/>
  <path class="fil0 str0" d="M19155.12 12695.26c0,0 0,-236.22 0,-236.22"/>
  <path class="fil0 str0" d="M19155.12 12520.26c0,0 472.44,0 472.44,0"/>
  <path class="fil0 str0" d="M19627.56 12459.04c0,0 0,236.22 0,236.22"/>
  <path class="fil0 str0" d="M19627.56 12695.26c0,0 472.44,0 472.44,0"/>
  <path class="fil0 str0" d="M20100 12695.26c0,0 0,-236.22 0,-236.22"/>
  <path class="fil0 str0" d="M20100 12520.26c0,0 472.44,0 472.44,0"/>
  <path class="fil0 str0" d="M20572.44 12459.04c0,0 0,236.22 0,236.22"/>
  <path class="fil0 str0" d="M20572.44 12695.26c0,0 472.44,0 472.44,0"/>
  <path class="fil0 str0" d="M21044.89 12695.26c0,0 0,-236.22 0,-236.22"/>
  <path class="fil0 str0" d="M21044.89 12520.26c0,0 472.44,0 472.44,0"/>
  <path class="fil0 str0" d="M21517.33 12459.04c0,0 0,236.22 0,236.22"/>
  <path class="fil0 str0" d="M21517.33 12695.26c0,0 472.44,0 472.44,0"/>
  <path class="fil0 str0" d="M21989.77 12695.26c0,0 0,-236.22 0,-236.22"/>
  <path class="fil0 str0" d="M21989.77 12520.26c0,0 472.44,0 472.44,0"/>
  <path class="fil0 str0" d="M22462.21 12459.04c0,0 0,236.22 0,236.22"/>
  <path class="fil0 str0" d="M22462.21 12695.26c0,0 472.44,0 472.44,0"/>
  <path class="fil0 str0" d="M22934.65 12695.26c0,0 0,-236.22 0,-236.22"/>
  <path class="fil0 str0" d="M22934.65 12520.26c0,0 472.44,0 472.44,0"/>
  <path class="fil0 str0" d="M23407.09 12459.04c0,0 0,236.22 0,236.22"/>
  <path class="fil0 str0" d="M23407.09 12695.26c0,0 472.44,0 472.44,0"/>
  <path class="fil0 str0" d="M23879.53 12695.26c0,0 0,-236.22 0,-236.22"/>
  <path class="fil0 str0" d="M23879.53 12520.26c0,0 472.44,0 472.44,0"/>
  <path class="fil0 str0" d="M24351.97 12459.04c0,0 0,236.22 0,236.22"/>
  <path class="fil0 str0" d="M24351.97 12695.26c0,0 472.44,0 472.44,0"/>
  <path class="fil0 str0" d="M24824.41 12695.26c0,0 0,-236.22 0,-236.22"/>
  <path class="fil0 str0" d="M24824.41 12520.26c0,0 472.44,0 472.44,0"/>
  <path class="fil0 str0" d="M25296.85 12459.04c0,0 0,236.22 0,236.22"/>
  <path class="fil0 str0" d="M25296.85 12695.26c0,0 472.44,0 472.44,0"/>
  <path class="fil0 str0" d="M25769.3 12695.26c0,0 0,-236.22 0,-236.22"/>
  <path class="fil0 str0" d="M25769.3 12520.26c0,0 301.18,0 301.18,0"/>
  <path class="fil0 str0" d="M26070.48 12520.26c0,0 0,145.67 0,145.67"/>
  <path class="fil0 str0" d="M26070.48 12665.93c0,0 145.67,0 145.67,0"/>
  <path class="fil0 str0" d="M26216.15 12665.93c0,0 0,-145.67 0,-145.67"/>
  <path class="fil0 str0" d="M26216.15 12520.26c0,0 301.18,0 301.18,0"/>
  <path class="fil0 str0" d="M26517.33 12459.04c0,0 0,236.22 0,236.22"/>
  <path class="fil0 str0" d="M26517.33 12695.26c0,0 748.03,0 748.03,0"/>
  <path class="fil0 str0" d="M27204.14 12695.26c0,0 0,531.5 0,531.5"/>
  <path class="fil0 str0" d="M27265.36 13226.76c0,0 -236.22,0 -236.22,0"/>
  <path class="fil0 str0" d="M27029.14 13226.76c0,0 0,322.83 0,322.83"/>
  <path class="fil0 str0" d="M27029.14 13549.59c0,0 -104.53,0 -104.53,0"/>
  <path class="fil0 str0" d="M26924.61 13549.59c0,0 0,-49.21 0,-49.21"/>
  <path class="fil0 str0" d="M26924.61 13500.38c0,0 -98.43,0 -98.43,0"/>
  <path class="fil0 str0" d="M26826.19 13500.38c0,0 0,49.21 0,49.21"/>
  <path class="fil0 str0" d="M26826.19 13549.59c0,0 -98.43,0 -98.43,0"/>
  <path class="fil0 str0" d="M26727.76 13549.59c0,0 0,122.05 0,122.05"/>
  <path class="fil0 str0" d="M26727.76 13671.64c0,0 98.43,0 98.43,0"/>
  <path class="fil0 str0" d="M26826.19 13671.64c0,0 0,49.21 0,49.21"/>
  <path class="fil0 str0" d="M26826.19 13720.85c0,0 98.43,0 98.43,0"/>
  <path class="fil0 str0" d="M26924.61 13720.85c0,0 0,-49.21 0,-49.21"/>
  <path class="fil0 str0" d="M26924.61 13671.64c0,0 104.53,0 104.53,0"/>
  <path class="fil0 str0" d="M27029.14 13671.64c0,0 0,322.83 0,322.83"/>
  <path class="fil0 str0" d="M27029.14 13994.48c0,0 236.22,0 236.22,0"/>
  <path class="fil0 str0" d="M27204.14 13994.48c0,0 0,472.44 0,472.44"/>
  <path class="fil0 str0" d="M27265.36 14466.92c0,0 -236.22,0 -236.22,0"/>
  <path class="fil0 str0" d="M27029.14 14466.92c0,0 0,322.83 0,322.83"/>
  <path class="fil0 str0" d="M27029.14 14789.75c0,0 -104.53,0 -104.53,0"/>
  <path class="fil0 str0" d="M26924.61 14789.75c0,0 0,-49.21 0,-49.21"/>
  <path class="fil0 str0" d="M26924.61 14740.54c0,0 -98.43,0 -98.43,0"/>
  <path class="fil0 str0" d="M26826.19 14740.54c0,0 0,49.21 0,49.21"/>
  <path class="fil0 str0" d="M26826.19 14789.75c0,0 -98.43,0 -98.43,0"/>
  <path class="fil0 str0" d="M26727.76 14789.75c0,0 0,122.05 0,122.05"/>
  <path class="fil0 str0" d="M26727.76 14911.8c0,0 98.43,0 98.43,0"/>
  <path class="fil0 str0" d="M26826.19 14911.8c0,0 0,49.21 0,49.21"/>
  <path class="fil0 str0" d="M26826.19 14961.01c0,0 98.43,0 98.43,0"/>
  <path class="fil0 str0" d="M26924.61 14961.01c0,0 0,-49.21 0,-49.21"/>
  <path class="fil0 str0" d="M26924.61 14911.8c0,0 104.53,0 104.53,0"/>
  <path class="fil0 str0" d="M27029.14 14911.8c0,0 0,322.83 0,322.83"/>
  <path class="fil0 str0" d="M27029.14 15234.63c0,0 236.22,0 236.22,0"/>
  <path class="fil0 str0" d="M27204.14 15234.63c0,0 0,531.5 0,531.5"/>
  <path class="fil0 str0" d="M27265.36 15766.13c0,0 -748.03,0 -748.03,0"/>
  <path class="fil0 str0" d="M16989.77 15766.13c0,0 -748.03,0 -748.03,0"/>
  <path class="fil0 str0" d="M26609.52 9446.03c0,-24.87 -13.22,-47.86 -34.72,-60.3"/>
  <path class="fil0 str0" d="M26574.79 9385.72c-21.51,-12.44 -48.02,-12.44 -69.53,0"/>
  <path class="fil0 str0" d="M26505.27 9385.72c-21.51,12.44 -34.75,35.43 -34.73,60.3"/>
  <path class="fil0 str0" d="M26470.54 9446.03c0,24.87 13.22,47.86 34.73,60.3"/>
  <path class="fil0 str0" d="M26505.27 9506.33c21.51,12.44 48.02,12.44 69.53,0"/>
  <path class="fil0 str0" d="M26574.79 9506.33c21.51,-12.44 34.75,-35.43 34.72,-60.3"/>
  <path class="fil0 str0" d="M26152.87 9446.03c0.1,-209.55 -111.53,-403.22 -292.78,-508.02"/>
  <path class="fil0 str0" d="M25860.09 8938.01c-181.25,-104.8 -404.58,-104.8 -585.83,0"/>
  <path class="fil0 str0" d="M25274.26 8938.01c-181.25,104.8 -292.86,298.46 -292.78,508.02"/>
  <path class="fil0 str0" d="M24981.48 9446.03c-0.1,209.55 111.53,403.22 292.78,508.02"/>
  <path class="fil0 str0" d="M25274.26 9954.04c181.25,104.8 404.58,104.8 585.83,0"/>
  <path class="fil0 str0" d="M25860.09 9954.04c181.25,-104.8 292.86,-298.46 292.78,-508.02"/>
  <path class="fil0 str0" d="M22122.49 9446.03c0,-24.85 -13.24,-47.82 -34.74,-60.25"/>
  <path class="fil0 str0" d="M22087.75 9385.78c-21.5,-12.43 -47.99,-12.43 -69.49,0"/>
  <path class="fil0 str0" d="M22018.26 9385.78c-21.5,12.43 -34.74,35.39 -34.74,60.25"/>
  <path class="fil0 str0" d="M21983.51 9446.03c0,24.85 13.24,47.82 34.74,60.25"/>
  <path class="fil0 str0" d="M22018.26 9506.28c21.5,12.43 47.99,12.43 69.49,0"/>
  <path class="fil0 str0" d="M22087.75 9506.28c21.5,-12.43 34.74,-35.39 34.74,-60.25"/>
  <path class="fil0 str0" d="M18528.9 9446.03c0,-209.5 -111.63,-403.07 -292.85,-507.82"/>
  <path class="fil0 str0" d="M18236.05 8938.2c-181.22,-104.75 -404.48,-104.75 -585.7,0"/>
  <path class="fil0 str0" d="M17650.35 8938.2c-181.22,104.75 -292.85,298.33 -292.85,507.82"/>
  <path class="fil0 str0" d="M17357.51 9446.03c0,209.5 111.63,403.08 292.85,507.83"/>
  <path class="fil0 str0" d="M17650.35 9953.85c181.22,104.75 404.48,104.75 585.7,0"/>
  <path class="fil0 str0" d="M18236.05 9953.85c181.22,-104.75 292.85,-298.33 292.85,-507.83"/>
  <path class="fil0 str0" d="M17039.84 9446.03c0,-24.87 -13.22,-47.86 -34.72,-60.3"/>
  <path class="fil0 str0" d="M17005.12 9385.72c-21.51,-12.44 -48.02,-12.44 -69.53,0"/>
  <path class="fil0 str0" d="M16935.59 9385.72c-21.51,12.44 -34.75,35.43 -34.72,60.3"/>
  <path class="fil0 str0" d="M16900.87 9446.03c0,24.87 13.22,47.86 34.72,60.3"/>
  <path class="fil0 str0" d="M16935.59 9506.33c21.51,12.44 48.02,12.44 69.53,0"/>
  <path class="fil0 str0" d="M17005.12 9506.33c21.51,-12.44 34.75,-35.43 34.72,-60.3"/>
  <path class="fil0 str0" d="M23611.55 9446.03c0,-209.52 -111.58,-403.15 -292.81,-507.92"/>
  <path class="fil0 str0" d="M23318.73 8938.11c-181.23,-104.77 -404.53,-104.77 -585.76,0"/>
  <path class="fil0 str0" d="M22732.97 8938.11c-181.23,104.77 -292.85,298.4 -292.81,507.92"/>
  <path class="fil0 str0" d="M22440.16 9446.03c0,209.52 111.58,403.15 292.81,507.92"/>
  <path class="fil0 str0" d="M22732.97 9953.95c181.23,104.77 404.53,104.77 585.76,0"/>
  <path class="fil0 str0" d="M23318.73 9953.95c181.23,-104.77 292.85,-298.4 292.81,-507.92"/>
  <path class="fil0 str0" d="M24068.19 9446.03c0,-24.85 -13.24,-47.82 -34.74,-60.25"/>
  <path class="fil0 str0" d="M24033.45 9385.78c-21.5,-12.43 -47.99,-12.43 -69.49,0"/>
  <path class="fil0 str0" d="M23963.96 9385.78c-21.5,12.43 -34.74,35.39 -34.74,60.25"/>
  <path class="fil0 str0" d="M23929.22 9446.03c0,24.85 13.24,47.82 34.74,60.25"/>
  <path class="fil0 str0" d="M23963.96 9506.28c21.5,12.43 47.99,12.43 69.49,0"/>
  <path class="fil0 str0" d="M24033.45 9506.28c21.5,-12.43 34.74,-35.39 34.74,-60.25"/>
  <path class="fil0 str0" d="M19581.17 9446.03c0,-24.85 -13.24,-47.82 -34.74,-60.25"/>
  <path class="fil0 str0" d="M19546.42 9385.78c-21.5,-12.43 -47.99,-12.43 -69.49,0"/>
  <path class="fil0 str0" d="M19476.93 9385.78c-21.5,12.43 -34.74,35.39 -34.74,60.25"/>
  <path class="fil0 str0" d="M19442.19 9446.03c0,24.85 13.24,47.82 34.74,60.25"/>
  <path class="fil0 str0" d="M19476.93 9506.28c21.5,12.43 47.99,12.43 69.49,0"/>
  <path class="fil0 str0" d="M19546.42 9506.28c21.5,-12.43 34.74,-35.39 34.74,-60.25"/>
  <path class="fil0 str0" d="M21526.87 9446.03c0,-24.87 -13.22,-47.86 -34.73,-60.3"/>
  <path class="fil0 str0" d="M21492.14 9385.73c-21.51,-12.44 -48.02,-12.44 -69.52,0"/>
  <path class="fil0 str0" d="M21422.62 9385.73c-21.51,12.44 -34.75,35.43 -34.73,60.3"/>
  <path class="fil0 str0" d="M21387.89 9446.03c0,24.87 13.22,47.86 34.73,60.3"/>
  <path class="fil0 str0" d="M21422.62 9506.33c21.51,12.44 48.01,12.44 69.52,0"/>
  <path class="fil0 str0" d="M21492.14 9506.33c21.51,-12.44 34.75,-35.43 34.73,-60.3"/>
  <path class="fil0 str0" d="M21070.22 9446.03c0,-209.52 -111.58,-403.15 -292.81,-507.92"/>
  <path class="fil0 str0" d="M20777.41 8938.11c-181.23,-104.77 -404.53,-104.77 -585.76,0"/>
  <path class="fil0 str0" d="M20191.65 8938.11c-181.23,104.77 -292.85,298.4 -292.81,507.92"/>
  <path class="fil0 str0" d="M19898.83 9446.03c0,209.52 111.58,403.15 292.81,507.92"/>
  <path class="fil0 str0" d="M20191.65 9953.95c181.23,104.77 404.53,104.77 585.76,0"/>
  <path class="fil0 str0" d="M20777.41 9953.95c181.23,-104.77 292.85,-298.4 292.81,-507.92"/>
  <path class="fil0 str0" d="M18985.54 9446.03c0,-24.88 -13.2,-47.89 -34.71,-60.34"/>
  <path class="fil0 str0" d="M18950.83 9385.69c-21.52,-12.45 -48.04,-12.45 -69.55,0"/>
  <path class="fil0 str0" d="M18881.28 9385.69c-21.52,12.45 -34.75,35.46 -34.71,60.34"/>
  <path class="fil0 str0" d="M18846.57 9446.03c0,24.88 13.2,47.89 34.71,60.34"/>
  <path class="fil0 str0" d="M18881.28 9506.37c21.52,12.45 48.04,12.45 69.55,0"/>
  <path class="fil0 str0" d="M18950.83 9506.37c21.52,-12.45 34.75,-35.46 34.71,-60.34"/>
  <path class="fil0 str0" d="M16991.41 12012.76c0,0 0,-236.22 0,-236.22"/>
  <path class="fil0 str0" d="M16991.41 11776.54c0,0 313,0 313,0"/>
  <path class="fil0 str0" d="M17304.41 11776.54c0,0 0,-104.53 0,-104.53"/>
  <path class="fil0 str0" d="M17304.41 11672.01c0,0 -49.21,0 -49.21,0"/>
  <path class="fil0 str0" d="M17255.19 11672.01c0,0 0,-98.43 0,-98.43"/>
  <path class="fil0 str0" d="M17255.19 11573.58c0,0 49.21,0 49.21,0"/>
  <path class="fil0 str0" d="M17304.41 11573.58c0,0 0,-98.43 0,-98.43"/>
  <path class="fil0 str0" d="M17304.41 11475.16c0,0 122.04,0 122.04,0"/>
  <path class="fil0 str0" d="M17426.45 11475.16c0,0 0,98.43 0,98.43"/>
  <path class="fil0 str0" d="M17426.45 11573.58c0,0 49.21,0 49.21,0"/>
  <path class="fil0 str0" d="M17475.66 11573.58c0,0 0,98.43 0,98.43"/>
  <path class="fil0 str0" d="M17475.66 11672.01c0,0 -49.21,0 -49.21,0"/>
  <path class="fil0 str0" d="M17426.45 11672.01c0,0 0,104.53 0,104.53"/>
  <path class="fil0 str0" d="M17426.45 11776.54c0,0 312.99,0 312.99,0"/>
  <path class="fil0 str0" d="M17739.44 11776.54c0,0 0,236.22 0,236.22"/>
  <path class="fil0 str0" d="M18211.89 12012.76c0,0 0,-236.22 0,-236.22"/>
  <path class="fil0 str0" d="M18211.89 11776.54c0,0 472.44,0 472.44,0"/>
  <path class="fil0 str0" d="M18684.32 11776.54c0,0 0,236.22 0,236.22"/>
  <path class="fil0 str0" d="M19156.76 12012.76c0,0 0,-236.22 0,-236.22"/>
  <path class="fil0 str0" d="M19156.76 11776.54c0,0 472.44,0 472.44,0"/>
  <path class="fil0 str0" d="M19629.21 11776.54c0,0 0,236.22 0,236.22"/>
  <path class="fil0 str0" d="M20101.65 12012.76c0,0 0,-236.22 0,-236.22"/>
  <path class="fil0 str0" d="M20101.65 11776.54c0,0 472.44,0 472.44,0"/>
  <path class="fil0 str0" d="M20574.09 11776.54c0,0 0,236.22 0,236.22"/>
  <path class="fil0 str0" d="M21046.53 12012.76c0,0 0,-236.22 0,-236.22"/>
  <path class="fil0 str0" d="M21046.53 11776.54c0,0 472.44,0 472.44,0"/>
  <path class="fil0 str0" d="M21518.97 11776.54c0,0 0,236.22 0,236.22"/>
  <path class="fil0 str0" d="M21991.41 12012.76c0,0 0,-236.22 0,-236.22"/>
  <path class="fil0 str0" d="M21991.41 11776.54c0,0 472.44,0 472.44,0"/>
  <path class="fil0 str0" d="M22463.85 11776.54c0,0 0,236.22 0,236.22"/>
  <path class="fil0 str0" d="M22936.3 12012.76c0,0 0,-236.22 0,-236.22"/>
  <path class="fil0 str0" d="M22936.3 11776.54c0,0 472.44,0 472.44,0"/>
  <path class="fil0 str0" d="M23408.73 11776.54c0,0 0,236.22 0,236.22"/>
  <path class="fil0 str0" d="M23881.18 12012.76c0,0 0,-236.22 0,-236.22"/>
  <path class="fil0 str0" d="M23881.18 11776.54c0,0 472.44,0 472.44,0"/>
  <path class="fil0 str0" d="M24353.62 11776.54c0,0 0,236.22 0,236.22"/>
  <path class="fil0 str0" d="M24826.06 12012.76c0,0 0,-236.22 0,-236.22"/>
  <path class="fil0 str0" d="M24826.06 11776.54c0,0 472.44,0 472.44,0"/>
  <path class="fil0 str0" d="M25298.5 11776.54c0,0 0,236.22 0,236.22"/>
  <path class="fil0 str0" d="M25770.94 12012.76c0,0 0,-236.22 0,-236.22"/>
  <path class="fil0 str0" d="M25770.94 11776.54c0,0 312.99,0 312.99,0"/>
  <path class="fil0 str0" d="M26083.93 11776.54c0,0 0,-104.53 0,-104.53"/>
  <path class="fil0 str0" d="M26083.93 11672.01c0,0 -49.22,0 -49.22,0"/>
  <path class="fil0 str0" d="M26034.72 11672.01c0,0 0,-98.43 0,-98.43"/>
  <path class="fil0 str0" d="M26034.72 11573.58c0,0 49.22,0 49.22,0"/>
  <path class="fil0 str0" d="M26083.93 11573.58c0,0 0,-98.43 0,-98.43"/>
  <path class="fil0 str0" d="M26083.93 11475.16c0,0 122.05,0 122.05,0"/>
  <path class="fil0 str0" d="M26205.98 11475.16c0,0 0,98.43 0,98.43"/>
  <path class="fil0 str0" d="M26205.98 11573.58c0,0 49.21,0 49.21,0"/>
  <path class="fil0 str0" d="M26255.19 11573.58c0,0 0,98.43 0,98.43"/>
  <path class="fil0 str0" d="M26255.19 11672.01c0,0 -49.21,0 -49.21,0"/>
  <path class="fil0 str0" d="M26205.98 11672.01c0,0 0,104.53 0,104.53"/>
  <path class="fil0 str0" d="M26205.98 11776.54c0,0 312.99,0 312.99,0"/>
  <path class="fil0 str0" d="M26518.97 11776.54c0,0 0,236.22 0,236.22"/>
  <path class="fil0 str0" d="M27030.78 12012.76c0,0 0,-688.98 0,-688.98"/>
  <path class="fil0 str0" d="M16479.6 11951.54c0,0 511.81,0 511.81,0"/>
  <path class="fil0 str0" d="M17739.44 11951.54c0,0 472.44,0 472.44,0"/>
  <path class="fil0 str0" d="M18684.32 11951.54c0,0 472.44,0 472.44,0"/>
  <path class="fil0 str0" d="M19629.21 11951.54c0,0 472.44,0 472.44,0"/>
  <path class="fil0 str0" d="M20574.09 11951.54c0,0 472.44,0 472.44,0"/>
  <path class="fil0 str0" d="M21518.97 11951.54c0,0 472.44,0 472.44,0"/>
  <path class="fil0 str0" d="M22463.85 11951.54c0,0 472.44,0 472.44,0"/>
  <path class="fil0 str0" d="M23408.73 11951.54c0,0 472.44,0 472.44,0"/>
  <path class="fil0 str0" d="M24353.62 11951.54c0,0 472.44,0 472.44,0"/>
  <path class="fil0 str0" d="M25298.5 11951.54c0,0 472.44,0 472.44,0"/>
  <path class="fil0 str0" d="M26518.97 11951.54c0,0 511.81,0 511.81,0"/>
  <line class="fil0 str0" x1="27030.78" y1="7583.62" x2="27144.56" y2= "7583.62" />
  <path class="fil0 str0" d="M16479.59 6894.65c0,0 0,688.98 0,688.98"/>
  <path class="fil0 str0" d="M16407.36 7583.62c-53.52,0 -102.77,0 -102.77,0"/>
  <path class="fil0 str0" d="M16304.59 7583.62c0,0 0,271.65 0,271.65"/>
  <path class="fil0 str0" d="M16304.59 7855.28c0,0 145.67,0 145.67,0"/>
  <path class="fil0 str0" d="M16450.26 7855.28c0,0 0,145.67 0,145.67"/>
  <path class="fil0 str0" d="M16450.26 8000.94c0,0 -145.67,0 -145.67,0"/>
  <path class="fil0 str0" d="M16304.59 8000.94c0,0 0,271.65 0,271.65"/>
  <path class="fil0 str0" d="M16304.59 8272.6c0,0 175,0 175,0"/>
  <path class="fil0 str0" d="M16479.59 8272.6c0,0 0,472.44 0,472.44"/>
  <path class="fil0 str0" d="M16540.81 8745.04c0,0 -236.22,0 -236.22,0"/>
  <path class="fil0 str0" d="M16304.59 8745.04c0,0 0,472.44 0,472.44"/>
  <path class="fil0 str0" d="M16304.59 9217.48c0,0 175,0 175,0"/>
  <path class="fil0 str0" d="M16479.59 9217.48c0,0 0,472.44 0,472.44"/>
  <path class="fil0 str0" d="M16489.64 9689.92c0,0 -185.04,0 -185.04,0"/>
  <path class="fil0 str0" d="M16304.59 9689.92c0,0 0,472.44 0,472.44"/>
  <path class="fil0 str0" d="M16304.59 10162.36c0,0 175,0 175,0"/>
  <path class="fil0 str0" d="M16479.59 10162.36c0,0 0,472.44 0,472.44"/>
  <path class="fil0 str0" d="M16479.59 10634.8c0,0 -175,0 -175,0"/>
  <path class="fil0 str0" d="M16304.59 10634.8c0,0 0,271.65 0,271.65"/>
  <path class="fil0 str0" d="M16304.59 10906.46c0,0 145.67,0 145.67,0"/>
  <path class="fil0 str0" d="M16450.26 10906.46c0,0 0,145.67 0,145.67"/>
  <path class="fil0 str0" d="M16450.26 11052.13c0,0 -145.67,0 -145.67,0"/>
  <path class="fil0 str0" d="M16304.59 11052.13c0,0 0,271.65 0,271.65"/>
  <path class="fil0 str0" d="M16304.59 11323.78c0,0 175,0 175,0"/>
  <path class="fil0 str0" d="M16479.59 12012.76c0,0 0,-688.98 0,-688.98"/>
  <line class="fil0 str0" x1="16479.59" y1="7583.62" x2="16365.81" y2= "7583.62" />
  <path class="fil0 str0" d="M5383.42 6955.87c0,0 511.81,0 511.81,0"/>
  <path class="fil0 str0" d="M5895.23 6894.65c0,0 0,236.22 0,236.22"/>
  <path class="fil0 str0" d="M5895.23 7130.87c0,0 313,0 313,0"/>
  <path class="fil0 str0" d="M6208.22 7130.87c0,0 0,104.53 0,104.53"/>
  <path class="fil0 str0" d="M6208.22 7235.39c0,0 -49.21,0 -49.21,0"/>
  <path class="fil0 str0" d="M6159.01 7235.39c0,0 0,98.43 0,98.43"/>
  <path class="fil0 str0" d="M6159.01 7333.82c0,0 49.21,0 49.21,0"/>
  <path class="fil0 str0" d="M6208.22 7333.82c0,0 0,98.43 0,98.43"/>
  <path class="fil0 str0" d="M6208.22 7432.24c0,0 122.04,0 122.04,0"/>
  <path class="fil0 str0" d="M6330.27 7432.24c0,0 0,-98.43 0,-98.43"/>
  <path class="fil0 str0" d="M6330.27 7333.82c0,0 49.21,0 49.21,0"/>
  <path class="fil0 str0" d="M6379.48 7333.82c0,0 0,-98.43 0,-98.43"/>
  <path class="fil0 str0" d="M6379.48 7235.39c0,0 -49.21,0 -49.21,0"/>
  <path class="fil0 str0" d="M6330.27 7235.39c0,0 0,-104.53 0,-104.53"/>
  <path class="fil0 str0" d="M6330.27 7130.87c0,0 312.99,0 312.99,0"/>
  <path class="fil0 str0" d="M6643.26 7130.87c0,0 0,-236.22 0,-236.22"/>
  <path class="fil0 str0" d="M6643.26 6955.87c0,0 472.44,0 472.44,0"/>
  <path class="fil0 str0" d="M7115.7 6894.65c0,0 0,236.22 0,236.22"/>
  <path class="fil0 str0" d="M7115.7 7130.87c0,0 472.44,0 472.44,0"/>
  <path class="fil0 str0" d="M7588.14 7130.87c0,0 0,-236.22 0,-236.22"/>
  <path class="fil0 str0" d="M7588.14 6955.87c0,0 472.44,0 472.44,0"/>
  <path class="fil0 str0" d="M8060.58 6894.65c0,0 0,236.22 0,236.22"/>
  <path class="fil0 str0" d="M8060.58 7130.87c0,0 472.44,0 472.44,0"/>
  <path class="fil0 str0" d="M8533.03 7130.87c0,0 0,-236.22 0,-236.22"/>
  <path class="fil0 str0" d="M8533.03 6955.87c0,0 472.44,0 472.44,0"/>
  <path class="fil0 str0" d="M9005.46 6894.65c0,0 0,236.22 0,236.22"/>
  <path class="fil0 str0" d="M9005.46 7130.87c0,0 472.44,0 472.44,0"/>
  <path class="fil0 str0" d="M9477.91 7130.87c0,0 0,-236.22 0,-236.22"/>
  <path class="fil0 str0" d="M9477.91 6955.87c0,0 472.44,0 472.44,0"/>
  <path class="fil0 str0" d="M9950.35 6894.65c0,0 0,236.22 0,236.22"/>
  <path class="fil0 str0" d="M9950.35 7130.87c0,0 472.44,0 472.44,0"/>
  <path class="fil0 str0" d="M10422.79 7130.87c0,0 0,-236.22 0,-236.22"/>
  <path class="fil0 str0" d="M10422.79 6955.87c0,0 472.44,0 472.44,0"/>
  <path class="fil0 str0" d="M10895.23 6894.65c0,0 0,236.22 0,236.22"/>
  <path class="fil0 str0" d="M10895.23 7130.87c0,0 472.44,0 472.44,0"/>
  <path class="fil0 str0" d="M11367.67 7130.87c0,0 0,-236.22 0,-236.22"/>
  <path class="fil0 str0" d="M11367.67 6955.87c0,0 472.44,0 472.44,0"/>
  <path class="fil0 str0" d="M11840.11 6894.65c0,0 0,236.22 0,236.22"/>
  <path class="fil0 str0" d="M11840.11 7130.87c0,0 472.44,0 472.44,0"/>
  <path class="fil0 str0" d="M12312.55 7130.87c0,0 0,-236.22 0,-236.22"/>
  <path class="fil0 str0" d="M12312.55 6955.87c0,0 472.44,0 472.44,0"/>
  <path class="fil0 str0" d="M12785 6894.65c0,0 0,236.22 0,236.22"/>
  <path class="fil0 str0" d="M12785 7130.87c0,0 472.44,0 472.44,0"/>
  <path class="fil0 str0" d="M13257.44 7130.87c0,0 0,-236.22 0,-236.22"/>
  <path class="fil0 str0" d="M13257.44 6955.87c0,0 472.44,0 472.44,0"/>
  <path class="fil0 str0" d="M13729.87 6894.65c0,0 0,236.22 0,236.22"/>
  <path class="fil0 str0" d="M13729.87 7130.87c0,0 472.44,0 472.44,0"/>
  <path class="fil0 str0" d="M14202.32 7130.87c0,0 0,-236.22 0,-236.22"/>
  <path class="fil0 str0" d="M14202.32 6955.87c0,0 472.44,0 472.44,0"/>
  <path class="fil0 str0" d="M14674.76 6894.65c0,0 0,236.22 0,236.22"/>
  <path class="fil0 str0" d="M14674.76 7130.87c0,0 312.99,0 312.99,0"/>
  <path class="fil0 str0" d="M14987.75 7130.87c0,0 0,104.53 0,104.53"/>
  <path class="fil0 str0" d="M14987.75 7235.39c0,0 -49.22,0 -49.22,0"/>
  <path class="fil0 str0" d="M14938.54 7235.39c0,0 0,98.43 0,98.43"/>
  <path class="fil0 str0" d="M14938.54 7333.82c0,0 49.22,0 49.22,0"/>
  <path class="fil0 str0" d="M14987.75 7333.82c0,0 0,98.43 0,98.43"/>
  <path class="fil0 str0" d="M14987.75 7432.24c0,0 122.05,0 122.05,0"/>
  <path class="fil0 str0" d="M15109.8 7432.24c0,0 0,-98.43 0,-98.43"/>
  <path class="fil0 str0" d="M15109.8 7333.82c0,0 49.21,0 49.21,0"/>
  <path class="fil0 str0" d="M15159.01 7333.82c0,0 0,-98.43 0,-98.43"/>
  <path class="fil0 str0" d="M15159.01 7235.39c0,0 -49.21,0 -49.21,0"/>
  <path class="fil0 str0" d="M15109.8 7235.39c0,0 0,-104.53 0,-104.53"/>
  <path class="fil0 str0" d="M15109.8 7130.87c0,0 312.99,0 312.99,0"/>
  <path class="fil0 str0" d="M15422.79 7130.87c0,0 0,-236.22 0,-236.22"/>
  <path class="fil0 str0" d="M15422.79 6955.87c0,0 511.81,0 511.81,0"/>
  <path class="fil0 str0" d="M15934.6 6894.65c0,0 0,688.98 0,688.98"/>
  <path class="fil0 str0" d="M16006.84 7583.62c53.52,0 102.76,0 102.76,0"/>
  <path class="fil0 str0" d="M16109.6 7583.62c0,0 0,271.65 0,271.65"/>
  <path class="fil0 str0" d="M16109.6 7855.28c0,0 -145.67,0 -145.67,0"/>
  <path class="fil0 str0" d="M15963.93 7855.28c0,0 0,145.67 0,145.67"/>
  <path class="fil0 str0" d="M15963.93 8000.94c0,0 145.67,0 145.67,0"/>
  <path class="fil0 str0" d="M16109.6 8000.94c0,0 0,271.65 0,271.65"/>
  <path class="fil0 str0" d="M16109.6 8272.6c0,0 -175,0 -175,0"/>
  <path class="fil0 str0" d="M15934.6 8272.6c0,0 0,472.44 0,472.44"/>
  <path class="fil0 str0" d="M15873.38 8745.04c0,0 236.22,0 236.22,0"/>
  <path class="fil0 str0" d="M16109.6 8745.04c0,0 0,472.44 0,472.44"/>
  <path class="fil0 str0" d="M16109.6 9217.48c0,0 -175,0 -175,0"/>
  <path class="fil0 str0" d="M15934.6 9217.48c0,0 0,472.44 0,472.44"/>
  <path class="fil0 str0" d="M15924.56 9689.92c0,0 185.04,0 185.04,0"/>
  <path class="fil0 str0" d="M16109.6 9689.92c0,0 0,472.44 0,472.44"/>
  <path class="fil0 str0" d="M16109.6 10162.36c0,0 -175,0 -175,0"/>
  <path class="fil0 str0" d="M15934.6 10162.36c0,0 0,472.44 0,472.44"/>
  <path class="fil0 str0" d="M15934.6 10634.8c0,0 175,0 175,0"/>
  <path class="fil0 str0" d="M16109.6 10634.8c0,0 0,271.65 0,271.65"/>
  <path class="fil0 str0" d="M16109.6 10906.46c0,0 -145.67,0 -145.67,0"/>
  <path class="fil0 str0" d="M15963.93 10906.46c0,0 0,145.67 0,145.67"/>
  <path class="fil0 str0" d="M15963.93 11052.13c0,0 145.67,0 145.67,0"/>
  <path class="fil0 str0" d="M16109.6 11052.13c0,0 0,271.65 0,271.65"/>
  <path class="fil0 str0" d="M16109.6 11323.78c0,0 -175,0 -175,0"/>
  <path class="fil0 str0" d="M5895.23 12012.76c0,0 0,-236.22 0,-236.22"/>
  <path class="fil0 str0" d="M5895.23 11776.54c0,0 313,0 313,0"/>
  <path class="fil0 str0" d="M6208.22 11776.54c0,0 0,-104.53 0,-104.53"/>
  <path class="fil0 str0" d="M6208.22 11672.01c0,0 -49.21,0 -49.21,0"/>
  <path class="fil0 str0" d="M6159.01 11672.01c0,0 0,-98.43 0,-98.43"/>
  <path class="fil0 str0" d="M6159.01 11573.58c0,0 49.21,0 49.21,0"/>
  <path class="fil0 str0" d="M6208.22 11573.58c0,0 0,-98.43 0,-98.43"/>
  <path class="fil0 str0" d="M6208.22 11475.16c0,0 122.04,0 122.04,0"/>
  <path class="fil0 str0" d="M6330.27 11475.16c0,0 0,98.43 0,98.43"/>
  <path class="fil0 str0" d="M6330.27 11573.58c0,0 49.21,0 49.21,0"/>
  <path class="fil0 str0" d="M6379.48 11573.58c0,0 0,98.43 0,98.43"/>
  <path class="fil0 str0" d="M6379.48 11672.01c0,0 -49.21,0 -49.21,0"/>
  <path class="fil0 str0" d="M6330.27 11672.01c0,0 0,104.53 0,104.53"/>
  <path class="fil0 str0" d="M6330.27 11776.54c0,0 312.99,0 312.99,0"/>
  <path class="fil0 str0" d="M6643.26 11776.54c0,0 0,236.22 0,236.22"/>
  <path class="fil0 str0" d="M7115.7 12012.76c0,0 0,-236.22 0,-236.22"/>
  <path class="fil0 str0" d="M7115.7 11776.54c0,0 472.44,0 472.44,0"/>
  <path class="fil0 str0" d="M7588.14 11776.54c0,0 0,236.22 0,236.22"/>
  <path class="fil0 str0" d="M8060.58 12012.76c0,0 0,-236.22 0,-236.22"/>
  <path class="fil0 str0" d="M8060.58 11776.54c0,0 472.44,0 472.44,0"/>
  <path class="fil0 str0" d="M8533.03 11776.54c0,0 0,236.22 0,236.22"/>
  <path class="fil0 str0" d="M9005.46 12012.76c0,0 0,-236.22 0,-236.22"/>
  <path class="fil0 str0" d="M9005.46 11776.54c0,0 472.44,0 472.44,0"/>
  <path class="fil0 str0" d="M9477.91 11776.54c0,0 0,236.22 0,236.22"/>
  <path class="fil0 str0" d="M9950.35 12012.76c0,0 0,-236.22 0,-236.22"/>
  <path class="fil0 str0" d="M9950.35 11776.54c0,0 472.44,0 472.44,0"/>
  <path class="fil0 str0" d="M10422.79 11776.54c0,0 0,236.22 0,236.22"/>
  <path class="fil0 str0" d="M10895.23 12012.76c0,0 0,-236.22 0,-236.22"/>
  <path class="fil0 str0" d="M10895.23 11776.54c0,0 472.44,0 472.44,0"/>
  <path class="fil0 str0" d="M11367.67 11776.54c0,0 0,236.22 0,236.22"/>
  <path class="fil0 str0" d="M11840.11 12012.76c0,0 0,-236.22 0,-236.22"/>
  <path class="fil0 str0" d="M11840.11 11776.54c0,0 472.44,0 472.44,0"/>
  <path class="fil0 str0" d="M12312.55 11776.54c0,0 0,236.22 0,236.22"/>
  <path class="fil0 str0" d="M12785 12012.76c0,0 0,-236.22 0,-236.22"/>
  <path class="fil0 str0" d="M12785 11776.54c0,0 472.44,0 472.44,0"/>
  <path class="fil0 str0" d="M13257.44 11776.54c0,0 0,236.22 0,236.22"/>
  <path class="fil0 str0" d="M13729.87 12012.76c0,0 0,-236.22 0,-236.22"/>
  <path class="fil0 str0" d="M13729.87 11776.54c0,0 472.44,0 472.44,0"/>
  <path class="fil0 str0" d="M14202.32 11776.54c0,0 0,236.22 0,236.22"/>
  <path class="fil0 str0" d="M14674.76 12012.76c0,0 0,-236.22 0,-236.22"/>
  <path class="fil0 str0" d="M14674.76 11776.54c0,0 312.99,0 312.99,0"/>
  <path class="fil0 str0" d="M14987.75 11776.54c0,0 0,-104.53 0,-104.53"/>
  <path class="fil0 str0" d="M14987.75 11672.01c0,0 -49.22,0 -49.22,0"/>
  <path class="fil0 str0" d="M14938.54 11672.01c0,0 0,-98.43 0,-98.43"/>
  <path class="fil0 str0" d="M14938.54 11573.58c0,0 49.22,0 49.22,0"/>
  <path class="fil0 str0" d="M14987.75 11573.58c0,0 0,-98.43 0,-98.43"/>
  <path class="fil0 str0" d="M14987.75 11475.16c0,0 122.05,0 122.05,0"/>
  <path class="fil0 str0" d="M15109.8 11475.16c0,0 0,98.43 0,98.43"/>
  <path class="fil0 str0" d="M15109.8 11573.58c0,0 49.21,0 49.21,0"/>
  <path class="fil0 str0" d="M15159.01 11573.58c0,0 0,98.43 0,98.43"/>
  <path class="fil0 str0" d="M15159.01 11672.01c0,0 -49.21,0 -49.21,0"/>
  <path class="fil0 str0" d="M15109.8 11672.01c0,0 0,104.53 0,104.53"/>
  <path class="fil0 str0" d="M15109.8 11776.54c0,0 312.99,0 312.99,0"/>
  <path class="fil0 str0" d="M15422.79 11776.54c0,0 0,236.22 0,236.22"/>
  <path class="fil0 str0" d="M15934.6 12012.76c0,0 0,-688.98 0,-688.98"/>
  <path class="fil0 str0" d="M5383.42 11951.54c0,0 511.81,0 511.81,0"/>
  <path class="fil0 str0" d="M6643.26 11951.54c0,0 472.44,0 472.44,0"/>
  <path class="fil0 str0" d="M7588.14 11951.54c0,0 472.44,0 472.44,0"/>
  <path class="fil0 str0" d="M8533.03 11951.54c0,0 472.44,0 472.44,0"/>
  <path class="fil0 str0" d="M9477.91 11951.54c0,0 472.44,0 472.44,0"/>
  <path class="fil0 str0" d="M10422.79 11951.54c0,0 472.44,0 472.44,0"/>
  <path class="fil0 str0" d="M11367.67 11951.54c0,0 472.44,0 472.44,0"/>
  <path class="fil0 str0" d="M12312.55 11951.54c0,0 472.44,0 472.44,0"/>
  <path class="fil0 str0" d="M13257.44 11951.54c0,0 472.44,0 472.44,0"/>
  <path class="fil0 str0" d="M14202.32 11951.54c0,0 472.44,0 472.44,0"/>
  <path class="fil0 str0" d="M15422.79 11951.54c0,0 511.81,0 511.81,0"/>
  <line class="fil0 str0" x1="15934.6" y1="7583.62" x2="16048.38" y2= "7583.62" />
  <path class="fil0 str0" d="M5383.41 6894.65c0,0 0,688.98 0,688.98"/>
  <path class="fil0 str0" d="M5311.18 7583.62c-53.52,0 -102.77,0 -102.77,0"/>
  <path class="fil0 str0" d="M5208.41 7583.62c0,0 0,271.65 0,271.65"/>
  <path class="fil0 str0" d="M5208.41 7855.28c0,0 145.67,0 145.67,0"/>
  <path class="fil0 str0" d="M5354.08 7855.28c0,0 0,145.67 0,145.67"/>
  <path class="fil0 str0" d="M5354.08 8000.94c0,0 -145.67,0 -145.67,0"/>
  <path class="fil0 str0" d="M5208.41 8000.94c0,0 0,271.65 0,271.65"/>
  <path class="fil0 str0" d="M5208.41 8272.6c0,0 175,0 175,0"/>
  <path class="fil0 str0" d="M5383.41 8272.6c0,0 0,472.44 0,472.44"/>
  <path class="fil0 str0" d="M5444.63 8745.04c0,0 -236.22,0 -236.22,0"/>
  <path class="fil0 str0" d="M5208.41 8745.04c0,0 0,472.44 0,472.44"/>
  <path class="fil0 str0" d="M5208.41 9217.48c0,0 175,0 175,0"/>
  <path class="fil0 str0" d="M5383.41 9217.48c0,0 0,472.44 0,472.44"/>
  <path class="fil0 str0" d="M5393.46 9689.92c0,0 -185.04,0 -185.04,0"/>
  <path class="fil0 str0" d="M5208.41 9689.92c0,0 0,472.44 0,472.44"/>
  <path class="fil0 str0" d="M5208.41 10162.36c0,0 175,0 175,0"/>
  <path class="fil0 str0" d="M5383.41 10162.36c0,0 0,472.44 0,472.44"/>
  <path class="fil0 str0" d="M5383.41 10634.8c0,0 -175,0 -175,0"/>
  <path class="fil0 str0" d="M5208.41 10634.8c0,0 0,271.65 0,271.65"/>
  <path class="fil0 str0" d="M5208.41 10906.46c0,0 145.67,0 145.67,0"/>
  <path class="fil0 str0" d="M5354.08 10906.46c0,0 0,145.67 0,145.67"/>
  <path class="fil0 str0" d="M5354.08 11052.13c0,0 -145.67,0 -145.67,0"/>
  <path class="fil0 str0" d="M5208.41 11052.13c0,0 0,271.65 0,271.65"/>
  <path class="fil0 str0" d="M5208.41 11323.78c0,0 175,0 175,0"/>
  <path class="fil0 str0" d="M5383.41 12012.76c0,0 0,-688.98 0,-688.98"/>
  <line class="fil0 str0" x1="5383.41" y1="7583.62" x2="5269.63" y2= "7583.62" />
  <line class="fil0 str0" x1="27530.38" y1="7579.73" x2="27355.38" y2= "7579.73" />
  <path class="fil0 str0" d="M28061.88 11772.65c0,0 0,236.22 0,236.22"/>
  <path class="fil0 str0" d="M28061.88 11947.65c0,0 311.02,0 311.02,0"/>
  <path class="fil0 str0" d="M28372.9 11947.65c0,0 0,-145.67 0,-145.67"/>
  <path class="fil0 str0" d="M28372.9 11801.98c0,0 145.67,0 145.67,0"/>
  <path class="fil0 str0" d="M28518.57 11801.98c0,0 0,145.67 0,145.67"/>
  <path class="fil0 str0" d="M28518.57 11947.65c0,0 311.02,0 311.02,0"/>
  <path class="fil0 str0" d="M28829.59 12008.87c0,0 0,-236.22 0,-236.22"/>
  <path class="fil0 str0" d="M28829.59 11772.65c0,0 472.44,0 472.44,0"/>
  <path class="fil0 str0" d="M29302.04 11772.65c0,0 0,236.22 0,236.22"/>
  <path class="fil0 str0" d="M29302.04 11947.65c0,0 311.02,0 311.02,0"/>
  <path class="fil0 str0" d="M29613.06 11947.65c0,0 0,-145.67 0,-145.67"/>
  <path class="fil0 str0" d="M29613.06 11801.98c0,0 145.67,0 145.67,0"/>
  <path class="fil0 str0" d="M29758.73 11801.98c0,0 0,145.67 0,145.67"/>
  <path class="fil0 str0" d="M29758.73 11947.65c0,0 311.02,0 311.02,0"/>
  <path class="fil0 str0" d="M30069.75 12008.87c0,0 0,-236.22 0,-236.22"/>
  <path class="fil0 str0" d="M30776.25 11772.65c0,0 0,-452.76 0,-452.76"/>
  <path class="fil0 str0" d="M30601.25 11036.43c0,0 -104.53,0 -104.53,0"/>
  <path class="fil0 str0" d="M30496.72 11036.43c0,0 0,49.21 0,49.21"/>
  <path class="fil0 str0" d="M30496.72 11085.64c0,0 -98.43,0 -98.43,0"/>
  <path class="fil0 str0" d="M30398.3 11085.64c0,0 0,-49.21 0,-49.21"/>
  <path class="fil0 str0" d="M30398.3 11036.43c0,0 -98.43,0 -98.43,0"/>
  <path class="fil0 str0" d="M30299.87 11036.43c0,0 0,-122.05 0,-122.05"/>
  <path class="fil0 str0" d="M30299.87 10914.38c0,0 98.43,0 98.43,0"/>
  <path class="fil0 str0" d="M30398.3 10914.38c0,0 0,-49.21 0,-49.21"/>
  <path class="fil0 str0" d="M30398.3 10865.17c0,0 98.43,0 98.43,0"/>
  <path class="fil0 str0" d="M30496.72 10865.17c0,0 0,49.21 0,49.21"/>
  <path class="fil0 str0" d="M30496.72 10914.38c0,0 104.53,0 104.53,0"/>
  <path class="fil0 str0" d="M30776.25 10630.91c0,0 0,-472.44 0,-472.44"/>
  <path class="fil0 str0" d="M30776.25 9686.03c0,0 0,-472.44 0,-472.44"/>
  <path class="fil0 str0" d="M30776.25 8741.15c0,0 0,-472.44 0,-472.44"/>
  <path class="fil0 str0" d="M30601.25 7985.24c0,0 -104.53,0 -104.53,0"/>
  <path class="fil0 str0" d="M30496.72 7985.24c0,0 0,49.21 0,49.21"/>
  <path class="fil0 str0" d="M30496.72 8034.46c0,0 -98.43,0 -98.43,0"/>
  <path class="fil0 str0" d="M30398.3 8034.46c0,0 0,-49.21 0,-49.21"/>
  <path class="fil0 str0" d="M30398.3 7985.24c0,0 -98.43,0 -98.43,0"/>
  <path class="fil0 str0" d="M30299.87 7985.24c0,0 0,-122.05 0,-122.05"/>
  <path class="fil0 str0" d="M30299.87 7863.2c0,0 98.43,0 98.43,0"/>
  <path class="fil0 str0" d="M30398.3 7863.2c0,0 0,-49.21 0,-49.21"/>
  <path class="fil0 str0" d="M30398.3 7813.98c0,0 98.43,0 98.43,0"/>
  <path class="fil0 str0" d="M30496.72 7813.98c0,0 0,49.21 0,49.21"/>
  <path class="fil0 str0" d="M30496.72 7863.2c0,0 104.53,0 104.53,0"/>
  <path class="fil0 str0" d="M30776.25 7579.73c0,0 0,-452.76 0,-452.76"/>
  <path class="fil0 str0" d="M27503.83 12227.35c0,0 767.72,0 767.72,0"/>
  <path class="fil0 str0" d="M28271.55 12227.35c0,0 0,-236.22 0,-236.22"/>
  <path class="fil0 str0" d="M28271.55 12052.35c0,0 311.02,0 311.02,0"/>
  <path class="fil0 str0" d="M28582.57 12052.35c0,0 0,145.67 0,145.67"/>
  <path class="fil0 str0" d="M28582.57 12198.02c0,0 145.67,0 145.67,0"/>
  <path class="fil0 str0" d="M28728.24 12198.02c0,0 0,-145.67 0,-145.67"/>
  <path class="fil0 str0" d="M28728.24 12052.35c0,0 311.02,0 311.02,0"/>
  <path class="fil0 str0" d="M29039.26 11991.13c0,0 0,236.22 0,236.22"/>
  <path class="fil0 str0" d="M29039.26 12227.35c0,0 472.44,0 472.44,0"/>
  <path class="fil0 str0" d="M29511.7 12227.35c0,0 0,-236.22 0,-236.22"/>
  <path class="fil0 str0" d="M29511.7 12052.35c0,0 311.02,0 311.02,0"/>
  <path class="fil0 str0" d="M29822.73 12052.35c0,0 0,145.67 0,145.67"/>
  <path class="fil0 str0" d="M29822.73 12198.02c0,0 145.67,0 145.67,0"/>
  <path class="fil0 str0" d="M29968.4 12198.02c0,0 0,-145.67 0,-145.67"/>
  <path class="fil0 str0" d="M29968.4 12052.35c0,0 311.02,0 311.02,0"/>
  <path class="fil0 str0" d="M30279.42 11991.13c0,0 0,236.22 0,236.22"/>
  <path class="fil0 str0" d="M30279.42 12227.35c0,0 767.72,0 767.72,0"/>
  <path class="fil0 str0" d="M31047.14 12680.11c0,0 -236.22,0 -236.22,0"/>
  <path class="fil0 str0" d="M30810.92 12680.11c0,0 0,283.46 0,283.46"/>
  <path class="fil0 str0" d="M30810.92 13085.62c0,0 0,283.46 0,283.46"/>
  <path class="fil0 str0" d="M30810.92 13369.09c0,0 236.22,0 236.22,0"/>
  <path class="fil0 str0" d="M31047.14 13841.53c0,0 -236.22,0 -236.22,0"/>
  <path class="fil0 str0" d="M30810.92 13841.53c0,0 0,472.44 0,472.44"/>
  <path class="fil0 str0" d="M30810.92 14313.97c0,0 236.22,0 236.22,0"/>
  <path class="fil0 str0" d="M31047.14 14786.41c0,0 -236.22,0 -236.22,0"/>
  <path class="fil0 str0" d="M30810.92 14786.41c0,0 0,472.44 0,472.44"/>
  <path class="fil0 str0" d="M30810.92 15258.85c0,0 236.22,0 236.22,0"/>
  <path class="fil0 str0" d="M31047.14 15731.29c0,0 -236.22,0 -236.22,0"/>
  <path class="fil0 str0" d="M30810.92 15731.29c0,0 0,283.46 0,283.46"/>
  <path class="fil0 str0" d="M30810.92 16136.8c0,0 0,283.46 0,283.46"/>
  <path class="fil0 str0" d="M30810.92 16420.27c0,0 236.22,0 236.22,0"/>
  <path class="fil0 str0" d="M31047.14 16873.02c0,0 -767.72,0 -767.72,0"/>
  <path class="fil0 str0" d="M29511.7 16873.02c0,0 -472.44,0 -472.44,0"/>
  <path class="fil0 str0" d="M28271.55 16873.02c0,0 -767.72,0 -767.72,0"/>
  <path class="fil0 str0" d="M27565.05 16873.02c0,0 0,-452.76 0,-452.76"/>
  <path class="fil0 str0" d="M27503.83 16420.27c0,0 236.22,0 236.22,0"/>
  <path class="fil0 str0" d="M27740.05 16420.27c0,0 0,-283.46 0,-283.46"/>
  <path class="fil0 str0" d="M27740.05 16136.8c0,0 104.53,0 104.53,0"/>
  <path class="fil0 str0" d="M27844.58 16136.8c0,0 0,49.21 0,49.21"/>
  <path class="fil0 str0" d="M27844.58 16186.02c0,0 98.43,0 98.43,0"/>
  <path class="fil0 str0" d="M27943 16186.02c0,0 0,-49.21 0,-49.21"/>
  <path class="fil0 str0" d="M27943 16136.8c0,0 98.43,0 98.43,0"/>
  <path class="fil0 str0" d="M28041.43 16136.8c0,0 0,-122.05 0,-122.05"/>
  <path class="fil0 str0" d="M28041.43 16014.76c0,0 -98.43,0 -98.43,0"/>
  <path class="fil0 str0" d="M27943 16014.76c0,0 0,-49.21 0,-49.21"/>
  <path class="fil0 str0" d="M27943 15965.54c0,0 -98.43,0 -98.43,0"/>
  <path class="fil0 str0" d="M27844.58 15965.54c0,0 0,49.21 0,49.21"/>
  <path class="fil0 str0" d="M27844.58 16014.76c0,0 -104.53,0 -104.53,0"/>
  <path class="fil0 str0" d="M27740.05 16014.76c0,0 0,-283.46 0,-283.46"/>
  <path class="fil0 str0" d="M27740.05 15731.29c0,0 -236.22,0 -236.22,0"/>
  <path class="fil0 str0" d="M27565.05 15731.29c0,0 0,-472.44 0,-472.44"/>
  <path class="fil0 str0" d="M27503.83 15258.85c0,0 236.22,0 236.22,0"/>
  <path class="fil0 str0" d="M27740.05 15258.85c0,0 0,-472.44 0,-472.44"/>
  <path class="fil0 str0" d="M27740.05 14786.41c0,0 -236.22,0 -236.22,0"/>
  <path class="fil0 str0" d="M27565.05 14786.41c0,0 0,-472.44 0,-472.44"/>
  <path class="fil0 str0" d="M27503.83 14313.97c0,0 236.22,0 236.22,0"/>
  <path class="fil0 str0" d="M27740.05 14313.97c0,0 0,-472.44 0,-472.44"/>
  <path class="fil0 str0" d="M27740.05 13841.53c0,0 -236.22,0 -236.22,0"/>
  <path class="fil0 str0" d="M27565.05 13841.53c0,0 0,-472.44 0,-472.44"/>
  <path class="fil0 str0" d="M27503.83 13369.09c0,0 236.22,0 236.22,0"/>
  <path class="fil0 str0" d="M27740.05 13369.09c0,0 0,-283.46 0,-283.46"/>
  <path class="fil0 str0" d="M27740.05 13085.62c0,0 104.53,0 104.53,0"/>
  <path class="fil0 str0" d="M27844.58 13085.62c0,0 0,49.21 0,49.21"/>
  <path class="fil0 str0" d="M27844.58 13134.83c0,0 98.43,0 98.43,0"/>
  <path class="fil0 str0" d="M27943 13134.83c0,0 0,-49.21 0,-49.21"/>
  <path class="fil0 str0" d="M27943 13085.62c0,0 98.43,0 98.43,0"/>
  <path class="fil0 str0" d="M28041.43 13085.62c0,0 0,-122.05 0,-122.05"/>
  <path class="fil0 str0" d="M28041.43 12963.57c0,0 -98.43,0 -98.43,0"/>
  <path class="fil0 str0" d="M27943 12963.57c0,0 0,-49.21 0,-49.21"/>
  <path class="fil0 str0" d="M27943 12914.36c0,0 -98.43,0 -98.43,0"/>
  <path class="fil0 str0" d="M27844.58 12914.36c0,0 0,49.21 0,49.21"/>
  <path class="fil0 str0" d="M27844.58 12963.57c0,0 -104.53,0 -104.53,0"/>
  <path class="fil0 str0" d="M27740.05 12963.57c0,0 0,-283.46 0,-283.46"/>
  <path class="fil0 str0" d="M27740.05 12680.11c0,0 -236.22,0 -236.22,0"/>
  <path class="fil0 str0" d="M27565.05 12680.11c0,0 0,-452.76 0,-452.76"/>
  <line class="fil0 str0" x1="27740.05" y1="12680.11" x2="27565.05" y2= "12680.11" />
  <path class="fil0 str0" d="M28271.55 16873.02c0,0 0,236.22 0,236.22"/>
  <path class="fil0 str0" d="M28271.55 17048.02c0,0 311.02,0 311.02,0"/>
  <path class="fil0 str0" d="M28582.57 17048.02c0,0 0,-145.67 0,-145.67"/>
  <path class="fil0 str0" d="M28582.57 16902.35c0,0 145.67,0 145.67,0"/>
  <path class="fil0 str0" d="M28728.24 16902.35c0,0 0,145.67 0,145.67"/>
  <path class="fil0 str0" d="M28728.24 17048.02c0,0 311.02,0 311.02,0"/>
  <path class="fil0 str0" d="M29039.26 17109.24c0,0 0,-236.22 0,-236.22"/>
  <path class="fil0 str0" d="M29039.26 16873.02c0,0 472.44,0 472.44,0"/>
  <path class="fil0 str0" d="M29511.7 16873.02c0,0 0,236.22 0,236.22"/>
  <path class="fil0 str0" d="M29511.7 17048.02c0,0 311.02,0 311.02,0"/>
  <path class="fil0 str0" d="M29822.73 17048.02c0,0 0,-145.67 0,-145.67"/>
  <path class="fil0 str0" d="M29822.73 16902.35c0,0 145.67,0 145.67,0"/>
  <path class="fil0 str0" d="M29968.4 16902.35c0,0 0,145.67 0,145.67"/>
  <path class="fil0 str0" d="M29968.4 17048.02c0,0 311.02,0 311.02,0"/>
  <path class="fil0 str0" d="M30279.42 17109.24c0,0 0,-236.22 0,-236.22"/>
  <path class="fil0 str0" d="M30985.92 16873.02c0,0 0,-452.76 0,-452.76"/>
  <path class="fil0 str0" d="M30810.92 16136.8c0,0 -104.53,0 -104.53,0"/>
  <path class="fil0 str0" d="M30706.39 16136.8c0,0 0,49.21 0,49.21"/>
  <path class="fil0 str0" d="M30706.39 16186.02c0,0 -98.43,0 -98.43,0"/>
  <path class="fil0 str0" d="M30607.96 16186.02c0,0 0,-49.21 0,-49.21"/>
  <path class="fil0 str0" d="M30607.96 16136.8c0,0 -98.43,0 -98.43,0"/>
  <path class="fil0 str0" d="M30509.54 16136.8c0,0 0,-122.05 0,-122.05"/>
  <path class="fil0 str0" d="M30509.54 16014.76c0,0 98.43,0 98.43,0"/>
  <path class="fil0 str0" d="M30607.96 16014.76c0,0 0,-49.21 0,-49.21"/>
  <path class="fil0 str0" d="M30607.96 15965.54c0,0 98.43,0 98.43,0"/>
  <path class="fil0 str0" d="M30706.39 15965.54c0,0 0,49.21 0,49.21"/>
  <path class="fil0 str0" d="M30706.39 16014.76c0,0 104.53,0 104.53,0"/>
  <path class="fil0 str0" d="M30985.92 15731.29c0,0 0,-472.44 0,-472.44"/>
  <path class="fil0 str0" d="M30985.92 14786.41c0,0 0,-472.44 0,-472.44"/>
  <path class="fil0 str0" d="M30985.92 13841.53c0,0 0,-472.44 0,-472.44"/>
  <path class="fil0 str0" d="M30810.92 13085.62c0,0 -104.53,0 -104.53,0"/>
  <path class="fil0 str0" d="M30706.39 13085.62c0,0 0,49.21 0,49.21"/>
  <path class="fil0 str0" d="M30706.39 13134.83c0,0 -98.43,0 -98.43,0"/>
  <path class="fil0 str0" d="M30607.96 13134.83c0,0 0,-49.21 0,-49.21"/>
  <path class="fil0 str0" d="M30607.96 13085.62c0,0 -98.43,0 -98.43,0"/>
  <path class="fil0 str0" d="M30509.54 13085.62c0,0 0,-122.05 0,-122.05"/>
  <path class="fil0 str0" d="M30509.54 12963.57c0,0 98.43,0 98.43,0"/>
  <path class="fil0 str0" d="M30607.96 12963.57c0,0 0,-49.21 0,-49.21"/>
  <path class="fil0 str0" d="M30607.96 12914.36c0,0 98.43,0 98.43,0"/>
  <path class="fil0 str0" d="M30706.39 12914.36c0,0 0,49.21 0,49.21"/>
  <path class="fil0 str0" d="M30706.39 12963.57c0,0 104.53,0 104.53,0"/>
  <path class="fil0 str0" d="M30985.92 12680.11c0,0 0,-452.76 0,-452.76"/>
  <path class="fil0 str0" d="M16302.96 12695.26c0,0 0,531.5 0,531.5"/>
  <path class="fil0 str0" d="M16241.74 13226.76c0,0 236.22,0 236.22,0"/>
  <path class="fil0 str0" d="M16477.96 13226.76c0,0 0,322.83 0,322.83"/>
  <path class="fil0 str0" d="M16477.96 13549.59c0,0 104.53,0 104.53,0"/>
  <path class="fil0 str0" d="M16582.48 13549.59c0,0 0,-49.21 0,-49.21"/>
  <path class="fil0 str0" d="M16582.48 13500.38c0,0 98.43,0 98.43,0"/>
  <path class="fil0 str0" d="M16680.91 13500.38c0,0 0,49.21 0,49.21"/>
  <path class="fil0 str0" d="M16680.91 13549.59c0,0 98.43,0 98.43,0"/>
  <path class="fil0 str0" d="M16779.33 13549.59c0,0 0,122.05 0,122.05"/>
  <path class="fil0 str0" d="M16779.33 13671.64c0,0 -98.43,0 -98.43,0"/>
  <path class="fil0 str0" d="M16680.91 13671.64c0,0 0,49.21 0,49.21"/>
  <path class="fil0 str0" d="M16680.91 13720.85c0,0 -98.43,0 -98.43,0"/>
  <path class="fil0 str0" d="M16582.48 13720.85c0,0 0,-49.21 0,-49.21"/>
  <path class="fil0 str0" d="M16582.48 13671.64c0,0 -104.53,0 -104.53,0"/>
  <path class="fil0 str0" d="M16477.96 13671.64c0,0 0,322.83 0,322.83"/>
  <path class="fil0 str0" d="M16477.96 13994.48c0,0 -236.22,0 -236.22,0"/>
  <path class="fil0 str0" d="M16302.96 13994.48c0,0 0,472.44 0,472.44"/>
  <path class="fil0 str0" d="M16241.74 14466.92c0,0 236.22,0 236.22,0"/>
  <path class="fil0 str0" d="M16477.96 14466.92c0,0 0,322.83 0,322.83"/>
  <path class="fil0 str0" d="M16477.96 14789.75c0,0 104.53,0 104.53,0"/>
  <path class="fil0 str0" d="M16582.48 14789.75c0,0 0,-49.21 0,-49.21"/>
  <path class="fil0 str0" d="M16582.48 14740.54c0,0 98.43,0 98.43,0"/>
  <path class="fil0 str0" d="M16680.91 14740.54c0,0 0,49.21 0,49.21"/>
  <path class="fil0 str0" d="M16680.91 14789.75c0,0 98.43,0 98.43,0"/>
  <path class="fil0 str0" d="M16779.33 14789.75c0,0 0,122.05 0,122.05"/>
  <path class="fil0 str0" d="M16779.33 14911.8c0,0 -98.43,0 -98.43,0"/>
  <path class="fil0 str0" d="M16680.91 14911.8c0,0 0,49.21 0,49.21"/>
  <path class="fil0 str0" d="M16680.91 14961.01c0,0 -98.43,0 -98.43,0"/>
  <path class="fil0 str0" d="M16582.48 14961.01c0,0 0,-49.21 0,-49.21"/>
  <path class="fil0 str0" d="M16582.48 14911.8c0,0 -104.53,0 -104.53,0"/>
  <path class="fil0 str0" d="M16477.96 14911.8c0,0 0,322.83 0,322.83"/>
  <path class="fil0 str0" d="M16477.96 15234.63c0,0 -236.22,0 -236.22,0"/>
  <path class="fil0 str0" d="M16302.96 15234.63c0,0 0,531.5 0,531.5"/>
  <path class="fil0 str0" d="M16989.77 15766.13c0,0 0,236.22 0,236.22"/>
  <path class="fil0 str0" d="M16989.77 15941.13c0,0 301.18,0 301.18,0"/>
  <path class="fil0 str0" d="M17290.95 15941.13c0,0 0,-145.67 0,-145.67"/>
  <path class="fil0 str0" d="M17290.95 15795.46c0,0 145.67,0 145.67,0"/>
  <path class="fil0 str0" d="M17436.62 15795.46c0,0 0,145.67 0,145.67"/>
  <path class="fil0 str0" d="M17436.62 15941.13c0,0 301.18,0 301.18,0"/>
  <path class="fil0 str0" d="M17737.8 16002.35c0,0 0,-236.22 0,-236.22"/>
  <path class="fil0 str0" d="M17737.8 15766.13c0,0 472.44,0 472.44,0"/>
  <path class="fil0 str0" d="M18210.24 15766.13c0,0 0,236.22 0,236.22"/>
  <path class="fil0 str0" d="M18210.24 15941.13c0,0 472.44,0 472.44,0"/>
  <path class="fil0 str0" d="M18682.68 16002.35c0,0 0,-236.22 0,-236.22"/>
  <path class="fil0 str0" d="M18682.68 15766.13c0,0 472.44,0 472.44,0"/>
  <path class="fil0 str0" d="M19155.12 15766.13c0,0 0,236.22 0,236.22"/>
  <path class="fil0 str0" d="M19155.12 15941.13c0,0 472.44,0 472.44,0"/>
  <path class="fil0 str0" d="M19627.56 16002.35c0,0 0,-236.22 0,-236.22"/>
  <path class="fil0 str0" d="M19627.56 15766.13c0,0 472.44,0 472.44,0"/>
  <path class="fil0 str0" d="M20100 15766.13c0,0 0,236.22 0,236.22"/>
  <path class="fil0 str0" d="M20100 15941.13c0,0 472.44,0 472.44,0"/>
  <path class="fil0 str0" d="M20572.44 16002.35c0,0 0,-236.22 0,-236.22"/>
  <path class="fil0 str0" d="M20572.44 15766.13c0,0 472.44,0 472.44,0"/>
  <path class="fil0 str0" d="M21044.89 15766.13c0,0 0,236.22 0,236.22"/>
  <path class="fil0 str0" d="M21044.89 15941.13c0,0 472.44,0 472.44,0"/>
  <path class="fil0 str0" d="M21517.33 16002.35c0,0 0,-236.22 0,-236.22"/>
  <path class="fil0 str0" d="M21517.33 15766.13c0,0 472.44,0 472.44,0"/>
  <path class="fil0 str0" d="M21989.77 15766.13c0,0 0,236.22 0,236.22"/>
  <path class="fil0 str0" d="M21989.77 15941.13c0,0 472.44,0 472.44,0"/>
  <path class="fil0 str0" d="M22462.21 16002.35c0,0 0,-236.22 0,-236.22"/>
  <path class="fil0 str0" d="M22462.21 15766.13c0,0 472.44,0 472.44,0"/>
  <path class="fil0 str0" d="M22934.65 15766.13c0,0 0,236.22 0,236.22"/>
  <path class="fil0 str0" d="M22934.65 15941.13c0,0 472.44,0 472.44,0"/>
  <path class="fil0 str0" d="M23407.09 16002.35c0,0 0,-236.22 0,-236.22"/>
  <path class="fil0 str0" d="M23407.09 15766.13c0,0 472.44,0 472.44,0"/>
  <path class="fil0 str0" d="M23879.53 15766.13c0,0 0,236.22 0,236.22"/>
  <path class="fil0 str0" d="M23879.53 15941.13c0,0 472.44,0 472.44,0"/>
  <path class="fil0 str0" d="M24351.97 16002.35c0,0 0,-236.22 0,-236.22"/>
  <path class="fil0 str0" d="M24351.97 15766.13c0,0 472.44,0 472.44,0"/>
  <path class="fil0 str0" d="M24824.41 15766.13c0,0 0,236.22 0,236.22"/>
  <path class="fil0 str0" d="M24824.41 15941.13c0,0 472.44,0 472.44,0"/>
  <path class="fil0 str0" d="M25296.85 16002.35c0,0 0,-236.22 0,-236.22"/>
  <path class="fil0 str0" d="M25296.85 15766.13c0,0 472.44,0 472.44,0"/>
  <path class="fil0 str0" d="M25769.3 15766.13c0,0 0,236.22 0,236.22"/>
  <path class="fil0 str0" d="M25769.3 15941.13c0,0 301.18,0 301.18,0"/>
  <path class="fil0 str0" d="M26070.48 15941.13c0,0 0,-145.67 0,-145.67"/>
  <path class="fil0 str0" d="M26070.48 15795.46c0,0 145.67,0 145.67,0"/>
  <path class="fil0 str0" d="M26216.15 15795.46c0,0 0,145.67 0,145.67"/>
  <path class="fil0 str0" d="M26216.15 15941.13c0,0 301.18,0 301.18,0"/>
  <path class="fil0 str0" d="M26517.33 16002.35c0,0 0,-236.22 0,-236.22"/>
  <path class="fil0 str0" d="M4952.86 12695.26c0,0 748.03,0 748.03,0"/>
  <path class="fil0 str0" d="M5700.89 12695.26c0,0 0,-236.22 0,-236.22"/>
  <path class="fil0 str0" d="M5700.89 12520.26c0,0 301.18,0 301.18,0"/>
  <path class="fil0 str0" d="M6002.07 12520.26c0,0 0,145.67 0,145.67"/>
  <path class="fil0 str0" d="M6002.07 12665.93c0,0 145.67,0 145.67,0"/>
  <path class="fil0 str0" d="M6147.74 12665.93c0,0 0,-145.67 0,-145.67"/>
  <path class="fil0 str0" d="M6147.74 12520.26c0,0 301.18,0 301.18,0"/>
  <path class="fil0 str0" d="M6448.93 12459.04c0,0 0,236.22 0,236.22"/>
  <path class="fil0 str0" d="M6448.93 12695.26c0,0 472.44,0 472.44,0"/>
  <path class="fil0 str0" d="M6921.37 12695.26c0,0 0,-236.22 0,-236.22"/>
  <path class="fil0 str0" d="M6921.37 12520.26c0,0 472.44,0 472.44,0"/>
  <path class="fil0 str0" d="M7393.81 12459.04c0,0 0,236.22 0,236.22"/>
  <path class="fil0 str0" d="M7393.81 12695.26c0,0 472.44,0 472.44,0"/>
  <path class="fil0 str0" d="M7866.25 12695.26c0,0 0,-236.22 0,-236.22"/>
  <path class="fil0 str0" d="M7866.25 12520.26c0,0 472.44,0 472.44,0"/>
  <path class="fil0 str0" d="M8338.69 12459.04c0,0 0,236.22 0,236.22"/>
  <path class="fil0 str0" d="M8338.69 12695.26c0,0 472.44,0 472.44,0"/>
  <path class="fil0 str0" d="M8811.13 12695.26c0,0 0,-236.22 0,-236.22"/>
  <path class="fil0 str0" d="M8811.13 12520.26c0,0 472.44,0 472.44,0"/>
  <path class="fil0 str0" d="M9283.57 12459.04c0,0 0,236.22 0,236.22"/>
  <path class="fil0 str0" d="M9283.57 12695.26c0,0 472.44,0 472.44,0"/>
  <path class="fil0 str0" d="M9756.01 12695.26c0,0 0,-236.22 0,-236.22"/>
  <path class="fil0 str0" d="M9756.01 12520.26c0,0 472.44,0 472.44,0"/>
  <path class="fil0 str0" d="M10228.45 12459.04c0,0 0,236.22 0,236.22"/>
  <path class="fil0 str0" d="M10228.45 12695.26c0,0 472.44,0 472.44,0"/>
  <path class="fil0 str0" d="M10700.89 12695.26c0,0 0,-236.22 0,-236.22"/>
  <path class="fil0 str0" d="M10700.89 12520.26c0,0 472.44,0 472.44,0"/>
  <path class="fil0 str0" d="M11173.33 12459.04c0,0 0,236.22 0,236.22"/>
  <path class="fil0 str0" d="M11173.33 12695.26c0,0 472.44,0 472.44,0"/>
  <path class="fil0 str0" d="M11645.78 12695.26c0,0 0,-236.22 0,-236.22"/>
  <path class="fil0 str0" d="M11645.78 12520.26c0,0 472.44,0 472.44,0"/>
  <path class="fil0 str0" d="M12118.22 12459.04c0,0 0,236.22 0,236.22"/>
  <path class="fil0 str0" d="M12118.22 12695.26c0,0 472.44,0 472.44,0"/>
  <path class="fil0 str0" d="M12590.66 12695.26c0,0 0,-236.22 0,-236.22"/>
  <path class="fil0 str0" d="M12590.66 12520.26c0,0 472.44,0 472.44,0"/>
  <path class="fil0 str0" d="M13063.1 12459.04c0,0 0,236.22 0,236.22"/>
  <path class="fil0 str0" d="M13063.1 12695.26c0,0 472.44,0 472.44,0"/>
  <path class="fil0 str0" d="M13535.54 12695.26c0,0 0,-236.22 0,-236.22"/>
  <path class="fil0 str0" d="M13535.54 12520.26c0,0 472.44,0 472.44,0"/>
  <path class="fil0 str0" d="M14007.98 12459.04c0,0 0,236.22 0,236.22"/>
  <path class="fil0 str0" d="M14007.98 12695.26c0,0 472.44,0 472.44,0"/>
  <path class="fil0 str0" d="M14480.42 12695.26c0,0 0,-236.22 0,-236.22"/>
  <path class="fil0 str0" d="M14480.42 12520.26c0,0 301.18,0 301.18,0"/>
  <path class="fil0 str0" d="M14781.6 12520.26c0,0 0,145.67 0,145.67"/>
  <path class="fil0 str0" d="M14781.6 12665.93c0,0 145.67,0 145.67,0"/>
  <path class="fil0 str0" d="M14927.27 12665.93c0,0 0,-145.67 0,-145.67"/>
  <path class="fil0 str0" d="M14927.27 12520.26c0,0 301.18,0 301.18,0"/>
  <path class="fil0 str0" d="M15228.45 12459.04c0,0 0,236.22 0,236.22"/>
  <path class="fil0 str0" d="M15228.45 12695.26c0,0 748.03,0 748.03,0"/>
  <path class="fil0 str0" d="M15915.26 12695.26c0,0 0,531.5 0,531.5"/>
  <path class="fil0 str0" d="M15976.48 13226.76c0,0 -236.22,0 -236.22,0"/>
  <path class="fil0 str0" d="M15740.26 13226.76c0,0 0,322.83 0,322.83"/>
  <path class="fil0 str0" d="M15740.26 13549.59c0,0 -104.53,0 -104.53,0"/>
  <path class="fil0 str0" d="M15635.74 13549.59c0,0 0,-49.21 0,-49.21"/>
  <path class="fil0 str0" d="M15635.74 13500.38c0,0 -98.43,0 -98.43,0"/>
  <path class="fil0 str0" d="M15537.31 13500.38c0,0 0,49.21 0,49.21"/>
  <path class="fil0 str0" d="M15537.31 13549.59c0,0 -98.43,0 -98.43,0"/>
  <path class="fil0 str0" d="M15438.89 13549.59c0,0 0,122.05 0,122.05"/>
  <path class="fil0 str0" d="M15438.89 13671.64c0,0 98.43,0 98.43,0"/>
  <path class="fil0 str0" d="M15537.31 13671.64c0,0 0,49.21 0,49.21"/>
  <path class="fil0 str0" d="M15537.31 13720.85c0,0 98.43,0 98.43,0"/>
  <path class="fil0 str0" d="M15635.74 13720.85c0,0 0,-49.21 0,-49.21"/>
  <path class="fil0 str0" d="M15635.74 13671.64c0,0 104.53,0 104.53,0"/>
  <path class="fil0 str0" d="M15740.26 13671.64c0,0 0,322.83 0,322.83"/>
  <path class="fil0 str0" d="M15740.26 13994.48c0,0 236.22,0 236.22,0"/>
  <path class="fil0 str0" d="M15915.26 13994.48c0,0 0,472.44 0,472.44"/>
  <path class="fil0 str0" d="M15976.48 14466.92c0,0 -236.22,0 -236.22,0"/>
  <path class="fil0 str0" d="M15740.26 14466.92c0,0 0,322.83 0,322.83"/>
  <path class="fil0 str0" d="M15740.26 14789.75c0,0 -104.53,0 -104.53,0"/>
  <path class="fil0 str0" d="M15635.74 14789.75c0,0 0,-49.21 0,-49.21"/>
  <path class="fil0 str0" d="M15635.74 14740.54c0,0 -98.43,0 -98.43,0"/>
  <path class="fil0 str0" d="M15537.31 14740.54c0,0 0,49.21 0,49.21"/>
  <path class="fil0 str0" d="M15537.31 14789.75c0,0 -98.43,0 -98.43,0"/>
  <path class="fil0 str0" d="M15438.89 14789.75c0,0 0,122.05 0,122.05"/>
  <path class="fil0 str0" d="M15438.89 14911.8c0,0 98.43,0 98.43,0"/>
  <path class="fil0 str0" d="M15537.31 14911.8c0,0 0,49.21 0,49.21"/>
  <path class="fil0 str0" d="M15537.31 14961.01c0,0 98.43,0 98.43,0"/>
  <path class="fil0 str0" d="M15635.74 14961.01c0,0 0,-49.21 0,-49.21"/>
  <path class="fil0 str0" d="M15635.74 14911.8c0,0 104.53,0 104.53,0"/>
  <path class="fil0 str0" d="M15740.26 14911.8c0,0 0,322.83 0,322.83"/>
  <path class="fil0 str0" d="M15740.26 15234.63c0,0 236.22,0 236.22,0"/>
  <path class="fil0 str0" d="M15915.26 15234.63c0,0 0,531.5 0,531.5"/>
  <path class="fil0 str0" d="M15976.48 15766.13c0,0 -748.03,0 -748.03,0"/>
  <path class="fil0 str0" d="M5700.89 15766.13c0,0 -748.03,0 -748.03,0"/>
  <path class="fil0 str0" d="M5014.08 12695.26c0,0 0,531.5 0,531.5"/>
  <path class="fil0 str0" d="M4952.86 13226.76c0,0 236.22,0 236.22,0"/>
  <path class="fil0 str0" d="M5189.08 13226.76c0,0 0,322.83 0,322.83"/>
  <path class="fil0 str0" d="M5189.08 13549.59c0,0 104.53,0 104.53,0"/>
  <path class="fil0 str0" d="M5293.61 13549.59c0,0 0,-49.21 0,-49.21"/>
  <path class="fil0 str0" d="M5293.61 13500.38c0,0 98.43,0 98.43,0"/>
  <path class="fil0 str0" d="M5392.04 13500.38c0,0 0,49.21 0,49.21"/>
  <path class="fil0 str0" d="M5392.04 13549.59c0,0 98.43,0 98.43,0"/>
  <path class="fil0 str0" d="M5490.46 13549.59c0,0 0,122.05 0,122.05"/>
  <path class="fil0 str0" d="M5490.46 13671.64c0,0 -98.43,0 -98.43,0"/>
  <path class="fil0 str0" d="M5392.04 13671.64c0,0 0,49.21 0,49.21"/>
  <path class="fil0 str0" d="M5392.04 13720.85c0,0 -98.43,0 -98.43,0"/>
  <path class="fil0 str0" d="M5293.61 13720.85c0,0 0,-49.21 0,-49.21"/>
  <path class="fil0 str0" d="M5293.61 13671.64c0,0 -104.53,0 -104.53,0"/>
  <path class="fil0 str0" d="M5189.08 13671.64c0,0 0,322.83 0,322.83"/>
  <path class="fil0 str0" d="M5189.08 13994.48c0,0 -236.22,0 -236.22,0"/>
  <path class="fil0 str0" d="M5014.08 13994.48c0,0 0,472.44 0,472.44"/>
  <path class="fil0 str0" d="M4952.86 14466.92c0,0 236.22,0 236.22,0"/>
  <path class="fil0 str0" d="M5189.08 14466.92c0,0 0,322.83 0,322.83"/>
  <path class="fil0 str0" d="M5189.08 14789.75c0,0 104.53,0 104.53,0"/>
  <path class="fil0 str0" d="M5293.61 14789.75c0,0 0,-49.21 0,-49.21"/>
  <path class="fil0 str0" d="M5293.61 14740.54c0,0 98.43,0 98.43,0"/>
  <path class="fil0 str0" d="M5392.04 14740.54c0,0 0,49.21 0,49.21"/>
  <path class="fil0 str0" d="M5392.04 14789.75c0,0 98.43,0 98.43,0"/>
  <path class="fil0 str0" d="M5490.46 14789.75c0,0 0,122.05 0,122.05"/>
  <path class="fil0 str0" d="M5490.46 14911.8c0,0 -98.43,0 -98.43,0"/>
  <path class="fil0 str0" d="M5392.04 14911.8c0,0 0,49.21 0,49.21"/>
  <path class="fil0 str0" d="M5392.04 14961.01c0,0 -98.43,0 -98.43,0"/>
  <path class="fil0 str0" d="M5293.61 14961.01c0,0 0,-49.21 0,-49.21"/>
  <path class="fil0 str0" d="M5293.61 14911.8c0,0 -104.53,0 -104.53,0"/>
  <path class="fil0 str0" d="M5189.08 14911.8c0,0 0,322.83 0,322.83"/>
  <path class="fil0 str0" d="M5189.08 15234.63c0,0 -236.22,0 -236.22,0"/>
  <path class="fil0 str0" d="M5014.08 15234.63c0,0 0,531.5 0,531.5"/>
  <path class="fil0 str0" d="M5700.89 15766.13c0,0 0,236.22 0,236.22"/>
  <path class="fil0 str0" d="M5700.89 15941.13c0,0 301.18,0 301.18,0"/>
  <path class="fil0 str0" d="M6002.07 15941.13c0,0 0,-145.67 0,-145.67"/>
  <path class="fil0 str0" d="M6002.07 15795.46c0,0 145.67,0 145.67,0"/>
  <path class="fil0 str0" d="M6147.74 15795.46c0,0 0,145.67 0,145.67"/>
  <path class="fil0 str0" d="M6147.74 15941.13c0,0 301.18,0 301.18,0"/>
  <path class="fil0 str0" d="M6448.93 16002.35c0,0 0,-236.22 0,-236.22"/>
  <path class="fil0 str0" d="M6448.93 15766.13c0,0 472.44,0 472.44,0"/>
  <path class="fil0 str0" d="M6921.37 15766.13c0,0 0,236.22 0,236.22"/>
  <path class="fil0 str0" d="M6921.37 15941.13c0,0 472.44,0 472.44,0"/>
  <path class="fil0 str0" d="M7393.81 16002.35c0,0 0,-236.22 0,-236.22"/>
  <path class="fil0 str0" d="M7393.81 15766.13c0,0 472.44,0 472.44,0"/>
  <path class="fil0 str0" d="M7866.25 15766.13c0,0 0,236.22 0,236.22"/>
  <path class="fil0 str0" d="M7866.25 15941.13c0,0 472.44,0 472.44,0"/>
  <path class="fil0 str0" d="M8338.69 16002.35c0,0 0,-236.22 0,-236.22"/>
  <path class="fil0 str0" d="M8338.69 15766.13c0,0 472.44,0 472.44,0"/>
  <path class="fil0 str0" d="M8811.13 15766.13c0,0 0,236.22 0,236.22"/>
  <path class="fil0 str0" d="M8811.13 15941.13c0,0 472.44,0 472.44,0"/>
  <path class="fil0 str0" d="M9283.57 16002.35c0,0 0,-236.22 0,-236.22"/>
  <path class="fil0 str0" d="M9283.57 15766.13c0,0 472.44,0 472.44,0"/>
  <path class="fil0 str0" d="M9756.01 15766.13c0,0 0,236.22 0,236.22"/>
  <path class="fil0 str0" d="M9756.01 15941.13c0,0 472.44,0 472.44,0"/>
  <path class="fil0 str0" d="M10228.45 16002.35c0,0 0,-236.22 0,-236.22"/>
  <path class="fil0 str0" d="M10228.45 15766.13c0,0 472.44,0 472.44,0"/>
  <path class="fil0 str0" d="M10700.89 15766.13c0,0 0,236.22 0,236.22"/>
  <path class="fil0 str0" d="M10700.89 15941.13c0,0 472.44,0 472.44,0"/>
  <path class="fil0 str0" d="M11173.33 16002.35c0,0 0,-236.22 0,-236.22"/>
  <path class="fil0 str0" d="M11173.33 15766.13c0,0 472.44,0 472.44,0"/>
  <path class="fil0 str0" d="M11645.78 15766.13c0,0 0,236.22 0,236.22"/>
  <path class="fil0 str0" d="M11645.78 15941.13c0,0 472.44,0 472.44,0"/>
  <path class="fil0 str0" d="M12118.22 16002.35c0,0 0,-236.22 0,-236.22"/>
  <path class="fil0 str0" d="M12118.22 15766.13c0,0 472.44,0 472.44,0"/>
  <path class="fil0 str0" d="M12590.66 15766.13c0,0 0,236.22 0,236.22"/>
  <path class="fil0 str0" d="M12590.66 15941.13c0,0 472.44,0 472.44,0"/>
  <path class="fil0 str0" d="M13063.1 16002.35c0,0 0,-236.22 0,-236.22"/>
  <path class="fil0 str0" d="M13063.1 15766.13c0,0 472.44,0 472.44,0"/>
  <path class="fil0 str0" d="M13535.54 15766.13c0,0 0,236.22 0,236.22"/>
  <path class="fil0 str0" d="M13535.54 15941.13c0,0 472.44,0 472.44,0"/>
  <path class="fil0 str0" d="M14007.98 16002.35c0,0 0,-236.22 0,-236.22"/>
  <path class="fil0 str0" d="M14007.98 15766.13c0,0 472.44,0 472.44,0"/>
  <path class="fil0 str0" d="M14480.42 15766.13c0,0 0,236.22 0,236.22"/>
  <path class="fil0 str0" d="M14480.42 15941.13c0,0 301.18,0 301.18,0"/>
  <path class="fil0 str0" d="M14781.6 15941.13c0,0 0,-145.67 0,-145.67"/>
  <path class="fil0 str0" d="M14781.6 15795.46c0,0 145.67,0 145.67,0"/>
  <path class="fil0 str0" d="M14927.27 15795.46c0,0 0,145.67 0,145.67"/>
  <path class="fil0 str0" d="M14927.27 15941.13c0,0 301.18,0 301.18,0"/>
  <path class="fil0 str0" d="M15228.45 16002.35c0,0 0,-236.22 0,-236.22"/>
  <rect class="fil0 str1" x="6002.76" y="7831.23" width="2391.73" height="2037.4" rx="125" ry="125"/>
 </g>
</svg>
